<?xml version="1.0" standalone="no"?>
<!DOCTYPE svg PUBLIC "-//W3C//DTD SVG 20010904//EN"
 "http://www.w3.org/TR/2001/REC-SVG-20010904/DTD/svg10.dtd">
<svg version="1.0" xmlns="http://www.w3.org/2000/svg"
 width="602.000000pt" height="303.000000pt" viewBox="0 0 602.000000 303.000000"
 preserveAspectRatio="xMidYMid meet">

<g transform="translate(0.000000,303.000000) scale(0.100000,-0.100000)"
fill="#005260" stroke="none">
<path d="M2150 2985 c-13 -14 -40 -29 -59 -35 -22 -6 -325 -10 -798 -10 l-763
0 0 -205 0 -205 377 -2 378 -3 0 -680 0 -680 -23 -47 c-13 -27 -28 -48 -33
-48 -5 0 -9 -4 -9 -10 0 -7 184 -336 195 -348 2 -2 30 24 63 57 69 71 117 155
146 256 19 67 20 102 24 787 l3 716 263 4 262 3 79 39 c46 23 99 59 126 86 46
46 106 127 98 134 -53 43 -291 216 -297 216 -5 0 -19 -11 -32 -25z"/>
<path d="M70 2000 c0 -824 -2 -945 -15 -970 -9 -17 -20 -30 -26 -30 -6 0 -8
-8 -5 -17 12 -32 151 -272 157 -273 4 0 30 21 58 46 34 31 63 70 88 122 l38
76 3 993 2 993 -150 0 -150 0 0 -940z"/>
<path d="M3903 2253 c-30 -6 -81 -66 -110 -130 -26 -57 -71 -259 -98 -438 -9
-60 -18 -120 -21 -133 l-4 -22 -38 23 c-20 13 -52 29 -71 35 -47 16 -146 15
-179 -2 -58 -31 -112 -112 -112 -170 0 -19 -7 -27 -24 -32 -48 -12 -58 -3 -72
66 -36 174 -95 240 -218 240 -52 0 -56 -2 -89 -42 -61 -76 -71 -117 -42 -168
22 -38 18 -49 -20 -56 -58 -10 -77 -60 -84 -214 -6 -120 -7 -127 -36 -167 -17
-23 -53 -60 -80 -83 -64 -52 -92 -51 -119 5 -18 37 -20 63 -20 335 l-1 294
154 69 c85 37 161 73 168 79 25 20 15 48 -24 64 -51 22 -88 14 -203 -45 l-98
-49 -4 108 c-3 124 -9 134 -105 196 -59 39 -97 43 -113 14 -6 -11 -15 -101
-20 -201 -6 -100 -13 -186 -16 -191 -8 -13 -60 0 -116 28 -26 13 -54 24 -62
24 -20 0 -30 -35 -16 -59 14 -27 83 -67 141 -82 l46 -12 7 -101 c15 -223 50
-385 107 -499 42 -81 155 -128 256 -107 60 13 133 58 171 106 15 19 33 34 39
34 7 0 27 -16 45 -35 47 -53 89 -75 139 -75 120 0 249 177 249 340 0 56 8 70
40 70 4 0 11 -35 14 -77 17 -195 100 -327 221 -354 43 -10 61 -9 109 5 64 19
79 37 117 138 19 51 39 76 39 49 0 -21 103 -132 140 -151 48 -25 117 -26 150
-3 13 9 37 32 53 50 l29 33 55 -50 c100 -92 220 -91 271 2 37 65 38 66 56 23
10 -22 27 -51 39 -64 32 -34 115 -71 163 -71 43 0 142 43 151 66 2 7 16 20 30
29 23 16 26 15 58 -9 18 -14 57 -35 85 -46 46 -18 60 -19 105 -10 28 6 68 19
88 30 39 21 41 20 51 -26 8 -37 -2 -48 -59 -63 -133 -35 -319 -207 -361 -335
-33 -99 -6 -244 63 -334 53 -70 209 -110 329 -84 145 31 233 91 275 185 34 77
38 268 10 433 -12 67 -21 128 -21 136 0 8 28 27 62 44 86 40 200 116 260 172
58 54 129 150 158 213 37 82 21 201 -43 322 -56 107 -131 145 -188 97 l-24
-19 29 -1 c73 -1 132 -122 124 -255 -5 -82 -31 -138 -107 -232 -68 -84 -237
-213 -279 -213 -17 0 -22 45 -31 248 -9 219 -10 223 -96 271 -45 26 -66 31
-103 29 l-47 -3 1 -75 c1 -41 7 -129 14 -196 11 -111 11 -123 -5 -148 -22 -33
-84 -66 -125 -66 -27 0 -34 6 -51 45 -17 39 -20 65 -18 204 0 101 -3 167 -11
180 -12 24 -118 81 -149 81 -11 0 -25 -8 -30 -18 -6 -10 -13 -95 -16 -188 -3
-93 -8 -184 -11 -202 -6 -39 -58 -102 -84 -102 -43 0 -62 80 -41 173 9 37 8
39 -37 72 -50 36 -128 61 -165 51 -14 -3 -41 -37 -77 -97 -30 -50 -68 -102
-85 -116 l-29 -25 -17 21 c-22 27 -34 132 -24 208 9 70 42 163 58 163 7 0 25
-23 42 -51 32 -53 56 -66 96 -51 47 18 54 37 28 79 -82 136 -142 183 -230 183
-53 0 -120 -29 -143 -61 -36 -52 -59 -150 -62 -265 -2 -115 -12 -151 -52 -187
-52 -47 -88 9 -108 166 -8 61 -14 136 -14 165 0 51 2 55 63 120 34 36 72 78
85 91 94 101 140 295 113 471 -15 92 -37 139 -76 161 -31 18 -124 31 -162 22z
m144 -235 c3 -34 -1 -87 -12 -139 -22 -112 -100 -278 -120 -258 -2 2 5 80 16
172 18 167 37 237 76 279 23 25 33 11 40 -54z m-987 -455 c27 -28 40 -52 48
-90 15 -69 8 -87 -32 -79 -74 15 -146 97 -130 149 9 32 34 57 57 57 11 0 36
-17 57 -37z m531 -73 c10 -6 29 -30 41 -53 46 -86 22 -297 -44 -394 -79 -117
-123 -50 -122 182 1 140 16 209 57 253 23 24 39 27 68 12z m-523 -190 c41 -18
42 -20 42 -67 0 -59 -26 -118 -75 -172 -48 -53 -80 -55 -101 -6 -23 57 -12
179 23 248 16 32 31 32 111 -3z m2229 -617 c4 -16 7 -104 8 -198 0 -168 0
-171 -28 -217 -42 -72 -87 -101 -161 -106 -51 -3 -67 0 -96 20 -78 52 -89 141
-32 262 42 89 136 187 222 232 36 18 68 33 72 34 4 0 11 -12 15 -27z"/>
<path d="M3635 628 c-25 -13 -65 -49 -65 -58 0 -3 12 -13 28 -22 25 -15 29
-15 50 3 18 14 28 16 43 9 33 -18 21 -47 -57 -134 -66 -75 -74 -87 -64 -105
10 -19 20 -21 120 -21 l110 0 0 41 0 41 -55 -4 c-30 -3 -55 -3 -55 -2 0 2 20
22 45 45 77 71 82 157 11 200 -35 21 -81 24 -111 7z"/>
<path d="M3904 626 c-54 -24 -64 -49 -64 -162 0 -87 3 -105 21 -127 45 -58
153 -58 198 0 18 22 21 40 21 127 0 114 -10 139 -66 162 -41 17 -70 17 -110 0z
m85 -70 c8 -9 11 -44 9 -96 -2 -66 -7 -85 -20 -94 -13 -8 -23 -8 -35 0 -14 9
-19 28 -21 94 -3 85 5 110 38 110 10 0 23 -6 29 -14z"/>
<path d="M4185 625 c-16 -9 -38 -25 -48 -37 -18 -21 -18 -22 9 -36 24 -13 31
-12 57 3 28 17 30 17 50 -3 24 -25 21 -31 -72 -136 -63 -72 -65 -74 -55 -100
5 -13 25 -16 115 -16 l109 0 0 41 0 42 -57 -6 -56 -6 52 53 c57 58 73 104 51
155 -13 31 -62 61 -102 61 -12 0 -36 -7 -53 -15z"/>
<path d="M4452 623 c-48 -24 -62 -58 -62 -158 0 -102 16 -140 65 -161 45 -18
79 -18 122 3 47 22 63 63 63 158 0 95 -16 136 -63 158 -44 21 -83 21 -125 0z
m92 -69 c12 -11 16 -36 16 -94 0 -71 -2 -81 -21 -91 -16 -8 -28 -8 -45 0 -23
10 -24 16 -24 95 0 70 3 87 18 95 24 15 38 13 56 -5z"/>
</g>
</svg>
