<svg width="48" height="49" viewBox="0 0 48 49" fill="none" xmlns="http://www.w3.org/2000/svg">
<path d="M24 0.847656C10.745 0.847656 0 11.5927 0 24.8477C0 38.1027 10.745 48.8477 24 48.8477C37.255 48.8477 48 38.1027 48 24.8477C48 11.5927 37.255 0.847656 24 0.847656ZM33.7625 20.5077C33.7725 20.7127 33.775 20.9177 33.775 21.1177C33.775 27.3677 29.0225 34.5702 20.3275 34.5702C17.7582 34.5744 15.2424 33.8365 13.0825 32.4452C13.45 32.4902 13.8275 32.5077 14.21 32.5077C16.425 32.5077 18.4625 31.7552 20.08 30.4852C19.0943 30.4658 18.1392 30.1394 17.3478 29.5515C16.5564 28.9635 15.9681 28.1433 15.665 27.2052C16.3729 27.3398 17.1021 27.3116 17.7975 27.1227C16.7276 26.9063 15.7655 26.3266 15.0743 25.4818C14.383 24.637 14.0053 23.5792 14.005 22.4877V22.4302C14.6425 22.7827 15.3725 22.9977 16.1475 23.0227C15.1445 22.355 14.4345 21.3293 14.1626 20.1555C13.8908 18.9816 14.0776 17.7483 14.685 16.7077C15.8724 18.1677 17.3532 19.362 19.0314 20.2134C20.7097 21.0648 22.5481 21.5543 24.4275 21.6502C24.1886 20.6359 24.2914 19.5712 24.72 18.6214C25.1487 17.6717 25.8791 16.8901 26.7977 16.3983C27.7163 15.9065 28.7717 15.732 29.7997 15.9018C30.8278 16.0717 31.7709 16.5765 32.4825 17.3377C33.5404 17.1283 34.5549 16.7403 35.4825 16.1902C35.1299 17.2855 34.3917 18.2156 33.405 18.8077C34.3421 18.6948 35.2572 18.4429 36.12 18.0602C35.4862 19.0099 34.6878 19.8388 33.7625 20.5077Z" fill="white"/>
</svg>
