<svg width="48" height="49" viewBox="0 0 48 49" fill="none" xmlns="http://www.w3.org/2000/svg">
<path d="M28.0075 24.4302L22.3925 21.8102C21.9025 21.5827 21.5 21.8377 21.5 22.3802V27.3152C21.5 27.8577 21.9025 28.1127 22.3925 27.8852L28.005 25.2652C28.4975 25.0352 28.4975 24.6602 28.0075 24.4302ZM24 0.847656C10.745 0.847656 0 11.5927 0 24.8477C0 38.1027 10.745 48.8477 24 48.8477C37.255 48.8477 48 38.1027 48 24.8477C48 11.5927 37.255 0.847656 24 0.847656ZM24 34.5977C11.715 34.5977 11.5 33.4902 11.5 24.8477C11.5 16.2052 11.715 15.0977 24 15.0977C36.285 15.0977 36.5 16.2052 36.5 24.8477C36.5 33.4902 36.285 34.5977 24 34.5977Z" fill="white"/>
</svg>
