<?xml version="1.0" standalone="no"?>
<!DOCTYPE svg PUBLIC "-//W3C//DTD SVG 20010904//EN"
 "http://www.w3.org/TR/2001/REC-SVG-20010904/DTD/svg10.dtd">
<svg version="1.0" xmlns="http://www.w3.org/2000/svg"
 width="500.000000pt" height="267.000000pt" viewBox="0 0 500.000000 267.000000"
 preserveAspectRatio="xMidYMid meet">

<g transform="translate(0.000000,267.000000) scale(0.100000,-0.100000)"
fill="#ffffff" stroke="none">
<path d="M1892 2593 c-47 -81 -62 -110 -62 -117 0 -3 11 -6 25 -6 l25 0 0
-257 c0 -142 -3 -301 -6 -355 l-7 -96 -46 19 c-25 11 -52 27 -58 36 -9 11 -13
55 -13 132 0 113 1 117 31 161 23 35 29 52 24 75 -20 103 -172 110 -191 9 -6
-31 -2 -47 20 -85 25 -45 26 -54 26 -186 0 -161 -9 -143 115 -218 89 -53 95
-59 95 -97 0 -19 -14 -41 -50 -76 -48 -47 -50 -52 -50 -103 0 -92 56 -149 147
-149 135 0 194 181 84 259 l-32 23 3 125 3 126 89 47 c48 26 95 55 105 64 13
14 17 46 21 182 4 144 7 167 23 175 14 8 17 24 17 79 l0 70 -79 0 -79 0 -4
-62 c-2 -48 1 -67 15 -84 15 -20 17 -41 15 -166 l-3 -143 -64 -34 -64 -34 6
48 c4 26 7 153 7 281 l0 234 31 0 c29 0 31 2 24 27 -7 31 -86 163 -97 163 -4
0 -25 -30 -46 -67z"/>
<path d="M634 2520 c-11 -4 -34 -24 -52 -44 -77 -88 -11 -206 115 -206 46 0
58 4 89 33 69 63 53 172 -30 211 -36 17 -88 20 -122 6z"/>
<path d="M924 2290 c-11 -4 -33 -22 -47 -40 -37 -44 -132 -205 -153 -260 -9
-25 -22 -51 -27 -57 -13 -18 -87 -17 -87 1 0 8 16 55 35 105 19 49 35 106 35
124 0 80 -81 138 -161 117 -60 -17 -83 -55 -157 -265 l-28 -80 -140 -2 c-197
-4 -185 1 -182 -86 l3 -72 135 -5 135 -5 3 -35 c5 -46 -17 -60 -90 -60 -76 0
-108 -27 -108 -90 0 -61 41 -100 107 -100 72 0 75 -5 78 -106 8 -322 165 -710
399 -987 67 -79 252 -233 370 -308 96 -61 115 -69 157 -69 40 0 55 6 83 31 36
31 60 88 49 115 -3 8 -37 35 -77 61 -209 135 -326 251 -479 480 -189 281 -264
489 -255 708 l3 80 45 3 c60 4 70 -11 70 -109 0 -139 37 -275 122 -444 139
-276 314 -468 541 -593 159 -87 328 -134 532 -147 206 -14 490 55 670 162 132
80 293 221 310 272 9 30 -12 87 -42 111 -43 33 -93 27 -150 -20 -26 -22 -70
-58 -97 -80 -79 -66 -213 -139 -309 -171 -118 -39 -306 -63 -417 -54 -155 13
-368 83 -519 172 -151 88 -351 361 -419 573 -32 99 -58 294 -43 319 5 8 26 11
57 9 l49 -3 8 -99 c23 -304 241 -632 512 -769 77 -38 188 -68 285 -75 99 -8
281 1 321 17 34 12 44 51 25 95 -24 58 -51 68 -188 72 -192 7 -280 33 -424
129 -141 94 -253 253 -300 425 -13 47 -18 102 -18 200 0 118 4 146 27 223 34
111 43 127 123 233 104 139 114 169 68 223 -55 66 -133 47 -215 -51 -66 -79
-101 -152 -144 -295 -51 -171 -46 -163 -105 -163 -48 0 -50 1 -50 28 1 92 67
266 158 415 74 122 76 142 13 184 -35 24 -62 28 -97 13z m-300 -556 c24 -9 19
-43 -8 -55 -46 -22 -97 7 -82 46 6 15 60 21 90 9z"/>
<path d="M3267 2213 c-4 -3 -7 -107 -7 -230 l0 -223 -39 39 c-51 51 -99 64
-236 64 -128 0 -201 -22 -253 -75 -59 -62 -66 -92 -70 -316 -7 -402 32 -467
298 -497 113 -13 242 29 285 93 l25 37 0 -58 0 -57 60 0 60 0 0 615 0 615 -58
0 c-32 0 -62 -3 -65 -7z m-156 -473 c55 -15 101 -51 127 -97 32 -59 43 -285
19 -381 -22 -84 -39 -107 -105 -139 -50 -24 -69 -28 -147 -28 -105 0 -161 21
-184 70 -19 38 -28 205 -20 366 7 154 18 182 87 203 55 17 172 20 223 6z"/>
<path d="M3700 1876 c-91 -20 -113 -30 -143 -65 -27 -33 -41 -81 -35 -122 3
-22 8 -24 58 -24 l55 0 22 47 c28 58 46 63 223 63 193 -1 208 -14 217 -197 l6
-112 -32 23 c-18 13 -53 30 -78 37 -57 17 -260 19 -352 3 -110 -20 -152 -83
-154 -229 -2 -147 24 -224 88 -261 17 -10 68 -25 115 -35 146 -29 321 -6 381
52 l28 26 7 -36 6 -37 57 3 56 3 -1 335 c0 184 -4 357 -8 383 -10 65 -52 112
-119 133 -71 22 -310 28 -397 10z m248 -451 c131 -23 144 -37 146 -150 1 -94
-15 -119 -92 -142 -85 -25 -254 -24 -307 2 -67 33 -92 118 -65 216 13 46 41
65 116 77 85 14 109 13 202 -3z"/>
<path d="M4270 1881 c0 -5 63 -193 140 -416 77 -223 140 -410 140 -415 0 -4
12 -17 26 -27 l26 -19 -32 -77 c-41 -98 -73 -127 -141 -127 l-50 0 3 -57 c3
-56 4 -58 33 -61 64 -8 135 9 169 38 36 32 87 120 116 202 240 684 300 865
300 915 l0 53 -44 0 -45 0 -29 -77 c-17 -43 -73 -206 -126 -363 -53 -156 -99
-286 -103 -290 -7 -6 6 -42 -137 370 l-122 355 -62 3 c-37 2 -62 -1 -62 -7z"/>
<path d="M1470 1846 c-33 -19 -85 -107 -117 -197 -65 -188 -8 -417 140 -561
127 -124 276 -177 463 -165 158 11 265 58 375 167 110 108 159 229 159 390 0
112 -18 192 -61 267 -53 93 -114 118 -164 68 -35 -34 -31 -61 18 -155 41 -79
42 -85 42 -174 0 -86 -2 -97 -37 -167 -46 -92 -113 -158 -203 -200 -199 -94
-451 -6 -548 190 -30 62 -32 72 -32 172 l0 107 48 93 c44 84 47 94 36 121 -11
28 -54 58 -81 58 -7 -1 -24 -7 -38 -14z"/>
<path d="M2990 789 c-27 -11 -70 -48 -70 -60 0 -4 16 -16 35 -28 l36 -21 30
22 c40 30 83 17 87 -28 3 -28 -7 -41 -87 -116 -78 -72 -91 -89 -91 -116 l0
-32 150 0 150 0 0 40 0 40 -70 0 c-38 0 -70 3 -70 6 0 3 23 26 50 51 60 54 80
89 80 140 0 74 -52 113 -147 112 -32 0 -69 -5 -83 -10z"/>
<path d="M3392 783 c-103 -51 -120 -260 -27 -341 72 -64 190 -49 243 31 22 33
28 54 30 116 3 64 -1 83 -20 121 -31 61 -77 90 -142 90 -28 0 -66 -8 -84 -17z
m114 -86 c24 -21 27 -30 27 -90 0 -77 -20 -117 -57 -117 -43 0 -61 34 -61 117
0 67 3 77 24 94 30 24 34 24 67 -4z"/>
<path d="M3770 789 c-14 -6 -37 -22 -52 -36 l-28 -26 36 -22 36 -22 38 21 c49
26 90 12 90 -31 0 -22 -18 -46 -90 -113 -77 -73 -90 -90 -90 -118 l0 -32 150
0 150 0 0 40 0 40 -70 0 c-38 0 -70 4 -70 9 0 5 22 28 49 50 134 112 95 252
-71 250 -29 0 -64 -5 -78 -10z"/>
<path d="M4064 786 c-3 -8 -4 -27 -2 -43 3 -24 8 -28 41 -31 l37 -3 0 -150 0
-149 50 0 50 0 0 195 0 195 -85 0 c-65 0 -87 -3 -91 -14z"/>
</g>
</svg>
