<svg width="48" height="49" viewBox="0 0 48 49" fill="none" xmlns="http://www.w3.org/2000/svg">
<path d="M31.5 24.8477C31.5 26.8368 30.7098 28.7444 29.3033 30.151C27.8968 31.5575 25.9891 32.3477 24 32.3477C22.0109 32.3477 20.1032 31.5575 18.6967 30.151C17.2902 28.7444 16.5 26.8368 16.5 24.8477C16.5 24.4202 16.545 24.0027 16.6225 23.5977H14V33.5902C14 34.2852 14.5625 34.8477 15.2575 34.8477H32.745C33.0781 34.847 33.3973 34.7142 33.6326 34.4785C33.8679 34.2427 34 33.9232 34 33.5902V23.5977H31.3775C31.455 24.0027 31.5 24.4202 31.5 24.8477ZM24 29.8477C24.6568 29.8475 25.3071 29.718 25.9138 29.4665C26.5205 29.215 27.0718 28.8465 27.5361 28.3819C28.0003 27.9174 28.3686 27.366 28.6198 26.7591C28.871 26.1523 29.0002 25.5019 29 24.8452C28.9998 24.1884 28.8703 23.5381 28.6188 22.9314C28.3673 22.3246 27.9988 21.7734 27.5343 21.3091C27.0698 20.8448 26.5183 20.4766 25.9115 20.2254C25.3046 19.9742 24.6543 19.845 23.9975 19.8452C22.6711 19.8455 21.3991 20.3727 20.4614 21.3109C19.5238 22.249 18.9972 23.5212 18.9975 24.8477C18.9978 26.1741 19.5251 27.446 20.4632 28.3837C21.4014 29.3214 22.6736 29.848 24 29.8477ZM30 19.5977H32.9975C33.1966 19.5977 33.3877 19.5187 33.5287 19.3781C33.6698 19.2376 33.7493 19.0468 33.75 18.8477V15.8502C33.75 15.6506 33.6707 15.4592 33.5296 15.3181C33.3885 15.1769 33.1971 15.0977 32.9975 15.0977H30C29.8004 15.0977 29.609 15.1769 29.4679 15.3181C29.3268 15.4592 29.2475 15.6506 29.2475 15.8502V18.8477C29.25 19.2602 29.5875 19.5977 30 19.5977ZM24 0.847656C17.6348 0.847656 11.5303 3.37622 7.02944 7.87709C2.52856 12.378 0 18.4825 0 24.8477C0 31.2129 2.52856 37.3173 7.02944 41.8182C11.5303 46.3191 17.6348 48.8477 24 48.8477C27.1517 48.8477 30.2726 48.2269 33.1844 47.0208C36.0962 45.8147 38.742 44.0468 40.9706 41.8182C43.1992 39.5896 44.967 36.9439 46.1731 34.0321C47.3792 31.1202 48 27.9994 48 24.8477C48 21.6959 47.3792 18.5751 46.1731 15.6633C44.967 12.7514 43.1992 10.1057 40.9706 7.87709C38.742 5.64849 36.0962 3.88066 33.1844 2.67455C30.2726 1.46843 27.1517 0.847656 24 0.847656ZM36.5 34.5702C36.5 36.0977 35.25 37.3477 33.7225 37.3477H14.2775C12.75 37.3477 11.5 36.0977 11.5 34.5702V15.1252C11.5 13.5977 12.75 12.3477 14.2775 12.3477H33.7225C35.25 12.3477 36.5 13.5977 36.5 15.1252V34.5702Z" fill="white"/>
</svg>
