<svg id="Layer_1" data-name="Layer 1" xmlns="http://www.w3.org/2000/svg" viewBox="0 0 48 48"><defs><style>.cls-1{fill:#fff;}</style></defs><title>line</title><path class="cls-1" d="M24,.5a24,24,0,1,0,24,24A24,24,0,0,0,24,.5ZM39.34,26.38a14.52,14.52,0,0,1-2.62,3.92C33.33,34.2,25.73,39,24,39.7s-1.47-.47-1.4-.88l.23-1.38a3.32,3.32,0,0,0,0-1.47c-.18-.45-.9-.68-1.43-.8-7.78-1-13.54-6.46-13.54-13C7.81,15,15.08,9.07,24,9.07S40.19,15,40.19,22.21A10.51,10.51,0,0,1,39.34,26.38Z" transform="translate(0 -0.5)"/><path class="cls-1" d="M18.29,24.94v1.14a.32.32,0,0,1-.31.32H13.44a.36.36,0,0,1-.22-.09h0a.36.36,0,0,1-.09-.22V19a.32.32,0,0,1,.32-.32h1.14a.31.31,0,0,1,.31.32v5.6H18A.31.31,0,0,1,18.29,24.94Z" transform="translate(0 -0.5)"/><path class="cls-1" d="M21,19v7a.32.32,0,0,1-.32.32H19.58a.32.32,0,0,1-.32-.32V19a.32.32,0,0,1,.32-.32h1.13A.32.32,0,0,1,21,19Z" transform="translate(0 -0.5)"/><path class="cls-1" d="M28.85,19v7a.33.33,0,0,1-.32.32H27.39l-.08,0h0a0,0,0,0,0,0,0h0l-.08-.08L23.9,21.89v4.19a.32.32,0,0,1-.32.32H22.45a.32.32,0,0,1-.32-.32V19a.32.32,0,0,1,.32-.32h1.28a0,0,0,0,1,0,0h0a0,0,0,0,0,0,0h0l0,0,0,0,3.23,4.37V19a.31.31,0,0,1,.31-.32h1.14A.32.32,0,0,1,28.85,19Z" transform="translate(0 -0.5)"/><path class="cls-1" d="M31.72,20.48v1.19H34.8a.32.32,0,0,1,.32.32v1.13a.32.32,0,0,1-.32.32H31.72v1.19H34.8a.32.32,0,0,1,.32.31v1.14a.33.33,0,0,1-.32.32H30.26a.31.31,0,0,1-.21-.09h0a.31.31,0,0,1-.09-.22V19a.29.29,0,0,1,.09-.22h0a.36.36,0,0,1,.22-.09H34.8a.32.32,0,0,1,.32.32v1.13a.32.32,0,0,1-.32.32Z" transform="translate(0 -0.5)"/></svg>