<svg id="Layer_1" data-name="Layer 1" xmlns="http://www.w3.org/2000/svg" viewBox="0 0 565.59 204.39"><title>logo-ux</title><path d="M593.07,250.21c-.22-6.46-.07-12.92-.07-19.38v-9.94c0-14.11,0-14-14.37-13.16-3.3.18-3.12,2.1-2.62,3.85.57,2-2.55,6,2.61,5.71,3.06-.19,3.49,1.1,3.45,3.73-.13,9.77.09,19.54-.14,29.31-.07,3.15.86,4.19,3.88,3.73a11,11,0,0,1,3.48,0C592.5,254.59,593.17,253.16,593.07,250.21ZM493.2,249c.07-2.1.62-4.34-3-4.09-4.26.29-8.55.07-14.31.07,5.92-5.42,11.13-9.56,14.42-15.41,4.69-8.34,2.39-17.95-5.15-21.35-8.9-4-19.38-.23-22.44,8.22-.69,1.91-2.35,5.27.59,5.52,2.66.22,7.26,3.26,8.77-2.5a5,5,0,0,1,6-4c2.92.48,3.9,2.58,4,5.43.15,4.35-2.16,7.52-4.76,10.55-4,4.67-8.82,8.54-13.62,12.37-3,2.39-2,5.57-1.59,8.24.35,2.14,3.09,1,4.72,1,7.82.13,15.65-.13,23.47.14C494.1,253.36,493.14,251,493.2,249Zm73.35-4c-3.49,0-7,0-11,0,.59-2.45,2.24-3.13,3.35-4.26,4.66-4.68,9.78-8.94,11.51-15.82,2.12-8.44-2-16.14-9.82-17.67-10.44-2-19.37,3.19-20.46,12.08-.12,1-.86,2.69.83,2.88a34.27,34.27,0,0,0,8,0c1.87-.23,1.06-2.47,1.78-3.7,1.21-2.08,2.76-3.38,5.18-3.08,2.57.32,4.06,1.79,4.43,4.52.51,3.77-1.07,6.72-3.16,9.58-4.07,5.55-9.4,9.81-14.83,13.88-3.24,2.44-2.73,5.63-2.13,8.48.52,2.48,3.37,1.15,5.13,1.19,7.15.15,14.31,0,21.46.1,3.09.06,5.1.14,5.12-4.22C571.92,244.28,569.31,245,566.55,245Zm-33.69-25.2c-2.21-9-7.52-12.85-16.88-12.75-8.76.09-13.72,4.07-16,12.55a37.86,37.86,0,0,0-1.07,11A30.24,30.24,0,0,0,500.68,243c2.71,7.12,7.26,10.35,15.08,10.52,8.28.19,13.26-2.72,16.07-9.87C534.89,235.88,534.82,227.81,532.86,219.8Zm-9.79,18.56c-.84,3.45-2.81,5.64-6.48,5.67s-6-2-7-5.73c-.69-2.64-.41-5.25-.63-7.86a26.81,26.81,0,0,1,1-9.3c1-3.36,3.43-4.7,6.72-4.64a6,6,0,0,1,6.17,4.74A35.54,35.54,0,0,1,523.07,238.36ZM375.59,179.57c-11-16.4-21.81-32.88-33-49.12-2.74-4-3.77-6.88-.31-11.12,3.74-4.58,6.43-10,9.6-15,8.26-13.1,16.54-26.2,25.18-39.9-10.63,0-20.58,0-30.53,0-2.31,0-3,1.52-4,3.14-5.75,9.84-11.65,19.6-17.3,29.5-1.77,3.11-2.79,3.51-4.86.25-4.63-7.27-20.69-33-20.69-33s-27.45.17-34.66.17c1.61,2.48,2.57,4,3.56,5.46,11.15,16.68,22.25,33.39,33.49,50,1.59,2.34,1.9,3.93.21,6.51-8,12.17-15.63,24.54-23.39,36.84-4.33,6.88-8.63,13.79-13.21,21.1h32s6.52-9.93,9.38-14.76c4.33-7.32,8.66-14.64,13.25-22.38,7.87,11.74,15.34,22.89,22.83,34,1,1.45,1.54,3.19,3.95,3.16,10.24-.1,20.49,0,31.48,0C377.3,182.26,376.47,180.89,375.59,179.57ZM250.13,68.49c0-3.07-.54-4.35-4-4.19a198.73,198.73,0,0,1-20,0c-4.16-.24-5.24.93-5.19,5.12.22,22.9.16,45.8.08,68.7,0,11.41-7.26,19.62-17.61,20.37-14.79,1.07-22.28-4.19-24.56-17-1.18-6.61-.59-13.24-.63-19.85-.12-17.76,0-35.52-.07-53.28,0-1.74,1-4.11-2.55-4-7.82.17-15.65.1-23.48,0-2.21,0-2.86.89-2.82,3,.44,26-1.14,52.12.91,78.12.9,11.38,6.12,21.14,15,28.71,11.2,9.58,24.62,11.94,38.69,11.06,28.11-1.77,46.16-21.15,46.18-49q0-15.93,0-31.87C250.06,92.38,250,80.43,250.13,68.49Zm459,49.21c-5.65-.1-8.61,2-10.27,7.37-1,3.31-1.79,6.7-2.93,10-3.19,9.19-6.22,18.49-12.29,26.34-1.4,1.81-3.07,4-5.77,2.92-2.52-1-2-3.53-2-5.63.19-10.67,3.09-20.87,5.33-31.19.63-2.92,2.76-6.36-.3-8.73s-6.71-1.09-10,0-4.8,4-5.76,7c-2.5,7.88-4.93,15.83-5.22,24.15-.23,6.84-2.39,12.43-8.13,16.53-2.61,1.86-5.19,4.32-8.44,2.44-3-1.77-2.4-5.17-1.92-8.13,1.54-9.62,3.19-19.22,4.7-28.85,1.29-8.2,0-9.46-8.5-9.32-1.51,0-3.77,1.23-4.47-.75-2.36-6.62-7.57-4.52-11.74-3.59-16.44,3.68-30.42,20.41-31.35,38-.36,6.68-3.54,10.33-9.09,12.67-3,1.26-6.29,1.13-7.89-2-2.73-5.33-4.63-10.75-1.17-16.86,11.34-20.06,21.2-40.77,25.61-63.6,1.76-9.14,2.82-18.41-.7-27.43-3.77-9.65-13.85-12.1-21.86-5.48A31.51,31.51,0,0,0,566.14,66c-6.24,14.72-9.46,30.19-11.22,46-.29,2.57.06,5.13-3.87,5.74-12.1,1.88-21.26,8.75-27.15,19-2.79,4.89-6.36,6-11,6.69-3,.44-4.48,0-5.16-3.75-3.38-18.87-21.2-27.65-38.12-18.63-13.28,7.07-18.26,19.42-17.81,33.64.18,5.48-2,8.25-5.61,11.06-10,7.84-21.61,4-24.65-8.15-2-8-1.54-16.12-1.38-24.24.06-2.84,1.95-2.55,3.8-2.56,6.16,0,12.32-.11,18.48-.16A15.45,15.45,0,0,0,450.9,128c3.22-2.13,3.77-5.41,3-8.83s-3.87-2.47-6.21-2.53c-4.13-.12-8.26,0-13.76,0,2.45-2.59,4-4.21,5.56-5.89,9.91-10.91,14.41-23.65,12.54-38.33-1.48-11.62-10.8-16.18-21-10.5a25.94,25.94,0,0,0-7.83,6.8C413.51,81,409.07,95.52,406.26,110.5c-.91,4.82-2.26,6.91-7.32,6.2-3.42-.47-6.68.09-8,4.16-2,6.33.37,10.06,7.09,9.82,4.19-.14,5.33,1,5.09,5.18a111.13,111.13,0,0,0,.8,22.31c2.38,16.37,11.43,25.71,26.45,26.57a30.42,30.42,0,0,0,23.56-8.8c1.91-1.82,3-2.37,4.88.23a20.94,20.94,0,0,0,10.94,7.34c15.49,4.88,31-3.7,36.12-20.88,1.68-5.57,5.8-4.94,9.17-4.85,3.91.09,1.54,3.94,1.72,5.93.8,8.87,4,16.26,12.69,19.64s16.61,1.18,23.18-5.47c1.7-1.72,3.25-3.58,5.08-5.61.9,1.41,1.59,2.51,2.29,3.6,5.75,9,13.93,11.26,23.64,6.7a26.49,26.49,0,0,0,7-4.6c1.53-1.44,2.37-1.42,3.92.21,8.8,9.24,21,8.85,29.49-.72,1.16-1.3,1.73-3.16,3.85-4,3,6.47,7.06,11.58,15.24,11.24,7.32-.31,12-5.38,17.4-9.26,8.19,12.59,18.92,12.36,26.85-.34,1.37-2.2,2.57-4.51,4.44-7.8-.9,8.46-.58,15.75-8.38,20.57-5.43,3.35-10.09,8.11-14.64,12.69-7.16,7.17-13.81,14.76-16.47,25-2.88,11,.85,20.38,9.76,23,7.17,2.08,13.79.51,19.46-4.5,6.56-5.8,10.07-13.46,13-21.41,6.22-16.79,9.62-34.24,12.3-51.89,2.36-15.52,5.05-31,7.6-46.5C715.32,119.36,714,117.78,709.14,117.7ZM578.89,69.06c.21-.61.52-1.19.77-1.79.71-1.67,1.29-3.82,3.47-3.68,2.63.17,2.42,2.84,2.78,4.57,1.85,8.82.08,17.46-1.92,26a137.78,137.78,0,0,1-13.4,35C571.7,108.87,572.36,88.55,578.89,69.06ZM431.77,76.62c1-1.82,2-4.35,4.64-3.69,2.5.62,2.56,3.1,2.68,5.29.77,14.75-5.78,26.05-16.57,35.4C424.07,100.85,425.67,88.15,431.77,76.62Zm59.85,82.58a19.53,19.53,0,0,1-3.43,6.56c-5.46,6.79-14.06,5.63-17.5-2.4A22.74,22.74,0,0,1,469,153.14c.18-5.84.86-11.54,4.84-16.28a11.79,11.79,0,0,1,5.56-4c2.36-.7,4.26-1.25,3.86,2.91a19.77,19.77,0,0,0,6.67,17.4C492.12,155.07,492.36,156.8,491.62,159.2Zm50.24,11.47c-3.67.09-5.92-1.64-6.92-5.12-3.42-11.91,4.88-30.68,17.92-33.89.38,8.88-.31,17.47,1,26C554.69,162.88,547.12,170.55,541.86,170.67Zm86.92-35.18c-1.46,7.78-3.11,15.53-4.81,23.27a20.67,20.67,0,0,1-4,8.46c-2.29,2.93-5.21,4.24-8.76,3.13-3.38-1.06-4-4.1-4.28-7.17-.07-.83,0-1.66,0-2.49.59-9.52,3.27-18.19,10.36-25a17.81,17.81,0,0,1,6.66-4.24c1.72-.58,3.72-1.74,5.15-.5C630.38,132,629.06,134,628.78,135.49ZM674.7,232c-1.66,2.3-3.58,5.41-7.23,3.4-3.14-1.74-2.87-5-2.24-7.92,2-9.08,7.82-15.81,14.28-22.05,1.87-1.8,3.66-3.79,6.82-5C683.6,211.71,681.43,222.7,674.7,232Z" transform="translate(-149.15 -49.78)"/></svg>