<?xml version="1.0" encoding="utf-8"?>
<!-- Generator: Adobe Illustrator 24.0.0, SVG Export Plug-In . SVG Version: 6.00 Build 0)  -->
<svg version="1.1" id="Layer_1" xmlns="http://www.w3.org/2000/svg" xmlns:xlink="http://www.w3.org/1999/xlink" x="0px" y="0px"
	 viewBox="0 0 767.8 206.3" style="enable-background:new 0 0 767.8 206.3;" xml:space="preserve">
<style type="text/css">
	.st0{fill:url(#SVGID_1_);}
	.st1{fill:url(#SVGID_2_);}
	.st2{fill:url(#SVGID_3_);}
</style>
<title>logo-hack</title>
<linearGradient id="SVGID_1_" gradientUnits="userSpaceOnUse" x1="443.3329" y1="99.8321" x2="767.8205" y2="99.8321">
	<stop  offset="0" style="stop-color:#2E847B"/>
	<stop  offset="0.7286" style="stop-color:#2A9ABA"/>
	<stop  offset="1" style="stop-color:#6CA983"/>
</linearGradient>
<path class="st0" d="M762.3,67.9c-5.6-0.1-8.7,2-10.3,7.3c-1,3.3-1.8,6.7-2.9,10c-3.2,9.2-6.2,18.5-12.3,26.4c-1.4,1.8-3,4-5.8,3
	c-2.6-0.9-2.1-3.5-2-5.6c0.2-10.7,3.1-20.9,5.3-31.2c0.6-2.9,2.8-6.4-0.3-8.7s-7-1.1-10.5,0.2c-3.1,1.1-4.4,3.9-5.3,6.8
	c-2.5,7.9-4.9,15.8-5.2,24.1c-0.3,6.8-2.3,12.4-8.1,16.6c-2.6,1.9-5.2,4.3-8.4,2.5c-3.1-1.8-2.4-5.1-2-8.1
	c1.5-9.6,3.2-19.2,4.7-28.8c1.3-8.3,0.1-9.5-8.5-9.4c-1.5,0-3.8,1.2-4.5-0.7c-2.3-6.7-7.6-4.6-11.7-3.6
	c-16.6,3.7-30.4,20.4-31.4,38.4c-0.4,6.5-3.7,9.9-9,12.2c-3,1.3-6.3,1.2-7.9-2c-2.8-5.3-4.7-10.8-1.2-16.9
	c11.3-20.1,21.2-40.8,25.6-63.6c1.8-9.1,2.8-18.4-0.7-27.4C646.1-0.4,636-2.9,628,3.7c-4.2,3.5-6.9,8-9,12.9
	c-6.2,14.6-9.2,29.9-11,45.6c-0.3,2.5,0.1,5.2-3.8,5.8c-12.1,1.9-21.3,8.7-27.2,19c-2.8,4.9-6.3,6.1-11,6.7c-3,0.4-4.5,0.1-5.2-3.7
	c-3.8-20.8-25.5-28.9-42.3-16c-10.2,7.8-14.3,18.8-13.6,31c0.3,5.8-2.4,8.6-6,11.4c-9.9,7.5-21.3,3.6-24.3-8.4
	c-2-8-1.5-16.1-1.4-24.2c0-2.8,1.9-2.6,3.8-2.6c6.2,0,12.3-0.1,18.5-0.2c3.2,0,6.3-1,8.8-2.9c3-2.2,3.3-5.3,2.6-8.5
	c-0.8-3.4-3.8-2.5-6.2-2.6c-4.2-0.1-8.5,0-13.8,0c2.4-2.6,4-4.2,5.5-5.9c9.9-10.9,14.4-23.6,12.6-38.3c-1.5-11.6-10.8-16.2-21-10.6
	c-3.1,1.7-5.7,4-7.8,6.8c-9.6,12.2-14.1,26.7-16.9,41.7c-1,5.2-2.7,7-7.8,6.2c-3.3-0.5-6.3,0.4-7.5,4.1c-2.1,6.3,0.4,10.1,7,9.9
	c4.1-0.1,5.4,0.9,5.1,5.1c-0.5,7.4-0.2,14.9,0.8,22.3c2.1,14,10.2,24.3,21.4,26.1c10.6,1.7,20.2-0.4,28.2-8c2.1-2,3.4-2.9,5.6,0.2
	c2.5,3.5,6.3,5.7,10.6,7c15.7,4.9,30.9-3.7,36.3-21.3c1.7-5.4,5.8-4.3,9-4.4c3.7-0.1,1,3.6,1.8,5.4c0.1,0.3,0.1,0.7,0,1
	c0.6,8.7,4,15.9,12.5,19.2c8.3,3.2,16,1.4,22.5-4.8c2-1.9,3.8-4.1,5.8-6.3c1,1.5,1.8,2.8,2.6,4c5.3,8.1,13,10.6,22,7
	c3-1.1,5.7-2.8,8-4.9c1.7-1.6,2.7-1.9,4.6,0.2c7.3,8.2,19.4,8.4,27.4,0.7c1.9-1.8,3.4-3.9,5.3-6c0.9,1.6,1.6,2.9,2.4,4.1
	c4.2,6.9,11.4,9.2,18.9,6.1c3.5-1.6,6.7-3.7,9.4-6.3c1.7-1.5,2.3-1.9,3.8,0.6c5.5,8.8,14.8,9.5,22,1.9c3.1-3.3,4.8-7.4,7.6-11.9
	c-0.4,9.2-1.5,16.7-9.8,21.5c-4.8,2.8-8.7,7.2-12.7,11.1c-7.4,7.2-14.1,14.9-16.9,25.3c-2.9,11,0.8,20.4,9.7,23
	c7.4,2.2,14.1,0.4,19.8-4.8c6.3-5.8,9.8-13.3,12.7-21.1c7-18.7,10.3-38.2,13.3-57.8c2.1-13.6,4.4-27.1,6.6-40.6
	C768.4,69.6,767.1,68,762.3,67.9z M484.5,27.5c1-2,2-5.2,5.2-4.3c2.7,0.8,2.4,3.6,2.5,5.9c0.5,14.4-6,25.4-16.6,34.6
	C477.1,51.3,478.7,38.9,484.5,27.5z M535.5,119.9c-5.1,1.5-9.9-1.2-12-6.9c-1.2-3.1-1.6-6.5-1.4-9.8c0.2-5.8,0.9-11.5,4.9-16.2
	c1.5-2,3.7-3.4,6.1-4.1c2-0.5,3.6-0.7,3.3,2.8c-0.6,7,1.5,13.4,7.1,18.2c0.8,0.5,1.4,1.4,1.7,2.3C546,110.5,540.5,118.4,535.5,119.9
	L535.5,119.9z M594.1,120.9c-2.6,0.1-4.9-1.6-5.7-4c-4.6-12.2,4.8-32.6,17.6-34.8c0.2,8.9-0.2,17.8,1,26.7
	C607.6,113.9,599.3,121.1,594.1,120.9L594.1,120.9z M625.1,54.9c1.1-11.2,2.6-22.3,6-33.1c1-3.1,1.3-8.3,5.4-7.7
	c3.4,0.5,2.8,5.6,3.1,8.7c0.6,8.1-1.1,16.1-3,24c-2.7,10-6.2,19.8-10.5,29.2c-0.5,1.3-0.8,2.9-3.1,3.7
	C623.7,71.1,624.3,63,625.1,54.9L625.1,54.9z M677,109.3c-0.7,4-2.8,7.6-5.9,10.1c-3.9,3.1-8.8,1.7-10.5-2.8
	c-4.1-11.5,5.5-31.3,17.1-35.1c1.6-0.5,3.1-1,5-0.2C680.9,90.6,679.1,99.9,677,109.3L677,109.3z M727.6,182.6
	c-1.6,2.2-3.5,4.9-6.9,3.1c-3.1-1.6-2.9-4.7-2.4-7.4c1.3-7,5.2-12.7,9.8-17.9c3.3-3.9,7.2-7.3,11.4-10.1
	C736.7,162.1,734.5,173.2,727.6,182.6L727.6,182.6z"/>
<linearGradient id="SVGID_2_" gradientUnits="userSpaceOnUse" x1="2.999878e-02" y1="72.6274" x2="435.95" y2="72.6274">
	<stop  offset="0" style="stop-color:#2E847B"/>
	<stop  offset="0.7638" style="stop-color:#2A9ABA"/>
	<stop  offset="1" style="stop-color:#61A78F"/>
</linearGradient>
<path class="st1" d="M0.1,75.3C0.1,56.9,0.2,38.5,0,20c0-3.2,0.7-4.3,4-4.1c6.8,0.3,13.7,0.3,20.5,0c3.6-0.2,4,1.3,4,4.2
	c-0.1,12.8,0,25.6-0.1,38.3c0,3.3,0.9,4.3,4.2,4.2c12.5-0.2,25-0.2,37.5,0c3.2,0,4.3-0.7,4.2-4.1c-0.2-12.9,0-25.9-0.2-38.8
	c0-3.1,0.8-3.9,3.9-3.8c7,0.2,14,0.2,21,0c2.9-0.1,4,0.5,4,3.8c-0.1,37-0.1,74,0,111c0,3.1-0.8,4-3.9,3.9c-7.1-0.2-14.3-0.2-21.5,0
	c-3,0.1-3.5-0.9-3.5-3.7c0.1-13.8,0-27.5,0.1-41.3c0-3.1-0.6-4.2-4-4.2c-12.7,0.2-25.3,0.2-38,0c-3.1,0-4,0.8-3.9,3.9
	c0.2,13.8,0,27.6,0.1,41.3c0,3-0.6,4-3.8,3.9c-6.8-0.3-13.7-0.3-20.5,0C0.5,134.7,0,133.3,0,130C0.1,111.8,0.1,93.6,0.1,75.3z
	 M218.2,130.6c-0.1-9.6-0.1-19.3-0.1-28.9c0-19.1,0-38.2,0-57.3c0-2.4,0.4-4.5-3.4-4.3c-7.3,0.3-14.7,0.2-22,0
	c-2.6,0-3.6,0.7-3.4,3.4c0.2,3,0.1,6,0.1,10c-14.9-19.6-42.4-17.7-56.8-3.7c-19,18.6-19.1,56,0.1,74.9c15.9,15.7,41.7,14.5,56.7-3.6
	c0,4,0.2,7-0.1,9.9c-0.3,3,1,3.6,3.7,3.5c7.2-0.2,14.3-0.3,21.5,0C217.9,134.8,218.3,133.4,218.2,130.6z M177.8,108.7
	c-7.3,3.7-14.9,3.2-21.6-1.9c-8.5-6.5-9.5-15.8-8.1-25.5c1.7-11.3,12.2-19.1,23.5-17.4c2.2,0.3,4.3,1,6.3,2
	c7.4,3.8,11.4,11.3,11.5,21.5C189.6,96.7,186.4,104.4,177.8,108.7z M436,134.5c-11.7,0-22.5-0.1-33.3,0c-2,0-2.8-1-3.8-2.4
	c-7.8-10.7-15.6-21.4-23.5-32.1c-1-1.4-1.8-3.1-4.3-4c0,11.5-0.2,22.7,0.1,33.9c0.1,3.6-0.6,4.9-4.5,4.7c-7-0.4-14-0.2-21,0
	c-2.5,0-3.1-0.7-3.1-3.1c0.1-39.5,0.1-79,0-118.5c0-3.1,1.3-3.5,3.8-3.5c7,0.1,14,0.2,21,0c3.2-0.1,3.8,1,3.8,3.9
	c-0.1,19.5-0.1,39.1-0.1,58.7v5.5c3.6-1.9,4.9-5.1,6.9-7.5c7-9,13.7-18.3,20.5-27.5c1.1-1.7,3-2.6,4.9-2.5c10.3,0.1,20.6,0,31.6,0
	c-3.1,5.3-7.2,9.3-10.8,13.7c-8.1,10-16.2,20.1-24.9,29.7c-3.1,3.4-2.1,5.3,0.3,8C411.5,105.6,423.3,119.7,436,134.5z M311.1,73.9
	c-2.2,0-4.3-0.1-6.5,0c-5,0.2-8.8,0-12.1-5.5c-5.5-8.9-21.2-6.6-26.2,3.5c-4.8,9.8-4.6,20.2-0.3,30.2c2.7,6.2,7.9,9.3,14.6,9.4
	c6.3,0.1,11.4-2.4,14.2-8.2c0.9-1.9,1.9-2.7,4.1-2.7c8.1,0.1,16.3,0.1,24.5,0c2.6,0,3.1,0.6,2.3,3.1c-5.5,17.6-17.2,28.5-35.5,31.2
	c-18.5,2.8-35-1.3-47-16.9c-15.2-19.8-13.7-63,18.5-75.5c22.1-8.6,46.8-1.9,58.6,16c2.6,3.9,4.1,8.2,5.6,12.5c0.8,2.1,0.2,3-2.2,2.9
	C319.4,73.8,315.3,73.9,311.1,73.9z"/>
<linearGradient id="SVGID_3_" gradientUnits="userSpaceOnUse" x1="513.6761" y1="182.5894" x2="645.11" y2="182.5894">
	<stop  offset="0" style="stop-color:#2E847B"/>
	<stop  offset="1" style="stop-color:#2B97B0"/>
</linearGradient>
<path class="st2" d="M583.9,168.9c-2.2-5.9-6.6-9.3-13.1-9.7c-11.2-0.6-16.2,3.2-19.1,14.3c-0.8,3-0.5,5.9-0.7,8.8
	c-0.3,4,0.2,8,1.3,11.8c2.3,7.4,7.5,11.4,15.4,11.6c8.7,0.3,13.8-2.8,16.5-10.6C587.2,186.7,587.1,177.4,583.9,168.9L583.9,168.9z
	 M575.1,190.7c-0.8,3.4-2.9,5.6-6.6,5.5s-5.7-1.8-6.8-5.4c-0.8-2.8-0.6-5.5-0.7-8.3c-0.3-3.1,0.1-6.3,1-9.3c1-3.4,3.5-4.6,6.8-4.5
	c2.9-0.1,5.5,2,6.1,4.9C576.4,179.2,576.4,185.1,575.1,190.7z M607.7,197.2c4.7,0,9,0.2,13.2,0c3.2-0.2,3.1,1.7,2.9,3.8
	c-0.2,1.9,1.2,4.5-2.7,4.5c-8.8-0.1-17.6,0-26.5-0.1c-1.1,0-2.7,0.3-2.5-1.5c0.2-2.5-1.2-5.3,1.4-7.4c3.6-2.9,7.2-5.9,10.6-9
	c3.6-3.4,7.2-6.9,8.2-12.1c0.6-3.3,0.4-6.5-3.6-7.5c-3.7-0.9-5.3,1.5-6.5,4.6c-1.9,4.6-6,1.8-8.9,1.9c-2.2,0-1-2.8-0.5-4.4
	c2.6-9.1,12.5-13.4,22.1-9.7c7.7,3,10.4,11.7,6.4,20.5c-2.4,5.1-6.6,8.6-10.5,12.5C609.8,194.2,608.2,194.8,607.7,197.2z M529,197.2
	c4.8,0,9.1,0.2,13.4-0.1c3.7-0.2,2.9,2.2,2.9,4.2s0.8,4.3-3,4.1c-7.7-0.3-15.3,0-23-0.2c-1.8,0-4.7,1.3-5.2-1.1
	c-0.6-2.8-1.2-6.1,2-8.6c5-3.6,9.5-7.8,13.6-12.4c2.3-2.8,4.4-5.7,4.4-9.7c0-3-0.8-5.4-4.1-5.9c-3.1-0.5-5,1.3-6,4.1
	c-0.8,2.2-8,4-9.7,2.4c-0.8-0.8-0.3-1.9-0.3-2.8c0.7-8.4,8.6-13.4,19-12.1c8.1,1,12.6,7.3,11.5,15.5c-1.1,7.9-6.3,12.9-11.6,17.9
	C531.7,194,529.8,194.6,529,197.2z M645.1,160.5v44.8c0,0.6-0.4,1-1,1h-9c-0.6,0-1-0.4-1-1v-34.8c0-0.6-0.4-1-1-1h-4.3
	c-0.6,0-1-0.4-1-1v-8c0-0.6,0.4-1,1-1h15.3C644.7,159.5,645.1,160,645.1,160.5z"/>
</svg>
