<?xml version="1.0" encoding="utf-8"?>
<!-- Generator: Adobe Illustrator 24.0.0, SVG Export Plug-In . SVG Version: 6.00 Build 0)  -->
<svg version="1.1" id="Layer_1" xmlns="http://www.w3.org/2000/svg" xmlns:xlink="http://www.w3.org/1999/xlink" x="0px" y="0px"
	 viewBox="0 0 565.6 204.4" style="enable-background:new 0 0 565.6 204.4;" xml:space="preserve">
<style type="text/css">
	.st0{fill:url(#SVGID_1_);}
	.st1{fill:url(#SVGID_2_);}
	.st2{fill:url(#SVGID_3_);}
</style>
<title>logo-ux</title>
<linearGradient id="SVGID_1_" gradientUnits="userSpaceOnUse" x1="312.4663" y1="180.6135" x2="443.9293" y2="180.6135">
	<stop  offset="0" style="stop-color:#2E847B"/>
	<stop  offset="1" style="stop-color:#2B97B0"/>
</linearGradient>
<path class="st0" d="M443.9,200.4c-0.2-6.5-0.1-12.9-0.1-19.4v-9.9c0-14.1,0-14-14.4-13.2c-3.3,0.2-3.1,2.1-2.6,3.9
	c0.6,2-2.5,6,2.6,5.7c3.1-0.2,3.5,1.1,3.5,3.7c-0.1,9.8,0.1,19.5-0.1,29.3c-0.1,3.1,0.9,4.2,3.9,3.7c1.2-0.2,2.3-0.2,3.5,0
	C443.4,204.8,444,203.4,443.9,200.4z M344.1,199.2c0.1-2.1,0.6-4.3-3-4.1c-4.3,0.3-8.5,0.1-14.3,0.1c5.9-5.4,11.1-9.6,14.4-15.4
	c4.7-8.3,2.4-17.9-5.1-21.4c-8.9-4-19.4-0.2-22.4,8.2c-0.7,1.9-2.4,5.3,0.6,5.5c2.7,0.2,7.3,3.3,8.8-2.5c0.5-2.7,3.1-4.5,5.8-4
	c0.1,0,0.1,0,0.2,0c2.9,0.5,3.9,2.6,4,5.4c0.1,4.4-2.2,7.5-4.8,10.6c-4,4.7-8.8,8.5-13.6,12.4c-3,2.4-2,5.6-1.6,8.2
	c0.4,2.1,3.1,1,4.7,1c7.8,0.1,15.6-0.1,23.5,0.1C345,203.6,344,201.2,344.1,199.2z M417.4,195.2c-3.5,0-7,0-11,0
	c0.6-2.4,2.2-3.1,3.3-4.3c4.7-4.7,9.8-8.9,11.5-15.8c2.1-8.4-2-16.1-9.8-17.7c-10.4-2-19.4,3.2-20.5,12.1c-0.1,1-0.9,2.7,0.8,2.9
	c2.7,0.3,5.3,0.3,8,0c1.9-0.2,1.1-2.5,1.8-3.7c1.2-2.1,2.8-3.4,5.2-3.1c2.6,0.3,4.1,1.8,4.4,4.5c0.5,3.8-1.1,6.7-3.2,9.6
	c-4.1,5.6-9.4,9.8-14.8,13.9c-3.2,2.4-2.7,5.6-2.1,8.5c0.5,2.5,3.4,1.1,5.1,1.2c7.2,0.1,14.3,0,21.5,0.1c3.1,0.1,5.1,0.1,5.1-4.2
	C422.8,194.5,420.2,195.2,417.4,195.2z M383.7,170c-2.2-9-7.5-12.9-16.9-12.8c-8.8,0.1-13.7,4.1-16,12.6c-0.9,3.6-1.3,7.3-1.1,11
	c-0.3,4.2,0.3,8.4,1.8,12.4c2.7,7.1,7.3,10.4,15.1,10.5c8.3,0.2,13.3-2.7,16.1-9.9C385.7,186.1,385.7,178,383.7,170z M373.9,188.6
	c-0.8,3.4-2.8,5.6-6.5,5.7s-6-2-7-5.7c-0.7-2.6-0.4-5.3-0.6-7.9c-0.2-3.1,0.1-6.3,1-9.3c1-3.4,3.4-4.7,6.7-4.6
	c2.9-0.1,5.6,1.9,6.2,4.7C375.2,177.1,375.2,182.9,373.9,188.6z"/>
<linearGradient id="SVGID_2_" gradientUnits="userSpaceOnUse" x1="-2.060942e-02" y1="75.0653" x2="229.42" y2="75.0653">
	<stop  offset="0" style="stop-color:#2E847B"/>
	<stop  offset="0.7864" style="stop-color:#2B98B3"/>
	<stop  offset="0.9497" style="stop-color:#43A1A8"/>
</linearGradient>
<path class="st1" d="M226.4,129.8c-11-16.4-21.8-32.9-33-49.1c-2.7-4-3.8-6.9-0.3-11.1c3.7-4.6,6.4-10,9.6-15
	c8.3-13.1,16.5-26.2,25.2-39.9c-10.6,0-20.6,0-30.5,0c-2.3,0-3,1.5-4,3.1c-5.8,9.8-11.6,19.6-17.3,29.5c-1.8,3.1-2.8,3.5-4.9,0.3
	c-4.6-7.3-20.7-33-20.7-33s-27.5,0.2-34.7,0.2c1.6,2.5,2.6,4,3.6,5.5c11.1,16.7,22.3,33.4,33.5,50c1.6,2.3,1.9,3.9,0.2,6.5
	c-8,12.2-15.6,24.5-23.4,36.8c-4.3,6.9-8.6,13.8-13.2,21.1h32c0,0,6.5-9.9,9.4-14.8c4.3-7.3,8.7-14.6,13.3-22.4
	c7.9,11.7,15.3,22.9,22.8,34c1,1.4,1.5,3.2,4,3.2c10.2-0.1,20.5,0,31.5,0C228.1,132.5,227.3,131.1,226.4,129.8z M101,18.7
	c0-3.1-0.5-4.3-4-4.2c-6.7,0.3-13.3,0.3-20,0c-4.2-0.2-5.2,0.9-5.2,5.1C72,42.5,72,65.4,71.9,88.3c0,11.4-7.3,19.6-17.6,20.4
	c-14.8,1.1-22.3-4.2-24.6-17c-1.2-6.6-0.6-13.2-0.6-19.8c-0.1-17.8,0-35.5-0.1-53.3c0-1.7,1-4.1-2.6-4c-7.8,0.2-15.6,0.1-23.5,0
	c-2.2,0-2.9,0.9-2.8,3c0.4,26-1.1,52.1,0.9,78.1c0.9,11.4,6.1,21.1,15,28.7c11.2,9.6,24.6,11.9,38.7,11.1
	c28.1-1.8,46.2-21.1,46.2-49c0-10.6,0-21.2,0-31.9C100.9,42.6,100.9,30.7,101,18.7z"/>
<linearGradient id="SVGID_3_" gradientUnits="userSpaceOnUse" x1="241.1033" y1="99.8668" x2="565.5548" y2="99.8668">
	<stop  offset="0" style="stop-color:#2E847B"/>
	<stop  offset="0.6658" style="stop-color:#2B97B0"/>
	<stop  offset="1" style="stop-color:#6AA985"/>
</linearGradient>
<path class="st2" d="M560,67.9c-5.7-0.1-8.6,2-10.3,7.4c-1,3.3-1.8,6.7-2.9,10c-3.2,9.2-6.2,18.5-12.3,26.3c-1.4,1.8-3.1,4-5.8,2.9
	c-2.5-1-2-3.5-2-5.6c0.2-10.7,3.1-20.9,5.3-31.2c0.6-2.9,2.8-6.4-0.3-8.7c-3.1-2.4-6.7-1.1-10,0c-3.3,1.1-4.8,4-5.8,7
	c-2.5,7.9-4.9,15.8-5.2,24.1c-0.2,6.8-2.4,12.4-8.1,16.5c-2.6,1.9-5.2,4.3-8.4,2.4c-3-1.8-2.4-5.2-1.9-8.1
	c1.5-9.6,3.2-19.2,4.7-28.9c1.3-8.2,0-9.5-8.5-9.3c-1.5,0-3.8,1.2-4.5-0.8c-2.4-6.6-7.6-4.5-11.7-3.6c-16.4,3.7-30.4,20.4-31.3,38
	c-0.4,6.7-3.5,10.3-9.1,12.7c-3,1.3-6.3,1.1-7.9-2c-2.7-5.3-4.6-10.8-1.2-16.9c11.3-20.1,21.2-40.8,25.6-63.6
	c1.8-9.1,2.8-18.4-0.7-27.4c-3.8-9.7-13.8-12.1-21.9-5.5c-3.9,3.4-7,7.6-8.8,12.4c-6.2,14.7-9.5,30.2-11.2,46
	c-0.3,2.6,0.1,5.1-3.9,5.7c-12.1,1.9-21.3,8.8-27.2,19c-2.8,4.9-6.4,6-11,6.7c-3,0.4-4.5,0-5.2-3.8c-3.4-18.9-21.2-27.7-38.1-18.6
	c-13.3,7.1-18.3,19.4-17.8,33.6c0.2,5.5-2,8.3-5.6,11.1c-10,7.8-21.6,4-24.6-8.1c-2-8-1.5-16.1-1.4-24.2c0.1-2.8,2-2.6,3.8-2.6
	c6.2,0,12.3-0.1,18.5-0.2c3,0,6-1,8.4-2.6c3.2-2.1,3.8-5.4,3-8.8s-3.9-2.5-6.2-2.5c-4.1-0.1-8.3,0-13.8,0c2.5-2.6,4-4.2,5.6-5.9
	c9.9-10.9,14.4-23.7,12.5-38.3c-1.5-11.6-10.8-16.2-21-10.5c-3,1.7-5.7,4-7.8,6.8c-9.7,12.3-14.1,26.8-16.9,41.8
	c-0.9,4.8-2.3,6.9-7.3,6.2c-3.4-0.5-6.7,0.1-8,4.2c-2,6.3,0.4,10.1,7.1,9.8c4.2-0.1,5.3,1,5.1,5.2c-0.5,7.4-0.2,14.9,0.8,22.3
	c2.4,16.4,11.4,25.7,26.5,26.6c8.8,0.6,17.3-2.6,23.6-8.8c1.9-1.8,3-2.4,4.9,0.2c2.8,3.6,6.6,6.1,10.9,7.3
	c15.5,4.9,31-3.7,36.1-20.9c1.7-5.6,5.8-4.9,9.2-4.9c3.9,0.1,1.5,3.9,1.7,5.9c0.8,8.9,4,16.3,12.7,19.6s16.6,1.2,23.2-5.5
	c1.7-1.7,3.3-3.6,5.1-5.6c0.9,1.4,1.6,2.5,2.3,3.6c5.8,9,13.9,11.3,23.6,6.7c2.6-1.2,4.9-2.7,7-4.6c1.5-1.4,2.4-1.4,3.9,0.2
	c8.8,9.2,21,8.9,29.5-0.7c1.2-1.3,1.7-3.2,3.8-4c3,6.5,7.1,11.6,15.2,11.2c7.3-0.3,12-5.4,17.4-9.3c8.2,12.6,18.9,12.4,26.8-0.3
	c1.4-2.2,2.6-4.5,4.4-7.8c-0.9,8.5-0.6,15.8-8.4,20.6c-5.4,3.4-10.1,8.1-14.6,12.7c-7.2,7.2-13.8,14.8-16.5,25
	c-2.9,11,0.8,20.4,9.8,23c7.2,2.1,13.8,0.5,19.5-4.5c6.6-5.8,10.1-13.5,13-21.4c6.2-16.8,9.6-34.2,12.3-51.9c2.4-15.5,5-31,7.6-46.5
	C566.2,69.6,564.8,68,560,67.9L560,67.9z M429.7,19.3c0.2-0.6,0.5-1.2,0.8-1.8c0.7-1.7,1.3-3.8,3.5-3.7c2.6,0.2,2.4,2.8,2.8,4.6
	c1.8,8.8,0.1,17.5-1.9,26c-2.9,12.2-7.4,24-13.4,35C422.6,59.1,423.2,38.8,429.7,19.3z M282.6,26.8c1-1.8,2-4.3,4.6-3.7
	c2.5,0.6,2.6,3.1,2.7,5.3c0.8,14.8-5.8,26.1-16.6,35.4C274.9,51.1,276.5,38.4,282.6,26.8z M342.5,109.4c-0.7,2.4-1.9,4.6-3.4,6.6
	c-5.5,6.8-14.1,5.6-17.5-2.4c-1.3-3.2-1.9-6.7-1.7-10.2c0.2-5.8,0.9-11.5,4.8-16.3c1.4-1.9,3.4-3.2,5.6-4c2.4-0.7,4.3-1.3,3.9,2.9
	c-0.8,6.5,1.7,13.1,6.7,17.4C343,105.3,343.2,107,342.5,109.4L342.5,109.4z M392.7,120.9c-3.7,0.1-5.9-1.6-6.9-5.1
	c-3.4-11.9,4.9-30.7,17.9-33.9c0.4,8.9-0.3,17.5,1,26C405.5,113.1,398,120.8,392.7,120.9L392.7,120.9z M479.6,85.7
	c-1.5,7.8-3.1,15.5-4.8,23.3c-0.7,3.1-2,6-4,8.5c-2.3,2.9-5.2,4.2-8.8,3.1c-3.4-1.1-4-4.1-4.3-7.2c-0.1-0.8,0-1.7,0-2.5
	c0.6-9.5,3.3-18.2,10.4-25c1.9-1.9,4.2-3.3,6.7-4.2c1.7-0.6,3.7-1.7,5.2-0.5C481.2,82.2,479.9,84.2,479.6,85.7L479.6,85.7z
	 M525.6,182.2c-1.7,2.3-3.6,5.4-7.2,3.4c-3.1-1.7-2.9-5-2.2-7.9c2-9.1,7.8-15.8,14.3-22.1c1.9-1.8,3.7-3.8,6.8-5
	C534.4,161.9,532.3,172.9,525.6,182.2z"/>
</svg>
