<svg id="Layer_1" data-name="Layer 1" xmlns="http://www.w3.org/2000/svg" viewBox="0 0 662.43 230.03"><title>logo-busi</title><path d="M568.74,598.06c-4.63,3-9.17,6-13.84,8.8-3.73,2.26-5.59,1.43-6.12-2.84a29.38,29.38,0,0,1,.2-7.43c.69-5.26,1.72-10.48,2.4-15.75.41-3.24.15-6.74-3.5-8s-7,.31-9,3.71c-2.36,4.17-4.31,8.58-6.53,12.85-.58,1.13-.52,2.92-2.62,3.11.58-4.82,1.25-9.41,1.64-14,.21-2.51.05-5.25-3.25-5.81s-5.68.82-6.93,4.2c-.9,2.45-.47,5.27-2.22,7.65-1.2-1.27-2.29-2.51-3.47-3.65-8.19-7.84-19.79-10.3-29-6.19-8.4,3.76-13.45,13.3-13,24.48.23,5.29-2.46,8.94-7.46,10.24-2.46.64-4-.07-4-2.77a39.78,39.78,0,0,1,.71-8.4c1.61-6.6,3.72-13.07,5.33-19.67.51-2.13,1.9-5.18-2.12-5.94a8.53,8.53,0,0,0-9.59,6c-1.72,6.41-3.44,12.81-5,19.25a5.18,5.18,0,0,1-1.92,3.3c-3.65,2.64-7.41,5.12-11.72,6.48-5.37,1.7-9.13-.68-9.39-6.2a128.6,128.6,0,0,1,.26-16c.36-4.66,5.38-8.72,10.07-8.73,4.16,0,8.33,0,12.49,0a3.52,3.52,0,0,0,3.87-3.66c.12-2.39-1.27-3.47-3.79-3.37-3.73.15-7.47,0-11.93,0,.9-1.75,1.25-2.46,1.63-3.15,3.2-6,6.81-11.84,6.5-19-.27-6.31-3.16-11.75-7.25-12.5-5.87-1.08-8.75,3.21-11.33,7.3a58.79,58.79,0,0,0-8,20.76c-.76,4.08-2.47,5.37-6.22,4.64-7.53-1.48-11.25,5.71-17.31,7.63-1.44.45-1.26,2.61-1.67,4-1.26,4.29-2.9,8.58-3.36,13-.92,8.75-7.08,12.1-14,14.81-6.34,2.47-10.22.19-10.64-6.53a104.24,104.24,0,0,1,.42-13.44c.45-7,4.29-10.47,11.33-10.47,3.66,0,7.33,0,11,0,2.68,0,3.94-1.25,4-3.92.1-3-1.84-3-4-3.09-3.69-.17-7.45.32-11.31-.87,3.34-6.15,6.91-11.8,7.77-18.55s-2.38-13.84-7-15.23c-4.11-1.26-8.44,1.6-12.26,8.28a69.15,69.15,0,0,0-7.63,20.94c-.56,2.78-1.64,3.89-4.6,3.53a32.25,32.25,0,0,0-7.47.22c-1.48.16-3,.77-2.85,2.8.11,1.81,1.18,2.63,2.85,2.87a64.23,64.23,0,0,0,6.41.92c2.54.13,3.38,1.05,3.13,3.69-.39,4.13-1,8.43-.22,12.43,1.29,7.05-2,10.87-7.73,13.6-1.8.87-3.58,1.75-5.38,2.61a16.18,16.18,0,0,1-8.21,1.69,4.6,4.6,0,0,1-4.42-3.43c-.32-1.77,2.17-1.62,3.42-2.17,6.67-2.93,11.76-7.41,14.62-14.22,3.38-8-1.41-15.73-10.16-16.32-7.43-.5-12.39,3.41-15.77,9.36-3.47,6.12-5.68,12.73-5.22,20,.07,1.12.52,2.28-.76,3.14a26.89,26.89,0,0,1-18.4,4.71,14,14,0,0,1,3.2-2.3c5.33-3.29,9.9-7.29,12.12-13.4,3.15-8.68.47-17.58-6.13-20.41-8.51-3.64-16.49-.27-20.75,9-1.44,3.14-2.92,6.49-3.24,9.85-.57,6-4.24,9.48-8.53,12.69-1.7,1.27-3.76,3-5.84,2s-1.94-3.68-1.82-5.83c.16-3,.43-6,.76-8.92.54-4.79,1.27-9.54,1.73-14.33.21-2.22-.22-4.44-2.77-5.25-2.36-.76-4.67-.6-6.37,1.49a66.3,66.3,0,0,0-4.18,5.57c-2.62,4-5.11,8-7.66,12.07a102.47,102.47,0,0,1,1.9-11.39c.56-3,1.29-6.29-2.39-7.73-3.46-1.35-5.94.52-8.06,3.3-3.69,4.85-6.41,10.29-9.81,15.39.28-4.32,1-8.53,1.38-12.76.2-2.4,1.52-5.65-2.68-6.24-3.48-.5-6.29.14-7.16,4.24-.52,2.44-1.34,4.81-2.07,7.4-2.23-2.05-4-3.85-5.92-5.36-16.64-12.79-36.85-5.15-38.81,15.24-.81,8.48-6.26,11.47-12.19,14.52-5.78,3-10.72,0-11.57-6.36a29.5,29.5,0,0,1,2.84-16.47c1.26-2.72,3.47-5.41,6.39-4.4,2.58.9.82,4.1.65,6.31a2.65,2.65,0,0,1-.09.49c-.41,1.92-.33,3.77,1.72,4.68a4.41,4.41,0,0,0,5-1.12,11.24,11.24,0,0,0-3.62-18.8c-6.22-2.25-13.17-.12-17.73,5.78a35.11,35.11,0,0,0-7.14,19.86c-.43,7.37,1.93,13.91,8.66,17.83s13.48,2.78,19.73-1.47c2.84-1.93,5.48-4.17,8.39-6.42,2.69,5.45,6.28,9.92,13,10.14,7.46.27,12.55-3.6,16.17-9.75,4.88-8.3,4.9-17,1.44-26.11,2.77.53,4.23,2.22,5.85,3.48,3.87,3,6.68,6.08,5,12.05-1.35,5-2,10.45-.57,15.79.69,2.5,2,4.19,4.64,4.53a5.12,5.12,0,0,0,5.63-3.19c1.6-3.28,3.21-6.55,4.86-9.81,2.33-4.58,3.93-9.57,7.76-14.71-.48,3.53-.83,5.81-1.1,8.1-.57,4.76-2,9.48-1.11,14.34.45,2.46,1,5.1,4.28,5.28a6.09,6.09,0,0,0,6.42-3.78c.41-.9.7-1.86,1.07-2.78,2.66-6.65,5.33-13.3,8.26-20.6,0,5.11,0,9.36,0,13.61.18,14.15,3.53,16.3,16.57,10.74.1,0,.28.09.8.26l-1.4,2.89c-3.21,6.54-7,12.9-7.16,20.48-.14,8.79,2.65,14.32,7.46,15.36,5.3,1.16,10.78-3.09,14.19-11,3.28-7.59,4.51-15.63,4.75-23.79.09-3.13,1-3.58,3.75-2.79,8.08,2.29,15.85,1.76,22.73-3.53,1.72-1.33,2.42-.52,3.64.57,5,4.47,10.91,5.18,17.29,3.77,6.82-1.52,12.45-5.32,18-9.3,7.94,12.61,9.58,12.76,29.7,2.77,1,4.05,3.18,7.17,7.71,7.08,9.42-.2,16.9-4.57,23.21-11.09,4.42,11.57,9.49,13.66,20.92,8.29,2.25-1.05,4.47-2.18,6.65-3.37,1.31-.72,2.09-1.35,2.77.85,1.7,5.52,6.26,5.91,10.94,5.14a29.8,29.8,0,0,0,12.31-5.18c2.3-1.62,3.36-1.15,5.13.79,5,5.47,12.27,6.2,18.55,2.21,5.52-3.51,8.32-8.82,10-14.92,1.71-6.3.47-12.38-1.7-19,3.47,1.75,5.75,3.88,8.2,5.81,3.57,2.82,5,5.92,3.92,10.69s-.89,9.6-.39,14.41c.28,2.68,1.67,4.73,4.49,5.32s4.79-.91,6-3.34c2.26-4.43,4.43-8.91,6.67-13.34,1.69-3.33,3.45-6.63,5.17-9.95.3,6.64-1,12.87.39,19.21,1.57,7.2,4.35,9,11.3,6.37a87.87,87.87,0,0,0,10.77-5.16C570.38,608,570.59,607.39,568.74,598.06ZM429.28,566.2c1.43-6.3,2.69-12.65,5.8-18.42.74-1.38,1.54-2.77,3.37-2.14s1.72,2.24,1.82,3.7c-1.45,6.63-4.75,12.39-8,18.15a1.66,1.66,0,0,1-2.14.75C429.05,567.88,429.09,567,429.28,566.2Zm-60.65-.07c1.63-6.19,2.78-12.55,5.85-18.29.72-1.35,1.6-2.72,3.39-2.2s1.6,2.25,1.66,4.39c-1.28,6.09-4.63,11.94-8.09,17.73a1.63,1.63,0,0,1-2.2.49C368.28,567.86,368.42,566.93,368.63,566.13Zm-170.7,39.51c-1.2,2.39-2.94,4.69-6.2,4s-4.62-3.08-5.12-6.07a36.12,36.12,0,0,1-.27-4.27c.17-5.83,1.44-11.1,5.4-15.3,3.43-3.63,7.17-2.82,8.66,1.95C202.54,592.79,201.06,599.39,197.93,605.64Zm95.47-.2c-.74-7.36,1-13.56,3.39-19.55,1.18-2.95,3.35-6,7.12-4.53,3.52,1.34,3,4.93,2.3,7.79C304.47,596.17,300.47,601.59,293.4,605.44ZM330,593.93a21.67,21.67,0,0,1,3.59-9.69c1.62-2.31,4.38-3.86,6.91-2.24s2.18,4.61.61,7.09A15.75,15.75,0,0,1,333,596C329.94,597,329.77,596.92,330,593.93Zm164.58,13.46c-2.32,3.44-6.25,3.09-8.7-.32-1.77-2.47-1.64-5.32-1.66-8.56.23-5.2,1.48-10.48,5.46-14.69,3.18-3.36,7.18-2.67,8.48,1.73C500.52,593.31,499.11,600.74,494.62,607.39Zm184.71-28.92c-2.63-8.55-8.1-12.57-16.94-12.37-8.63.19-13.8,4.21-16.11,12.7a41.54,41.54,0,0,0-.1,21.63c2.33,8.91,7.57,13,16.31,13.1,9.13.08,14.38-4,17-12.93a40,40,0,0,0,1.21-10.18A39,39,0,0,0,679.33,578.47Zm-10.26,20.11a5.94,5.94,0,0,1-6.19,4.77c-3.3-.08-5.68-1.7-6.46-5.09a36.85,36.85,0,0,1,.14-17.22c.76-3.1,2.85-4.58,6.17-4.61s5.55,1.34,6.28,4.46.92,6.19,1.35,9.24A79,79,0,0,1,669.07,598.58Zm32.32,5.65c5.1,0,8.93.25,12.71-.08s4.31,1.18,4.34,4.49-.8,4.58-4.38,4.44c-7.64-.28-15.3,0-22.95-.14-1.6,0-4.37,1.16-4.64-1.15-.3-2.67-1.61-5.83,1.47-8.26a134.7,134.7,0,0,0,11.24-9.83c3.52-3.47,7.16-7,7.37-12.5.1-2.68-.39-5.09-3.53-5.71s-5,.73-6,3.77c-.83,2.55-6.59,4.45-9.48,2.84-2.71-1.51-1-4.07-.37-6.05,2.69-8.19,12.05-12.14,21.38-9.17,7.42,2.37,10.94,10.34,8.22,18.8-2.18,6.8-7.41,11.25-12.45,15.83Zm-78.47,0c5.59,0,9.73.2,13.84-.06,3.77-.24,3.34,2.11,3.35,4.48s.4,4.54-3.36,4.42c-7.81-.25-15.64,0-23.46-.14-1.75,0-4.63,1.34-5.12-1.24-.54-2.86-1.28-6.12,1.93-8.64a162.5,162.5,0,0,0,12.3-10.89c2.75-2.65,5.13-5.76,5.81-9.66.49-2.86.45-5.9-3.12-6.91s-5.51.85-6.63,4.19c-1.77,5.35-6.25,2.16-9.21,2.13s-1-3.32-.69-4.79c1.51-6.3,5.89-9.88,12.21-10.82s12.17-.14,16.07,5.45,3.16,11.72.14,17.45S628.82,599.12,622.92,604.23Zm116.76-13.76c0,6.47-.16,12.94.06,19.4.1,3-.55,4.37-3.76,3.86a12.3,12.3,0,0,0-4,0c-3.33.57-3.73-1.07-3.69-3.9.17-9.62,0-19.24.12-28.86,0-2.6-.38-3.82-3.43-3.8-5.48,0-2.16-4.34-2.84-6.66-.62-2.14.07-3.51,3-3.64,14.5-.67,14.5-.77,14.5,13.65ZM406.4,566.79c-5,0-8-2.69-7.93-7,.06-4.73,4.08-8.08,9.55-7.94,4.93.12,7.51,2.41,7.52,6.67C415.55,563.63,412,566.83,406.4,566.79Zm60.43,0c-5.05-.06-7.78-2.57-7.7-7.08s3.79-7.82,9.08-7.82c5,0,8.1,2.6,8,6.8C476.17,563.51,472.29,566.85,466.83,566.79Zm-65.42,37c.65-7.07,3.1-14,5.12-20.93a34.4,34.4,0,0,1,.94-3.34c.74-1.86-.18-5,1.87-5.49,2.42-.53,5.22.45,7.81,1,2,.42,1.22,2.15,1.06,3.31a69.15,69.15,0,0,0,.07,19.33,3.57,3.57,0,0,1-1.54,3.82c-2.79,2.07-5.45,4.32-8.25,6.38-1.6,1.18-3.53,2.49-5.49,1.55C400.85,608.42,401.53,606,401.41,603.82ZM283.52,619.58c-.36,6.61-.66,13.23-1.11,19.83-.13,1.93-.32,4.8-2.57,4.69-2.72-.13-3.38-3.06-3-5.41A48.07,48.07,0,0,1,283.52,619.58ZM521.57,486.4c0-10.23,0-20.47,0-30.71,0-1.34-.36-1.67-1.68-1.65q-8.06.1-16.12,0c-1.36,0-1.84.24-1.83,1.73q.07,30.72,0,61.43c0,1.51.49,1.72,1.82,1.7,5.31-.07,10.63-.11,15.94,0,1.66,0,1.9-.5,1.88-2C521.54,506.75,521.57,496.58,521.57,486.4Zm281.28,11.42c-.63-7.73-5-12.67-12-15.56-4.4-1.81-9.05-2.74-13.6-4a24.73,24.73,0,0,1-6-2.27,4.48,4.48,0,0,1-2.56-4.67c.25-2.08,1.62-3.2,3.46-3.84a10.21,10.21,0,0,1,7,.11c2.31.83,4,2.29,4.31,4.8.13.93.59.92,1.26.91,5.06,0,10.12,0,15.18,0,.94,0,1.31-.15,1.26-1.23-.33-6.4-2.89-11.6-8.23-15.24-6.48-4.43-13.83-5.26-21.41-4.6a27.82,27.82,0,0,0-16.39,6.61c-8.09,7.06-10,24.83,5,31a64.81,64.81,0,0,0,7.15,2.45c4.24,1.18,8.64,1.86,12.69,3.7,2.69,1.22,3.78,2.78,3.54,5s-1.8,3.73-4.45,4.28a13.63,13.63,0,0,1-10.06-1.5,5,5,0,0,1-2.62-3.74c-.12-1-.53-1.34-1.56-1.31-2.72.08-5.44,0-8.16,0s-5.7,0-8.54,0c-.8,0-1.13.16-1,1,.59,5.3,2.3,10.08,6.23,13.86,4.53,4.37,10.17,6.22,16.24,6.92,8.5,1,16.67,0,24-4.7C800.23,511.67,803.5,505.69,802.85,497.82Zm-63.4.13c-.6-7.82-5-12.81-12.07-15.72-4.4-1.79-9-2.72-13.6-4a22,22,0,0,1-6.31-2.48,4.47,4.47,0,0,1,.8-8.1,9.93,9.93,0,0,1,7-.24c2.5.77,4.42,2.24,4.79,5,.13,1,.7.85,1.31.85,5.06,0,10.12,0,15.18,0,1.06,0,1.23-.33,1.18-1.3-.32-6.48-3-11.71-8.41-15.32-6.47-4.31-13.75-5.13-21.27-4.45a27.77,27.77,0,0,0-16.38,6.64c-8,7.07-10,24.8,5.12,31a62.74,62.74,0,0,0,7.15,2.44c4.38,1.21,8.9,1.91,13,3.86,2.29,1.07,3.3,2.67,3.13,4.69a4.93,4.93,0,0,1-4,4.31,14.07,14.07,0,0,1-10-1A5.25,5.25,0,0,1,703,500c-.13-1.1-.66-1.26-1.62-1.24-2.72.05-5.45,0-8.17,0s-5.56,0-8.35,0c-.82,0-1.27.06-1.15,1.11.63,5.42,2.43,10.29,6.55,14.09,4.46,4.12,9.92,5.9,15.8,6.6,8.49,1,16.66.1,24.06-4.6C736.73,511.78,740.06,505.83,739.45,498ZM599.1,479.16a52.36,52.36,0,0,0-.37-6.62c-2-16.16-18.09-25.26-33.1-18.76a25.15,25.15,0,0,0-8.73,6.68c0-1.57-.07-3.15,0-4.72.08-1.27-.25-1.73-1.64-1.71-5.37.09-10.75.08-16.13,0-1.29,0-1.71.27-1.71,1.64q.07,30.82,0,61.66c0,1.21.28,1.58,1.54,1.56,5.44-.07,10.88-.1,16.32,0,1.53,0,1.71-.48,1.7-1.81Q556.94,502,557,487c0-4.45.43-8.85,2.92-12.75s6.5-5.5,11.57-4.58a8.91,8.91,0,0,1,7.65,7.16,21.15,21.15,0,0,1,.46,4.9c0,11.89,0,23.78,0,35.67,0,1.24.32,1.57,1.56,1.55,5.44-.07,10.88-.1,16.32,0,1.55,0,1.69-.52,1.68-1.82C599.09,504.45,599.11,491.8,599.1,479.16Zm76.62.59c-1.58-9.67-5.94-17.65-14.45-22.93-7.61-4.74-15.95-5.69-24.63-4.07a30.17,30.17,0,0,0-20.21,12.86c-5.24,7.65-6.65,16.24-5.79,25.3a32.85,32.85,0,0,0,7.71,19c6.58,7.6,15.13,10.77,25,11,14.63.4,26.74-7.68,31.57-21.37-6,0-11.89,0-17.77,0a2.16,2.16,0,0,0-1.76.81c-4.52,4.91-10.15,6.22-16.4,4.47-5.88-1.65-8.7-6-9.76-11.85-.31-1.73.17-1.95,1.73-1.95,14.36.06,28.72,0,43.07.07,1.51,0,2-.48,2.05-1.88A46.68,46.68,0,0,0,675.72,479.75Zm-20.09-1c-4-.08-8.08,0-12.12,0s-8.21,0-12.31,0c-1.25,0-1.68-.18-1.25-1.54A14.31,14.31,0,0,1,656.9,477C657.34,478.44,657,478.74,655.63,478.72ZM521.81,431.8a10.58,10.58,0,0,0-10-6.81,10.34,10.34,0,0,0-10,6.49c-.22.55-.14,1.27-.78,1.62V438c.58.14.46.71.59,1.08A10.88,10.88,0,0,0,519,443.4,10.61,10.61,0,0,0,521.81,431.8ZM161.55,473.63c0-14.61,0-29.22,0-43.82,0-1.34-.34-1.68-1.67-1.66q-8.91.11-17.84,0c-1.24,0-1.56.32-1.56,1.56q0,43.82,0,87.64c0,1.24.33,1.56,1.56,1.55,5.88-.06,11.77-.08,17.65,0,1.46,0,1.87-.32,1.86-1.83C161.52,502.58,161.55,488.1,161.55,473.63Zm328.8,24.28c-.62-7.73-4.9-12.7-11.94-15.62-4.4-1.82-9.05-2.74-13.6-4a20.12,20.12,0,0,1-6.63-2.66,4.39,4.39,0,0,1,.67-7.82,9.69,9.69,0,0,1,6.67-.54c2.83.7,5,2.12,5.48,5.24.13.85.57.81,1.16.81,5.12,0,10.25,0,15.37,0,.89,0,1.2-.17,1.15-1.15-.29-6.32-2.77-11.51-8-15.16-6.56-4.59-14-5.44-21.74-4.74a27.59,27.59,0,0,0-16.37,6.66c-8,7.08-10,24.78,5.2,31a64,64,0,0,0,7.15,2.43c4.19,1.17,8.52,1.85,12.52,3.65,2.72,1.21,3.82,2.73,3.62,4.94s-1.83,3.78-4.56,4.41a14,14,0,0,1-7.12-.3c-2.8-.81-5.17-2.18-5.55-5.46-.11-1-.77-.81-1.39-.81h-8.35c-2.78,0-5.56,0-8.34,0-.92,0-1.22.18-1.11,1.15.81,7.35,4,13.22,10.54,17a30.58,30.58,0,0,0,12,3.71c8.5.92,16.67,0,24-4.77C487.72,511.64,491,505.7,490.35,497.91ZM424,455.48c0-1.22-.41-1.45-1.52-1.44-5.44.06-10.88.1-16.32,0-1.6,0-2,.4-2,2q.1,16.22,0,32.43a20.49,20.49,0,0,1-2.17,9.51c-2.45,4.61-6.78,6.46-12.58,5.35-4.23-.82-6.88-3.93-7.5-8.85a21.43,21.43,0,0,1-.09-2.66v-36c0-.84.28-1.73-1.22-1.71-5.75.07-11.51,0-17.26,0-1,0-1.27.36-1.26,1.31,0,14-.06,27.95.13,41.92.09,5.9,1.52,11.6,5.6,16.13,6.85,7.62,15.65,8.57,25.05,6.7,4.75-1,8.41-3.78,11.31-8.07.11,2.12.26,3.87.27,5.62,0,1,.31,1.25,1.31,1.24q8.43-.07,16.88,0c1.11,0,1.34-.36,1.34-1.39Q423.92,486.49,424,455.48Zm-182.1-25.84c0-1.11-.22-1.49-1.44-1.49q-33.69.06-67.38,0c-1.17,0-1.49.31-1.48,1.48.06,5.63.07,11.25,0,16.88,0,1.32.35,1.71,1.69,1.7,7.08-.07,14.17,0,21.25-.08,1.47,0,1.74.42,1.74,1.79-.06,11.2,0,22.39,0,33.58s.05,22.26-.05,33.39c0,1.74.5,2.05,2.1,2,5.63-.1,11.26-.12,16.89,0,1.75,0,2.15-.46,2.15-2.17-.06-22.19,0-44.39-.09-66.59,0-1.71.46-2.05,2.08-2,7,.1,13.92,0,20.88.07,1.32,0,1.72-.33,1.7-1.68C241.81,440.9,241.82,435.27,241.88,429.64Zm102.46,46.18a37.69,37.69,0,0,0-6.85-4.11c.3-.21.48-.37.69-.49,15.41-8.68,12.4-30.24,1-37.72-5.82-3.82-12.25-5.25-19.05-5.29-11.64-.08-23.28,0-34.92-.06-1.23,0-1.56.32-1.56,1.56q.06,43.82,0,87.63c0,1.22.3,1.57,1.55,1.56,6.58-.06,13.15,0,19.73,0,7.53-.09,15.07.53,22.56-.37,13.7-1.65,24.28-10.1,24.44-25.89C352,485.79,349.68,480.15,344.34,475.82Zm-38.4-28.25c4.74.05,9.48-.06,14.21.05,5.19.12,8.69,3.44,8.88,8.2s-3,8.61-8.29,8.93c-5,.3-10,.09-15,.16-1,0-1.1-.49-1.09-1.28,0-2.52,0-5.05,0-7.57s0-4.8,0-7.2C304.66,447.9,304.92,447.56,305.94,447.57ZM324.27,499c-3.29.69-6.68.17-9.48.29-3.27,0-6,0-8.71,0-1,0-1.42-.19-1.41-1.32.06-5.31.05-10.62,0-15.93,0-.91.25-1.17,1.16-1.16,5.44.05,10.88-.07,16.32.08a8.84,8.84,0,0,1,8.84,8C331.47,493.88,328.78,498.05,324.27,499Z" transform="translate(-140.51 -424.99)"/></svg>