<svg id="Layer_1" data-name="Layer 1" xmlns="http://www.w3.org/2000/svg" viewBox="0 0 767.85 206.3"><title>logo-hack</title><path d="M810.18,107.74c-5.64-.11-8.65,2-10.3,7.34-1,3.31-1.8,6.69-2.93,10-3.18,9.2-6.22,18.49-12.27,26.35-1.4,1.81-3,4-5.76,3-2.56-.94-2.08-3.51-2-5.6.18-10.67,3.07-20.88,5.32-31.2.64-2.92,2.77-6.39-.27-8.74s-7-1.1-10.49.16c-3.09,1.12-4.42,3.92-5.33,6.78-2.5,7.88-4.93,15.82-5.23,24.14-.25,6.81-2.32,12.45-8.1,16.55-2.62,1.85-5.18,4.33-8.44,2.48-3.08-1.75-2.44-5.15-2-8.11,1.54-9.62,3.2-19.22,4.7-28.85,1.29-8.26.07-9.5-8.46-9.36-1.52,0-3.81,1.21-4.49-.71-2.33-6.67-7.56-4.56-11.72-3.64C705.78,112,692,128.69,691,146.71c-.37,6.5-3.71,9.9-9,12.19-3,1.29-6.28,1.17-7.9-2-2.76-5.32-4.66-10.75-1.21-16.85,11.34-20.06,21.21-40.77,25.62-63.6,1.76-9.14,2.84-18.41-.68-27.43C694,39.4,683.94,36.9,675.94,43.52c-4.19,3.47-6.86,8-9,12.91C660.78,71,657.72,86.33,655.91,102c-.3,2.54.12,5.15-3.84,5.76-12.1,1.87-21.26,8.74-27.16,19-2.79,4.86-6.32,6.08-11,6.72-3,.4-4.51.14-5.2-3.71-3.75-20.76-25.52-28.91-42.29-16-10.18,7.82-14.32,18.75-13.62,31,.33,5.84-2.37,8.58-6,11.37-9.89,7.54-21.25,3.6-24.26-8.38-2-8-1.54-16.12-1.39-24.24.05-2.81,1.88-2.59,3.76-2.6q9.24-.06,18.48-.17a15,15,0,0,0,8.84-2.89c3-2.15,3.34-5.29,2.61-8.5-.77-3.45-3.83-2.51-6.17-2.57-4.22-.12-8.45,0-13.81,0,2.44-2.57,4-4.19,5.55-5.86,9.91-10.9,14.42-23.64,12.57-38.32-1.47-11.63-10.76-16.19-21-10.56a25.75,25.75,0,0,0-7.85,6.79C514.51,71,510,85.51,507.25,100.5c-1,5.24-2.68,7-7.8,6.24-3.3-.49-6.28.36-7.51,4.12-2.07,6.32.36,10.08,7.05,9.87,4.12-.13,5.38.86,5.13,5.13a109.08,109.08,0,0,0,.79,22.32c2.08,14,10.21,24.32,21.45,26.12,10.58,1.69,20.21-.45,28.17-8,2.14-2,3.38-2.89,5.6.21,2.51,3.5,6.35,5.66,10.59,7,15.67,4.94,30.94-3.71,36.32-21.31,1.67-5.44,5.79-4.34,9-4.43,3.68-.1,1.05,3.58,1.85,5.4a3.21,3.21,0,0,1,0,1c.63,8.69,4,15.87,12.51,19.19,8.29,3.23,16,1.39,22.47-4.75,2-1.9,3.75-4.06,5.82-6.33,1,1.52,1.76,2.76,2.56,4,5.3,8.15,13,10.62,22,7a25,25,0,0,0,8-4.93c1.73-1.63,2.74-1.88,4.63.23,7.34,8.19,19.39,8.4,27.41.72,1.86-1.79,3.44-3.87,5.35-6,.91,1.59,1.6,2.88,2.36,4.14,4.2,6.9,11.41,9.17,18.89,6.06a34.4,34.4,0,0,0,9.44-6.32c1.73-1.51,2.32-1.85,3.82.57,5.46,8.84,14.81,9.48,22,1.88,3.1-3.27,4.76-7.44,7.61-11.95-.38,9.16-1.5,16.67-9.81,21.53-4.78,2.79-8.67,7.19-12.71,11.12-7.4,7.21-14.12,14.91-16.87,25.25-2.94,11,.79,20.38,9.71,23,7.37,2.16,14.09.44,19.83-4.79,6.33-5.77,9.76-13.29,12.66-21.06,7-18.67,10.26-38.18,13.27-57.77,2.08-13.56,4.41-27.08,6.63-40.62C816.32,109.41,815,107.83,810.18,107.74ZM532.36,67.34c1-2,2-5.2,5.22-4.29,2.67.77,2.43,3.62,2.52,5.92.55,14.39-6,25.44-16.59,34.63C525,91.1,526.62,78.68,532.36,67.34Zm51,92.34c-5.14,1.51-9.94-1.17-12-6.88A22.86,22.86,0,0,1,570,143c.19-5.84.89-11.53,4.92-16.24A11.49,11.49,0,0,1,581,122.7c2-.46,3.56-.66,3.25,2.75-.63,7,1.54,13.36,7.12,18.18a4.07,4.07,0,0,1,1.71,2.32C593.92,150.35,588.43,158.21,583.4,159.68Zm58.63,1a5.9,5.9,0,0,1-5.72-4c-4.56-12.16,4.83-32.64,17.58-34.79.24,8.91-.16,17.8,1,26.67C655.54,153.71,647.22,160.93,642,160.69Zm31-66c1.14-11.18,2.64-22.33,6-33.08,1-3.07,1.29-8.3,5.41-7.74,3.4.46,2.84,5.57,3.07,8.66.61,8.15-1.06,16.12-3,24A194.45,194.45,0,0,1,674,115.74c-.54,1.25-.76,2.93-3.1,3.66C671.6,110.94,672.16,102.78,673,94.64Zm51.92,54.41a17.13,17.13,0,0,1-5.86,10.14c-3.87,3.06-8.83,1.67-10.45-2.84-4.12-11.46,5.55-31.27,17.09-35.12,1.62-.54,3.13-1,5-.19C728.77,130.39,727,139.75,724.91,149.05Zm50.54,73.34c-1.61,2.17-3.48,4.9-6.93,3.12-3.12-1.61-2.87-4.74-2.38-7.42,1.27-7,5.16-12.7,9.84-17.94a53.42,53.42,0,0,1,11.42-10.09C784.57,201.91,782.37,213,775.45,222.39ZM48,115.13c0-18.42.07-36.84-.08-55.26,0-3.17.69-4.27,4-4.13,6.82.28,13.67.31,20.48,0,3.57-.17,4,1.25,4,4.24-.14,12.78,0,25.56-.13,38.34,0,3.26.91,4.27,4.21,4.22q18.75-.25,37.49,0c3.19,0,4.27-.72,4.21-4.1-.21-12.94,0-25.89-.16-38.84,0-3.1.82-3.94,3.9-3.84,7,.23,14,.2,21,0,2.9-.08,4,.49,4,3.75q-.19,55.52,0,111c0,3.08-.78,4-3.87,3.86-7.15-.23-14.33-.22-21.48,0-3,.09-3.54-.95-3.52-3.66.13-13.77,0-27.55.13-41.32,0-3.11-.59-4.23-4-4.17-12.66.22-25.32.18-38,0-3.07,0-4,.82-3.91,3.9.16,13.78,0,27.55.13,41.33,0,3-.6,4-3.8,3.91-6.82-.26-13.67-.32-20.48,0-3.78.19-4.22-1.29-4.19-4.53C48,151.65,48,133.39,48,115.13ZM266.1,170.42c-.15-9.63-.06-19.26-.06-28.88q0-28.63,0-57.27c0-2.39.4-4.49-3.39-4.33-7.32.32-14.66.19-22,0-2.6,0-3.61.71-3.43,3.37.2,3,.05,6,.05,10-14.91-19.6-42.43-17.74-56.76-3.72-19,18.63-19.07,56,.07,74.93,15.94,15.73,41.66,14.5,56.69-3.64,0,4,.19,7-.06,9.95s1,3.58,3.69,3.52c7.16-.17,14.33-.27,21.49,0C265.79,174.57,266.14,173.21,266.1,170.42Zm-40.44-21.87c-7.33,3.67-14.94,3.22-21.56-1.88-8.47-6.54-9.5-15.75-8.09-25.53a20.69,20.69,0,0,1,29.83-15.42c7.41,3.75,11.45,11.34,11.46,21.52C237.47,136.54,234.25,144.24,225.66,148.55Zm258.18,25.79c-11.73,0-22.51-.06-33.29,0-2,0-2.83-1-3.84-2.43-7.78-10.72-15.64-21.38-23.45-32.08-1.05-1.43-1.8-3.1-4.25-4,0,11.5-.15,22.69.09,33.87.07,3.58-.62,4.91-4.55,4.69-7-.37-14-.2-21,0-2.45,0-3.07-.73-3.07-3.09q.11-59.24,0-118.45c0-3.08,1.25-3.5,3.84-3.46,7,.14,14,.24,21,0,3.22-.13,3.79,1,3.77,3.91C419,72.85,419,92.43,419,112v5.51c3.63-1.87,4.94-5.07,6.85-7.54,7-9,13.73-18.26,20.48-27.48A5.35,5.35,0,0,1,451.26,80c10.31.12,20.62,0,31.57,0-3.11,5.32-7.23,9.31-10.78,13.69-8.14,10-16.23,20.12-24.89,29.7-3.12,3.45-2.1,5.25.25,8C459.37,145.4,471.24,159.47,483.84,174.34ZM359,113.76c-2.17,0-4.34-.08-6.49,0-5,.23-8.77,0-12.15-5.54-5.49-8.92-21.23-6.56-26.17,3.53-4.82,9.84-4.65,20.17-.31,30.21,2.69,6.21,7.91,9.25,14.61,9.35,6.26.09,11.36-2.4,14.18-8.22.94-1.94,1.94-2.7,4.09-2.67q12.22.17,24.47,0c2.57,0,3.11.62,2.32,3.12C368,161.11,356.35,172,338,174.71,319.49,177.48,303,173.4,291,157.78c-15.16-19.77-13.7-63,18.53-75.46,22.15-8.58,46.76-1.94,58.56,16,2.56,3.9,4.09,8.21,5.64,12.54.75,2.1.19,3-2.22,2.92C367.31,113.65,363.15,113.76,359,113.76Zm272.8,95c-2.21-5.91-6.56-9.32-13.14-9.66-11.2-.59-16.19,3.17-19.1,14.27-.78,3-.48,5.9-.7,8.84A33.83,33.83,0,0,0,600.17,234c2.28,7.42,7.52,11.36,15.37,11.6,8.68.27,13.78-2.83,16.52-10.63A37.67,37.67,0,0,0,631.79,208.76ZM623,230.52c-.85,3.45-2.92,5.58-6.58,5.54s-5.74-1.8-6.75-5.38c-.79-2.79-.59-5.55-.72-8.34a25,25,0,0,1,1-9.29c1-3.35,3.53-4.63,6.8-4.52a6,6,0,0,1,6.08,4.86A35.7,35.7,0,0,1,623,230.52ZM655.58,237c4.67,0,9,.17,13.22,0,3.18-.17,3.08,1.73,2.87,3.78-.19,1.85,1.2,4.52-2.68,4.46-8.81-.15-17.63,0-26.45-.06-1.1,0-2.67.29-2.52-1.47.21-2.49-1.2-5.27,1.41-7.4,3.6-2.93,7.22-5.86,10.58-9,3.6-3.4,7.2-6.92,8.15-12.11.61-3.33.37-6.51-3.6-7.52-3.71-.94-5.25,1.51-6.5,4.57-1.88,4.6-6,1.84-8.91,1.87-2.15,0-1-2.77-.52-4.36,2.61-9.11,12.48-13.45,22.07-9.73,7.74,3,10.44,11.74,6.44,20.48-2.36,5.14-6.62,8.63-10.46,12.5C657.65,234,656.13,234.59,655.58,237Zm-78.71,0c4.82,0,9.13.22,13.4-.07,3.74-.24,2.91,2.18,2.91,4.18s.75,4.26-3,4.12c-7.65-.3-15.31,0-23-.16-1.76,0-4.66,1.29-5.15-1.08-.57-2.83-1.2-6.14,2-8.57a81.89,81.89,0,0,0,13.58-12.4c2.35-2.78,4.41-5.73,4.38-9.69,0-3-.85-5.36-4.09-5.85-3.08-.47-5,1.27-6,4.08-.78,2.19-8,4.05-9.73,2.45-.84-.8-.35-1.86-.27-2.79.72-8.42,8.57-13.4,19-12.08,8.09,1,12.64,7.3,11.54,15.48-1.06,7.87-6.32,12.86-11.64,17.92C579.6,233.78,577.71,234.42,576.87,237ZM693,200.34v44.78a1,1,0,0,1-1,1h-9a1,1,0,0,1-1-1V210.35a1,1,0,0,0-1-1h-4.25a1,1,0,0,1-1-1v-8a1,1,0,0,1,1-1H692A1,1,0,0,1,693,200.34Z" transform="translate(-47.89 -39.82)"/></svg>