<?xml version="1.0" encoding="utf-8"?>
<!-- Generator: Adobe Illustrator 24.0.0, SVG Export Plug-In . SVG Version: 6.00 Build 0)  -->
<svg version="1.1" id="Layer_1" xmlns="http://www.w3.org/2000/svg" xmlns:xlink="http://www.w3.org/1999/xlink" x="0px" y="0px"
	 viewBox="0 0 662.4 230" style="enable-background:new 0 0 662.4 230;" xml:space="preserve">
<style type="text/css">
	.st0{fill:url(#SVGID_1_);}
	.st1{fill:url(#SVGID_2_);}
	.st2{fill:#2E847B;}
	.st3{fill:url(#SVGID_3_);}
</style>
<title>logo-busi</title>
<linearGradient id="SVGID_1_" gradientUnits="userSpaceOnUse" x1="467.0872" y1="164.8792" x2="599.1995" y2="164.8792">
	<stop  offset="0" style="stop-color:#2E847C"/>
	<stop  offset="0.8593" style="stop-color:#2B97B1"/>
</linearGradient>
<path class="st0" d="M538.8,153.5c-2.6-8.5-8.1-12.6-16.9-12.4c-8.6,0.2-13.8,4.2-16.1,12.7c-1.9,7.1-2,14.5-0.1,21.6
	c2.3,8.9,7.6,13,16.3,13.1c9.1,0.1,14.4-4,17-12.9c0.8-3.3,1.2-6.7,1.2-10.2C540.3,161.4,539.9,157.4,538.8,153.5L538.8,153.5z
	 M528.5,173.6c-0.6,2.9-3.2,5-6.2,4.8c-3.3-0.1-5.7-1.7-6.5-5.1c-1.3-5.7-1.3-11.6,0.1-17.2c0.8-3.1,2.8-4.6,6.2-4.6
	s5.5,1.3,6.3,4.5s0.9,6.2,1.3,9.2C529.5,168,529.1,170.8,528.5,173.6L528.5,173.6z M560.8,179.2c5.1,0,8.9,0.3,12.7-0.1
	s4.3,1.2,4.3,4.5s-0.8,4.6-4.4,4.4c-7.6-0.3-15.3,0-23-0.1c-1.6,0-4.4,1.2-4.6-1.2c-0.3-2.7-1.6-5.8,1.5-8.3
	c3.9-3.1,7.7-6.3,11.2-9.8c3.5-3.5,7.2-7,7.4-12.5c0.1-2.7-0.4-5.1-3.5-5.7s-5,0.7-6,3.8c-0.8,2.5-6.6,4.5-9.5,2.8
	c-2.7-1.5-1-4.1-0.4-6c2.7-8.2,12-12.1,21.4-9.2c7.4,2.4,10.9,10.3,8.2,18.8c-2.2,6.8-7.4,11.3-12.5,15.8L560.8,179.2z M482.4,179.2
	c5.6,0,9.7,0.2,13.8-0.1c3.8-0.2,3.3,2.1,3.3,4.5s0.4,4.5-3.4,4.4c-7.8-0.3-15.6,0-23.5-0.1c-1.8,0-4.6,1.3-5.1-1.2
	c-0.5-2.9-1.3-6.1,1.9-8.6c4.3-3.4,8.4-7.1,12.3-10.9c2.8-2.7,5.1-5.8,5.8-9.7c0.5-2.9,0.5-5.9-3.1-6.9s-5.5,0.8-6.6,4.2
	c-1.8,5.3-6.3,2.2-9.2,2.1s-1-3.3-0.7-4.8c1.5-6.3,5.9-9.9,12.2-10.8s12.2-0.1,16.1,5.5s3.2,11.7,0.1,17.5S488.3,174.1,482.4,179.2
	L482.4,179.2z M599.1,165.5c0,6.5-0.2,12.9,0.1,19.4c0.1,3-0.5,4.4-3.8,3.9c-1.3-0.2-2.7-0.2-4,0c-3.3,0.6-3.7-1.1-3.7-3.9
	c0.2-9.6,0-19.2,0.1-28.9c0-2.6-0.4-3.8-3.4-3.8c-5.5,0-2.2-4.3-2.8-6.7c-0.6-2.1,0.1-3.5,3-3.6c14.5-0.7,14.5-0.8,14.5,13.7
	L599.1,165.5z"/>
<linearGradient id="SVGID_2_" gradientUnits="userSpaceOnUse" x1="-0.1789" y1="169.9293" x2="429.1773" y2="169.9293">
	<stop  offset="0" style="stop-color:#2E847C"/>
	<stop  offset="0.6256" style="stop-color:#2B97B1"/>
	<stop  offset="0.9397" style="stop-color:#71AB7F"/>
</linearGradient>
<path class="st1" d="M428.2,173.1c-4.6,3-9.2,6-13.8,8.8c-3.7,2.3-5.6,1.4-6.1-2.8c-0.2-2.5-0.2-5,0.2-7.4
	c0.7-5.3,1.7-10.5,2.4-15.8c0.4-3.2,0.2-6.7-3.5-8s-7,0.3-9,3.7c-2.4,4.2-4.3,8.6-6.5,12.8c-0.6,1.1-0.5,2.9-2.6,3.1
	c0.6-4.8,1.3-9.4,1.6-14c0.2-2.5,0-5.3-3.3-5.8s-5.7,0.8-6.9,4.2c-0.9,2.5-0.5,5.3-2.2,7.7c-1.2-1.3-2.3-2.5-3.5-3.7
	c-8.2-7.8-19.8-10.3-29-6.2c-8.4,3.8-13.5,13.3-13,24.5c0.2,5.3-2.5,8.9-7.5,10.2c-2.5,0.6-4-0.1-4-2.8c-0.1-2.8,0.2-5.6,0.7-8.4
	c1.6-6.6,3.7-13.1,5.3-19.7c0.5-2.1,1.9-5.2-2.1-5.9c-4.3-0.7-8.4,1.9-9.6,6c-1.7,6.4-3.4,12.8-5,19.3c-0.2,1.3-0.9,2.5-1.9,3.3
	c-3.7,2.6-7.4,5.1-11.7,6.5c-5.4,1.7-9.1-0.7-9.4-6.2c-0.2-5.3-0.2-10.7,0.3-16c0.4-4.7,5.4-8.7,10.1-8.7c4.2,0,8.3,0,12.5,0
	c1.9,0.2,3.7-1.2,3.9-3.1c0-0.2,0-0.3,0-0.5c0.1-2.4-1.3-3.5-3.8-3.4c-3.7,0.2-7.5,0-11.9,0c0.9-1.8,1.3-2.5,1.6-3.2
	c3.2-6,6.8-11.8,6.5-19c-0.3-6.3-3.2-11.8-7.3-12.5c-5.9-1.1-8.8,3.2-11.3,7.3c-4,6.3-6.7,13.4-8,20.8c-0.8,4.1-2.5,5.4-6.2,4.6
	c-7.5-1.5-11.3,5.7-17.3,7.6c-1.4,0.5-1.3,2.6-1.7,4c-1.3,4.3-2.9,8.6-3.4,13c-0.9,8.8-7.1,12.1-14,14.8c-6.3,2.5-10.2,0.2-10.6-6.5
	c-0.1-4.5,0-9,0.4-13.4c0.5-7,4.3-10.5,11.3-10.5c3.7,0,7.3,0,11,0c2.7,0,3.9-1.3,4-3.9c0.1-3-1.8-3-4-3.1
	c-3.7-0.2-7.5,0.3-11.3-0.9c3.3-6.2,6.9-11.8,7.8-18.5s-2.4-13.8-7-15.2c-4.1-1.3-8.4,1.6-12.3,8.3c-3.7,6.5-6.2,13.6-7.6,20.9
	c-0.6,2.8-1.6,3.9-4.6,3.5c-2.5-0.2-5-0.1-7.5,0.2c-1.5,0.2-3,0.8-2.9,2.8c0.1,1.8,1.2,2.6,2.9,2.9c2.1,0.4,4.3,0.7,6.4,0.9
	c2.5,0.1,3.4,1,3.1,3.7c-0.4,4.1-1,8.4-0.2,12.4c1.3,7-2,10.9-7.7,13.6c-1.8,0.9-3.6,1.8-5.4,2.6c-2.5,1.3-5.4,1.9-8.2,1.7
	c-2.1,0-3.9-1.4-4.4-3.4c-0.3-1.8,2.2-1.6,3.4-2.2c6.7-2.9,11.8-7.4,14.6-14.2c3.4-8-1.4-15.7-10.2-16.3c-7.4-0.5-12.4,3.4-15.8,9.4
	c-3.5,6.1-5.7,12.7-5.2,20c0.1,1.1,0.5,2.3-0.8,3.1c-5.4,3.8-11.9,5.4-18.4,4.7c1-0.9,2-1.7,3.2-2.3c5.3-3.3,9.9-7.3,12.1-13.4
	c3.1-8.7,0.5-17.6-6.1-20.4c-8.5-3.6-16.5-0.3-20.8,9c-1.4,3.1-2.9,6.5-3.2,9.8c-0.6,6-4.2,9.5-8.5,12.7c-1.7,1.3-3.8,3-5.8,2
	s-1.9-3.7-1.8-5.8c0.2-3,0.4-6,0.8-8.9c0.5-4.8,1.3-9.5,1.7-14.3c0.2-2.2-0.2-4.4-2.8-5.3c-2.4-0.8-4.7-0.6-6.4,1.5
	c-1.5,1.8-2.9,3.6-4.2,5.6c-2.6,4-5.1,8-7.7,12.1c0.4-3.8,1.1-7.6,1.9-11.4c0.6-3,1.3-6.3-2.4-7.7c-3.5-1.3-5.9,0.5-8.1,3.3
	c-3.7,4.8-6.4,10.3-9.8,15.4c0.3-4.3,1-8.5,1.4-12.8c0.2-2.4,1.5-5.7-2.7-6.2c-3.5-0.5-6.3,0.1-7.2,4.2c-0.5,2.4-1.3,4.8-2.1,7.4
	c-2.2-2-4-3.8-5.9-5.4c-16.6-12.8-36.9-5.2-38.8,15.2c-0.8,8.5-6.3,11.5-12.2,14.5c-5.8,3-10.7,0-11.6-6.4
	c-0.7-5.6,0.3-11.4,2.8-16.5c1.3-2.7,3.5-5.4,6.4-4.4c2.6,0.9,0.8,4.1,0.6,6.3c0,0.2,0,0.3-0.1,0.5c-0.4,1.9-0.3,3.8,1.7,4.7
	c1.7,0.7,3.7,0.3,5-1.1c4.6-4.2,4.9-11.3,0.7-15.9c-1.2-1.3-2.7-2.3-4.3-2.9c-6.2-2.3-13.2-0.1-17.7,5.8c-4.4,5.7-6.9,12.7-7.1,19.9
	c-0.4,7.4,1.9,13.9,8.7,17.8s13.5,2.8,19.7-1.5c2.8-1.9,5.5-4.2,8.4-6.4c2.7,5.5,6.3,9.9,13,10.1c7.5,0.3,12.6-3.6,16.2-9.8
	c4.9-8.3,4.9-17,1.4-26.1c2.8,0.5,4.2,2.2,5.9,3.5c3.9,3,6.7,6.1,5,12c-1.4,5-2,10.5-0.6,15.8c0.7,2.5,2,4.2,4.6,4.5
	c2.4,0.4,4.7-0.9,5.6-3.2c1.6-3.3,3.2-6.5,4.9-9.8c2.3-4.6,3.9-9.6,7.8-14.7c-0.5,3.5-0.8,5.8-1.1,8.1c-0.6,4.8-2,9.5-1.1,14.3
	c0.4,2.5,1,5.1,4.3,5.3c2.8,0.3,5.4-1.2,6.4-3.8c0.4-0.9,0.7-1.9,1.1-2.8c2.7-6.7,5.3-13.3,8.3-20.6c0,5.1,0,9.4,0,13.6
	c0.2,14.2,3.5,16.3,16.6,10.7c0.1,0,0.3,0.1,0.8,0.3l-1.4,2.9c-3.2,6.5-7,12.9-7.2,20.5c-0.1,8.8,2.6,14.3,7.5,15.4
	c5.3,1.2,10.8-3.1,14.2-11c3.3-7.6,4.5-15.6,4.8-23.8c0.1-3.1,1-3.6,3.8-2.8c8.1,2.3,15.9,1.8,22.7-3.5c1.7-1.3,2.4-0.5,3.6,0.6
	c5,4.5,10.9,5.2,17.3,3.8c6.8-1.5,12.5-5.3,18-9.3c7.9,12.6,9.6,12.8,29.7,2.8c1,4,3.2,7.2,7.7,7.1c9.4-0.2,16.9-4.6,23.2-11.1
	c4.4,11.6,9.5,13.7,20.9,8.3c2.3-1,4.5-2.2,6.6-3.4c1.3-0.7,2.1-1.3,2.8,0.8c1.7,5.5,6.3,5.9,10.9,5.1c4.4-0.8,8.7-2.5,12.3-5.2
	c2.3-1.6,3.4-1.2,5.1,0.8c5,5.5,12.3,6.2,18.5,2.2c5.5-3.5,8.3-8.8,10-14.9c1.7-6.3,0.5-12.4-1.7-19c3.5,1.8,5.8,3.9,8.2,5.8
	c3.6,2.8,5,5.9,3.9,10.7s-0.9,9.6-0.4,14.4c0.3,2.7,1.7,4.7,4.5,5.3s4.8-0.9,6-3.3c2.3-4.4,4.4-8.9,6.7-13.3c1.7-3.3,3.5-6.6,5.2-10
	c0.3,6.6-1,12.9,0.4,19.2c1.6,7.2,4.3,9,11.3,6.4c3.7-1.5,7.3-3.2,10.8-5.2C429.9,183,430.1,182.4,428.2,173.1z M288.8,141.2
	c1.4-6.3,2.7-12.7,5.8-18.4c0.7-1.4,1.5-2.8,3.4-2.1c1.8,0.6,1.7,2.2,1.8,3.7c-1.5,6.6-4.8,12.4-8,18.2c-0.4,0.8-1.3,1.1-2.1,0.8
	C288.5,142.9,288.6,142,288.8,141.2z M228.1,141.1c1.6-6.2,2.8-12.5,5.9-18.3c0.7-1.3,1.6-2.7,3.4-2.2s1.6,2.3,1.7,4.4
	c-1.3,6.1-4.6,11.9-8.1,17.7c-0.5,0.7-1.5,0.9-2.2,0.5C227.8,142.9,227.9,141.9,228.1,141.1z M57.4,180.7c-1.2,2.4-2.9,4.7-6.2,4
	s-4.6-3.1-5.1-6.1c-0.2-1.4-0.3-2.8-0.3-4.3c0.2-5.8,1.4-11.1,5.4-15.3c3.4-3.6,7.2-2.8,8.7,2C62,167.8,60.6,174.4,57.4,180.7
	L57.4,180.7z M152.9,180.5c-0.7-7.4,1-13.6,3.4-19.5c1.2-3,3.4-6,7.1-4.5c3.5,1.3,3,4.9,2.3,7.8C164,171.2,160,176.6,152.9,180.5
	L152.9,180.5z M189.5,168.9c0.4-3.5,1.6-6.8,3.6-9.7c1.6-2.3,4.4-3.9,6.9-2.2s2.2,4.6,0.6,7.1c-1.8,3.2-4.7,5.6-8.1,6.9
	C189.4,172,189.3,171.9,189.5,168.9z M354.1,182.4c-2.3,3.4-6.3,3.1-8.7-0.3c-1.8-2.5-1.6-5.3-1.7-8.6c0.2-5.2,1.5-10.5,5.5-14.7
	c3.2-3.4,7.2-2.7,8.5,1.7C360,168.3,358.6,175.8,354.1,182.4L354.1,182.4z M265.9,141.8c-5,0-8-2.7-7.9-7c0.1-4.7,4.1-8.1,9.5-7.9
	c4.9,0.1,7.5,2.4,7.5,6.7C275,138.6,271.5,141.8,265.9,141.8z M326.3,141.8c-5-0.1-7.8-2.6-7.7-7.1c0.1-4.5,3.8-7.8,9.1-7.8
	c5,0,8.1,2.6,8,6.8C335.7,138.5,331.8,141.9,326.3,141.8z M260.9,178.8c0.7-7.1,3.1-14,5.1-20.9c0.3-1.1,0.6-2.2,0.9-3.3
	c0.7-1.9-0.2-5,1.9-5.5c2.4-0.5,5.2,0.5,7.8,1c2,0.4,1.2,2.2,1.1,3.3c-0.9,6.4-0.9,12.9,0.1,19.3c0.3,1.5-0.3,3-1.5,3.8
	c-2.8,2.1-5.5,4.3-8.3,6.4c-1.6,1.2-3.5,2.5-5.5,1.5C260.3,183.4,261,181,260.9,178.8L260.9,178.8z M143,194.6
	c-0.4,6.6-0.7,13.2-1.1,19.8c-0.1,1.9-0.3,4.8-2.6,4.7c-2.7-0.1-3.4-3.1-3-5.4C137.2,206.9,139.5,200.4,143,194.6z"/>
<path class="st2" d="M21,48.6c0-14.6,0-29.2,0-43.8c0-1.3-0.3-1.7-1.7-1.7c-5.9,0.1-11.9,0.1-17.8,0C0.3,3.2,0,3.5,0,4.7
	c0,29.2,0,58.4,0,87.6c0,1.2,0.3,1.6,1.6,1.5c5.9-0.1,11.8-0.1,17.6,0c1.5,0,1.9-0.3,1.9-1.8C21,77.6,21,63.1,21,48.6z M101.4,4.7
	c0-1.1-0.2-1.5-1.4-1.5c-22.5,0-44.9,0-67.4,0c-1.2,0-1.5,0.3-1.5,1.5c0.1,5.6,0.1,11.3,0,16.9c0,1.3,0.4,1.7,1.7,1.7
	c7.1-0.1,14.2,0,21.3-0.1c1.5,0,1.7,0.4,1.7,1.8c-0.1,11.2,0,22.4,0,33.6s0.1,22.3-0.1,33.4c0,1.7,0.5,2,2.1,2
	c5.6-0.1,11.3-0.1,16.9,0c1.8,0,2.1-0.5,2.1-2.2c-0.1-22.2,0-44.4-0.1-66.6c0-1.7,0.5-2,2.1-2c7,0.1,13.9,0,20.9,0.1
	c1.3,0,1.7-0.3,1.7-1.7C101.3,15.9,101.3,10.3,101.4,4.7L101.4,4.7z"/>
<linearGradient id="SVGID_3_" gradientUnits="userSpaceOnUse" x1="143.16" y1="47.9976" x2="662.4211" y2="47.9976">
	<stop  offset="0" style="stop-color:#2E847C"/>
	<stop  offset="0.6256" style="stop-color:#2B97B1"/>
	<stop  offset="1" style="stop-color:#57A596"/>
</linearGradient>
<path class="st3" d="M381.1,61.4c0-10.2,0-20.5,0-30.7c0-1.3-0.4-1.7-1.7-1.6c-5.4,0.1-10.7,0.1-16.1,0c-1.4,0-1.8,0.2-1.8,1.7
	c0,20.5,0,41,0,61.4c0,1.5,0.5,1.7,1.8,1.7c5.3-0.1,10.6-0.1,15.9,0c1.7,0,1.9-0.5,1.9-2C381,81.8,381.1,71.6,381.1,61.4z
	 M662.3,72.8c-0.6-7.7-5-12.7-12-15.6c-4.4-1.8-9-2.7-13.6-4c-2.1-0.5-4.1-1.3-6-2.3c-1.8-0.8-2.8-2.7-2.6-4.7
	c0.3-2.1,1.6-3.2,3.5-3.8c2.3-0.8,4.8-0.8,7,0.1c2.3,0.8,4,2.3,4.3,4.8c0.1,0.9,0.6,0.9,1.3,0.9c5.1,0,10.1,0,15.2,0
	c0.9,0,1.3-0.1,1.3-1.2c-0.3-6.4-2.9-11.6-8.2-15.2c-6.5-4.4-13.8-5.3-21.4-4.6c-6,0.4-11.8,2.7-16.4,6.6c-8.1,7.1-10,24.8,5,31
	c2.3,1,4.7,1.8,7.2,2.5c4.2,1.2,8.6,1.9,12.7,3.7c2.7,1.2,3.8,2.8,3.5,5s-1.8,3.7-4.5,4.3c-3.4,0.8-7,0.3-10.1-1.5
	c-1.4-0.8-2.4-2.1-2.6-3.7c-0.1-1-0.5-1.3-1.6-1.3c-2.7,0.1-5.4,0-8.2,0s-5.7,0-8.5,0c-0.8,0-1.1,0.2-1,1c0.6,5.3,2.3,10.1,6.2,13.9
	c4.5,4.4,10.2,6.2,16.2,6.9c8.5,1,16.7,0,24-4.7C659.7,86.7,663,80.7,662.3,72.8z M598.9,73c-0.6-7.8-5-12.8-12.1-15.7
	c-4.4-1.8-9-2.7-13.6-4c-2.2-0.5-4.3-1.3-6.3-2.5c-2.1-1.2-2.9-4-1.6-6.1c0.5-0.9,1.4-1.6,2.4-2c2.2-0.9,4.7-1,7-0.2
	c2.5,0.8,4.4,2.2,4.8,5c0.1,1,0.7,0.9,1.3,0.9c5.1,0,10.1,0,15.2,0c1.1,0,1.2-0.3,1.2-1.3c-0.3-6.5-3-11.7-8.4-15.3
	c-6.5-4.3-13.8-5.1-21.3-4.5c-6,0.4-11.8,2.7-16.4,6.6c-8,7.1-10,24.8,5.1,31c2.3,1,4.7,1.8,7.2,2.4c4.4,1.2,8.9,1.9,13,3.9
	c2.3,1.1,3.3,2.7,3.1,4.7c-0.2,2.2-1.9,3.9-4,4.3c-3.3,0.9-6.9,0.6-10-1c-1.7-0.7-2.8-2.3-3.1-4.1c-0.1-1.1-0.7-1.3-1.6-1.2
	c-2.7,0-5.5,0-8.2,0s-5.6,0-8.3,0c-0.8,0-1.3,0.1-1.2,1.1c0.6,5.4,2.4,10.3,6.5,14.1c4.5,4.1,9.9,5.9,15.8,6.6
	c8.5,1,16.7,0.1,24.1-4.6C596.2,86.8,599.5,80.8,598.9,73L598.9,73z M458.6,54.2c0-2.2-0.1-4.4-0.4-6.6c-2-16.2-18.1-25.3-33.1-18.8
	c-3.4,1.6-6.3,3.8-8.7,6.7c0-1.6-0.1-3.1,0-4.7c0.1-1.3-0.3-1.7-1.6-1.7c-5.4,0.1-10.8,0.1-16.1,0c-1.3,0-1.7,0.3-1.7,1.6
	c0,20.5,0,41.1,0,61.7c0,1.2,0.3,1.6,1.5,1.6c5.4-0.1,10.9-0.1,16.3,0c1.5,0,1.7-0.5,1.7-1.8c0-10.1,0-20.1,0-30.1
	c0-4.5,0.4-8.9,2.9-12.8s6.5-5.5,11.6-4.6c3.8,0.5,6.9,3.4,7.7,7.2c0.3,1.6,0.5,3.3,0.5,4.9c0,11.9,0,23.8,0,35.7
	c0,1.2,0.3,1.6,1.6,1.5c5.4-0.1,10.9-0.1,16.3,0c1.5,0,1.7-0.5,1.7-1.8C458.6,79.5,458.6,66.8,458.6,54.2z M535.2,54.8
	c-1.6-9.7-5.9-17.6-14.5-22.9c-7.6-4.7-16-5.7-24.6-4.1c-8.2,1.3-15.5,6-20.2,12.9c-5.2,7.6-6.7,16.2-5.8,25.3
	c0.5,7,3.2,13.7,7.7,19c6.6,7.6,15.1,10.8,25,11c14.6,0.4,26.7-7.7,31.6-21.4c-6,0-11.9,0-17.8,0c-0.7,0-1.3,0.3-1.8,0.8
	c-4.5,4.9-10.2,6.2-16.4,4.5c-5.9-1.6-8.7-6-9.8-11.9c-0.3-1.7,0.2-2,1.7-2c14.4,0.1,28.7,0,43.1,0.1c1.5,0,2-0.5,2-1.9
	C535.8,61.1,535.7,57.9,535.2,54.8z M515.1,53.8c-4-0.1-8.1,0-12.1,0s-8.2,0-12.3,0c-1.3,0-1.7-0.2-1.3-1.5
	c2.6-7.5,10.8-11.4,18.2-8.8c4,1.4,7.3,4.6,8.7,8.6C516.8,53.5,516.5,53.8,515.1,53.8L515.1,53.8z M381.3,6.8
	c-1.6-4.1-5.6-6.9-10-6.8c-4.4-0.2-8.4,2.4-10,6.5c-0.2,0.5-0.1,1.3-0.8,1.6V13c0.6,0.1,0.5,0.7,0.6,1.1c2.1,5.6,8.4,8.5,14,6.3
	c1.2-0.5,2.4-1.2,3.4-2C381.7,15.5,382.8,10.9,381.3,6.8z M349.8,72.9c-0.6-7.7-4.9-12.7-11.9-15.6c-4.4-1.8-9-2.7-13.6-4
	c-2.4-0.5-4.6-1.4-6.6-2.7c-2.1-1.3-2.7-4-1.4-6c0.5-0.8,1.2-1.4,2.1-1.8c2.1-1,4.5-1.2,6.7-0.5c2.8,0.7,5,2.1,5.5,5.2
	c0.1,0.9,0.6,0.8,1.2,0.8c5.1,0,10.3,0,15.4,0c0.9,0,1.2-0.2,1.1-1.1c-0.3-6.3-2.8-11.5-8-15.2c-6.6-4.6-14-5.4-21.7-4.7
	c-6,0.4-11.8,2.7-16.4,6.7c-8,7.1-10,24.8,5.2,31c2.3,1,4.7,1.8,7.2,2.4c4.2,1.2,8.5,1.9,12.5,3.6c2.7,1.2,3.8,2.7,3.6,4.9
	s-1.8,3.8-4.6,4.4c-2.4,0.5-4.8,0.4-7.1-0.3c-2.8-0.8-5.2-2.2-5.5-5.5c-0.1-1-0.8-0.8-1.4-0.8h-8.3c-2.8,0-5.6,0-8.3,0
	c-0.9,0-1.2,0.2-1.1,1.1c0.8,7.4,4,13.2,10.5,17c3.7,2.1,7.8,3.3,12,3.7c8.5,0.9,16.7,0,24-4.8C347.2,86.7,350.5,80.7,349.8,72.9
	L349.8,72.9z M283.5,30.5c0-1.2-0.4-1.5-1.5-1.4c-5.4,0.1-10.9,0.1-16.3,0c-1.6,0-2,0.4-2,2c0.1,10.8,0.1,21.6,0,32.4
	c0.1,3.3-0.7,6.6-2.2,9.5c-2.5,4.6-6.8,6.5-12.6,5.4c-4.2-0.8-6.9-3.9-7.5-8.9c-0.1-0.9-0.1-1.8-0.1-2.7v-36c0-0.8,0.3-1.7-1.2-1.7
	c-5.8,0.1-11.5,0-17.3,0c-1,0-1.3,0.4-1.3,1.3c0,14-0.1,28,0.1,41.9c0.1,5.9,1.5,11.6,5.6,16.1c6.9,7.6,15.6,8.6,25,6.7
	c4.7-1,8.4-3.8,11.3-8.1c0.1,2.1,0.3,3.9,0.3,5.6c0,1,0.3,1.3,1.3,1.2c5.6,0,11.2,0,16.9,0c1.1,0,1.3-0.4,1.3-1.4
	C283.4,71.9,283.4,51.2,283.5,30.5z M203.8,50.8c-2.1-1.6-4.4-3-6.9-4.1c0.3-0.2,0.5-0.4,0.7-0.5c15.4-8.7,12.4-30.2,1-37.7
	c-5.8-3.8-12.3-5.3-19-5.3c-11.6-0.1-23.3,0-34.9-0.1c-1.2,0-1.6,0.3-1.6,1.6c0,29.2,0,58.4,0,87.6c0,1.2,0.3,1.6,1.5,1.6
	c6.6-0.1,13.1,0,19.7,0c7.5-0.1,15.1,0.5,22.6-0.4c13.7-1.7,24.3-10.1,24.4-25.9C211.5,60.8,209.2,55.2,203.8,50.8L203.8,50.8z
	 M165.4,22.6c4.7,0,9.5-0.1,14.2,0c5.2,0.1,8.7,3.4,8.9,8.2s-3,8.6-8.3,8.9c-5,0.3-10,0.1-15,0.2c-1,0-1.1-0.5-1.1-1.3
	c0-2.5,0-5,0-7.6s0-4.8,0-7.2C164.2,22.9,164.4,22.6,165.4,22.6L165.4,22.6z M183.8,74c-3.3,0.7-6.7,0.2-9.5,0.3c-3.3,0-6,0-8.7,0
	c-1,0-1.4-0.2-1.4-1.3c0.1-5.3,0-10.6,0-15.9c0-0.9,0.3-1.2,1.2-1.2c5.4,0,10.9-0.1,16.3,0.1c4.6,0,8.4,3.4,8.8,8
	C191,68.9,188.3,73.1,183.8,74z"/>
</svg>
