<svg id="Layer_1" data-name="Layer 1" xmlns="http://www.w3.org/2000/svg" viewBox="0 0 460.89 244.54"><defs><style>.cls-1{fill:#005260;}</style></defs><title>logo-ITTodayHero</title><path class="cls-1" d="M404.42,252.2c0-5.78-.1-11.56,0-17.34.07-2.48-.4-3.75-3.28-3.51a65.94,65.94,0,0,1-9.11,0c-2.22-.12-3.56.65-2.92,2.87s-2.31,6.11,2.5,6.28c2.67.1,3,1.1,3,3.33-.11,8.24.11,16.48-.12,24.7-.09,3.12.86,4.17,3.84,3.7a10.32,10.32,0,0,1,3,0c2.52.35,3.17-.74,3.1-3.15C404.31,263.47,404.42,257.83,404.42,252.2Zm-22.56,11.57c-3.15.28-6.35.06-10.73.06,1.55-1.36,2.18-1.9,2.79-2.45,4.21-3.76,8.41-7.53,10.37-13.09,2.62-7.42-.32-14.73-6.83-16.83-8.52-2.76-16.73.86-19,8.46-.48,1.59-1.3,3.5.27,4.79,2,1.64,7.82-.3,8.77-2.86a4,4,0,0,1,4.7-2.85c2.49.3,3.22,1.93,3.34,4.26.2,4.35-2.29,7.35-5,10.09a133,133,0,0,1-10.94,9.89c-2.7,2.15-1.72,4.85-1.41,7.16s2.86,1.13,4.37,1.16c6.52.15,13.06-.09,19.58.13,3,.11,3.91-.71,3.93-3.8S385.18,263.47,381.86,263.77Zm-64,4.19c-.09-2.21.36-4.44-3.18-4.19s-6.89.06-11.31.06c4.82-5,9.83-8.48,12.21-14.11,2.16-5.06,2.61-10.15-1.21-14.64s-8.73-5.2-14.19-4-9,4.35-10.07,9.93c-.23,1.24-1.94,3.83.7,3.73s6.52,2.81,8-1.92c.94-3,2.68-4.54,5.75-3.64,3.24,1,3.36,3.73,2.68,6.38a17.66,17.66,0,0,1-5.3,8.29,137,137,0,0,1-10.45,9.12c-2.83,2.17-2.25,5-1.75,7.51.44,2.22,3,1.11,4.52,1.13,6.82.12,13.64-.08,20.46.12C317.75,271.78,317.93,270.26,317.83,268Zm34.91-22.73c-.92-8.61-6.33-14.09-14.32-14.6s-13.75,3.75-15.76,12.3a36.08,36.08,0,0,0,.08,17.19c2.09,8.26,6.81,12.06,14.63,12.06,8,0,12.23-3.58,14.72-11.87.87-2.86.53-5.73,1-8.42C353,249.57,353,247.39,352.74,245.23Zm-9.6,13c-.61,3-2.48,5-5.62,5-3-.06-5-1.63-5.73-4.83a32.34,32.34,0,0,1,.11-14.12c.65-2.85,2.34-4.35,5.49-4.41s4.95,1.46,5.6,4.25a72.14,72.14,0,0,1,1,7.56C343.69,253.92,343.56,256.09,343.14,258.2ZM92.45,31.46c0-2.75-.59-3.67-3.52-3.63-11.75.18-23.5.2-35.25,0-3.24-.06-4.06.74-4,4,.14,27.81.08,55.62.08,83.43,0,28.24,0,56.48-.06,84.72,0,2.75.59,3.67,3.53,3.63,11.89-.18,23.79-.16,35.68,0,2.82,0,3.59-.7,3.59-3.56Q92.33,115.76,92.45,31.46ZM250.17,31c0-2.51-.76-3.11-3.17-3.1q-64.84.09-129.69,0c-2.94,0-3.23,1.1-3.19,3.51.11,9,.2,18,0,26.94-.08,3.21,1,3.74,3.93,3.7,12.76-.15,25.53.08,38.29-.16,3.56-.06,4.25,1.08,4.23,4.37-.14,22-.07,44-.07,66.05,0,22.45.07,44.9-.09,67.35,0,3.32.89,4.08,4.1,4,11.46-.21,22.93-.26,34.38,0,4,.09,5-.95,5-4.94-.16-44.18-.07-88.35-.17-132.53,0-3.34.75-4.41,4.26-4.34,12.91.22,25.82,0,38.73.13,2.42,0,3.62-.25,3.55-3.2C250,49.5,250,40.22,250.17,31ZM503.48,153.08c-5.1.28-6.72,3.87-7.81,7.92-2.53,9.47-5.63,18.73-10.62,27.2-1.46,2.46-3.21,6.6-6.43,5.42-3.76-1.38-2.2-5.74-1.82-8.92a220.78,220.78,0,0,1,5.3-26.21c.68-2.74.15-4.64-2.69-5.32-5.88-1.4-10.57,1.16-12.6,7a70.74,70.74,0,0,0-4.32,18.4c-.5,7.05-1.33,13.86-8.32,17.8-1.8,1-3.48,2.88-5.89,1.37-2.13-1.34-1.72-3.45-1.63-5.46.37-9.13,2.75-17.93,4.32-26.86,1.07-6.1-.56-8.41-6.52-8.11-2.89.14-5.31.43-6.46-3-.45-1.35-2.13-1.35-3.44-1.38a22.88,22.88,0,0,0-9.71,1.65c-14.93,6.4-21.79,18.52-24,33.88a11.57,11.57,0,0,1-8.33,9.69,4.68,4.68,0,0,1-4.45-1c-3-2.33-4.66-11.1-2.71-14.42a227,227,0,0,0,14-28.09c6-14.55,11-29.35,10-45.47-.38-6.79-4.33-13.63-9.1-15.06-5.61-1.67-11.49.92-16,7.11A50,50,0,0,0,378,114.37c-3.95,11.33-6,23.06-7.52,34.92-.23,1.84-.64,3.17-2.82,3.57-11.76,2.17-19.94,9-25.56,19.38-2.11,3.88-6.46,2.71-9.77,3.2-2.44.36-1.93-2.83-2.35-4.62-3.38-14.42-16.95-21.52-30.79-16.11-11.3,4.41-18.58,16.31-18.68,30.51,0,6.18-2.36,9.59-8.11,11.91-8.16,3.29-15.25-.25-17.19-8.74a70.58,70.58,0,0,1-1.2-20.26c.15-2.45,1-3.07,3.37-3,6.08.07,12.18.44,18.23-.68,4.62-.85,7.58-3.45,7.89-7.33.23-2.9-.49-5.08-4.24-4.88-4.12.21-8.27.05-13.23.05,6.23-6.41,11.34-12.53,13.79-20.41,2.31-7.43,3.62-14.89.62-22.43-2.48-6.22-7.05-8.39-13.45-6.78a16.88,16.88,0,0,0-8.14,4.69c-10.66,10.91-14.67,24.84-17.49,39.19-.83,4.21-1.93,6.44-6.92,5.87-5.18-.59-7.37,2.1-7.09,7.21.21,4,2,5.55,7.62,5.47,3.11-.05,3.93.85,3.74,3.86-.44,7.08-.6,14.18.86,21.18,2.07,10,6.47,18.36,17.25,21.12,9.07,2.33,17.51.55,24.7-5.68,2.57-2.23,4.14-2.92,7,.17,5.24,5.64,12.17,7.38,19.82,5.91,11.23-2.15,17.24-9.76,20.66-19.91.64-1.87,1.08-2.78,3.31-3.06,3.67-.47,6-.25,5.3,4.36a12.76,12.76,0,0,0,.32,3.45c1.3,10.61,10.73,17.18,21.15,15.16,6.39-1.25,10.1-5.8,14.29-10.3,1,1.53,1.88,3,2.88,4.37,4,5.51,9.26,7.32,15.94,5.74a21.12,21.12,0,0,0,9.13-4.68c1.78-1.55,2.88-2,4.85.21,4.16,4.6,9.44,6.05,15.72,4.54,5.66-1.36,8.94-5.37,12.34-9.45,7.68,13,15,13.42,28.67,1.77C471,216.26,478.77,215,489.62,199c-.4,5.79-.19,10.71-5.65,14.28-5,3.29-9.48,7.62-13.77,11.9-7.29,7.29-13.74,15.13-15.31,25.94-1.26,8.74,3.58,15.83,12.38,17,7.49,1,13.22-2.35,17.62-8,7.3-9.45,10.25-20.8,13.26-32,4.17-15.59,5.8-31.67,8.68-47.51,1.21-6.65,2.17-13.35,3.34-20C511.29,154.16,510,152.73,503.48,153.08ZM387.11,133.6c1-7.54,2.17-15.09,4.83-22.28.75-2,1.16-5.41,3.84-4.91,2.29.42,2.18,3.64,2.32,5.93,1,16.32-4.73,31.07-10.72,45.74-.59,1.46-.81,3.25-2.64,4.52A223.88,223.88,0,0,1,387.11,133.6Zm-125-12.21a32.7,32.7,0,0,1,2.48-5c.74-1.17,1.67-2.76,3.31-2.24,1.45.46,2,2.17,2.06,3.58.82,13-4.73,23.22-14.56,32.46C256.86,139.81,258.45,130.36,262.09,121.39Zm46.13,76.89c-4.43,1.26-8.35-.79-10.37-5.46-1.17-2.69-1.27-5.59-1.67-8.5.72-5.34.77-10.91,5.11-15.13a12.39,12.39,0,0,1,4.36-2.71c2-.76,2.9-.29,2.74,2.06-.44,6.55,1.48,12.21,6.62,16.58a3.34,3.34,0,0,1,1.12,1.75C316.78,190.22,311.85,197.25,308.22,198.28Zm50.23.92a5,5,0,0,1-4.51-4.06c-3.14-13.13,5.51-27.61,15.29-29.51.26,7.78-.42,15.54.82,23.28C370.73,193.18,362.82,199.69,358.45,199.2Zm76.38-29.48c-1.28,6-2.44,12.08-3.64,18.13a19.89,19.89,0,0,1-2.33,6.42c-1.85,3.12-4.18,5.92-8.26,4.76s-3.89-4.87-4.22-7.91c.71-7.68,2.54-14.66,7.6-20.45a18.5,18.5,0,0,1,5.7-4.56c1.75-.88,3.89-2.41,5.51-1.22C436.4,165.78,435.19,168.05,434.83,169.72Zm41.23,81.91a32.37,32.37,0,0,1-2.13,2.7,3.87,3.87,0,0,1-4.61,1.42c-2.08-.74-2.14-2.76-2.14-4.35,0-3.67,1.41-7,3.25-10.16,3.58-6.12,8.62-10.85,14.27-15.08C482.81,235.08,481,243.9,476.06,251.63Z" transform="translate(-49.64 -27.82)"/></svg>