<svg width="48" height="49" viewBox="0 0 48 49" fill="none" xmlns="http://www.w3.org/2000/svg">
<path d="M24 0.847656C10.745 0.847656 0 11.5927 0 24.8477C0 38.1027 10.745 48.8477 24 48.8477C37.255 48.8477 48 38.1027 48 24.8477C48 11.5927 37.255 0.847656 24 0.847656ZM31.41 34.4402C31.04 34.4402 30.785 34.3002 30.5125 34.1352C27.98 32.6027 24.8425 31.7977 21.4425 31.7977C19.7075 31.7977 17.835 32.0027 15.8775 32.4027L15.64 32.4627C15.39 32.5227 15.1375 32.5877 14.9425 32.5877C14.7579 32.5903 14.5746 32.5561 14.4034 32.4869C14.2322 32.4177 14.0766 32.315 13.9457 32.1848C13.8148 32.0546 13.7113 31.8995 13.6412 31.7287C13.5711 31.5579 13.5358 31.3748 13.5375 31.1902C13.5375 30.3952 13.9875 29.8327 14.735 29.6902C16.9371 29.1738 19.1907 28.9087 21.4525 28.9002C25.4025 28.9002 28.9375 29.8127 31.955 31.6252C32.475 31.9277 32.8 32.2752 32.8 33.0477C32.8 33.4165 32.6536 33.7703 32.393 34.0314C32.1324 34.2925 31.7789 34.4395 31.41 34.4402ZM33.355 28.9827C32.9125 28.9827 32.625 28.8152 32.3675 28.6652C27.805 25.9552 21 25.0577 15.405 26.5477C15.3198 26.5729 15.2348 26.5987 15.15 26.6252C14.94 26.6927 14.74 26.7577 14.465 26.7577C14.0212 26.7557 13.5963 26.5776 13.2837 26.2626C12.971 25.9477 12.7962 25.5215 12.7975 25.0777C12.7975 24.1852 13.2625 23.5602 14.1075 23.3227C16.4143 22.6541 18.8058 22.3232 21.2075 22.3402C25.9225 22.3402 30.4925 23.5227 34.0725 25.6652C34.725 26.0352 35.02 26.5477 35.02 27.3102C35.02 28.2352 34.2725 28.9827 33.355 28.9827ZM35.5625 22.7627C35.1894 22.7638 34.8238 22.657 34.51 22.4552C31.4125 20.5952 26.5825 19.4902 21.575 19.4902C18.9675 19.4902 16.6 19.7777 14.5325 20.3352C14.4627 20.3528 14.3935 20.3729 14.325 20.3952C14.0733 20.4806 13.8106 20.5294 13.545 20.5402C13.2857 20.5412 13.0289 20.4905 12.7895 20.3911C12.55 20.2917 12.3328 20.1455 12.1506 19.9611C11.9683 19.7768 11.8246 19.5579 11.7279 19.3174C11.6313 19.0768 11.5835 18.8194 11.5875 18.5602C11.5875 17.5952 12.13 16.8577 13.035 16.5902C15.53 15.8527 18.405 15.4827 21.5725 15.4827C27.275 15.4827 32.705 16.7477 36.465 18.9602C37.175 19.3602 37.5225 19.9702 37.5225 20.8152C37.5242 21.0724 37.4745 21.3275 37.3765 21.5653C37.2784 21.8032 37.1339 22.0191 36.9514 22.2004C36.7689 22.3818 36.5521 22.5249 36.3136 22.6214C36.0751 22.718 35.8198 22.766 35.5625 22.7627Z" fill="white"/>
</svg>
