<svg id="Layer_1" data-name="Layer 1" xmlns="http://www.w3.org/2000/svg" xmlns:xlink="http://www.w3.org/1999/xlink" viewBox="0 0 939.99 645.61"><defs><style>.cls-1{fill:#b4d0d6;}.cls-2{fill:#276b64;}.cls-3,.cls-7{fill-opacity:0.8;}.cls-3{stroke:#276b64;stroke-width:8px;fill:url(#linear-gradient);}.cls-4{fill:#fff;}.cls-5{fill:#64a5a5;}.cls-6{opacity:0.8;}.cls-7{fill:url(#linear-gradient-2);}.cls-8{fill:url(#linear-gradient-3);}.cls-9{fill:#2e847b;}.cls-10{fill:none;stroke:#2e847b;stroke-width:3px;}.cls-11{opacity:0.6;}.cls-12{fill:url(#linear-gradient-4);}.cls-13{fill:#fcc805;fill-opacity:0.67;}.cls-14{fill:#fcc705;}.cls-15{fill:#a6cac6;}</style><linearGradient id="linear-gradient" x1="476.62" y1="821" x2="551.02" y2="339.26" gradientTransform="matrix(1, 0, 0, -1, -70, 894.82)" gradientUnits="userSpaceOnUse"><stop offset="0" stop-color="#2e847b"/><stop offset="0.6" stop-color="#2a9cbe"/><stop offset="0.99" stop-color="#fcc805"/></linearGradient><linearGradient id="linear-gradient-2" x1="97.09" y1="355.12" x2="417.63" y2="316.14" gradientTransform="matrix(1, 0, 0, -1, -70, 894.82)" gradientUnits="userSpaceOnUse"><stop offset="0" stop-color="#2e847b"/><stop offset="0.6" stop-color="#2a9cbe"/><stop offset="0.99" stop-color="#fcc805"/></linearGradient><linearGradient id="linear-gradient-3" x1="247.26" y1="369" x2="108.9" y2="529.82" gradientTransform="matrix(1, 0, 0, -1, 0, 1080)" xlink:href="#linear-gradient-2"/><linearGradient id="linear-gradient-4" x1="902.32" y1="766.91" x2="737.75" y2="958.2" gradientTransform="matrix(1, 0, 0, -1, 0, 1080)" xlink:href="#linear-gradient-2"/></defs><title>test</title><path class="cls-1" d="M137.77,254.22a11.71,11.71,0,0,1-5.89,10.24,14.83,14.83,0,0,1-7.17,2v5.12H121.9v-5.19a15.33,15.33,0,0,1-9.22-3.71,11.41,11.41,0,0,1-3.78-8.06h4.8a9.17,9.17,0,0,0,2.31,5.25,9.41,9.41,0,0,0,5.89,2.81V244.94a48.79,48.79,0,0,1-6.92-2.3,11.23,11.23,0,0,1-4.35-3.52,10.68,10.68,0,0,1-1.79-6.46,10.83,10.83,0,0,1,3.52-8.32q3.52-3.33,9.54-3.59v-5.37h2.81v5.44a14.18,14.18,0,0,1,8.51,3.45,11.74,11.74,0,0,1,3.78,7.36h-4.74a8.14,8.14,0,0,0-2.36-4.41,8.68,8.68,0,0,0-5.19-2.56v17.08a41.74,41.74,0,0,1,6.79,2.31,10.12,10.12,0,0,1,6.27,10.17Zm-24.39-21.76a6.75,6.75,0,0,0,2.18,5.44,18.55,18.55,0,0,0,6.34,3V224.46a10,10,0,0,0-6.21,2.24A7.31,7.31,0,0,0,113.38,232.46Zm11.33,30.34a9.29,9.29,0,0,0,6.34-2.56,8.17,8.17,0,0,0,2.24-5.82,6.75,6.75,0,0,0-2.24-5.51,17.89,17.89,0,0,0-6.34-3.13Zm57.65-8.58a11.76,11.76,0,0,1-5.89,10.24,14.83,14.83,0,0,1-7.17,2v5.12h-2.82v-5.19a15.3,15.3,0,0,1-9.21-3.71,11.41,11.41,0,0,1-3.78-8.06h4.8a9.1,9.1,0,0,0,2.31,5.25,9.38,9.38,0,0,0,5.88,2.81V244.94a49,49,0,0,1-6.91-2.3,11.16,11.16,0,0,1-4.35-3.52,10.61,10.61,0,0,1-1.79-6.46,10.83,10.83,0,0,1,3.52-8.32q3.51-3.33,9.53-3.59v-5.37h2.82v5.44a14.18,14.18,0,0,1,8.51,3.45,11.79,11.79,0,0,1,3.78,7.36h-4.74a8.1,8.1,0,0,0-2.37-4.41,8.65,8.65,0,0,0-5.18-2.56v17.08a41.93,41.93,0,0,1,6.78,2.31,10.69,10.69,0,0,1,4.48,3.58A10.85,10.85,0,0,1,182.36,254.22ZM158,232.46a6.75,6.75,0,0,0,2.18,5.44,18.49,18.49,0,0,0,6.33,3V224.46a10,10,0,0,0-6.2,2.24A7.31,7.31,0,0,0,158,232.46ZM169.3,262.8a9.29,9.29,0,0,0,6.34-2.56,8.17,8.17,0,0,0,2.24-5.82,6.75,6.75,0,0,0-2.24-5.51,18.07,18.07,0,0,0-6.34-3.13Zm57.64-8.58a12,12,0,0,1-1.47,5.76,11.85,11.85,0,0,1-4.42,4.48,14.82,14.82,0,0,1-7.16,2v5.12h-2.82v-5.19a15.33,15.33,0,0,1-9.22-3.71,11.44,11.44,0,0,1-3.77-8.06h4.8a9.16,9.16,0,0,0,2.3,5.25,9.41,9.41,0,0,0,5.89,2.81V244.94a48.6,48.6,0,0,1-6.91-2.3,11.09,11.09,0,0,1-4.35-3.52,10.62,10.62,0,0,1-1.8-6.46,10.84,10.84,0,0,1,3.53-8.32q3.51-3.33,9.53-3.59v-5.37h2.82v5.44a14.18,14.18,0,0,1,8.51,3.45,11.83,11.83,0,0,1,3.78,7.36h-4.74a8.23,8.23,0,0,0-2.37-4.41,8.68,8.68,0,0,0-5.18-2.56v17.08a41.93,41.93,0,0,1,6.78,2.31,10.12,10.12,0,0,1,6.27,10.17Zm-24.38-21.76a6.72,6.72,0,0,0,2.18,5.44,18.49,18.49,0,0,0,6.33,3V224.46a10,10,0,0,0-6.21,2.24A7.34,7.34,0,0,0,202.56,232.46Zm11.33,30.34a9.24,9.24,0,0,0,6.33-2.56,8.13,8.13,0,0,0,2.24-5.82,6.72,6.72,0,0,0-2.24-5.51,17.92,17.92,0,0,0-6.33-3.13Zm57.64-8.58a12,12,0,0,1-1.47,5.76,11.85,11.85,0,0,1-4.42,4.48,14.83,14.83,0,0,1-7.17,2v5.12h-2.81v-5.19a15.33,15.33,0,0,1-9.22-3.71,11.44,11.44,0,0,1-3.77-8.06h4.8a9.09,9.09,0,0,0,2.3,5.25,9.41,9.41,0,0,0,5.89,2.81V244.94a48.6,48.6,0,0,1-6.91-2.3,11.19,11.19,0,0,1-4.36-3.52,10.68,10.68,0,0,1-1.79-6.46,10.86,10.86,0,0,1,3.52-8.32q3.52-3.33,9.54-3.59v-5.37h2.81v5.44a14.21,14.21,0,0,1,8.52,3.45,11.77,11.77,0,0,1,3.77,7.36H266a8.23,8.23,0,0,0-2.37-4.41,8.68,8.68,0,0,0-5.19-2.56v17.08a41.74,41.74,0,0,1,6.79,2.31,10.12,10.12,0,0,1,6.27,10.17Zm-24.38-21.76a6.74,6.74,0,0,0,2.17,5.44,18.64,18.64,0,0,0,6.34,3V224.46a10,10,0,0,0-6.21,2.24A7.3,7.3,0,0,0,247.15,232.46Zm11.32,30.34a9.27,9.27,0,0,0,6.34-2.56,8.17,8.17,0,0,0,2.24-5.82,6.75,6.75,0,0,0-2.24-5.51,17.89,17.89,0,0,0-6.34-3.13Zm57.65-8.58a11.71,11.71,0,0,1-5.89,10.24,14.83,14.83,0,0,1-7.17,2v5.12h-2.81v-5.19a15.33,15.33,0,0,1-9.22-3.71,11.41,11.41,0,0,1-3.78-8.06h4.8a9.17,9.17,0,0,0,2.31,5.25,9.41,9.41,0,0,0,5.89,2.81V244.94a48.79,48.79,0,0,1-6.92-2.3,11.23,11.23,0,0,1-4.35-3.52,10.68,10.68,0,0,1-1.79-6.46,10.83,10.83,0,0,1,3.52-8.32c2.35-2.22,5.52-3.42,9.54-3.59v-5.37h2.81v5.44a14.18,14.18,0,0,1,8.51,3.45,11.74,11.74,0,0,1,3.78,7.36h-4.74a8.14,8.14,0,0,0-2.36-4.41,8.68,8.68,0,0,0-5.19-2.56v17.08a42.08,42.08,0,0,1,6.79,2.31,10.12,10.12,0,0,1,6.27,10.17Zm-24.39-21.76a6.75,6.75,0,0,0,2.18,5.44,18.55,18.55,0,0,0,6.34,3V224.46A10,10,0,0,0,294,226.7,7.31,7.31,0,0,0,291.73,232.46Zm11.33,30.34a9.29,9.29,0,0,0,6.34-2.56,8.17,8.17,0,0,0,2.24-5.82,6.75,6.75,0,0,0-2.24-5.51,18,18,0,0,0-6.34-3.13Zm57.65-8.58a12,12,0,0,1-1.48,5.76,11.9,11.9,0,0,1-4.41,4.48,14.83,14.83,0,0,1-7.17,2v5.12h-2.82v-5.19a15.3,15.3,0,0,1-9.21-3.71,11.41,11.41,0,0,1-3.78-8.06h4.8a9.1,9.1,0,0,0,2.31,5.25,9.38,9.38,0,0,0,5.88,2.81V244.94a49,49,0,0,1-6.91-2.3,11.09,11.09,0,0,1-4.35-3.52,10.68,10.68,0,0,1-1.79-6.46,10.83,10.83,0,0,1,3.52-8.32q3.51-3.33,9.53-3.59v-5.37h2.82v5.44a14.18,14.18,0,0,1,8.51,3.45,11.79,11.79,0,0,1,3.78,7.36H355.2a8.1,8.1,0,0,0-2.37-4.41,8.65,8.65,0,0,0-5.18-2.56v17.08a41.93,41.93,0,0,1,6.78,2.31,10.69,10.69,0,0,1,4.48,3.58A10.85,10.85,0,0,1,360.71,254.22Zm-24.39-21.76a6.75,6.75,0,0,0,2.18,5.44,18.49,18.49,0,0,0,6.33,3V224.46a10,10,0,0,0-6.2,2.24A7.31,7.31,0,0,0,336.32,232.46Zm11.33,30.34a9.29,9.29,0,0,0,6.34-2.56,8.17,8.17,0,0,0,2.24-5.82,6.75,6.75,0,0,0-2.24-5.51,18,18,0,0,0-6.34-3.13ZM137.77,324.22a11.71,11.71,0,0,1-5.89,10.24,14.83,14.83,0,0,1-7.17,2v5.12H121.9v-5.19a15.33,15.33,0,0,1-9.22-3.71,11.41,11.41,0,0,1-3.78-8.06h4.8a9.17,9.17,0,0,0,2.31,5.25,9.41,9.41,0,0,0,5.89,2.81V314.94a48.79,48.79,0,0,1-6.92-2.3,11.23,11.23,0,0,1-4.35-3.52,10.68,10.68,0,0,1-1.79-6.46,10.83,10.83,0,0,1,3.52-8.32q3.52-3.33,9.54-3.59v-5.37h2.81v5.44a14.18,14.18,0,0,1,8.51,3.45,11.71,11.71,0,0,1,3.78,7.36h-4.74a8.14,8.14,0,0,0-2.36-4.41,8.68,8.68,0,0,0-5.19-2.56v17.08a41.74,41.74,0,0,1,6.79,2.31,10.12,10.12,0,0,1,6.27,10.17Zm-24.39-21.76a6.75,6.75,0,0,0,2.18,5.44,18.55,18.55,0,0,0,6.34,3V294.46a10,10,0,0,0-6.21,2.24A7.31,7.31,0,0,0,113.38,302.46Zm11.33,30.34a9.29,9.29,0,0,0,6.34-2.56,8.17,8.17,0,0,0,2.24-5.82,6.75,6.75,0,0,0-2.24-5.51,17.73,17.73,0,0,0-6.34-3.13Zm57.65-8.58a11.76,11.76,0,0,1-5.89,10.24,14.83,14.83,0,0,1-7.17,2v5.12h-2.82v-5.19a15.3,15.3,0,0,1-9.21-3.71,11.41,11.41,0,0,1-3.78-8.06h4.8a9.1,9.1,0,0,0,2.31,5.25,9.38,9.38,0,0,0,5.88,2.81V314.94a49,49,0,0,1-6.91-2.3,11.16,11.16,0,0,1-4.35-3.52,10.61,10.61,0,0,1-1.79-6.46,10.83,10.83,0,0,1,3.52-8.32q3.51-3.33,9.53-3.59v-5.37h2.82v5.44a14.18,14.18,0,0,1,8.51,3.45,11.76,11.76,0,0,1,3.78,7.36h-4.74a8.1,8.1,0,0,0-2.37-4.41,8.65,8.65,0,0,0-5.18-2.56v17.08a41.93,41.93,0,0,1,6.78,2.31,10.69,10.69,0,0,1,4.48,3.58A10.85,10.85,0,0,1,182.36,324.22ZM158,302.46a6.75,6.75,0,0,0,2.18,5.44,18.49,18.49,0,0,0,6.33,3V294.46a10,10,0,0,0-6.2,2.24A7.31,7.31,0,0,0,158,302.46ZM169.3,332.8a9.29,9.29,0,0,0,6.34-2.56,8.17,8.17,0,0,0,2.24-5.82,6.75,6.75,0,0,0-2.24-5.51,17.9,17.9,0,0,0-6.34-3.13Zm57.64-8.58a12,12,0,0,1-1.47,5.76,11.85,11.85,0,0,1-4.42,4.48,14.82,14.82,0,0,1-7.16,2v5.12h-2.82v-5.19a15.33,15.33,0,0,1-9.22-3.71,11.44,11.44,0,0,1-3.77-8.06h4.8a9.16,9.16,0,0,0,2.3,5.25,9.41,9.41,0,0,0,5.89,2.81V314.94a48.6,48.6,0,0,1-6.91-2.3,11.09,11.09,0,0,1-4.35-3.52,10.62,10.62,0,0,1-1.8-6.46,10.84,10.84,0,0,1,3.53-8.32q3.51-3.33,9.53-3.59v-5.37h2.82v5.44a14.18,14.18,0,0,1,8.51,3.45,11.81,11.81,0,0,1,3.78,7.36h-4.74a8.23,8.23,0,0,0-2.37-4.41,8.68,8.68,0,0,0-5.18-2.56v17.08a41.93,41.93,0,0,1,6.78,2.31,10.12,10.12,0,0,1,6.27,10.17Zm-24.38-21.76a6.72,6.72,0,0,0,2.18,5.44,18.49,18.49,0,0,0,6.33,3V294.46a10,10,0,0,0-6.21,2.24A7.34,7.34,0,0,0,202.56,302.46Zm11.33,30.34a9.24,9.24,0,0,0,6.33-2.56,8.13,8.13,0,0,0,2.24-5.82,6.72,6.72,0,0,0-2.24-5.51,17.76,17.76,0,0,0-6.33-3.13Zm57.64-8.58a12,12,0,0,1-1.47,5.76,11.85,11.85,0,0,1-4.42,4.48,14.83,14.83,0,0,1-7.17,2v5.12h-2.81v-5.19a15.33,15.33,0,0,1-9.22-3.71,11.44,11.44,0,0,1-3.77-8.06h4.8a9.09,9.09,0,0,0,2.3,5.25,9.41,9.41,0,0,0,5.89,2.81V314.94a48.6,48.6,0,0,1-6.91-2.3,11.19,11.19,0,0,1-4.36-3.52,10.68,10.68,0,0,1-1.79-6.46,10.86,10.86,0,0,1,3.52-8.32q3.52-3.33,9.54-3.59v-5.37h2.81v5.44a14.21,14.21,0,0,1,8.52,3.45,11.75,11.75,0,0,1,3.77,7.36H266a8.23,8.23,0,0,0-2.37-4.41,8.68,8.68,0,0,0-5.19-2.56v17.08a41.74,41.74,0,0,1,6.79,2.31,10.12,10.12,0,0,1,6.27,10.17Zm-24.38-21.76a6.74,6.74,0,0,0,2.17,5.44,18.64,18.64,0,0,0,6.34,3V294.46a10,10,0,0,0-6.21,2.24A7.3,7.3,0,0,0,247.15,302.46Zm11.32,30.34a9.27,9.27,0,0,0,6.34-2.56,8.17,8.17,0,0,0,2.24-5.82,6.75,6.75,0,0,0-2.24-5.51,17.73,17.73,0,0,0-6.34-3.13Zm57.65-8.58a11.71,11.71,0,0,1-5.89,10.24,14.83,14.83,0,0,1-7.17,2v5.12h-2.81v-5.19a15.33,15.33,0,0,1-9.22-3.71,11.41,11.41,0,0,1-3.78-8.06h4.8a9.17,9.17,0,0,0,2.31,5.25,9.41,9.41,0,0,0,5.89,2.81V314.94a48.79,48.79,0,0,1-6.92-2.3,11.23,11.23,0,0,1-4.35-3.52,10.68,10.68,0,0,1-1.79-6.46,10.83,10.83,0,0,1,3.52-8.32c2.35-2.22,5.52-3.42,9.54-3.59v-5.37h2.81v5.44a14.18,14.18,0,0,1,8.51,3.45,11.71,11.71,0,0,1,3.78,7.36h-4.74a8.14,8.14,0,0,0-2.36-4.41,8.68,8.68,0,0,0-5.19-2.56v17.08a42.08,42.08,0,0,1,6.79,2.31,10.12,10.12,0,0,1,6.27,10.17Zm-24.39-21.76a6.75,6.75,0,0,0,2.18,5.44,18.55,18.55,0,0,0,6.34,3V294.46A10,10,0,0,0,294,296.7,7.31,7.31,0,0,0,291.73,302.46Zm11.33,30.34a9.29,9.29,0,0,0,6.34-2.56,8.17,8.17,0,0,0,2.24-5.82,6.75,6.75,0,0,0-2.24-5.51,17.81,17.81,0,0,0-6.34-3.13Zm57.65-8.58a12,12,0,0,1-1.48,5.76,11.9,11.9,0,0,1-4.41,4.48,14.83,14.83,0,0,1-7.17,2v5.12h-2.82v-5.19a15.3,15.3,0,0,1-9.21-3.71,11.41,11.41,0,0,1-3.78-8.06h4.8a9.1,9.1,0,0,0,2.31,5.25,9.38,9.38,0,0,0,5.88,2.81V314.94a49,49,0,0,1-6.91-2.3,11.09,11.09,0,0,1-4.35-3.52,10.68,10.68,0,0,1-1.79-6.46,10.83,10.83,0,0,1,3.52-8.32q3.51-3.33,9.53-3.59v-5.37h2.82v5.44a14.18,14.18,0,0,1,8.51,3.45,11.76,11.76,0,0,1,3.78,7.36H355.2a8.1,8.1,0,0,0-2.37-4.41,8.65,8.65,0,0,0-5.18-2.56v17.08a41.93,41.93,0,0,1,6.78,2.31,10.69,10.69,0,0,1,4.48,3.58A10.85,10.85,0,0,1,360.71,324.22Zm-24.39-21.76a6.75,6.75,0,0,0,2.18,5.44,18.49,18.49,0,0,0,6.33,3V294.46a10,10,0,0,0-6.2,2.24A7.31,7.31,0,0,0,336.32,302.46Zm11.33,30.34a9.29,9.29,0,0,0,6.34-2.56,8.17,8.17,0,0,0,2.24-5.82,6.75,6.75,0,0,0-2.24-5.51,17.81,17.81,0,0,0-6.34-3.13ZM137.77,394.22a11.71,11.71,0,0,1-5.89,10.24,14.83,14.83,0,0,1-7.17,2v5.12H121.9v-5.19a15.33,15.33,0,0,1-9.22-3.71,11.41,11.41,0,0,1-3.78-8.06h4.8a9.17,9.17,0,0,0,2.31,5.25,9.41,9.41,0,0,0,5.89,2.81V384.94a48.79,48.79,0,0,1-6.92-2.3,11.23,11.23,0,0,1-4.35-3.52,10.68,10.68,0,0,1-1.79-6.46,10.83,10.83,0,0,1,3.52-8.32q3.52-3.33,9.54-3.59v-5.37h2.81v5.44a14.18,14.18,0,0,1,8.51,3.45,11.71,11.71,0,0,1,3.78,7.36h-4.74a8.14,8.14,0,0,0-2.36-4.41,8.68,8.68,0,0,0-5.19-2.56v17.08a41.74,41.74,0,0,1,6.79,2.31,10.12,10.12,0,0,1,6.27,10.17Zm-24.39-21.76a6.75,6.75,0,0,0,2.18,5.44,18.55,18.55,0,0,0,6.34,3V364.46a10,10,0,0,0-6.21,2.24A7.31,7.31,0,0,0,113.38,372.46Zm11.33,30.34a9.29,9.29,0,0,0,6.34-2.56,8.17,8.17,0,0,0,2.24-5.82,6.75,6.75,0,0,0-2.24-5.51,17.73,17.73,0,0,0-6.34-3.13Zm57.65-8.58a11.76,11.76,0,0,1-5.89,10.24,14.83,14.83,0,0,1-7.17,2v5.12h-2.82v-5.19a15.3,15.3,0,0,1-9.21-3.71,11.41,11.41,0,0,1-3.78-8.06h4.8a9.1,9.1,0,0,0,2.31,5.25,9.38,9.38,0,0,0,5.88,2.81V384.94a49,49,0,0,1-6.91-2.3,11.16,11.16,0,0,1-4.35-3.52,10.61,10.61,0,0,1-1.79-6.46,10.83,10.83,0,0,1,3.52-8.32q3.51-3.33,9.53-3.59v-5.37h2.82v5.44a14.18,14.18,0,0,1,8.51,3.45,11.76,11.76,0,0,1,3.78,7.36h-4.74a8.1,8.1,0,0,0-2.37-4.41,8.65,8.65,0,0,0-5.18-2.56v17.08a41.93,41.93,0,0,1,6.78,2.31,10.69,10.69,0,0,1,4.48,3.58A10.85,10.85,0,0,1,182.36,394.22ZM158,372.46a6.75,6.75,0,0,0,2.18,5.44,18.49,18.49,0,0,0,6.33,3V364.46a10,10,0,0,0-6.2,2.24A7.31,7.31,0,0,0,158,372.46ZM169.3,402.8a9.29,9.29,0,0,0,6.34-2.56,8.17,8.17,0,0,0,2.24-5.82,6.75,6.75,0,0,0-2.24-5.51,17.9,17.9,0,0,0-6.34-3.13Zm57.64-8.58a12,12,0,0,1-1.47,5.76,11.85,11.85,0,0,1-4.42,4.48,14.82,14.82,0,0,1-7.16,2v5.12h-2.82v-5.19a15.33,15.33,0,0,1-9.22-3.71,11.44,11.44,0,0,1-3.77-8.06h4.8a9.16,9.16,0,0,0,2.3,5.25,9.41,9.41,0,0,0,5.89,2.81V384.94a48.6,48.6,0,0,1-6.91-2.3,11.09,11.09,0,0,1-4.35-3.52,10.62,10.62,0,0,1-1.8-6.46,10.84,10.84,0,0,1,3.53-8.32q3.51-3.33,9.53-3.59v-5.37h2.82v5.44a14.18,14.18,0,0,1,8.51,3.45,11.81,11.81,0,0,1,3.78,7.36h-4.74a8.23,8.23,0,0,0-2.37-4.41,8.68,8.68,0,0,0-5.18-2.56v17.08a41.93,41.93,0,0,1,6.78,2.31,10.12,10.12,0,0,1,6.27,10.17Zm-24.38-21.76a6.72,6.72,0,0,0,2.18,5.44,18.49,18.49,0,0,0,6.33,3V364.46a10,10,0,0,0-6.21,2.24A7.34,7.34,0,0,0,202.56,372.46Zm11.33,30.34a9.24,9.24,0,0,0,6.33-2.56,8.13,8.13,0,0,0,2.24-5.82,6.72,6.72,0,0,0-2.24-5.51,17.76,17.76,0,0,0-6.33-3.13Zm57.64-8.58a12,12,0,0,1-1.47,5.76,11.85,11.85,0,0,1-4.42,4.48,14.83,14.83,0,0,1-7.17,2v5.12h-2.81v-5.19a15.33,15.33,0,0,1-9.22-3.71,11.44,11.44,0,0,1-3.77-8.06h4.8a9.09,9.09,0,0,0,2.3,5.25,9.41,9.41,0,0,0,5.89,2.81V384.94a48.6,48.6,0,0,1-6.91-2.3,11.19,11.19,0,0,1-4.36-3.52,10.68,10.68,0,0,1-1.79-6.46,10.86,10.86,0,0,1,3.52-8.32q3.52-3.33,9.54-3.59v-5.37h2.81v5.44a14.21,14.21,0,0,1,8.52,3.45,11.75,11.75,0,0,1,3.77,7.36H266a8.23,8.23,0,0,0-2.37-4.41,8.68,8.68,0,0,0-5.19-2.56v17.08a41.74,41.74,0,0,1,6.79,2.31,10.12,10.12,0,0,1,6.27,10.17Zm-24.38-21.76a6.74,6.74,0,0,0,2.17,5.44,18.64,18.64,0,0,0,6.34,3V364.46a10,10,0,0,0-6.21,2.24A7.3,7.3,0,0,0,247.15,372.46Zm11.32,30.34a9.27,9.27,0,0,0,6.34-2.56,8.17,8.17,0,0,0,2.24-5.82,6.75,6.75,0,0,0-2.24-5.51,17.73,17.73,0,0,0-6.34-3.13Zm57.65-8.58a11.71,11.71,0,0,1-5.89,10.24,14.83,14.83,0,0,1-7.17,2v5.12h-2.81v-5.19a15.33,15.33,0,0,1-9.22-3.71,11.41,11.41,0,0,1-3.78-8.06h4.8a9.17,9.17,0,0,0,2.31,5.25,9.41,9.41,0,0,0,5.89,2.81V384.94a48.79,48.79,0,0,1-6.92-2.3,11.23,11.23,0,0,1-4.35-3.52,10.68,10.68,0,0,1-1.79-6.46,10.83,10.83,0,0,1,3.52-8.32c2.35-2.22,5.52-3.42,9.54-3.59v-5.37h2.81v5.44a14.18,14.18,0,0,1,8.51,3.45,11.71,11.71,0,0,1,3.78,7.36h-4.74a8.14,8.14,0,0,0-2.36-4.41,8.68,8.68,0,0,0-5.19-2.56v17.08a42.08,42.08,0,0,1,6.79,2.31,10.12,10.12,0,0,1,6.27,10.17Zm-24.39-21.76a6.75,6.75,0,0,0,2.18,5.44,18.55,18.55,0,0,0,6.34,3V364.46A10,10,0,0,0,294,366.7,7.31,7.31,0,0,0,291.73,372.46Zm11.33,30.34a9.29,9.29,0,0,0,6.34-2.56,8.17,8.17,0,0,0,2.24-5.82,6.75,6.75,0,0,0-2.24-5.51,17.81,17.81,0,0,0-6.34-3.13Zm57.65-8.58a12,12,0,0,1-1.48,5.76,11.9,11.9,0,0,1-4.41,4.48,14.83,14.83,0,0,1-7.17,2v5.12h-2.82v-5.19a15.3,15.3,0,0,1-9.21-3.71,11.41,11.41,0,0,1-3.78-8.06h4.8a9.1,9.1,0,0,0,2.31,5.25,9.38,9.38,0,0,0,5.88,2.81V384.94a49,49,0,0,1-6.91-2.3,11.09,11.09,0,0,1-4.35-3.52,10.68,10.68,0,0,1-1.79-6.46,10.83,10.83,0,0,1,3.52-8.32q3.51-3.33,9.53-3.59v-5.37h2.82v5.44a14.18,14.18,0,0,1,8.51,3.45,11.76,11.76,0,0,1,3.78,7.36H355.2a8.1,8.1,0,0,0-2.37-4.41,8.65,8.65,0,0,0-5.18-2.56v17.08a41.93,41.93,0,0,1,6.78,2.31,10.69,10.69,0,0,1,4.48,3.58A10.85,10.85,0,0,1,360.71,394.22Zm-24.39-21.76a6.75,6.75,0,0,0,2.18,5.44,18.49,18.49,0,0,0,6.33,3V364.46a10,10,0,0,0-6.2,2.24A7.31,7.31,0,0,0,336.32,372.46Zm11.33,30.34a9.29,9.29,0,0,0,6.34-2.56,8.17,8.17,0,0,0,2.24-5.82,6.75,6.75,0,0,0-2.24-5.51,17.81,17.81,0,0,0-6.34-3.13ZM137.77,464.22a11.71,11.71,0,0,1-5.89,10.24,14.83,14.83,0,0,1-7.17,2v5.12H121.9v-5.19a15.33,15.33,0,0,1-9.22-3.71,11.41,11.41,0,0,1-3.78-8.06h4.8a9.17,9.17,0,0,0,2.31,5.25,9.41,9.41,0,0,0,5.89,2.81V454.94a48.79,48.79,0,0,1-6.92-2.3,11.23,11.23,0,0,1-4.35-3.52,10.68,10.68,0,0,1-1.79-6.46,10.83,10.83,0,0,1,3.52-8.32q3.52-3.33,9.54-3.59v-5.37h2.81v5.44a14.18,14.18,0,0,1,8.51,3.45,11.71,11.71,0,0,1,3.78,7.36h-4.74a8.14,8.14,0,0,0-2.36-4.41,8.68,8.68,0,0,0-5.19-2.56v17.08a41.74,41.74,0,0,1,6.79,2.31,10.12,10.12,0,0,1,6.27,10.17Zm-24.39-21.76a6.75,6.75,0,0,0,2.18,5.44,18.55,18.55,0,0,0,6.34,3V434.46a10,10,0,0,0-6.21,2.24A7.31,7.31,0,0,0,113.38,442.46Zm11.33,30.34a9.29,9.29,0,0,0,6.34-2.56,8.17,8.17,0,0,0,2.24-5.82,6.75,6.75,0,0,0-2.24-5.51,17.73,17.73,0,0,0-6.34-3.13Zm57.65-8.58a11.76,11.76,0,0,1-5.89,10.24,14.83,14.83,0,0,1-7.17,2v5.12h-2.82v-5.19a15.3,15.3,0,0,1-9.21-3.71,11.41,11.41,0,0,1-3.78-8.06h4.8a9.1,9.1,0,0,0,2.31,5.25,9.38,9.38,0,0,0,5.88,2.81V454.94a49,49,0,0,1-6.91-2.3,11.16,11.16,0,0,1-4.35-3.52,10.61,10.61,0,0,1-1.79-6.46,10.83,10.83,0,0,1,3.52-8.32q3.51-3.33,9.53-3.59v-5.37h2.82v5.44a14.18,14.18,0,0,1,8.51,3.45,11.76,11.76,0,0,1,3.78,7.36h-4.74a8.1,8.1,0,0,0-2.37-4.41,8.65,8.65,0,0,0-5.18-2.56v17.08a41.93,41.93,0,0,1,6.78,2.31,10.69,10.69,0,0,1,4.48,3.58A10.85,10.85,0,0,1,182.36,464.22ZM158,442.46a6.75,6.75,0,0,0,2.18,5.44,18.49,18.49,0,0,0,6.33,3V434.46a10,10,0,0,0-6.2,2.24A7.31,7.31,0,0,0,158,442.46ZM169.3,472.8a9.29,9.29,0,0,0,6.34-2.56,8.17,8.17,0,0,0,2.24-5.82,6.75,6.75,0,0,0-2.24-5.51,17.9,17.9,0,0,0-6.34-3.13Zm57.64-8.58a12,12,0,0,1-1.47,5.76,11.85,11.85,0,0,1-4.42,4.48,14.82,14.82,0,0,1-7.16,2v5.12h-2.82v-5.19a15.33,15.33,0,0,1-9.22-3.71,11.44,11.44,0,0,1-3.77-8.06h4.8a9.16,9.16,0,0,0,2.3,5.25,9.41,9.41,0,0,0,5.89,2.81V454.94a48.6,48.6,0,0,1-6.91-2.3,11.09,11.09,0,0,1-4.35-3.52,10.62,10.62,0,0,1-1.8-6.46,10.84,10.84,0,0,1,3.53-8.32q3.51-3.33,9.53-3.59v-5.37h2.82v5.44a14.18,14.18,0,0,1,8.51,3.45,11.81,11.81,0,0,1,3.78,7.36h-4.74a8.23,8.23,0,0,0-2.37-4.41,8.68,8.68,0,0,0-5.18-2.56v17.08a41.93,41.93,0,0,1,6.78,2.31,10.12,10.12,0,0,1,6.27,10.17Zm-24.38-21.76a6.72,6.72,0,0,0,2.18,5.44,18.49,18.49,0,0,0,6.33,3V434.46a10,10,0,0,0-6.21,2.24A7.34,7.34,0,0,0,202.56,442.46Zm11.33,30.34a9.24,9.24,0,0,0,6.33-2.56,8.13,8.13,0,0,0,2.24-5.82,6.72,6.72,0,0,0-2.24-5.51,17.76,17.76,0,0,0-6.33-3.13Zm57.64-8.58a12,12,0,0,1-1.47,5.76,11.85,11.85,0,0,1-4.42,4.48,14.83,14.83,0,0,1-7.17,2v5.12h-2.81v-5.19a15.33,15.33,0,0,1-9.22-3.71,11.44,11.44,0,0,1-3.77-8.06h4.8a9.09,9.09,0,0,0,2.3,5.25,9.41,9.41,0,0,0,5.89,2.81V454.94a48.6,48.6,0,0,1-6.91-2.3,11.19,11.19,0,0,1-4.36-3.52,10.68,10.68,0,0,1-1.79-6.46,10.86,10.86,0,0,1,3.52-8.32q3.52-3.33,9.54-3.59v-5.37h2.81v5.44a14.21,14.21,0,0,1,8.52,3.45,11.75,11.75,0,0,1,3.77,7.36H266a8.23,8.23,0,0,0-2.37-4.41,8.68,8.68,0,0,0-5.19-2.56v17.08a41.74,41.74,0,0,1,6.79,2.31,10.12,10.12,0,0,1,6.27,10.17Zm-24.38-21.76a6.74,6.74,0,0,0,2.17,5.44,18.64,18.64,0,0,0,6.34,3V434.46a10,10,0,0,0-6.21,2.24A7.3,7.3,0,0,0,247.15,442.46Zm11.32,30.34a9.27,9.27,0,0,0,6.34-2.56,8.17,8.17,0,0,0,2.24-5.82,6.75,6.75,0,0,0-2.24-5.51,17.73,17.73,0,0,0-6.34-3.13Zm57.65-8.58a11.71,11.71,0,0,1-5.89,10.24,14.83,14.83,0,0,1-7.17,2v5.12h-2.81v-5.19a15.33,15.33,0,0,1-9.22-3.71,11.41,11.41,0,0,1-3.78-8.06h4.8a9.17,9.17,0,0,0,2.31,5.25,9.41,9.41,0,0,0,5.89,2.81V454.94a48.79,48.79,0,0,1-6.92-2.3,11.23,11.23,0,0,1-4.35-3.52,10.68,10.68,0,0,1-1.79-6.46,10.83,10.83,0,0,1,3.52-8.32c2.35-2.22,5.52-3.42,9.54-3.59v-5.37h2.81v5.44a14.18,14.18,0,0,1,8.51,3.45,11.71,11.71,0,0,1,3.78,7.36h-4.74a8.14,8.14,0,0,0-2.36-4.41,8.68,8.68,0,0,0-5.19-2.56v17.08a42.08,42.08,0,0,1,6.79,2.31,10.12,10.12,0,0,1,6.27,10.17Zm-24.39-21.76a6.75,6.75,0,0,0,2.18,5.44,18.55,18.55,0,0,0,6.34,3V434.46A10,10,0,0,0,294,436.7,7.31,7.31,0,0,0,291.73,442.46Zm11.33,30.34a9.29,9.29,0,0,0,6.34-2.56,8.17,8.17,0,0,0,2.24-5.82,6.75,6.75,0,0,0-2.24-5.51,17.81,17.81,0,0,0-6.34-3.13Zm57.65-8.58a12,12,0,0,1-1.48,5.76,11.9,11.9,0,0,1-4.41,4.48,14.83,14.83,0,0,1-7.17,2v5.12h-2.82v-5.19a15.3,15.3,0,0,1-9.21-3.71,11.41,11.41,0,0,1-3.78-8.06h4.8a9.1,9.1,0,0,0,2.31,5.25,9.38,9.38,0,0,0,5.88,2.81V454.94a49,49,0,0,1-6.91-2.3,11.09,11.09,0,0,1-4.35-3.52,10.68,10.68,0,0,1-1.79-6.46,10.83,10.83,0,0,1,3.52-8.32q3.51-3.33,9.53-3.59v-5.37h2.82v5.44a14.18,14.18,0,0,1,8.51,3.45,11.76,11.76,0,0,1,3.78,7.36H355.2a8.1,8.1,0,0,0-2.37-4.41,8.65,8.65,0,0,0-5.18-2.56v17.08a41.93,41.93,0,0,1,6.78,2.31,10.69,10.69,0,0,1,4.48,3.58A10.85,10.85,0,0,1,360.71,464.22Zm-24.39-21.76a6.75,6.75,0,0,0,2.18,5.44,18.49,18.49,0,0,0,6.33,3V434.46a10,10,0,0,0-6.2,2.24A7.31,7.31,0,0,0,336.32,442.46Zm11.33,30.34a9.29,9.29,0,0,0,6.34-2.56,8.17,8.17,0,0,0,2.24-5.82,6.75,6.75,0,0,0-2.24-5.51,17.81,17.81,0,0,0-6.34-3.13Z" transform="translate(-70 -185.18)"/><path class="cls-1" d="M694.77,603.22a11.71,11.71,0,0,1-5.89,10.24,14.83,14.83,0,0,1-7.17,2v5.12H678.9v-5.19a15.33,15.33,0,0,1-9.22-3.71,11.45,11.45,0,0,1-3.78-8.06h4.8a9.17,9.17,0,0,0,2.31,5.25,9.41,9.41,0,0,0,5.89,2.81V593.94a48.79,48.79,0,0,1-6.92-2.3,11.23,11.23,0,0,1-4.35-3.52,10.68,10.68,0,0,1-1.79-6.46,10.81,10.81,0,0,1,3.52-8.32q3.52-3.33,9.54-3.59v-5.37h2.81v5.44a14.18,14.18,0,0,1,8.51,3.45,11.71,11.71,0,0,1,3.78,7.36h-4.74a8.14,8.14,0,0,0-2.36-4.41,8.68,8.68,0,0,0-5.19-2.56v17.08a42.08,42.08,0,0,1,6.79,2.31,10.12,10.12,0,0,1,6.27,10.17Zm-24.39-21.76a6.75,6.75,0,0,0,2.18,5.44,18.46,18.46,0,0,0,6.34,3V573.46a10,10,0,0,0-6.21,2.24A7.31,7.31,0,0,0,670.38,581.46Zm11.33,30.34a9.29,9.29,0,0,0,6.34-2.56,8.17,8.17,0,0,0,2.24-5.82,6.75,6.75,0,0,0-2.24-5.51,17.81,17.81,0,0,0-6.34-3.13Zm57.65-8.58a12,12,0,0,1-1.48,5.76,11.9,11.9,0,0,1-4.41,4.48,14.83,14.83,0,0,1-7.17,2v5.12h-2.82v-5.19a15.3,15.3,0,0,1-9.21-3.71,11.41,11.41,0,0,1-3.78-8.06h4.8a9.1,9.1,0,0,0,2.31,5.25,9.38,9.38,0,0,0,5.88,2.81V593.94a49,49,0,0,1-6.91-2.3,11.09,11.09,0,0,1-4.35-3.52,10.68,10.68,0,0,1-1.79-6.46,10.81,10.81,0,0,1,3.52-8.32q3.51-3.33,9.53-3.59v-5.37h2.82v5.44a14.18,14.18,0,0,1,8.51,3.45,11.76,11.76,0,0,1,3.78,7.36h-4.74a8.1,8.1,0,0,0-2.37-4.41,8.65,8.65,0,0,0-5.18-2.56v17.08a41.93,41.93,0,0,1,6.78,2.31,10.69,10.69,0,0,1,4.48,3.58A10.85,10.85,0,0,1,739.36,603.22ZM715,581.46a6.75,6.75,0,0,0,2.18,5.44,18.49,18.49,0,0,0,6.33,3V573.46a10,10,0,0,0-6.2,2.24A7.31,7.31,0,0,0,715,581.46ZM726.3,611.8a9.29,9.29,0,0,0,6.34-2.56,8.17,8.17,0,0,0,2.24-5.82,6.75,6.75,0,0,0-2.24-5.51,17.9,17.9,0,0,0-6.34-3.13Zm57.64-8.58a12,12,0,0,1-1.47,5.76,11.85,11.85,0,0,1-4.42,4.48,14.82,14.82,0,0,1-7.16,2v5.12h-2.82v-5.19a15.33,15.33,0,0,1-9.22-3.71,11.44,11.44,0,0,1-3.77-8.06h4.8a9.16,9.16,0,0,0,2.3,5.25,9.41,9.41,0,0,0,5.89,2.81V593.94a48.6,48.6,0,0,1-6.91-2.3,11.09,11.09,0,0,1-4.35-3.52,10.61,10.61,0,0,1-1.79-6.46,10.84,10.84,0,0,1,3.51-8.32q3.53-3.33,9.54-3.59v-5.37h2.82v5.44a14.18,14.18,0,0,1,8.51,3.45,11.75,11.75,0,0,1,3.77,7.36h-4.73a8.23,8.23,0,0,0-2.37-4.41,8.68,8.68,0,0,0-5.18-2.56v17.08a41.93,41.93,0,0,1,6.78,2.31,10.12,10.12,0,0,1,6.27,10.17Zm-24.38-21.76a6.74,6.74,0,0,0,2.17,5.44,18.64,18.64,0,0,0,6.34,3V573.46a10,10,0,0,0-6.21,2.24A7.34,7.34,0,0,0,759.56,581.46Zm11.33,30.34a9.24,9.24,0,0,0,6.33-2.56,8.13,8.13,0,0,0,2.24-5.82,6.72,6.72,0,0,0-2.24-5.51,17.76,17.76,0,0,0-6.33-3.13Zm57.64-8.58a11.71,11.71,0,0,1-5.89,10.24,14.83,14.83,0,0,1-7.17,2v5.12h-2.81v-5.19a15.33,15.33,0,0,1-9.22-3.71,11.44,11.44,0,0,1-3.77-8.06h4.8a9.16,9.16,0,0,0,2.3,5.25,9.41,9.41,0,0,0,5.89,2.81V593.94a48.6,48.6,0,0,1-6.91-2.3,11.19,11.19,0,0,1-4.36-3.52,10.68,10.68,0,0,1-1.79-6.46,10.85,10.85,0,0,1,3.52-8.32q3.52-3.33,9.54-3.59v-5.37h2.81v5.44a14.21,14.21,0,0,1,8.52,3.45,11.75,11.75,0,0,1,3.77,7.36H823a8.23,8.23,0,0,0-2.37-4.41,8.68,8.68,0,0,0-5.19-2.56v17.08a41.74,41.74,0,0,1,6.79,2.31,10.12,10.12,0,0,1,6.27,10.17Zm-24.38-21.76a6.74,6.74,0,0,0,2.17,5.44,18.64,18.64,0,0,0,6.34,3V573.46a10,10,0,0,0-6.21,2.24A7.3,7.3,0,0,0,804.15,581.46Zm11.32,30.34a9.25,9.25,0,0,0,6.34-2.56,8.17,8.17,0,0,0,2.24-5.82,6.75,6.75,0,0,0-2.24-5.51,17.73,17.73,0,0,0-6.34-3.13Zm57.65-8.58a11.71,11.71,0,0,1-5.89,10.24,14.83,14.83,0,0,1-7.17,2v5.12h-2.81v-5.19a15.33,15.33,0,0,1-9.22-3.71,11.41,11.41,0,0,1-3.78-8.06h4.8a9.1,9.1,0,0,0,2.31,5.25,9.41,9.41,0,0,0,5.89,2.81V593.94a48.79,48.79,0,0,1-6.92-2.3,11.23,11.23,0,0,1-4.35-3.52,10.68,10.68,0,0,1-1.79-6.46,10.81,10.81,0,0,1,3.52-8.32c2.35-2.22,5.52-3.42,9.54-3.59v-5.37h2.81v5.44a14.18,14.18,0,0,1,8.51,3.45,11.71,11.71,0,0,1,3.78,7.36h-4.74a8.14,8.14,0,0,0-2.36-4.41,8.68,8.68,0,0,0-5.19-2.56v17.08a41.74,41.74,0,0,1,6.79,2.31,10.12,10.12,0,0,1,6.27,10.17Zm-24.39-21.76a6.75,6.75,0,0,0,2.18,5.44,18.55,18.55,0,0,0,6.34,3V573.46A10,10,0,0,0,851,575.7,7.31,7.31,0,0,0,848.73,581.46Zm11.33,30.34a9.27,9.27,0,0,0,6.34-2.56,8.17,8.17,0,0,0,2.24-5.82,6.75,6.75,0,0,0-2.24-5.51,17.73,17.73,0,0,0-6.34-3.13Zm57.65-8.58a11.76,11.76,0,0,1-5.89,10.24,14.86,14.86,0,0,1-7.17,2v5.12h-2.82v-5.19a15.3,15.3,0,0,1-9.21-3.71,11.41,11.41,0,0,1-3.78-8.06h4.8a9.1,9.1,0,0,0,2.31,5.25,9.38,9.38,0,0,0,5.88,2.81V593.94a48.6,48.6,0,0,1-6.91-2.3,11.16,11.16,0,0,1-4.35-3.52,10.68,10.68,0,0,1-1.79-6.46,10.81,10.81,0,0,1,3.52-8.32q3.51-3.33,9.53-3.59v-5.37h2.82v5.44a14.18,14.18,0,0,1,8.51,3.45,11.81,11.81,0,0,1,3.78,7.36H912.2a8.1,8.1,0,0,0-2.37-4.41,8.65,8.65,0,0,0-5.18-2.56v17.08a41.93,41.93,0,0,1,6.78,2.31,10.69,10.69,0,0,1,4.48,3.58A10.85,10.85,0,0,1,917.71,603.22Zm-24.39-21.76a6.75,6.75,0,0,0,2.18,5.44,18.49,18.49,0,0,0,6.33,3V573.46a10,10,0,0,0-6.2,2.24A7.31,7.31,0,0,0,893.32,581.46Zm11.33,30.34a9.29,9.29,0,0,0,6.34-2.56,8.17,8.17,0,0,0,2.24-5.82,6.75,6.75,0,0,0-2.24-5.51,17.9,17.9,0,0,0-6.34-3.13ZM694.77,673.22a11.71,11.71,0,0,1-5.89,10.24,14.83,14.83,0,0,1-7.17,2v5.12H678.9v-5.19a15.33,15.33,0,0,1-9.22-3.71,11.45,11.45,0,0,1-3.78-8.06h4.8a9.17,9.17,0,0,0,2.31,5.25,9.41,9.41,0,0,0,5.89,2.81V663.94a48.79,48.79,0,0,1-6.92-2.3,11.23,11.23,0,0,1-4.35-3.52,10.68,10.68,0,0,1-1.79-6.46,10.81,10.81,0,0,1,3.52-8.32q3.52-3.33,9.54-3.59v-5.37h2.81v5.44a14.18,14.18,0,0,1,8.51,3.45,11.71,11.71,0,0,1,3.78,7.36h-4.74a8.14,8.14,0,0,0-2.36-4.41,8.68,8.68,0,0,0-5.19-2.56v17.08a42.08,42.08,0,0,1,6.79,2.31,10.12,10.12,0,0,1,6.27,10.17Zm-24.39-21.76a6.75,6.75,0,0,0,2.18,5.44,18.46,18.46,0,0,0,6.34,3V643.46a10,10,0,0,0-6.21,2.24A7.31,7.31,0,0,0,670.38,651.46Zm11.33,30.34a9.29,9.29,0,0,0,6.34-2.56,8.17,8.17,0,0,0,2.24-5.82,6.75,6.75,0,0,0-2.24-5.51,17.81,17.81,0,0,0-6.34-3.13Zm57.65-8.58a12,12,0,0,1-1.48,5.76,11.9,11.9,0,0,1-4.41,4.48,14.83,14.83,0,0,1-7.17,2v5.12h-2.82v-5.19a15.3,15.3,0,0,1-9.21-3.71,11.41,11.41,0,0,1-3.78-8.06h4.8a9.1,9.1,0,0,0,2.31,5.25,9.38,9.38,0,0,0,5.88,2.81V663.94a49,49,0,0,1-6.91-2.3,11.09,11.09,0,0,1-4.35-3.52,10.68,10.68,0,0,1-1.79-6.46,10.81,10.81,0,0,1,3.52-8.32q3.51-3.33,9.53-3.59v-5.37h2.82v5.44a14.18,14.18,0,0,1,8.51,3.45,11.76,11.76,0,0,1,3.78,7.36h-4.74a8.1,8.1,0,0,0-2.37-4.41,8.65,8.65,0,0,0-5.18-2.56v17.08a41.93,41.93,0,0,1,6.78,2.31,10.69,10.69,0,0,1,4.48,3.58A10.85,10.85,0,0,1,739.36,673.22ZM715,651.46a6.75,6.75,0,0,0,2.18,5.44,18.49,18.49,0,0,0,6.33,3V643.46a10,10,0,0,0-6.2,2.24A7.31,7.31,0,0,0,715,651.46ZM726.3,681.8a9.29,9.29,0,0,0,6.34-2.56,8.17,8.17,0,0,0,2.24-5.82,6.75,6.75,0,0,0-2.24-5.51,17.9,17.9,0,0,0-6.34-3.13Zm57.64-8.58a12,12,0,0,1-1.47,5.76,11.85,11.85,0,0,1-4.42,4.48,14.82,14.82,0,0,1-7.16,2v5.12h-2.82v-5.19a15.33,15.33,0,0,1-9.22-3.71,11.44,11.44,0,0,1-3.77-8.06h4.8a9.16,9.16,0,0,0,2.3,5.25,9.41,9.41,0,0,0,5.89,2.81V663.94a48.6,48.6,0,0,1-6.91-2.3,11.09,11.09,0,0,1-4.35-3.52,10.61,10.61,0,0,1-1.79-6.46,10.84,10.84,0,0,1,3.51-8.32q3.53-3.33,9.54-3.59v-5.37h2.82v5.44a14.18,14.18,0,0,1,8.51,3.45,11.75,11.75,0,0,1,3.77,7.36h-4.73a8.23,8.23,0,0,0-2.37-4.41,8.68,8.68,0,0,0-5.18-2.56v17.08a41.93,41.93,0,0,1,6.78,2.31,10.12,10.12,0,0,1,6.27,10.17Zm-24.38-21.76a6.74,6.74,0,0,0,2.17,5.44,18.64,18.64,0,0,0,6.34,3V643.46a10,10,0,0,0-6.21,2.24A7.34,7.34,0,0,0,759.56,651.46Zm11.33,30.34a9.24,9.24,0,0,0,6.33-2.56,8.13,8.13,0,0,0,2.24-5.82,6.72,6.72,0,0,0-2.24-5.51,17.76,17.76,0,0,0-6.33-3.13Zm57.64-8.58a11.71,11.71,0,0,1-5.89,10.24,14.83,14.83,0,0,1-7.17,2v5.12h-2.81v-5.19a15.33,15.33,0,0,1-9.22-3.71,11.44,11.44,0,0,1-3.77-8.06h4.8a9.16,9.16,0,0,0,2.3,5.25,9.41,9.41,0,0,0,5.89,2.81V663.94a48.6,48.6,0,0,1-6.91-2.3,11.19,11.19,0,0,1-4.36-3.52,10.68,10.68,0,0,1-1.79-6.46,10.85,10.85,0,0,1,3.52-8.32q3.52-3.33,9.54-3.59v-5.37h2.81v5.44a14.21,14.21,0,0,1,8.52,3.45,11.75,11.75,0,0,1,3.77,7.36H823a8.23,8.23,0,0,0-2.37-4.41,8.68,8.68,0,0,0-5.19-2.56v17.08a41.74,41.74,0,0,1,6.79,2.31,10.12,10.12,0,0,1,6.27,10.17Zm-24.38-21.76a6.74,6.74,0,0,0,2.17,5.44,18.64,18.64,0,0,0,6.34,3V643.46a10,10,0,0,0-6.21,2.24A7.3,7.3,0,0,0,804.15,651.46Zm11.32,30.34a9.25,9.25,0,0,0,6.34-2.56,8.17,8.17,0,0,0,2.24-5.82,6.75,6.75,0,0,0-2.24-5.51,17.73,17.73,0,0,0-6.34-3.13Zm57.65-8.58a11.71,11.71,0,0,1-5.89,10.24,14.83,14.83,0,0,1-7.17,2v5.12h-2.81v-5.19a15.33,15.33,0,0,1-9.22-3.71,11.41,11.41,0,0,1-3.78-8.06h4.8a9.1,9.1,0,0,0,2.31,5.25,9.41,9.41,0,0,0,5.89,2.81V663.94a48.79,48.79,0,0,1-6.92-2.3,11.23,11.23,0,0,1-4.35-3.52,10.68,10.68,0,0,1-1.79-6.46,10.81,10.81,0,0,1,3.52-8.32c2.35-2.22,5.52-3.42,9.54-3.59v-5.37h2.81v5.44a14.18,14.18,0,0,1,8.51,3.45,11.71,11.71,0,0,1,3.78,7.36h-4.74a8.14,8.14,0,0,0-2.36-4.41,8.68,8.68,0,0,0-5.19-2.56v17.08a41.74,41.74,0,0,1,6.79,2.31,10.12,10.12,0,0,1,6.27,10.17Zm-24.39-21.76a6.75,6.75,0,0,0,2.18,5.44,18.55,18.55,0,0,0,6.34,3V643.46A10,10,0,0,0,851,645.7,7.31,7.31,0,0,0,848.73,651.46Zm11.33,30.34a9.27,9.27,0,0,0,6.34-2.56,8.17,8.17,0,0,0,2.24-5.82,6.75,6.75,0,0,0-2.24-5.51,17.73,17.73,0,0,0-6.34-3.13Zm57.65-8.58a11.76,11.76,0,0,1-5.89,10.24,14.86,14.86,0,0,1-7.17,2v5.12h-2.82v-5.19a15.3,15.3,0,0,1-9.21-3.71,11.41,11.41,0,0,1-3.78-8.06h4.8a9.1,9.1,0,0,0,2.31,5.25,9.38,9.38,0,0,0,5.88,2.81V663.94a48.6,48.6,0,0,1-6.91-2.3,11.16,11.16,0,0,1-4.35-3.52,10.68,10.68,0,0,1-1.79-6.46,10.81,10.81,0,0,1,3.52-8.32q3.51-3.33,9.53-3.59v-5.37h2.82v5.44a14.18,14.18,0,0,1,8.51,3.45,11.81,11.81,0,0,1,3.78,7.36H912.2a8.1,8.1,0,0,0-2.37-4.41,8.65,8.65,0,0,0-5.18-2.56v17.08a41.93,41.93,0,0,1,6.78,2.31,10.69,10.69,0,0,1,4.48,3.58A10.85,10.85,0,0,1,917.71,673.22Zm-24.39-21.76a6.75,6.75,0,0,0,2.18,5.44,18.49,18.49,0,0,0,6.33,3V643.46a10,10,0,0,0-6.2,2.24A7.31,7.31,0,0,0,893.32,651.46Zm11.33,30.34a9.29,9.29,0,0,0,6.34-2.56,8.17,8.17,0,0,0,2.24-5.82,6.75,6.75,0,0,0-2.24-5.51,17.9,17.9,0,0,0-6.34-3.13ZM694.77,743.22a11.71,11.71,0,0,1-5.89,10.24,14.83,14.83,0,0,1-7.17,2v5.12H678.9v-5.19a15.33,15.33,0,0,1-9.22-3.71,11.45,11.45,0,0,1-3.78-8.06h4.8a9.17,9.17,0,0,0,2.31,5.25,9.41,9.41,0,0,0,5.89,2.81V733.94a48.79,48.79,0,0,1-6.92-2.3,11.23,11.23,0,0,1-4.35-3.52,10.68,10.68,0,0,1-1.79-6.46,10.81,10.81,0,0,1,3.52-8.32q3.52-3.33,9.54-3.59v-5.37h2.81v5.44a14.18,14.18,0,0,1,8.51,3.45,11.71,11.71,0,0,1,3.78,7.36h-4.74a8.14,8.14,0,0,0-2.36-4.41,8.68,8.68,0,0,0-5.19-2.56v17.08a42.08,42.08,0,0,1,6.79,2.31,10.12,10.12,0,0,1,6.27,10.17Zm-24.39-21.76a6.75,6.75,0,0,0,2.18,5.44,18.46,18.46,0,0,0,6.34,3V713.46a10,10,0,0,0-6.21,2.24A7.31,7.31,0,0,0,670.38,721.46Zm11.33,30.34a9.29,9.29,0,0,0,6.34-2.56,8.17,8.17,0,0,0,2.24-5.82,6.75,6.75,0,0,0-2.24-5.51,17.81,17.81,0,0,0-6.34-3.13Zm57.65-8.58a12,12,0,0,1-1.48,5.76,11.9,11.9,0,0,1-4.41,4.48,14.83,14.83,0,0,1-7.17,2v5.12h-2.82v-5.19a15.3,15.3,0,0,1-9.21-3.71,11.41,11.41,0,0,1-3.78-8.06h4.8a9.1,9.1,0,0,0,2.31,5.25,9.38,9.38,0,0,0,5.88,2.81V733.94a49,49,0,0,1-6.91-2.3,11.09,11.09,0,0,1-4.35-3.52,10.68,10.68,0,0,1-1.79-6.46,10.81,10.81,0,0,1,3.52-8.32q3.51-3.33,9.53-3.59v-5.37h2.82v5.44a14.18,14.18,0,0,1,8.51,3.45,11.76,11.76,0,0,1,3.78,7.36h-4.74a8.1,8.1,0,0,0-2.37-4.41,8.65,8.65,0,0,0-5.18-2.56v17.08a41.93,41.93,0,0,1,6.78,2.31,10.69,10.69,0,0,1,4.48,3.58A10.85,10.85,0,0,1,739.36,743.22ZM715,721.46a6.75,6.75,0,0,0,2.18,5.44,18.49,18.49,0,0,0,6.33,3V713.46a10,10,0,0,0-6.2,2.24A7.31,7.31,0,0,0,715,721.46ZM726.3,751.8a9.29,9.29,0,0,0,6.34-2.56,8.17,8.17,0,0,0,2.24-5.82,6.75,6.75,0,0,0-2.24-5.51,17.9,17.9,0,0,0-6.34-3.13Zm57.64-8.58a12,12,0,0,1-1.47,5.76,11.85,11.85,0,0,1-4.42,4.48,14.82,14.82,0,0,1-7.16,2v5.12h-2.82v-5.19a15.33,15.33,0,0,1-9.22-3.71,11.44,11.44,0,0,1-3.77-8.06h4.8a9.16,9.16,0,0,0,2.3,5.25,9.41,9.41,0,0,0,5.89,2.81V733.94a48.6,48.6,0,0,1-6.91-2.3,11.09,11.09,0,0,1-4.35-3.52,10.61,10.61,0,0,1-1.79-6.46,10.84,10.84,0,0,1,3.51-8.32q3.53-3.33,9.54-3.59v-5.37h2.82v5.44a14.18,14.18,0,0,1,8.51,3.45,11.75,11.75,0,0,1,3.77,7.36h-4.73a8.23,8.23,0,0,0-2.37-4.41,8.68,8.68,0,0,0-5.18-2.56v17.08a41.93,41.93,0,0,1,6.78,2.31,10.12,10.12,0,0,1,6.27,10.17Zm-24.38-21.76a6.74,6.74,0,0,0,2.17,5.44,18.64,18.64,0,0,0,6.34,3V713.46a10,10,0,0,0-6.21,2.24A7.34,7.34,0,0,0,759.56,721.46Zm11.33,30.34a9.24,9.24,0,0,0,6.33-2.56,8.13,8.13,0,0,0,2.24-5.82,6.72,6.72,0,0,0-2.24-5.51,17.76,17.76,0,0,0-6.33-3.13Zm57.64-8.58a11.71,11.71,0,0,1-5.89,10.24,14.83,14.83,0,0,1-7.17,2v5.12h-2.81v-5.19a15.33,15.33,0,0,1-9.22-3.71,11.44,11.44,0,0,1-3.77-8.06h4.8a9.16,9.16,0,0,0,2.3,5.25,9.41,9.41,0,0,0,5.89,2.81V733.94a48.6,48.6,0,0,1-6.91-2.3,11.19,11.19,0,0,1-4.36-3.52,10.68,10.68,0,0,1-1.79-6.46,10.85,10.85,0,0,1,3.52-8.32q3.52-3.33,9.54-3.59v-5.37h2.81v5.44a14.21,14.21,0,0,1,8.52,3.45,11.75,11.75,0,0,1,3.77,7.36H823a8.23,8.23,0,0,0-2.37-4.41,8.68,8.68,0,0,0-5.19-2.56v17.08a41.74,41.74,0,0,1,6.79,2.31,10.12,10.12,0,0,1,6.27,10.17Zm-24.38-21.76a6.74,6.74,0,0,0,2.17,5.44,18.64,18.64,0,0,0,6.34,3V713.46a10,10,0,0,0-6.21,2.24A7.3,7.3,0,0,0,804.15,721.46Zm11.32,30.34a9.25,9.25,0,0,0,6.34-2.56,8.17,8.17,0,0,0,2.24-5.82,6.75,6.75,0,0,0-2.24-5.51,17.73,17.73,0,0,0-6.34-3.13Zm57.65-8.58a11.71,11.71,0,0,1-5.89,10.24,14.83,14.83,0,0,1-7.17,2v5.12h-2.81v-5.19a15.33,15.33,0,0,1-9.22-3.71,11.41,11.41,0,0,1-3.78-8.06h4.8a9.1,9.1,0,0,0,2.31,5.25,9.41,9.41,0,0,0,5.89,2.81V733.94a48.79,48.79,0,0,1-6.92-2.3,11.23,11.23,0,0,1-4.35-3.52,10.68,10.68,0,0,1-1.79-6.46,10.81,10.81,0,0,1,3.52-8.32c2.35-2.22,5.52-3.42,9.54-3.59v-5.37h2.81v5.44a14.18,14.18,0,0,1,8.51,3.45,11.71,11.71,0,0,1,3.78,7.36h-4.74a8.14,8.14,0,0,0-2.36-4.41,8.68,8.68,0,0,0-5.19-2.56v17.08a41.74,41.74,0,0,1,6.79,2.31,10.12,10.12,0,0,1,6.27,10.17Zm-24.39-21.76a6.75,6.75,0,0,0,2.18,5.44,18.55,18.55,0,0,0,6.34,3V713.46A10,10,0,0,0,851,715.7,7.31,7.31,0,0,0,848.73,721.46Zm11.33,30.34a9.27,9.27,0,0,0,6.34-2.56,8.17,8.17,0,0,0,2.24-5.82,6.75,6.75,0,0,0-2.24-5.51,17.73,17.73,0,0,0-6.34-3.13Zm57.65-8.58a11.76,11.76,0,0,1-5.89,10.24,14.86,14.86,0,0,1-7.17,2v5.12h-2.82v-5.19a15.3,15.3,0,0,1-9.21-3.71,11.41,11.41,0,0,1-3.78-8.06h4.8a9.1,9.1,0,0,0,2.31,5.25,9.38,9.38,0,0,0,5.88,2.81V733.94a48.6,48.6,0,0,1-6.91-2.3,11.16,11.16,0,0,1-4.35-3.52,10.68,10.68,0,0,1-1.79-6.46,10.81,10.81,0,0,1,3.52-8.32q3.51-3.33,9.53-3.59v-5.37h2.82v5.44a14.18,14.18,0,0,1,8.51,3.45,11.81,11.81,0,0,1,3.78,7.36H912.2a8.1,8.1,0,0,0-2.37-4.41,8.65,8.65,0,0,0-5.18-2.56v17.08a41.93,41.93,0,0,1,6.78,2.31,10.69,10.69,0,0,1,4.48,3.58A10.85,10.85,0,0,1,917.71,743.22Zm-24.39-21.76a6.75,6.75,0,0,0,2.18,5.44,18.49,18.49,0,0,0,6.33,3V713.46a10,10,0,0,0-6.2,2.24A7.31,7.31,0,0,0,893.32,721.46Zm11.33,30.34a9.29,9.29,0,0,0,6.34-2.56,8.17,8.17,0,0,0,2.24-5.82,6.75,6.75,0,0,0-2.24-5.51,17.9,17.9,0,0,0-6.34-3.13ZM694.77,813.22a11.71,11.71,0,0,1-5.89,10.24,14.83,14.83,0,0,1-7.17,2v5.12H678.9v-5.19a15.33,15.33,0,0,1-9.22-3.71,11.45,11.45,0,0,1-3.78-8.06h4.8a9.17,9.17,0,0,0,2.31,5.25,9.41,9.41,0,0,0,5.89,2.81V803.94a48.79,48.79,0,0,1-6.92-2.3,11.23,11.23,0,0,1-4.35-3.52,10.68,10.68,0,0,1-1.79-6.46,10.81,10.81,0,0,1,3.52-8.32q3.52-3.33,9.54-3.59v-5.37h2.81v5.44a14.18,14.18,0,0,1,8.51,3.45,11.71,11.71,0,0,1,3.78,7.36h-4.74a8.14,8.14,0,0,0-2.36-4.41,8.68,8.68,0,0,0-5.19-2.56v17.08a42.08,42.08,0,0,1,6.79,2.31,10.12,10.12,0,0,1,6.27,10.17Zm-24.39-21.76a6.75,6.75,0,0,0,2.18,5.44,18.46,18.46,0,0,0,6.34,3V783.46a10,10,0,0,0-6.21,2.24A7.31,7.31,0,0,0,670.38,791.46Zm11.33,30.34a9.29,9.29,0,0,0,6.34-2.56,8.17,8.17,0,0,0,2.24-5.82,6.75,6.75,0,0,0-2.24-5.51,17.81,17.81,0,0,0-6.34-3.13Zm57.65-8.58a12,12,0,0,1-1.48,5.76,11.9,11.9,0,0,1-4.41,4.48,14.83,14.83,0,0,1-7.17,2v5.12h-2.82v-5.19a15.3,15.3,0,0,1-9.21-3.71,11.41,11.41,0,0,1-3.78-8.06h4.8a9.1,9.1,0,0,0,2.31,5.25,9.38,9.38,0,0,0,5.88,2.81V803.94a49,49,0,0,1-6.91-2.3,11.09,11.09,0,0,1-4.35-3.52,10.68,10.68,0,0,1-1.79-6.46,10.81,10.81,0,0,1,3.52-8.32q3.51-3.33,9.53-3.59v-5.37h2.82v5.44a14.18,14.18,0,0,1,8.51,3.45,11.76,11.76,0,0,1,3.78,7.36h-4.74a8.1,8.1,0,0,0-2.37-4.41,8.65,8.65,0,0,0-5.18-2.56v17.08a41.93,41.93,0,0,1,6.78,2.31,10.69,10.69,0,0,1,4.48,3.58A10.85,10.85,0,0,1,739.36,813.22ZM715,791.46a6.75,6.75,0,0,0,2.18,5.44,18.49,18.49,0,0,0,6.33,3V783.46a10,10,0,0,0-6.2,2.24A7.31,7.31,0,0,0,715,791.46ZM726.3,821.8a9.29,9.29,0,0,0,6.34-2.56,8.17,8.17,0,0,0,2.24-5.82,6.75,6.75,0,0,0-2.24-5.51,17.9,17.9,0,0,0-6.34-3.13Zm57.64-8.58a12,12,0,0,1-1.47,5.76,11.85,11.85,0,0,1-4.42,4.48,14.82,14.82,0,0,1-7.16,2v5.12h-2.82v-5.19a15.33,15.33,0,0,1-9.22-3.71,11.44,11.44,0,0,1-3.77-8.06h4.8a9.16,9.16,0,0,0,2.3,5.25,9.41,9.41,0,0,0,5.89,2.81V803.94a48.6,48.6,0,0,1-6.91-2.3,11.09,11.09,0,0,1-4.35-3.52,10.61,10.61,0,0,1-1.79-6.46,10.84,10.84,0,0,1,3.51-8.32q3.53-3.33,9.54-3.59v-5.37h2.82v5.44a14.18,14.18,0,0,1,8.51,3.45,11.75,11.75,0,0,1,3.77,7.36h-4.73a8.23,8.23,0,0,0-2.37-4.41,8.68,8.68,0,0,0-5.18-2.56v17.08a41.93,41.93,0,0,1,6.78,2.31,10.12,10.12,0,0,1,6.27,10.17Zm-24.38-21.76a6.74,6.74,0,0,0,2.17,5.44,18.64,18.64,0,0,0,6.34,3V783.46a10,10,0,0,0-6.21,2.24A7.34,7.34,0,0,0,759.56,791.46Zm11.33,30.34a9.24,9.24,0,0,0,6.33-2.56,8.13,8.13,0,0,0,2.24-5.82,6.72,6.72,0,0,0-2.24-5.51,17.76,17.76,0,0,0-6.33-3.13Zm57.64-8.58a11.71,11.71,0,0,1-5.89,10.24,14.83,14.83,0,0,1-7.17,2v5.12h-2.81v-5.19a15.33,15.33,0,0,1-9.22-3.71,11.44,11.44,0,0,1-3.77-8.06h4.8a9.16,9.16,0,0,0,2.3,5.25,9.41,9.41,0,0,0,5.89,2.81V803.94a48.6,48.6,0,0,1-6.91-2.3,11.19,11.19,0,0,1-4.36-3.52,10.68,10.68,0,0,1-1.79-6.46,10.85,10.85,0,0,1,3.52-8.32q3.52-3.33,9.54-3.59v-5.37h2.81v5.44a14.21,14.21,0,0,1,8.52,3.45,11.75,11.75,0,0,1,3.77,7.36H823a8.23,8.23,0,0,0-2.37-4.41,8.68,8.68,0,0,0-5.19-2.56v17.08a41.74,41.74,0,0,1,6.79,2.31,10.12,10.12,0,0,1,6.27,10.17Zm-24.38-21.76a6.74,6.74,0,0,0,2.17,5.44,18.64,18.64,0,0,0,6.34,3V783.46a10,10,0,0,0-6.21,2.24A7.3,7.3,0,0,0,804.15,791.46Zm11.32,30.34a9.25,9.25,0,0,0,6.34-2.56,8.17,8.17,0,0,0,2.24-5.82,6.75,6.75,0,0,0-2.24-5.51,17.73,17.73,0,0,0-6.34-3.13Zm57.65-8.58a11.71,11.71,0,0,1-5.89,10.24,14.83,14.83,0,0,1-7.17,2v5.12h-2.81v-5.19a15.33,15.33,0,0,1-9.22-3.71,11.41,11.41,0,0,1-3.78-8.06h4.8a9.1,9.1,0,0,0,2.31,5.25,9.41,9.41,0,0,0,5.89,2.81V803.94a48.79,48.79,0,0,1-6.92-2.3,11.23,11.23,0,0,1-4.35-3.52,10.68,10.68,0,0,1-1.79-6.46,10.81,10.81,0,0,1,3.52-8.32c2.35-2.22,5.52-3.42,9.54-3.59v-5.37h2.81v5.44a14.18,14.18,0,0,1,8.51,3.45,11.71,11.71,0,0,1,3.78,7.36h-4.74a8.14,8.14,0,0,0-2.36-4.41,8.68,8.68,0,0,0-5.19-2.56v17.08a41.74,41.74,0,0,1,6.79,2.31,10.12,10.12,0,0,1,6.27,10.17Zm-24.39-21.76a6.75,6.75,0,0,0,2.18,5.44,18.55,18.55,0,0,0,6.34,3V783.46A10,10,0,0,0,851,785.7,7.31,7.31,0,0,0,848.73,791.46Zm11.33,30.34a9.27,9.27,0,0,0,6.34-2.56,8.17,8.17,0,0,0,2.24-5.82,6.75,6.75,0,0,0-2.24-5.51,17.73,17.73,0,0,0-6.34-3.13Zm57.65-8.58a11.76,11.76,0,0,1-5.89,10.24,14.86,14.86,0,0,1-7.17,2v5.12h-2.82v-5.19a15.3,15.3,0,0,1-9.21-3.71,11.41,11.41,0,0,1-3.78-8.06h4.8a9.1,9.1,0,0,0,2.31,5.25,9.38,9.38,0,0,0,5.88,2.81V803.94a48.6,48.6,0,0,1-6.91-2.3,11.16,11.16,0,0,1-4.35-3.52,10.68,10.68,0,0,1-1.79-6.46,10.81,10.81,0,0,1,3.52-8.32q3.51-3.33,9.53-3.59v-5.37h2.82v5.44a14.18,14.18,0,0,1,8.51,3.45,11.81,11.81,0,0,1,3.78,7.36H912.2a8.1,8.1,0,0,0-2.37-4.41,8.65,8.65,0,0,0-5.18-2.56v17.08a41.93,41.93,0,0,1,6.78,2.31,10.69,10.69,0,0,1,4.48,3.58A10.85,10.85,0,0,1,917.71,813.22Zm-24.39-21.76a6.75,6.75,0,0,0,2.18,5.44,18.49,18.49,0,0,0,6.33,3V783.46a10,10,0,0,0-6.2,2.24A7.31,7.31,0,0,0,893.32,791.46Zm11.33,30.34a9.29,9.29,0,0,0,6.34-2.56,8.17,8.17,0,0,0,2.24-5.82,6.75,6.75,0,0,0-2.24-5.51,17.9,17.9,0,0,0-6.34-3.13Z" transform="translate(-70 -185.18)"/><path class="cls-2" d="M492,643.65a26,26,0,0,1,45.25,0l46.93,82.92a26,26,0,0,1-22.63,38.8H467.67a26,26,0,0,1-22.62-38.8Z" transform="translate(-70 -185.18)"/><rect class="cls-3" x="147" y="148.82" width="596" height="347" rx="22"/><rect class="cls-2" x="327.13" y="548.28" width="234.93" height="32.18" rx="14"/><path class="cls-4" d="M213,632H817v28a25,25,0,0,1-25,25H238a25,25,0,0,1-25-25Z" transform="translate(-70 -185.18)"/><circle class="cls-5" cx="514.06" cy="655.15" r="9.65" transform="translate(-281.58 61.42) rotate(-22.5)"/><rect class="cls-4" x="298.84" y="216.41" width="293.16" height="196.41" rx="22"/><rect class="cls-2" x="298.84" y="216.41" width="293.16" height="82.74" rx="22"/><path class="cls-2" d="M497,492h35.85v34.29H497Z" transform="translate(-70 -185.18)"/><path class="cls-2" d="M484.87,393.85H465V365.79c1.9-5.31,3.71-7.08,8.57-7.79h83c5.82,1.21,7.49,3.14,9,7.79v28.06H545.66V375.92H484.87Z" transform="translate(-70 -185.18)"/><g class="cls-6"><rect class="cls-7" y="459.82" width="268.18" height="185.79" rx="20"/></g><path class="cls-8" d="M338.18,664.43H70A19.43,19.43,0,0,1,89.43,645H318.75A19.43,19.43,0,0,1,338.18,664.43Z" transform="translate(-70 -185.18)"/><circle class="cls-4" cx="30.71" cy="471.87" r="4.28"/><circle class="cls-4" cx="45.47" cy="471.87" r="4.28"/><circle class="cls-4" cx="15.94" cy="471.87" r="4.28"/><path class="cls-2" d="M98.76,694.75H308.64v101H98.76Z" transform="translate(-70 -185.18)"/><path class="cls-9" d="M157,753.66c0-9-7.34-10-13.25-10.81-6.43-.89-10.07-1.67-10.07-7.21,0-4.65,4.87-6.3,9.05-6.3a13.14,13.14,0,0,1,10.82,5.11l3-2.44a16.88,16.88,0,0,0-11.23-6.37v-6h-3.88v5.87c-7,.43-11.67,4.39-11.67,10.14,0,9.2,7.45,10.23,13.43,11.06,6.32.88,9.9,1.64,9.9,7,0,5.9-6.09,6.78-9.72,6.78-6.67,0-9.48-1.88-12.1-5.11l-3,2.44a16.42,16.42,0,0,0,13.18,6.49v5.89h3.88v-5.92C152.6,763.65,157,759.71,157,753.66Z" transform="translate(-70 -185.18)"/><path class="cls-9" d="M217.66,753.66c0-9-7.35-10-13.25-10.81-6.44-.89-10.08-1.67-10.08-7.21,0-4.65,4.88-6.3,9-6.3a13.11,13.11,0,0,1,10.82,5.11l3-2.44A16.87,16.87,0,0,0,206,725.64v-6h-3.88v5.87c-7,.43-11.66,4.39-11.66,10.14,0,9.2,7.44,10.23,13.42,11.06,6.32.88,9.9,1.64,9.9,7,0,5.9-6.09,6.78-9.72,6.78-6.67,0-9.48-1.88-12.09-5.11l-3,2.44a16.45,16.45,0,0,0,13.18,6.49v5.89H206v-5.92C213.24,763.65,217.66,759.71,217.66,753.66Z" transform="translate(-70 -185.18)"/><path class="cls-9" d="M278.29,753.66c0-9-7.35-10-13.25-10.81-6.43-.89-10.07-1.67-10.07-7.21,0-4.65,4.87-6.3,9-6.3a13.11,13.11,0,0,1,10.82,5.11l3-2.44a16.88,16.88,0,0,0-11.23-6.37v-6h-3.89v5.87c-7,.43-11.66,4.39-11.66,10.14,0,9.2,7.44,10.23,13.42,11.06,6.33.88,9.9,1.64,9.9,7,0,5.9-6.09,6.78-9.72,6.78-6.66,0-9.48-1.88-12.09-5.11l-3,2.44a16.42,16.42,0,0,0,13.17,6.49v5.89h3.89v-5.92C273.87,763.65,278.29,759.71,278.29,753.66Z" transform="translate(-70 -185.18)"/><rect class="cls-10" x="35.7" y="517.29" width="195.22" height="85.62"/><g class="cls-11"><rect class="cls-9" x="621" y="49.82" width="318.99" height="220.98" rx="20"/></g><path class="cls-12" d="M1010,258.12H691V255a20,20,0,0,1,20-20H990a20,20,0,0,1,20,20Z" transform="translate(-70 -185.18)"/><circle class="cls-4" cx="657.52" cy="64.15" r="5.09"/><circle class="cls-4" cx="675.09" cy="63.91" r="5.09"/><circle class="cls-4" cx="639.96" cy="64.15" r="5.09"/><path class="cls-13" d="M721,287.93V422.58a10.7,10.7,0,0,0,10.48,10.88H976.77a5.13,5.13,0,0,0,0-10.26H939.7V337.51c0-7.12-7.88-11.14-13.31-6.8l-12.45,9.94a8.74,8.74,0,0,0-3.23,6.79V423.2H891.84V371.89a8.44,8.44,0,0,0-8.27-8.58H871.12a8.44,8.44,0,0,0-8.27,8.58V423.2H844V354.57c0-7.13-7.9-11.16-13.34-6.78l-12.45,10a8.66,8.66,0,0,0-3.2,6.77v58.6H796.11V392.93c0-7.12-7.89-11.14-13.32-6.79l-12.45,9.95a8.73,8.73,0,0,0-3.22,6.79V423.2h-35.6a.6.6,0,0,1-.59-.62V287.93a4.95,4.95,0,1,0-9.89,0ZM920.6,348.27l9.21-7.35V423.2H920.6Zm-47.86,25.3H882V423.2h-9.21Zm-47.87-8.15,9.21-7.42v65.2h-9.21ZM777,403.71l9.21-7.36V423.2H777Z" transform="translate(-70 -185.18)"/><path class="cls-14" d="M872,340.16,854.6,323.58a17.68,17.68,0,0,0-23.45-1.06l-79.93,63.91a5.24,5.24,0,0,0-.9,7.19,4.82,4.82,0,0,0,6.94.93l79.93-63.91a8.07,8.07,0,0,1,10.71.49l17.38,16.58a17.69,17.69,0,0,0,23.45,1.06l73.49-58.67-2.45,16.49c-1,6.65,8.76,8.39,9.78,1.56l4-27.1a6.93,6.93,0,0,0-6.28-8l-26.4-1.53c-6.55-.36-7.08,9.87-.56,10.24l15.07.88-72.72,58A8.08,8.08,0,0,1,872,340.16Z" transform="translate(-70 -185.18)"/><path class="cls-15" d="M173.13,185.88V231H160.58V185.88Zm47.53,0v10h-12V231H196.08V195.86h-11.9v-10Zm58.49,22a10.46,10.46,0,0,1,6.27,4,10.85,10.85,0,0,1,2.37,6.91,11.08,11.08,0,0,1-4,9q-4,3.25-11.14,3.26H250.35V185.88H272q6.91,0,10.81,3.07a10.29,10.29,0,0,1,4,8.64,10.43,10.43,0,0,1-2.11,6.66A10.21,10.21,0,0,1,279.15,207.83Zm-16.26-4h6.34q4.72,0,4.73-3.9t-4.73-4h-6.34Zm7.3,17.09q4.72,0,4.73-4a3.88,3.88,0,0,0-1.28-3.14,5.13,5.13,0,0,0-3.52-1.08h-7.23v8.19Zm41.78-35v26.18a8.52,8.52,0,0,0,1.67,5.63,7.77,7.77,0,0,0,10.36,0,8.24,8.24,0,0,0,1.8-5.63V185.88h12.54v26.18a20.5,20.5,0,0,1-2.62,10.62,17,17,0,0,1-7.17,6.59,22.59,22.59,0,0,1-10,2.18,21.72,21.72,0,0,1-9.85-2.18,16.56,16.56,0,0,1-6.79-6.59,21.49,21.49,0,0,1-2.43-10.62V185.88Zm56.7,45.57q-7.87,0-12.93-3.71A13.66,13.66,0,0,1,350.3,217h13.38a5,5,0,0,0,1.41,3.46,5.12,5.12,0,0,0,6,.26,2.92,2.92,0,0,0,1.15-2.44,3.4,3.4,0,0,0-1.86-3.07,33.19,33.19,0,0,0-6-2.43,59.06,59.06,0,0,1-7.17-2.82,14.41,14.41,0,0,1-4.73-4,11.4,11.4,0,0,1-2-7,12.54,12.54,0,0,1,2.18-7.43,13.31,13.31,0,0,1,6-4.73,22.39,22.39,0,0,1,8.71-1.6q7.88,0,12.54,3.71a13.12,13.12,0,0,1,5.06,10.3H371.3a4,4,0,0,0-1.28-3.07,4.39,4.39,0,0,0-3-1,3.24,3.24,0,0,0-2.31.83,3.33,3.33,0,0,0,.07,4.61,11.12,11.12,0,0,0,2.49,1.6c1,.42,2.44,1,4.35,1.66a48.53,48.53,0,0,1,7,2.94,13.57,13.57,0,0,1,4.8,4,10.07,10.07,0,0,1,2.05,6.52,13.13,13.13,0,0,1-2.05,7.24,13.59,13.59,0,0,1-5.82,5.05A20.07,20.07,0,0,1,368.67,231.45Zm41.61-45.57V231H397.73V185.88ZM465.61,231H453.07l-16.71-25.22V231H423.82V185.88h12.54l16.71,25.54V185.88h12.54Zm26.09-35.07v7.36h14.4v9.53H491.7V221H508V231H479.16V185.88H508v10.05Zm45.95,35.52q-7.87,0-12.93-3.71A13.63,13.63,0,0,1,519.28,217h13.37a5,5,0,0,0,1.41,3.46,4.56,4.56,0,0,0,3.14,1.09,4.51,4.51,0,0,0,2.81-.83,2.93,2.93,0,0,0,1.16-2.44,3.4,3.4,0,0,0-1.86-3.07,33.36,33.36,0,0,0-6-2.43,58.82,58.82,0,0,1-7.16-2.82,14.45,14.45,0,0,1-4.74-4,11.47,11.47,0,0,1-2-7,12.54,12.54,0,0,1,2.17-7.43,13.34,13.34,0,0,1,6-4.73,22.38,22.38,0,0,1,8.7-1.6q7.88,0,12.55,3.71a13.11,13.11,0,0,1,5,10.3H540.27a4,4,0,0,0-1.28-3.07,4.37,4.37,0,0,0-3-1,3.22,3.22,0,0,0-2.3.83,3.32,3.32,0,0,0,.06,4.61,11.2,11.2,0,0,0,2.5,1.6c1,.42,2.43,1,4.35,1.66a49,49,0,0,1,7,2.94,13.57,13.57,0,0,1,4.8,4,10.13,10.13,0,0,1,2.05,6.52,13.21,13.21,0,0,1-2.05,7.24,13.59,13.59,0,0,1-5.82,5.05A20.1,20.1,0,0,1,537.65,231.45Zm46.08,0c-5.25,0-9.55-1.24-12.93-3.71A13.66,13.66,0,0,1,565.36,217h13.38a5,5,0,0,0,1.41,3.46,5.12,5.12,0,0,0,6,.26,2.92,2.92,0,0,0,1.15-2.44,3.41,3.41,0,0,0-1.85-3.07,33.68,33.68,0,0,0-6-2.43,59.73,59.73,0,0,1-7.17-2.82,14.41,14.41,0,0,1-4.73-4,11.4,11.4,0,0,1-2-7,12.54,12.54,0,0,1,2.18-7.43,13.36,13.36,0,0,1,6-4.73,22.43,22.43,0,0,1,8.71-1.6q7.88,0,12.54,3.71a13.09,13.09,0,0,1,5.06,10.3H586.36a4,4,0,0,0-1.28-3.07,4.37,4.37,0,0,0-3-1,3.2,3.2,0,0,0-2.3.83,3.32,3.32,0,0,0,.06,4.61,11,11,0,0,0,2.5,1.6c1,.42,2.43,1,4.35,1.66a49,49,0,0,1,7,2.94,13.74,13.74,0,0,1,4.8,4,10.13,10.13,0,0,1,2.05,6.52,13.21,13.21,0,0,1-2.05,7.24,13.68,13.68,0,0,1-5.83,5.05A20,20,0,0,1,583.73,231.45ZM159.05,278.34a24.83,24.83,0,0,1,2.75-11.84,20,20,0,0,1,7.94-8.12,23.09,23.09,0,0,1,11.77-2.95A22.24,22.24,0,0,1,195.72,260a20.26,20.26,0,0,1,7.42,12.22h-13.5a8.87,8.87,0,0,0-8.32-5.25,8.66,8.66,0,0,0-7,3.14,12.52,12.52,0,0,0-2.56,8.25,12.91,12.91,0,0,0,2.56,8.39,8.72,8.72,0,0,0,7,3.07,8.83,8.83,0,0,0,8.32-5.25h13.5a20.57,20.57,0,0,1-7.42,12.29,22.43,22.43,0,0,1-14.21,4.48,23.57,23.57,0,0,1-11.77-2.88,20.43,20.43,0,0,1-7.94-8.13A25.33,25.33,0,0,1,159.05,278.34Zm78.07,23.11a23.54,23.54,0,0,1-11.65-2.95,22.67,22.67,0,0,1-8.45-8.25,23.44,23.44,0,0,1-3.07-12,23.08,23.08,0,0,1,3.07-11.9,22,22,0,0,1,8.45-8.26,24.53,24.53,0,0,1,23.29,0,21.62,21.62,0,0,1,8.39,8.26,23.08,23.08,0,0,1,3.07,11.9,23.44,23.44,0,0,1-3.07,12,22.23,22.23,0,0,1-8.39,8.25A23.53,23.53,0,0,1,237.12,301.45Zm0-11.65a9.5,9.5,0,0,0,7.55-3.14,12.1,12.1,0,0,0,2.81-8.38q0-5.37-2.81-8.45a10.76,10.76,0,0,0-15.17,0c-1.84,2.05-2.75,4.87-2.75,8.45s.91,6.36,2.75,8.45A9.7,9.7,0,0,0,237.12,289.8Zm87.81-33.92V301H312.39V276.1L303.88,301h-10.5l-8.58-25.09V301H272.26V255.88h15.17l11.33,29.31,11.07-29.31Zm49.19,15a14.94,14.94,0,0,1-1.92,7.49,13.62,13.62,0,0,1-5.7,5.37,19.65,19.65,0,0,1-9.28,2H351V301H338.47V255.88h18.75a20.18,20.18,0,0,1,9.22,1.92,13.17,13.17,0,0,1,5.76,5.31A15.59,15.59,0,0,1,374.12,270.92ZM356,275.78q5.31,0,5.31-4.86c0-3.28-1.77-4.93-5.31-4.93h-5v9.79Zm42.09-9.85v7.36h14.4v9.53H398.1V291h16.32V301H385.56V255.88h28.86v10.05ZM461,255.88v10H449V301H436.43V265.86h-11.9v-10Zm23.58,0V301H472.05V255.88Zm47.53,0v10h-12V301H507.54V265.86h-11.9v-10Zm23.58,0V301H543.16V255.88Zm35.18,45.57a23.57,23.57,0,0,1-11.65-2.95,22.67,22.67,0,0,1-8.45-8.25,23.44,23.44,0,0,1-3.07-12,23.08,23.08,0,0,1,3.07-11.9,22,22,0,0,1,8.45-8.26,23.67,23.67,0,0,1,11.65-2.94,23.42,23.42,0,0,1,11.65,2.94,21.59,21.59,0,0,1,8.38,8.26,23.08,23.08,0,0,1,3.07,11.9,23.44,23.44,0,0,1-3.07,12,22.2,22.2,0,0,1-8.38,8.25A23.6,23.6,0,0,1,590.88,301.45Zm0-11.65a9.49,9.49,0,0,0,7.55-3.14,12.05,12.05,0,0,0,2.82-8.38q0-5.37-2.82-8.45a9.51,9.51,0,0,0-7.55-3.13,9.62,9.62,0,0,0-7.62,3.13q-2.75,3.07-2.75,8.45a12.38,12.38,0,0,0,2.75,8.45A9.71,9.71,0,0,0,590.88,289.8ZM667.81,301H655.27l-16.7-25.22V301H626V255.88h12.55l16.7,25.54V255.88h12.54Z" transform="translate(-70 -185.18)"/><path class="cls-2" d="M163.13,185.88V231H150.58V185.88Zm47.53,0v10h-12V231H186.08V195.86h-11.9v-10Zm58.49,22a10.46,10.46,0,0,1,6.27,4,10.85,10.85,0,0,1,2.37,6.91,11.08,11.08,0,0,1-4,9q-4,3.25-11.14,3.26H240.35V185.88H262q6.91,0,10.81,3.07a10.29,10.29,0,0,1,4,8.64,10.43,10.43,0,0,1-2.11,6.66A10.21,10.21,0,0,1,269.15,207.83Zm-16.26-4h6.34q4.72,0,4.73-3.9t-4.73-4h-6.34Zm7.3,17.09q4.72,0,4.73-4a3.88,3.88,0,0,0-1.28-3.14,5.13,5.13,0,0,0-3.52-1.08h-7.23v8.19Zm41.78-35v26.18a8.52,8.52,0,0,0,1.67,5.63,7.77,7.77,0,0,0,10.36,0,8.24,8.24,0,0,0,1.8-5.63V185.88h12.54v26.18a20.5,20.5,0,0,1-2.62,10.62,17,17,0,0,1-7.17,6.59,22.59,22.59,0,0,1-10,2.18,21.72,21.72,0,0,1-9.85-2.18,16.56,16.56,0,0,1-6.79-6.59,21.49,21.49,0,0,1-2.43-10.62V185.88Zm56.7,45.57q-7.87,0-12.93-3.71A13.66,13.66,0,0,1,340.3,217h13.38a5,5,0,0,0,1.41,3.46,5.12,5.12,0,0,0,6,.26,2.92,2.92,0,0,0,1.15-2.44,3.4,3.4,0,0,0-1.86-3.07,33.19,33.19,0,0,0-6-2.43,59.06,59.06,0,0,1-7.17-2.82,14.41,14.41,0,0,1-4.73-4,11.4,11.4,0,0,1-2-7,12.54,12.54,0,0,1,2.18-7.43,13.31,13.31,0,0,1,6-4.73,22.39,22.39,0,0,1,8.71-1.6q7.88,0,12.54,3.71a13.12,13.12,0,0,1,5.06,10.3H361.3a4,4,0,0,0-1.28-3.07,4.39,4.39,0,0,0-3-1,3.24,3.24,0,0,0-2.31.83,3.33,3.33,0,0,0,.07,4.61,11.12,11.12,0,0,0,2.49,1.6c1,.42,2.44,1,4.35,1.66a48.53,48.53,0,0,1,7,2.94,13.57,13.57,0,0,1,4.8,4,10.07,10.07,0,0,1,2.05,6.52,13.13,13.13,0,0,1-2.05,7.24,13.59,13.59,0,0,1-5.82,5.05A20.07,20.07,0,0,1,358.67,231.45Zm41.61-45.57V231H387.73V185.88ZM455.61,231H443.07l-16.71-25.22V231H413.82V185.88h12.54l16.71,25.54V185.88h12.54Zm26.09-35.07v7.36h14.4v9.53H481.7V221H498V231H469.16V185.88H498v10.05Zm45.95,35.52q-7.87,0-12.93-3.71A13.63,13.63,0,0,1,509.28,217h13.37a5,5,0,0,0,1.41,3.46,4.56,4.56,0,0,0,3.14,1.09,4.51,4.51,0,0,0,2.81-.83,2.93,2.93,0,0,0,1.16-2.44,3.4,3.4,0,0,0-1.86-3.07,33.36,33.36,0,0,0-6-2.43,58.82,58.82,0,0,1-7.16-2.82,14.45,14.45,0,0,1-4.74-4,11.47,11.47,0,0,1-2-7,12.54,12.54,0,0,1,2.17-7.43,13.34,13.34,0,0,1,6-4.73,22.38,22.38,0,0,1,8.7-1.6q7.88,0,12.55,3.71a13.11,13.11,0,0,1,5,10.3H530.27a4,4,0,0,0-1.28-3.07,4.37,4.37,0,0,0-3-1,3.22,3.22,0,0,0-2.3.83,3.32,3.32,0,0,0,.06,4.61,11.2,11.2,0,0,0,2.5,1.6c1,.42,2.43,1,4.35,1.66a49,49,0,0,1,7,2.94,13.57,13.57,0,0,1,4.8,4,10.13,10.13,0,0,1,2.05,6.52,13.21,13.21,0,0,1-2.05,7.24,13.59,13.59,0,0,1-5.82,5.05A20.1,20.1,0,0,1,527.65,231.45Zm46.08,0c-5.25,0-9.55-1.24-12.93-3.71A13.66,13.66,0,0,1,555.36,217h13.38a5,5,0,0,0,1.41,3.46,5.12,5.12,0,0,0,6,.26,2.92,2.92,0,0,0,1.15-2.44,3.41,3.41,0,0,0-1.85-3.07,33.68,33.68,0,0,0-6-2.43,59.73,59.73,0,0,1-7.17-2.82,14.41,14.41,0,0,1-4.73-4,11.4,11.4,0,0,1-2-7,12.54,12.54,0,0,1,2.18-7.43,13.36,13.36,0,0,1,6-4.73,22.43,22.43,0,0,1,8.71-1.6q7.88,0,12.54,3.71a13.09,13.09,0,0,1,5.06,10.3H576.36a4,4,0,0,0-1.28-3.07,4.37,4.37,0,0,0-3-1,3.2,3.2,0,0,0-2.3.83,3.32,3.32,0,0,0,.06,4.61,11,11,0,0,0,2.5,1.6c1,.42,2.43,1,4.35,1.66a49,49,0,0,1,7,2.94,13.74,13.74,0,0,1,4.8,4,10.13,10.13,0,0,1,2.05,6.52,13.21,13.21,0,0,1-2.05,7.24,13.68,13.68,0,0,1-5.83,5.05A20,20,0,0,1,573.73,231.45ZM149.05,278.34a24.83,24.83,0,0,1,2.75-11.84,20,20,0,0,1,7.94-8.12,23.09,23.09,0,0,1,11.77-2.95A22.24,22.24,0,0,1,185.72,260a20.26,20.26,0,0,1,7.42,12.22h-13.5a8.87,8.87,0,0,0-8.32-5.25,8.66,8.66,0,0,0-7,3.14,12.52,12.52,0,0,0-2.56,8.25,12.91,12.91,0,0,0,2.56,8.39,8.72,8.72,0,0,0,7,3.07,8.83,8.83,0,0,0,8.32-5.25h13.5a20.57,20.57,0,0,1-7.42,12.29,22.43,22.43,0,0,1-14.21,4.48,23.57,23.57,0,0,1-11.77-2.88,20.43,20.43,0,0,1-7.94-8.13A25.33,25.33,0,0,1,149.05,278.34Zm78.07,23.11a23.54,23.54,0,0,1-11.65-2.95,22.67,22.67,0,0,1-8.45-8.25,23.44,23.44,0,0,1-3.07-12,23.08,23.08,0,0,1,3.07-11.9,22,22,0,0,1,8.45-8.26,24.53,24.53,0,0,1,23.29,0,21.62,21.62,0,0,1,8.39,8.26,23.08,23.08,0,0,1,3.07,11.9,23.44,23.44,0,0,1-3.07,12,22.23,22.23,0,0,1-8.39,8.25A23.53,23.53,0,0,1,227.12,301.45Zm0-11.65a9.5,9.5,0,0,0,7.55-3.14,12.1,12.1,0,0,0,2.81-8.38q0-5.37-2.81-8.45a10.76,10.76,0,0,0-15.17,0c-1.84,2.05-2.75,4.87-2.75,8.45s.91,6.36,2.75,8.45A9.7,9.7,0,0,0,227.12,289.8Zm87.81-33.92V301H302.39V276.1L293.88,301h-10.5l-8.58-25.09V301H262.26V255.88h15.17l11.33,29.31,11.07-29.31Zm49.19,15a14.94,14.94,0,0,1-1.92,7.49,13.62,13.62,0,0,1-5.7,5.37,19.65,19.65,0,0,1-9.28,2H341V301H328.47V255.88h18.75a20.18,20.18,0,0,1,9.22,1.92,13.17,13.17,0,0,1,5.76,5.31A15.59,15.59,0,0,1,364.12,270.92ZM346,275.78q5.31,0,5.31-4.86c0-3.28-1.77-4.93-5.31-4.93h-5v9.79Zm42.09-9.85v7.36h14.4v9.53H388.1V291h16.32V301H375.56V255.88h28.86v10.05ZM451,255.88v10H439V301H426.43V265.86h-11.9v-10Zm23.58,0V301H462.05V255.88Zm47.53,0v10h-12V301H497.54V265.86h-11.9v-10Zm23.58,0V301H533.16V255.88Zm35.18,45.57a23.57,23.57,0,0,1-11.65-2.95,22.67,22.67,0,0,1-8.45-8.25,23.44,23.44,0,0,1-3.07-12,23.08,23.08,0,0,1,3.07-11.9,22,22,0,0,1,8.45-8.26,23.67,23.67,0,0,1,11.65-2.94,23.42,23.42,0,0,1,11.65,2.94,21.59,21.59,0,0,1,8.38,8.26,23.08,23.08,0,0,1,3.07,11.9,23.44,23.44,0,0,1-3.07,12,22.2,22.2,0,0,1-8.38,8.25A23.6,23.6,0,0,1,580.88,301.45Zm0-11.65a9.49,9.49,0,0,0,7.55-3.14,12.05,12.05,0,0,0,2.82-8.38q0-5.37-2.82-8.45a9.51,9.51,0,0,0-7.55-3.13,9.62,9.62,0,0,0-7.62,3.13q-2.75,3.07-2.75,8.45a12.38,12.38,0,0,0,2.75,8.45A9.71,9.71,0,0,0,580.88,289.8ZM657.81,301H645.27l-16.7-25.22V301H616V255.88h12.55l16.7,25.54V255.88h12.54Z" transform="translate(-70 -185.18)"/></svg>