<svg width="1000" height="280" viewBox="0 0 1000 280" fill="none" xmlns="http://www.w3.org/2000/svg">
<rect x="2.5" y="2.5" width="995" height="275" rx="22.5" fill="white" stroke="url(#paint0_linear)" stroke-width="5"/>
<path d="M168.9 152.313H179.775V184.938H168.9V152.313Z" fill="url(#paint1_linear)"/>
<path fill-rule="evenodd" clip-rule="evenodd" d="M206.717 114.25L111.812 59.457C109.315 58.0149 106.346 57.6241 103.56 58.3706C100.774 59.1171 98.399 60.9397 96.9569 63.4375L83.3632 86.9825C82.6421 88.2315 82.4467 89.7156 82.82 91.1086C83.1932 92.5016 84.1046 93.6892 85.3535 94.4103C87.8513 95.8524 89.6739 98.2277 90.4204 101.014C91.1669 103.8 90.7761 106.768 89.334 109.266C87.8919 111.764 85.5166 113.586 82.7306 114.333C79.9447 115.079 76.9763 114.688 74.4785 113.246C73.2296 112.525 71.7454 112.33 70.3524 112.703C68.9594 113.076 67.7718 113.988 67.0507 115.237L53.457 138.782C52.0149 141.279 51.6241 144.248 52.3706 147.034C53.1171 149.82 54.9397 152.195 57.4375 153.637L91.6698 173.401C91.1469 174.471 90.4472 175.457 89.5894 176.315C87.55 178.354 84.7839 179.5 81.8997 179.5C80.4576 179.5 79.0745 180.073 78.0548 181.093C77.0351 182.112 76.4622 183.495 76.4622 184.938V212.125C76.4622 215.009 77.6079 217.775 79.6474 219.815C81.6868 221.854 84.4529 223 87.3372 223H217.837C220.721 223 223.487 221.854 225.527 219.815C227.566 217.775 228.712 215.009 228.712 212.125V184.938C228.712 183.495 228.139 182.112 227.119 181.093C226.1 180.073 224.717 179.5 223.274 179.5C220.39 179.5 217.624 178.354 215.585 176.315C213.545 174.275 212.399 171.509 212.399 168.625C212.399 165.741 213.545 162.975 215.585 160.935C217.624 158.896 220.39 157.75 223.274 157.75C224.717 157.75 226.1 157.177 227.119 156.158C228.139 155.138 228.712 153.755 228.712 152.313V125.125C228.712 122.241 227.566 119.475 225.527 117.435C223.487 115.396 220.721 114.25 217.837 114.25H206.717ZM76.4622 152.064V125.28C75.6701 125.154 74.8827 124.985 74.1034 124.771L62.875 144.219L76.4622 152.064ZM98.9353 114.25H174.358L177.01 109.656L106.375 68.875L95.1465 88.3232C98.5692 91.704 100.774 96.1241 101.417 100.892C102.038 105.499 101.166 110.18 98.9353 114.25ZM217.837 189.668V212.125H179.775V195.813H168.9V212.125H87.3372V189.668C91.9916 188.452 96.1114 185.726 99.0518 181.919C101.992 178.111 103.587 173.436 103.587 168.625C103.587 163.814 101.992 159.139 99.0518 155.332C96.1114 151.524 91.9916 148.799 87.3372 147.582V125.125H168.9V141.438H179.775V125.125H217.837V147.582C213.182 148.799 209.063 151.524 206.122 155.332C203.182 159.139 201.587 163.814 201.587 168.625C201.587 173.436 203.182 178.111 206.122 181.919C209.063 185.726 213.182 188.452 217.837 189.668Z" fill="url(#paint2_linear)"/>
<path d="M406.83 118.2C411.779 118.2 415.683 119.203 418.542 121.208C421.4 123.213 422.83 125.944 422.83 129.4C422.83 131.789 422.126 133.88 420.718 135.672C419.352 137.421 417.475 138.616 415.086 139.256C417.987 139.811 420.27 141.112 421.934 143.16C423.598 145.165 424.43 147.64 424.43 150.584C424.43 154.424 422.915 157.453 419.886 159.672C416.856 161.891 412.739 163 407.534 163H386.222V118.2H406.83ZM406.318 136.248C408.238 136.248 409.731 135.821 410.798 134.968C411.907 134.072 412.462 132.835 412.462 131.256C412.462 129.72 411.907 128.525 410.798 127.672C409.731 126.819 408.238 126.413 406.318 126.456H396.334V136.248H406.318ZM406.318 154.744C408.707 154.744 410.584 154.275 411.95 153.336C413.315 152.355 413.998 151.011 413.998 149.304C413.998 147.683 413.315 146.403 411.95 145.464C410.584 144.525 408.707 144.077 406.318 144.12H396.334V154.744H406.318Z" fill="url(#paint3_linear)"/>
<path d="M467.496 128.568V163H457.704V156.92C455.358 161.229 451.518 163.384 446.184 163.384C442.387 163.384 439.358 162.211 437.096 159.864C434.878 157.475 433.768 154.253 433.768 150.2V128.568H443.624V147.384C443.624 149.56 444.2 151.267 445.352 152.504C446.504 153.741 448.083 154.36 450.088 154.36C452.435 154.317 454.291 153.485 455.656 151.864C457.022 150.243 457.704 148.152 457.704 145.592V128.568H467.496Z" fill="url(#paint4_linear)"/>
<path d="M502.002 128.184C505.842 128.184 508.893 129.379 511.154 131.768C513.458 134.157 514.61 137.357 514.61 141.368V163H504.754V144.248C504.754 142.072 504.136 140.365 502.898 139.128C501.704 137.848 500.061 137.208 497.97 137.208C495.538 137.251 493.618 138.104 492.21 139.768C490.802 141.389 490.098 143.48 490.098 146.04V163H480.242V128.568H490.098V134.584C492.488 130.403 496.456 128.269 502.002 128.184Z" fill="url(#paint5_linear)"/>
<path d="M560.301 115.512V163H550.509V157.944C549.272 159.736 547.736 161.101 545.901 162.04C544.067 162.936 541.976 163.384 539.629 163.384C536.387 163.384 533.528 162.659 531.053 161.208C528.621 159.715 526.723 157.624 525.357 154.936C524.035 152.248 523.373 149.155 523.373 145.656C523.373 142.2 524.035 139.149 525.357 136.504C526.68 133.859 528.557 131.811 530.989 130.36C533.421 128.909 536.216 128.184 539.373 128.184C544.237 128.184 547.949 129.997 550.509 133.624V115.512H560.301ZM541.933 155.448C544.451 155.448 546.499 154.573 548.077 152.824C549.699 151.032 550.509 148.728 550.509 145.912C550.509 143.096 549.699 140.813 548.077 139.064C546.499 137.272 544.451 136.376 541.933 136.376C539.373 136.376 537.283 137.272 535.661 139.064C534.083 140.813 533.272 143.096 533.229 145.912C533.272 148.728 534.083 151.032 535.661 152.824C537.283 154.573 539.373 155.448 541.933 155.448Z" fill="url(#paint6_linear)"/>
<path d="M573.65 115.512H583.506V163H573.65V115.512Z" fill="url(#paint7_linear)"/>
<path d="M611.376 128.248C616.923 128.248 621.126 129.848 623.984 133.048C626.886 136.248 628.336 140.707 628.336 146.424C628.336 147.448 628.315 148.237 628.272 148.792H603.568C604.123 150.968 605.19 152.675 606.768 153.912C608.347 155.107 610.246 155.704 612.464 155.704C614.086 155.704 615.643 155.405 617.136 154.808C618.63 154.168 619.974 153.251 621.168 152.056L626.352 157.304C624.603 159.267 622.47 160.781 619.952 161.848C617.478 162.872 614.704 163.384 611.632 163.384C608.006 163.384 604.827 162.659 602.096 161.208C599.408 159.757 597.318 157.709 595.824 155.064C594.374 152.419 593.648 149.368 593.648 145.912C593.648 142.413 594.395 139.341 595.888 136.696C597.382 134.008 599.472 131.939 602.16 130.488C604.848 128.995 607.92 128.248 611.376 128.248ZM619.056 142.968C618.971 140.707 618.246 138.893 616.88 137.528C615.515 136.163 613.702 135.48 611.44 135.48C609.307 135.48 607.515 136.163 606.064 137.528C604.656 138.851 603.76 140.664 603.376 142.968H619.056Z" fill="url(#paint8_linear)"/>
<path d="M651.956 118.2H689.396V126.776H675.7V163H665.588V126.776H651.956V118.2Z" fill="url(#paint9_linear)"/>
<path d="M697.817 128.568H707.673V163H697.817V128.568ZM702.681 113.272C704.26 113.272 705.54 113.784 706.521 114.808C707.545 115.832 708.057 117.155 708.057 118.776C708.057 120.397 707.545 121.72 706.521 122.744C705.54 123.768 704.26 124.28 702.681 124.28C701.145 124.28 699.865 123.768 698.841 122.744C697.86 121.677 697.369 120.355 697.369 118.776C697.369 117.155 697.86 115.832 698.841 114.808C699.865 113.784 701.145 113.272 702.681 113.272Z" fill="url(#paint10_linear)"/>
<path d="M743.306 140.28C741.343 137.848 738.783 136.632 735.626 136.632C733.151 136.632 731.124 137.485 729.546 139.192C728.01 140.856 727.242 143.075 727.242 145.848C727.242 148.621 728.01 150.883 729.546 152.632C731.082 154.339 733.044 155.192 735.434 155.192C739.018 155.192 741.684 153.848 743.434 151.16L750.218 155.768C748.767 158.2 746.719 160.077 744.074 161.4C741.471 162.723 738.42 163.384 734.922 163.384C731.466 163.384 728.415 162.659 725.77 161.208C723.124 159.757 721.055 157.709 719.562 155.064C718.111 152.419 717.386 149.368 717.386 145.912C717.386 142.413 718.111 139.341 719.562 136.696C721.055 134.008 723.124 131.939 725.77 130.488C728.458 128.995 731.551 128.248 735.05 128.248C738.335 128.248 741.258 128.888 743.818 130.168C746.378 131.405 748.426 133.176 749.962 135.48L743.306 140.28Z" fill="url(#paint11_linear)"/>
<path d="M782.504 163L774.184 148.984L769.768 153.656V163H759.912V115.512H769.768V141.624L782.376 128.632H793.576L780.968 141.88L794.152 163H782.504Z" fill="url(#paint12_linear)"/>
<path d="M815.451 128.248C820.998 128.248 825.201 129.848 828.059 133.048C830.961 136.248 832.411 140.707 832.411 146.424C832.411 147.448 832.39 148.237 832.347 148.792H807.643C808.198 150.968 809.265 152.675 810.843 153.912C812.422 155.107 814.321 155.704 816.539 155.704C818.161 155.704 819.718 155.405 821.211 154.808C822.705 154.168 824.049 153.251 825.243 152.056L830.427 157.304C828.678 159.267 826.545 160.781 824.027 161.848C821.553 162.872 818.779 163.384 815.707 163.384C812.081 163.384 808.902 162.659 806.171 161.208C803.483 159.757 801.393 157.709 799.899 155.064C798.449 152.419 797.723 149.368 797.723 145.912C797.723 142.413 798.47 139.341 799.963 136.696C801.457 134.008 803.547 131.939 806.235 130.488C808.923 128.995 811.995 128.248 815.451 128.248ZM823.131 142.968C823.046 140.707 822.321 138.893 820.955 137.528C819.59 136.163 817.777 135.48 815.515 135.48C813.382 135.48 811.59 136.163 810.139 137.528C808.731 138.851 807.835 140.664 807.451 142.968H823.131Z" fill="url(#paint13_linear)"/>
<path d="M863.367 161.08C862.087 161.848 860.657 162.445 859.079 162.872C857.543 163.256 855.985 163.448 854.407 163.448C851.207 163.448 848.604 162.531 846.599 160.696C844.593 158.861 843.591 156.237 843.591 152.824V136.888H838.791V130.104H843.591V120.632H853.383V130.104H862.727V136.952H853.383V151.16C853.383 153.805 854.428 155.128 856.519 155.128C857.969 155.128 859.569 154.701 861.319 153.848L863.367 161.08Z" fill="url(#paint14_linear)"/>
<path d="M894.201 138.68C892.323 137.613 890.467 136.803 888.633 136.248C886.798 135.651 885.155 135.352 883.705 135.352C882.51 135.352 881.55 135.565 880.825 135.992C880.099 136.419 879.737 137.059 879.737 137.912C879.737 138.851 880.227 139.576 881.209 140.088C882.19 140.6 883.79 141.176 886.009 141.816C888.441 142.541 890.446 143.267 892.025 143.992C893.603 144.675 894.969 145.72 896.121 147.128C897.273 148.493 897.849 150.307 897.849 152.568C897.849 155.981 896.526 158.648 893.881 160.568C891.278 162.445 887.929 163.384 883.833 163.384C881.017 163.384 878.307 162.979 875.705 162.168C873.102 161.315 870.841 160.12 868.921 158.584L872.121 151.928C873.87 153.293 875.811 154.36 877.945 155.128C880.121 155.853 882.169 156.216 884.089 156.216C885.411 156.216 886.457 156.003 887.225 155.576C888.035 155.107 888.441 154.424 888.441 153.528C888.441 152.547 887.929 151.779 886.905 151.224C885.923 150.669 884.323 150.072 882.105 149.432C879.758 148.749 877.795 148.067 876.217 147.384C874.681 146.701 873.358 145.677 872.249 144.312C871.139 142.904 870.585 141.091 870.585 138.872C870.585 135.459 871.865 132.813 874.425 130.936C876.985 129.059 880.227 128.12 884.153 128.12C886.499 128.12 888.846 128.461 891.193 129.144C893.539 129.784 895.673 130.723 897.593 131.96L894.201 138.68Z" fill="url(#paint15_linear)"/>
<defs>
<linearGradient id="paint0_linear" x1="200" y1="-208.627" x2="1312.23" y2="125.936" gradientUnits="userSpaceOnUse">
<stop stop-color="#2E847B"/>
<stop offset="0.46875" stop-color="#2A9CBE"/>
<stop offset="0.989583" stop-color="#FCC805"/>
</linearGradient>
<linearGradient id="paint1_linear" x1="87.3424" y1="-64.9412" x2="299.941" y2="-45.764" gradientUnits="userSpaceOnUse">
<stop stop-color="#2E847B"/>
<stop offset="0.46875" stop-color="#2A9CBE"/>
<stop offset="0.989583" stop-color="#FCC805"/>
</linearGradient>
<linearGradient id="paint2_linear" x1="87.3424" y1="-64.9412" x2="299.941" y2="-45.764" gradientUnits="userSpaceOnUse">
<stop stop-color="#2E847B"/>
<stop offset="0.46875" stop-color="#2A9CBE"/>
<stop offset="0.989583" stop-color="#FCC805"/>
</linearGradient>
<linearGradient id="paint3_linear" x1="488.547" y1="75.8859" x2="845.678" y2="382.595" gradientUnits="userSpaceOnUse">
<stop stop-color="#2E847B"/>
<stop offset="0.46875" stop-color="#2A9CBE"/>
<stop offset="0.989583" stop-color="#FCC805"/>
</linearGradient>
<linearGradient id="paint4_linear" x1="488.547" y1="75.8859" x2="845.678" y2="382.595" gradientUnits="userSpaceOnUse">
<stop stop-color="#2E847B"/>
<stop offset="0.46875" stop-color="#2A9CBE"/>
<stop offset="0.989583" stop-color="#FCC805"/>
</linearGradient>
<linearGradient id="paint5_linear" x1="488.547" y1="75.8859" x2="845.678" y2="382.595" gradientUnits="userSpaceOnUse">
<stop stop-color="#2E847B"/>
<stop offset="0.46875" stop-color="#2A9CBE"/>
<stop offset="0.989583" stop-color="#FCC805"/>
</linearGradient>
<linearGradient id="paint6_linear" x1="488.547" y1="75.8859" x2="845.678" y2="382.595" gradientUnits="userSpaceOnUse">
<stop stop-color="#2E847B"/>
<stop offset="0.46875" stop-color="#2A9CBE"/>
<stop offset="0.989583" stop-color="#FCC805"/>
</linearGradient>
<linearGradient id="paint7_linear" x1="488.547" y1="75.8859" x2="845.678" y2="382.595" gradientUnits="userSpaceOnUse">
<stop stop-color="#2E847B"/>
<stop offset="0.46875" stop-color="#2A9CBE"/>
<stop offset="0.989583" stop-color="#FCC805"/>
</linearGradient>
<linearGradient id="paint8_linear" x1="488.547" y1="75.8859" x2="845.678" y2="382.595" gradientUnits="userSpaceOnUse">
<stop stop-color="#2E847B"/>
<stop offset="0.46875" stop-color="#2A9CBE"/>
<stop offset="0.989583" stop-color="#FCC805"/>
</linearGradient>
<linearGradient id="paint9_linear" x1="488.547" y1="75.8859" x2="845.678" y2="382.595" gradientUnits="userSpaceOnUse">
<stop stop-color="#2E847B"/>
<stop offset="0.46875" stop-color="#2A9CBE"/>
<stop offset="0.989583" stop-color="#FCC805"/>
</linearGradient>
<linearGradient id="paint10_linear" x1="488.547" y1="75.8859" x2="845.678" y2="382.595" gradientUnits="userSpaceOnUse">
<stop stop-color="#2E847B"/>
<stop offset="0.46875" stop-color="#2A9CBE"/>
<stop offset="0.989583" stop-color="#FCC805"/>
</linearGradient>
<linearGradient id="paint11_linear" x1="488.547" y1="75.8859" x2="845.678" y2="382.595" gradientUnits="userSpaceOnUse">
<stop stop-color="#2E847B"/>
<stop offset="0.46875" stop-color="#2A9CBE"/>
<stop offset="0.989583" stop-color="#FCC805"/>
</linearGradient>
<linearGradient id="paint12_linear" x1="488.547" y1="75.8859" x2="845.678" y2="382.595" gradientUnits="userSpaceOnUse">
<stop stop-color="#2E847B"/>
<stop offset="0.46875" stop-color="#2A9CBE"/>
<stop offset="0.989583" stop-color="#FCC805"/>
</linearGradient>
<linearGradient id="paint13_linear" x1="488.547" y1="75.8859" x2="845.678" y2="382.595" gradientUnits="userSpaceOnUse">
<stop stop-color="#2E847B"/>
<stop offset="0.46875" stop-color="#2A9CBE"/>
<stop offset="0.989583" stop-color="#FCC805"/>
</linearGradient>
<linearGradient id="paint14_linear" x1="488.547" y1="75.8859" x2="845.678" y2="382.595" gradientUnits="userSpaceOnUse">
<stop stop-color="#2E847B"/>
<stop offset="0.46875" stop-color="#2A9CBE"/>
<stop offset="0.989583" stop-color="#FCC805"/>
</linearGradient>
<linearGradient id="paint15_linear" x1="488.547" y1="75.8859" x2="845.678" y2="382.595" gradientUnits="userSpaceOnUse">
<stop stop-color="#2E847B"/>
<stop offset="0.46875" stop-color="#2A9CBE"/>
<stop offset="0.989583" stop-color="#FCC805"/>
</linearGradient>
</defs>
</svg>
