<svg width="1880" height="860" viewBox="0 0 1880 860" fill="none" xmlns="http://www.w3.org/2000/svg">
<rect width="1880" height="860" fill="white"/>
<g filter="url(#filter0_d)">
<rect x="30.5" y="144.525" width="275" height="355" rx="22.5" fill="white" stroke="url(#paint0_linear)" stroke-width="5"/>
<path d="M28 442.025H308V477.025C308 490.832 296.807 502.025 283 502.025H53C39.1929 502.025 28 490.832 28 477.025V442.025Z" fill="url(#paint1_linear)"/>
<rect x="358.5" y="144.525" width="275" height="355" rx="22.5" fill="white" stroke="url(#paint2_linear)" stroke-width="5"/>
<path d="M356 442.025H636V477.025C636 490.832 624.807 502.025 611 502.025H381C367.193 502.025 356 490.832 356 477.025V442.025Z" fill="url(#paint3_linear)"/>
<rect x="654.5" y="144.525" width="275" height="355" rx="22.5" fill="white" stroke="url(#paint4_linear)" stroke-width="5"/>
<path d="M652 442.025H932V477.025C932 490.832 920.807 502.025 907 502.025H677C663.193 502.025 652 490.832 652 477.025V442.025Z" fill="url(#paint5_linear)"/>
<rect x="950.5" y="144.525" width="275" height="355" rx="22.5" fill="white" stroke="url(#paint6_linear)" stroke-width="5"/>
<path d="M948 442.025H1228V477.025C1228 490.832 1216.81 502.025 1203 502.025H973C959.193 502.025 948 490.832 948 477.025V442.025Z" fill="url(#paint7_linear)"/>
<rect x="1246.5" y="144.525" width="275" height="355" rx="22.5" fill="white" stroke="url(#paint8_linear)" stroke-width="5"/>
<path d="M1244 442.025H1524V477.025C1524 490.832 1512.81 502.025 1499 502.025H1269C1255.19 502.025 1244 490.832 1244 477.025V442.025Z" fill="url(#paint9_linear)"/>
<rect x="1574.5" y="144.525" width="275" height="355" rx="22.5" fill="white" stroke="url(#paint10_linear)" stroke-width="5"/>
<path d="M1572 442.025H1852V477.025C1852 490.832 1840.81 502.025 1827 502.025H1597C1583.19 502.025 1572 490.832 1572 477.025V442.025Z" fill="url(#paint11_linear)"/>
</g>
<path d="M398.5 643.462V693.462H1481.5V643.462" stroke="#2A9CBE" stroke-width="4"/>
<path d="M496 552.462V602.462H792V552.462" stroke="#2E847B" stroke-width="4"/>
<path d="M791.5 552.462V602.462H1087.5V552.462" stroke="#2E847B" stroke-width="4"/>
<path d="M1088 552.462V602.462H1384V552.462" stroke="#2E847B" stroke-width="4"/>
<path d="M1820.5 126.025L1820.5 76.025L1286.5 76.025L1286.5 126.025" stroke="#2A9CBE" stroke-width="4"/>
<path d="M56.5 734.462V784.462H1481.5V734.462" stroke="#2A9CBE" stroke-width="4"/>
<path d="M112.791 269.201H116.871V286.025H113.031L105.399 275.969V286.025H101.295V269.201H105.159L112.815 279.329L112.791 269.201Z" fill="#2A9CBE"/>
<path d="M133.722 286.025L132.57 283.049H125.298L124.122 286.025H119.61L126.834 269.201H131.346L138.402 286.025H133.722ZM126.618 279.689H131.274L128.97 273.689L126.618 279.689Z" fill="#2A9CBE"/>
<path d="M137.856 269.201H152.28V272.825H147.24V286.025H142.848V272.825H137.856V269.201Z" fill="#2A9CBE"/>
<path d="M155.262 269.201H159.654V286.025H155.262V269.201Z" fill="#2A9CBE"/>
<path d="M172.143 268.937C173.855 268.937 175.399 269.313 176.775 270.065C178.167 270.817 179.255 271.849 180.039 273.161C180.839 274.473 181.239 275.945 181.239 277.577C181.239 279.225 180.839 280.713 180.039 282.041C179.255 283.369 178.167 284.417 176.775 285.185C175.399 285.953 173.855 286.337 172.143 286.337C170.431 286.337 168.879 285.961 167.487 285.209C166.111 284.441 165.023 283.393 164.223 282.065C163.439 280.721 163.047 279.225 163.047 277.577C163.047 275.945 163.439 274.473 164.223 273.161C165.023 271.849 166.111 270.817 167.487 270.065C168.879 269.313 170.431 268.937 172.143 268.937ZM172.191 272.657C171.359 272.657 170.583 272.873 169.863 273.305C169.159 273.737 168.599 274.337 168.183 275.105C167.767 275.857 167.559 276.689 167.559 277.601C167.559 278.529 167.767 279.377 168.183 280.145C168.615 280.897 169.183 281.497 169.887 281.945C170.591 282.377 171.359 282.593 172.191 282.593C173.023 282.593 173.783 282.377 174.471 281.945C175.175 281.497 175.727 280.897 176.127 280.145C176.527 279.377 176.727 278.529 176.727 277.601C176.727 276.689 176.527 275.857 176.127 275.105C175.727 274.337 175.175 273.737 174.471 273.305C173.783 272.873 173.023 272.657 172.191 272.657Z" fill="#2A9CBE"/>
<path d="M196.112 269.201H200.192V286.025H196.352L188.72 275.969V286.025H184.616V269.201H188.48L196.136 279.329L196.112 269.201Z" fill="#2A9CBE"/>
<path d="M217.043 286.025L215.891 283.049H208.619L207.443 286.025H202.931L210.155 269.201H214.667L221.723 286.025H217.043ZM209.939 279.689H214.595L212.291 273.689L209.939 279.689Z" fill="#2A9CBE"/>
<path d="M224.445 269.201H228.837V282.281H235.965V286.025H224.445V269.201Z" fill="#2A9CBE"/>
<path d="M119.265 303.265C118.369 302.737 117.409 302.305 116.385 301.969C115.377 301.633 114.529 301.465 113.841 301.465C113.297 301.465 112.865 301.569 112.545 301.777C112.241 301.969 112.089 302.257 112.089 302.641C112.089 303.009 112.225 303.321 112.497 303.577C112.769 303.817 113.105 304.017 113.505 304.177C113.905 304.321 114.497 304.513 115.281 304.753C116.449 305.089 117.409 305.425 118.161 305.761C118.929 306.097 119.585 306.617 120.129 307.321C120.673 308.009 120.945 308.913 120.945 310.033C120.945 311.153 120.649 312.113 120.057 312.913C119.465 313.697 118.649 314.289 117.609 314.689C116.585 315.089 115.441 315.289 114.177 315.289C112.785 315.289 111.393 315.049 110.001 314.569C108.625 314.073 107.433 313.401 106.425 312.553L108.129 309.121C108.977 309.873 109.977 310.489 111.129 310.969C112.297 311.449 113.329 311.689 114.225 311.689C114.881 311.689 115.393 311.569 115.761 311.329C116.145 311.089 116.337 310.737 116.337 310.273C116.337 309.889 116.193 309.569 115.905 309.313C115.633 309.057 115.281 308.857 114.849 308.713C114.433 308.553 113.841 308.369 113.073 308.161C111.921 307.841 110.969 307.521 110.217 307.201C109.465 306.865 108.817 306.369 108.273 305.713C107.745 305.041 107.481 304.153 107.481 303.049C107.481 302.009 107.753 301.097 108.297 300.313C108.857 299.529 109.641 298.929 110.649 298.513C111.673 298.081 112.857 297.865 114.201 297.865C115.417 297.865 116.617 298.041 117.801 298.393C118.985 298.729 120.025 299.185 120.921 299.761L119.265 303.265Z" fill="#2A9CBE"/>
<path d="M124.388 298.201H137.66V301.705H128.78V304.849H136.796V308.329L128.78 308.353V311.521H137.9V315.025H124.388V298.201Z" fill="#2A9CBE"/>
<path d="M141.784 298.201H146.56L151.432 308.041L156.28 298.201H161.056V315.025H157.168L157.144 304.369L152.848 313.345H150.016L145.696 304.369V315.025H141.784V298.201Z" fill="#2A9CBE"/>
<path d="M165.53 298.201H169.922V315.025H165.53V298.201Z" fill="#2A9CBE"/>
<path d="M185.891 298.201H189.971V315.025H186.131L178.499 304.969V315.025H174.395V298.201H178.259L185.915 308.329L185.891 298.201Z" fill="#2A9CBE"/>
<path d="M206.822 315.025L205.67 312.049H198.398L197.222 315.025H192.71L199.934 298.201H204.446L211.502 315.025H206.822ZM199.718 308.689H204.374L202.07 302.689L199.718 308.689Z" fill="#2A9CBE"/>
<path d="M224.328 315.025L221.88 310.369H218.616V315.025H214.224V298.201H221.784C224.008 298.201 225.728 298.721 226.944 299.761C228.176 300.785 228.792 302.233 228.792 304.105C228.792 305.369 228.536 306.465 228.024 307.393C227.512 308.305 226.768 309.017 225.792 309.529L229.296 315.025H224.328ZM218.616 306.865H221.808C222.704 306.865 223.392 306.641 223.872 306.193C224.368 305.745 224.616 305.097 224.616 304.249C224.616 303.433 224.368 302.809 223.872 302.377C223.392 301.929 222.704 301.705 221.808 301.705H218.616V306.865Z" fill="#2A9CBE"/>
<path d="M133.482 480.525L131.034 475.869H127.77V480.525H123.378V463.701H130.938C133.162 463.701 134.882 464.221 136.098 465.261C137.33 466.285 137.946 467.733 137.946 469.605C137.946 470.869 137.69 471.965 137.178 472.893C136.666 473.805 135.922 474.517 134.946 475.029L138.45 480.525H133.482ZM127.77 472.365H130.962C131.858 472.365 132.546 472.141 133.026 471.693C133.522 471.245 133.77 470.597 133.77 469.749C133.77 468.933 133.522 468.309 133.026 467.877C132.546 467.429 131.858 467.205 130.962 467.205H127.77V472.365Z" fill="#2A9CBE"/>
<path d="M149.337 463.701C151.481 463.701 153.145 464.221 154.329 465.261C155.513 466.285 156.105 467.733 156.105 469.605C156.105 471.589 155.513 473.133 154.329 474.237C153.145 475.325 151.481 475.869 149.337 475.869H146.337V480.525H141.945V463.701H149.337ZM149.121 472.365C150.017 472.365 150.705 472.141 151.185 471.693C151.681 471.245 151.929 470.597 151.929 469.749C151.929 468.933 151.681 468.309 151.185 467.877C150.705 467.429 150.017 467.205 149.121 467.205H146.337V472.365H149.121Z" fill="#2A9CBE"/>
<path d="M178.074 476.997V480.525H165.258L165.234 477.621L171.354 471.333C171.834 470.837 172.226 470.341 172.53 469.845C172.834 469.349 172.986 468.925 172.986 468.573C172.986 468.109 172.818 467.757 172.482 467.517C172.146 467.261 171.674 467.133 171.066 467.133C170.394 467.133 169.642 467.325 168.81 467.709C167.994 468.077 167.202 468.597 166.434 469.269L164.754 466.029C167.074 464.349 169.402 463.509 171.738 463.509C172.858 463.509 173.858 463.693 174.738 464.061C175.634 464.429 176.33 464.949 176.826 465.621C177.338 466.293 177.594 467.061 177.594 467.925C177.594 468.789 177.306 469.685 176.73 470.613C176.17 471.525 175.37 472.501 174.33 473.541L170.898 476.997H178.074Z" fill="#2A9CBE"/>
<path d="M187.757 469.797C189.053 469.797 190.189 470.013 191.165 470.445C192.157 470.877 192.917 471.477 193.445 472.245C193.989 473.013 194.261 473.893 194.261 474.885C194.261 476.053 193.981 477.077 193.421 477.957C192.861 478.837 192.061 479.517 191.021 479.997C189.981 480.477 188.773 480.717 187.397 480.717C186.277 480.717 185.117 480.525 183.917 480.141C182.733 479.757 181.677 479.253 180.749 478.629L182.381 475.461C183.933 476.709 185.445 477.333 186.917 477.333C187.749 477.333 188.397 477.149 188.861 476.781C189.325 476.397 189.557 475.877 189.557 475.221C189.557 474.565 189.325 474.069 188.861 473.733C188.413 473.381 187.733 473.205 186.821 473.205C184.693 473.205 183.157 473.237 182.213 473.301V463.701H193.517V467.229H186.245V469.797H187.757Z" fill="#2A9CBE"/>
<path d="M214.085 480.525H208.829L204.413 473.997L202.301 476.349V480.525H197.909V463.701H202.301V470.997L208.613 463.701H213.701L207.461 470.637L214.085 480.525Z" fill="#2A9CBE"/>
<path d="M402.265 269.201H406.657V286.025H402.265V269.201Z" fill="#2A9CBE"/>
<path d="M411.129 269.201H415.521V282.281H422.649V286.025H411.129V269.201Z" fill="#2A9CBE"/>
<path d="M442.028 286.025H436.772L432.356 279.497L430.244 281.849V286.025H425.852V269.201H430.244V276.497L436.556 269.201H441.644L435.404 276.137L442.028 286.025Z" fill="#2A9CBE"/>
<path d="M452.576 268.937C454.288 268.937 455.832 269.313 457.208 270.065C458.6 270.817 459.688 271.849 460.472 273.161C461.272 274.473 461.672 275.945 461.672 277.577C461.672 279.225 461.272 280.713 460.472 282.041C459.688 283.369 458.6 284.417 457.208 285.185C455.832 285.953 454.288 286.337 452.576 286.337C450.864 286.337 449.312 285.961 447.92 285.209C446.544 284.441 445.456 283.393 444.656 282.065C443.872 280.721 443.48 279.225 443.48 277.577C443.48 275.945 443.872 274.473 444.656 273.161C445.456 271.849 446.544 270.817 447.92 270.065C449.312 269.313 450.864 268.937 452.576 268.937ZM452.624 272.657C451.792 272.657 451.016 272.873 450.296 273.305C449.592 273.737 449.032 274.337 448.616 275.105C448.2 275.857 447.992 276.689 447.992 277.601C447.992 278.529 448.2 279.377 448.616 280.145C449.048 280.897 449.616 281.497 450.32 281.945C451.024 282.377 451.792 282.593 452.624 282.593C453.456 282.593 454.216 282.377 454.904 281.945C455.608 281.497 456.16 280.897 456.56 280.145C456.96 279.377 457.16 278.529 457.16 277.601C457.16 276.689 456.96 275.857 456.56 275.105C456.16 274.337 455.608 273.737 454.904 273.305C454.216 272.873 453.456 272.657 452.624 272.657Z" fill="#2A9CBE"/>
<path d="M465.049 269.201H469.825L474.697 279.041L479.545 269.201H484.321V286.025H480.433L480.409 275.369L476.113 284.345H473.281L468.961 275.369V286.025H465.049V269.201Z" fill="#2A9CBE"/>
<path d="M488.796 269.201H493.572L498.444 279.041L503.292 269.201H508.068V286.025H504.18L504.156 275.369L499.86 284.345H497.028L492.708 275.369V286.025H488.796V269.201Z" fill="#2A9CBE"/>
<path d="M516.647 279.089C516.647 280.145 516.959 280.993 517.583 281.633C518.207 282.273 518.999 282.593 519.959 282.593C520.903 282.593 521.663 282.281 522.239 281.657C522.831 281.017 523.127 280.161 523.127 279.089V269.201H527.519V279.089C527.519 280.545 527.207 281.825 526.583 282.929C525.975 284.017 525.095 284.857 523.943 285.449C522.807 286.041 521.471 286.337 519.935 286.337C518.399 286.337 517.047 286.041 515.879 285.449C514.727 284.857 513.831 284.017 513.191 282.929C512.567 281.825 512.255 280.545 512.255 279.089V269.201H516.647V279.089Z" fill="#2A9CBE"/>
<path d="M543.215 269.201H547.296V286.025H543.456L535.823 275.969V286.025H531.719V269.201H535.583L543.24 279.329L543.215 269.201Z" fill="#2A9CBE"/>
<path d="M551.787 269.201H556.179V286.025H551.787V269.201Z" fill="#2A9CBE"/>
<path d="M559.187 269.201H573.611V272.825H568.571V286.025H564.179V272.825H559.187V269.201Z" fill="#2A9CBE"/>
<path d="M591.497 269.201L585.425 280.649V286.025H581.033V280.769L574.841 269.201H579.233L583.217 276.425L587.105 269.201H591.497Z" fill="#2A9CBE"/>
<path d="M416.403 298.201C418.163 298.201 419.715 298.553 421.059 299.257C422.419 299.961 423.475 300.953 424.227 302.233C424.979 303.497 425.355 304.953 425.355 306.601C425.355 308.249 424.971 309.713 424.203 310.993C423.451 312.273 422.379 313.265 420.987 313.969C419.611 314.673 418.027 315.025 416.235 315.025H409.155V298.201H416.403ZM416.523 311.473C417.371 311.473 418.123 311.273 418.779 310.873C419.435 310.473 419.947 309.905 420.315 309.169C420.683 308.433 420.867 307.593 420.867 306.649C420.867 305.689 420.667 304.841 420.267 304.105C419.883 303.369 419.347 302.801 418.659 302.401C417.971 301.985 417.187 301.777 416.307 301.777H413.547V311.473H416.523Z" fill="#2A9CBE"/>
<path d="M440.645 315.025L439.493 312.049H432.221L431.045 315.025H426.533L433.757 298.201H438.269L445.325 315.025H440.645ZM433.541 308.689H438.197L435.893 302.689L433.541 308.689Z" fill="#2A9CBE"/>
<path d="M444.779 298.201H459.203V301.825H454.163V315.025H449.771V301.825H444.779V298.201Z" fill="#2A9CBE"/>
<path d="M472.74 315.025L471.588 312.049H464.316L463.14 315.025H458.628L465.852 298.201H470.364L477.42 315.025H472.74ZM465.636 308.689H470.292L467.988 302.689L465.636 308.689Z" fill="#2A9CBE"/>
<path d="M486.663 298.201H491.439L496.311 308.041L501.159 298.201H505.935V315.025H502.047L502.023 304.369L497.727 313.345H494.895L490.575 304.369V315.025H486.663V298.201Z" fill="#2A9CBE"/>
<path d="M510.41 298.201H514.802V315.025H510.41V298.201Z" fill="#2A9CBE"/>
<path d="M530.77 298.201H534.85V315.025H531.01L523.378 304.969V315.025H519.274V298.201H523.138L530.794 308.329L530.77 298.201Z" fill="#2A9CBE"/>
<path d="M539.341 298.201H543.733V315.025H539.341V298.201Z" fill="#2A9CBE"/>
<path d="M559.701 298.201H563.781V315.025H559.941L552.309 304.969V315.025H548.205V298.201H552.069L559.725 308.329L559.701 298.201Z" fill="#2A9CBE"/>
<path d="M579.409 306.433H583.201V313.129C582.305 313.785 581.201 314.321 579.889 314.737C578.593 315.137 577.361 315.337 576.193 315.337C574.497 315.337 572.961 314.961 571.585 314.209C570.225 313.441 569.153 312.393 568.369 311.065C567.585 309.737 567.193 308.249 567.193 306.601C567.193 304.969 567.593 303.497 568.393 302.185C569.209 300.857 570.321 299.817 571.729 299.065C573.153 298.313 574.737 297.937 576.481 297.937C577.729 297.937 578.977 298.169 580.225 298.633C581.473 299.081 582.529 299.689 583.393 300.457L580.897 303.529C580.289 302.953 579.585 302.497 578.785 302.161C578.001 301.825 577.225 301.657 576.457 301.657C575.561 301.657 574.753 301.873 574.033 302.305C573.313 302.737 572.745 303.329 572.329 304.081C571.913 304.833 571.705 305.673 571.705 306.601C571.705 307.545 571.913 308.401 572.329 309.169C572.745 309.921 573.321 310.513 574.057 310.945C574.793 311.377 575.609 311.593 576.505 311.593C577.353 311.593 578.321 311.321 579.409 310.777V306.433Z" fill="#2A9CBE"/>
<path d="M461.716 480.525L459.268 475.869H456.004V480.525H451.612V463.701H459.172C461.396 463.701 463.116 464.221 464.332 465.261C465.564 466.285 466.18 467.733 466.18 469.605C466.18 470.869 465.924 471.965 465.412 472.893C464.9 473.805 464.156 474.517 463.18 475.029L466.684 480.525H461.716ZM456.004 472.365H459.196C460.092 472.365 460.78 472.141 461.26 471.693C461.756 471.245 462.004 470.597 462.004 469.749C462.004 468.933 461.756 468.309 461.26 467.877C460.78 467.429 460.092 467.205 459.196 467.205H456.004V472.365Z" fill="#2A9CBE"/>
<path d="M477.572 463.701C479.716 463.701 481.38 464.221 482.564 465.261C483.748 466.285 484.34 467.733 484.34 469.605C484.34 471.589 483.748 473.133 482.564 474.237C481.38 475.325 479.716 475.869 477.572 475.869H474.572V480.525H470.18V463.701H477.572ZM477.356 472.365C478.252 472.365 478.94 472.141 479.42 471.693C479.916 471.245 480.164 470.597 480.164 469.749C480.164 468.933 479.916 468.309 479.42 467.877C478.94 467.429 478.252 467.205 477.356 467.205H474.572V472.365H477.356Z" fill="#2A9CBE"/>
<path d="M506.308 476.997V480.525H493.492L493.468 477.621L499.588 471.333C500.068 470.837 500.46 470.341 500.764 469.845C501.068 469.349 501.22 468.925 501.22 468.573C501.22 468.109 501.052 467.757 500.716 467.517C500.38 467.261 499.908 467.133 499.3 467.133C498.628 467.133 497.876 467.325 497.044 467.709C496.228 468.077 495.436 468.597 494.668 469.269L492.988 466.029C495.308 464.349 497.636 463.509 499.972 463.509C501.092 463.509 502.092 463.693 502.972 464.061C503.868 464.429 504.564 464.949 505.06 465.621C505.572 466.293 505.828 467.061 505.828 467.925C505.828 468.789 505.54 469.685 504.964 470.613C504.404 471.525 503.604 472.501 502.564 473.541L499.132 476.997H506.308Z" fill="#2A9CBE"/>
<path d="M522.04 476.997V480.525H509.224L509.2 477.621L515.32 471.333C515.8 470.837 516.192 470.341 516.496 469.845C516.8 469.349 516.952 468.925 516.952 468.573C516.952 468.109 516.784 467.757 516.448 467.517C516.112 467.261 515.64 467.133 515.032 467.133C514.36 467.133 513.608 467.325 512.776 467.709C511.96 468.077 511.168 468.597 510.4 469.269L508.72 466.029C511.04 464.349 513.368 463.509 515.704 463.509C516.824 463.509 517.824 463.693 518.704 464.061C519.6 464.429 520.296 464.949 520.792 465.621C521.304 466.293 521.56 467.061 521.56 467.925C521.56 468.789 521.272 469.685 520.696 470.613C520.136 471.525 519.336 472.501 518.296 473.541L514.864 476.997H522.04Z" fill="#2A9CBE"/>
<path d="M541.851 480.525H536.595L532.179 473.997L530.067 476.349V480.525H525.675V463.701H530.067V470.997L536.379 463.701H541.467L535.227 470.637L541.851 480.525Z" fill="#2A9CBE"/>
<path d="M696.226 269.225H700.114V286.025H696.226V269.225Z" fill="#2A9CBE"/>
<path d="M705.301 269.225H709.189V282.857H717.613V286.025H705.301V269.225Z" fill="#2A9CBE"/>
<path d="M727.106 279.425L724.85 281.777V286.025H720.986V269.225H724.85V277.073L732.29 269.225H736.61L729.65 276.713L737.018 286.025H732.482L727.106 279.425Z" fill="#2A9CBE"/>
<path d="M747.478 286.313C745.734 286.313 744.158 285.937 742.75 285.185C741.358 284.433 740.262 283.401 739.462 282.089C738.678 280.761 738.286 279.273 738.286 277.625C738.286 275.977 738.678 274.497 739.462 273.185C740.262 271.857 741.358 270.817 742.75 270.065C744.158 269.313 745.734 268.937 747.478 268.937C749.222 268.937 750.79 269.313 752.182 270.065C753.574 270.817 754.67 271.857 755.47 273.185C756.27 274.497 756.67 275.977 756.67 277.625C756.67 279.273 756.27 280.761 755.47 282.089C754.67 283.401 753.574 284.433 752.182 285.185C750.79 285.937 749.222 286.313 747.478 286.313ZM747.478 283.001C748.47 283.001 749.366 282.777 750.166 282.329C750.966 281.865 751.59 281.225 752.038 280.409C752.502 279.593 752.734 278.665 752.734 277.625C752.734 276.585 752.502 275.657 752.038 274.841C751.59 274.025 750.966 273.393 750.166 272.945C749.366 272.481 748.47 272.249 747.478 272.249C746.486 272.249 745.59 272.481 744.79 272.945C743.99 273.393 743.358 274.025 742.894 274.841C742.446 275.657 742.222 276.585 742.222 277.625C742.222 278.665 742.446 279.593 742.894 280.409C743.358 281.225 743.99 281.865 744.79 282.329C745.59 282.777 746.486 283.001 747.478 283.001Z" fill="#2A9CBE"/>
<path d="M776.08 286.025L776.056 275.945L771.112 284.249H769.36L764.44 276.161V286.025H760.792V269.225H764.008L770.296 279.665L776.488 269.225H779.68L779.728 286.025H776.08Z" fill="#2A9CBE"/>
<path d="M800.202 286.025L800.178 275.945L795.234 284.249H793.482L788.562 276.161V286.025H784.914V269.225H788.13L794.418 279.665L800.61 269.225H803.802L803.85 286.025H800.202Z" fill="#2A9CBE"/>
<path d="M816.5 286.313C814.1 286.313 812.228 285.649 810.884 284.321C809.556 282.993 808.892 281.097 808.892 278.633V269.225H812.78V278.489C812.78 281.497 814.028 283.001 816.524 283.001C817.74 283.001 818.668 282.641 819.308 281.921C819.948 281.185 820.268 280.041 820.268 278.489V269.225H824.108V278.633C824.108 281.097 823.436 282.993 822.092 284.321C820.764 285.649 818.9 286.313 816.5 286.313Z" fill="#2A9CBE"/>
<path d="M844.558 269.225V286.025H841.366L832.99 275.825V286.025H829.15V269.225H832.366L840.718 279.425V269.225H844.558Z" fill="#2A9CBE"/>
<path d="M849.733 269.225H853.621V286.025H849.733V269.225Z" fill="#2A9CBE"/>
<path d="M862.288 272.393H856.912V269.225H871.552V272.393H866.176V286.025H862.288V272.393Z" fill="#2A9CBE"/>
<path d="M882.603 280.073V286.025H878.715V280.025L872.211 269.225H876.339L880.827 276.689L885.315 269.225H889.131L882.603 280.073Z" fill="#2A9CBE"/>
<path d="M704.271 306.361H707.823V313.177C706.911 313.865 705.855 314.393 704.655 314.761C703.455 315.129 702.247 315.313 701.031 315.313C699.287 315.313 697.719 314.945 696.327 314.209C694.935 313.457 693.839 312.425 693.039 311.113C692.255 309.785 691.863 308.289 691.863 306.625C691.863 304.961 692.255 303.473 693.039 302.161C693.839 300.833 694.943 299.801 696.351 299.065C697.759 298.313 699.343 297.937 701.103 297.937C702.575 297.937 703.911 298.185 705.111 298.681C706.311 299.177 707.319 299.897 708.135 300.841L705.639 303.145C704.439 301.881 702.991 301.249 701.295 301.249C700.223 301.249 699.271 301.473 698.439 301.921C697.607 302.369 696.959 303.001 696.495 303.817C696.031 304.633 695.799 305.569 695.799 306.625C695.799 307.665 696.031 308.593 696.495 309.409C696.959 310.225 697.599 310.865 698.415 311.329C699.247 311.777 700.191 312.001 701.247 312.001C702.367 312.001 703.375 311.761 704.271 311.281V306.361Z" fill="#2A9CBE"/>
<path d="M723.699 311.425H715.899L714.411 315.025H710.427L717.915 298.225H721.755L729.267 315.025H725.187L723.699 311.425ZM722.475 308.473L719.811 302.041L717.147 308.473H722.475Z" fill="#2A9CBE"/>
<path d="M747.498 315.025L747.474 304.945L742.53 313.249H740.778L735.858 305.161V315.025H732.21V298.225H735.426L741.714 308.665L747.906 298.225H751.098L751.146 315.025H747.498Z" fill="#2A9CBE"/>
<path d="M769.34 311.905V315.025H756.332V298.225H769.028V301.345H760.196V304.993H767.996V308.017H760.196V311.905H769.34Z" fill="#2A9CBE"/>
<path d="M792.334 315.025L789.094 310.345H785.518V315.025H781.63V298.225H788.902C790.39 298.225 791.678 298.473 792.766 298.969C793.87 299.465 794.718 300.169 795.31 301.081C795.902 301.993 796.198 303.073 796.198 304.321C796.198 305.569 795.894 306.649 795.286 307.561C794.694 308.457 793.846 309.145 792.742 309.625L796.51 315.025H792.334ZM792.262 304.321C792.262 303.377 791.958 302.657 791.35 302.161C790.742 301.649 789.854 301.393 788.686 301.393H785.518V307.249H788.686C789.854 307.249 790.742 306.993 791.35 306.481C791.958 305.969 792.262 305.249 792.262 304.321Z" fill="#2A9CBE"/>
<path d="M813.487 311.905V315.025H800.479V298.225H813.175V301.345H804.343V304.993H812.143V308.017H804.343V311.905H813.487Z" fill="#2A9CBE"/>
<path d="M828.844 311.425H821.044L819.556 315.025H815.572L823.06 298.225H826.9L834.412 315.025H830.332L828.844 311.425ZM827.62 308.473L824.956 302.041L822.292 308.473H827.62Z" fill="#2A9CBE"/>
<path d="M837.355 298.225H841.243V311.857H849.667V315.025H837.355V298.225Z" fill="#2A9CBE"/>
<path d="M853.04 298.225H856.928V315.025H853.04V298.225Z" fill="#2A9CBE"/>
<path d="M865.595 301.393H860.219V298.225H874.859V301.393H869.483V315.025H865.595V301.393Z" fill="#2A9CBE"/>
<path d="M885.91 309.073V315.025H882.022V309.025L875.518 298.225H879.646L884.134 305.689L888.622 298.225H892.438L885.91 309.073Z" fill="#2A9CBE"/>
<path d="M757.645 480.525L754.405 475.845H750.829V480.525H746.941V463.725H754.213C755.701 463.725 756.989 463.973 758.077 464.469C759.181 464.965 760.029 465.669 760.621 466.581C761.213 467.493 761.509 468.573 761.509 469.821C761.509 471.069 761.205 472.149 760.597 473.061C760.005 473.957 759.157 474.645 758.053 475.125L761.821 480.525H757.645ZM757.573 469.821C757.573 468.877 757.269 468.157 756.661 467.661C756.053 467.149 755.165 466.893 753.997 466.893H750.829V472.749H753.997C755.165 472.749 756.053 472.493 756.661 471.981C757.269 471.469 757.573 470.749 757.573 469.821Z" fill="#2A9CBE"/>
<path d="M773.062 463.725C774.55 463.725 775.838 463.973 776.926 464.469C778.03 464.965 778.878 465.669 779.47 466.581C780.062 467.493 780.358 468.573 780.358 469.821C780.358 471.053 780.062 472.133 779.47 473.061C778.878 473.973 778.03 474.677 776.926 475.173C775.838 475.653 774.55 475.893 773.062 475.893H769.678V480.525H765.79V463.725H773.062ZM772.846 472.725C774.014 472.725 774.902 472.477 775.51 471.981C776.118 471.469 776.422 470.749 776.422 469.821C776.422 468.877 776.118 468.157 775.51 467.661C774.902 467.149 774.014 466.893 772.846 466.893H769.678V472.725H772.846Z" fill="#2A9CBE"/>
<path d="M804.061 477.357V480.525H791.365V478.005L797.845 471.885C798.533 471.229 798.997 470.669 799.237 470.205C799.477 469.725 799.597 469.253 799.597 468.789C799.597 468.117 799.365 467.605 798.901 467.253C798.453 466.885 797.789 466.701 796.909 466.701C796.173 466.701 795.509 466.845 794.917 467.133C794.325 467.405 793.829 467.821 793.429 468.381L790.597 466.557C791.253 465.581 792.157 464.821 793.309 464.277C794.461 463.717 795.781 463.437 797.269 463.437C798.517 463.437 799.605 463.645 800.533 464.061C801.477 464.461 802.205 465.037 802.717 465.789C803.245 466.525 803.509 467.397 803.509 468.405C803.509 469.317 803.317 470.173 802.933 470.973C802.549 471.773 801.805 472.685 800.701 473.709L796.837 477.357H804.061Z" fill="#2A9CBE"/>
<path d="M819.417 477.357V480.525H806.721V478.005L813.201 471.885C813.889 471.229 814.353 470.669 814.593 470.205C814.833 469.725 814.953 469.253 814.953 468.789C814.953 468.117 814.721 467.605 814.257 467.253C813.809 466.885 813.145 466.701 812.265 466.701C811.529 466.701 810.865 466.845 810.273 467.133C809.681 467.405 809.185 467.821 808.785 468.381L805.953 466.557C806.609 465.581 807.513 464.821 808.665 464.277C809.817 463.717 811.137 463.437 812.625 463.437C813.873 463.437 814.961 463.645 815.889 464.061C816.833 464.461 817.561 465.037 818.073 465.789C818.601 466.525 818.865 467.397 818.865 468.405C818.865 469.317 818.673 470.173 818.289 470.973C817.905 471.773 817.161 472.685 816.057 473.709L812.193 477.357H819.417Z" fill="#2A9CBE"/>
<path d="M829.397 473.925L827.141 476.277V480.525H823.277V463.725H827.141V471.573L834.581 463.725H838.901L831.941 471.213L839.309 480.525H834.773L829.397 473.925Z" fill="#2A9CBE"/>
<path d="M992.726 269.225H996.614V286.025H992.726V269.225Z" fill="#2A9CBE"/>
<path d="M1001.8 269.225H1005.69V282.857H1014.11V286.025H1001.8V269.225Z" fill="#2A9CBE"/>
<path d="M1023.61 279.425L1021.35 281.777V286.025H1017.49V269.225H1021.35V277.073L1028.79 269.225H1033.11L1026.15 276.713L1033.52 286.025H1028.98L1023.61 279.425Z" fill="#2A9CBE"/>
<path d="M1043.98 286.313C1042.23 286.313 1040.66 285.937 1039.25 285.185C1037.86 284.433 1036.76 283.401 1035.96 282.089C1035.18 280.761 1034.79 279.273 1034.79 277.625C1034.79 275.977 1035.18 274.497 1035.96 273.185C1036.76 271.857 1037.86 270.817 1039.25 270.065C1040.66 269.313 1042.23 268.937 1043.98 268.937C1045.72 268.937 1047.29 269.313 1048.68 270.065C1050.07 270.817 1051.17 271.857 1051.97 273.185C1052.77 274.497 1053.17 275.977 1053.17 277.625C1053.17 279.273 1052.77 280.761 1051.97 282.089C1051.17 283.401 1050.07 284.433 1048.68 285.185C1047.29 285.937 1045.72 286.313 1043.98 286.313ZM1043.98 283.001C1044.97 283.001 1045.87 282.777 1046.67 282.329C1047.47 281.865 1048.09 281.225 1048.54 280.409C1049 279.593 1049.23 278.665 1049.23 277.625C1049.23 276.585 1049 275.657 1048.54 274.841C1048.09 274.025 1047.47 273.393 1046.67 272.945C1045.87 272.481 1044.97 272.249 1043.98 272.249C1042.99 272.249 1042.09 272.481 1041.29 272.945C1040.49 273.393 1039.86 274.025 1039.39 274.841C1038.95 275.657 1038.72 276.585 1038.72 277.625C1038.72 278.665 1038.95 279.593 1039.39 280.409C1039.86 281.225 1040.49 281.865 1041.29 282.329C1042.09 282.777 1042.99 283.001 1043.98 283.001Z" fill="#2A9CBE"/>
<path d="M1072.58 286.025L1072.56 275.945L1067.61 284.249H1065.86L1060.94 276.161V286.025H1057.29V269.225H1060.51L1066.8 279.665L1072.99 269.225H1076.18L1076.23 286.025H1072.58Z" fill="#2A9CBE"/>
<path d="M1096.7 286.025L1096.68 275.945L1091.73 284.249H1089.98L1085.06 276.161V286.025H1081.41V269.225H1084.63L1090.92 279.665L1097.11 269.225H1100.3L1100.35 286.025H1096.7Z" fill="#2A9CBE"/>
<path d="M1113 286.313C1110.6 286.313 1108.73 285.649 1107.38 284.321C1106.06 282.993 1105.39 281.097 1105.39 278.633V269.225H1109.28V278.489C1109.28 281.497 1110.53 283.001 1113.02 283.001C1114.24 283.001 1115.17 282.641 1115.81 281.921C1116.45 281.185 1116.77 280.041 1116.77 278.489V269.225H1120.61V278.633C1120.61 281.097 1119.94 282.993 1118.59 284.321C1117.26 285.649 1115.4 286.313 1113 286.313Z" fill="#2A9CBE"/>
<path d="M1141.06 269.225V286.025H1137.87L1129.49 275.825V286.025H1125.65V269.225H1128.87L1137.22 279.425V269.225H1141.06Z" fill="#2A9CBE"/>
<path d="M1146.23 269.225H1150.12V286.025H1146.23V269.225Z" fill="#2A9CBE"/>
<path d="M1158.79 272.393H1153.41V269.225H1168.05V272.393H1162.68V286.025H1158.79V272.393Z" fill="#2A9CBE"/>
<path d="M1179.1 280.073V286.025H1175.21V280.025L1168.71 269.225H1172.84L1177.33 276.689L1181.81 269.225H1185.63L1179.1 280.073Z" fill="#2A9CBE"/>
<path d="M1015.21 298.225H1022.84C1024.66 298.225 1026.27 298.577 1027.66 299.281C1029.07 299.969 1030.16 300.945 1030.93 302.209C1031.71 303.473 1032.1 304.945 1032.1 306.625C1032.1 308.305 1031.71 309.777 1030.93 311.041C1030.16 312.305 1029.07 313.289 1027.66 313.993C1026.27 314.681 1024.66 315.025 1022.84 315.025H1015.21V298.225ZM1022.65 311.833C1024.33 311.833 1025.66 311.369 1026.66 310.441C1027.66 309.497 1028.17 308.225 1028.17 306.625C1028.17 305.025 1027.66 303.761 1026.66 302.833C1025.66 301.889 1024.33 301.417 1022.65 301.417H1019.1V311.833H1022.65Z" fill="#2A9CBE"/>
<path d="M1049.24 311.905V315.025H1036.24V298.225H1048.93V301.345H1040.1V304.993H1047.9V308.017H1040.1V311.905H1049.24Z" fill="#2A9CBE"/>
<path d="M1069.45 298.225L1062.18 315.025H1058.34L1051.09 298.225H1055.29L1060.41 310.225L1065.59 298.225H1069.45Z" fill="#2A9CBE"/>
<path d="M1083.89 301.393H1078.51V298.225H1093.15V301.393H1087.77V315.025H1083.89V301.393Z" fill="#2A9CBE"/>
<path d="M1106.66 311.425H1098.86L1097.37 315.025H1093.39L1100.88 298.225H1104.72L1112.23 315.025H1108.15L1106.66 311.425ZM1105.44 308.473L1102.77 302.041L1100.11 308.473H1105.44Z" fill="#2A9CBE"/>
<path d="M1115.17 298.225H1119.06V311.857H1127.49V315.025H1115.17V298.225Z" fill="#2A9CBE"/>
<path d="M1136.98 308.425L1134.72 310.777V315.025H1130.86V298.225H1134.72V306.073L1142.16 298.225H1146.48L1139.52 305.713L1146.89 315.025H1142.35L1136.98 308.425Z" fill="#2A9CBE"/>
<path d="M1154.99 315.313C1153.66 315.313 1152.38 315.137 1151.13 314.785C1149.9 314.417 1148.9 313.945 1148.15 313.369L1149.47 310.441C1150.19 310.969 1151.05 311.393 1152.04 311.713C1153.03 312.033 1154.02 312.193 1155.02 312.193C1156.12 312.193 1156.94 312.033 1157.46 311.713C1157.99 311.377 1158.26 310.937 1158.26 310.393C1158.26 309.993 1158.1 309.665 1157.78 309.409C1157.47 309.137 1157.07 308.921 1156.58 308.761C1156.1 308.601 1155.44 308.425 1154.61 308.233C1153.33 307.929 1152.28 307.625 1151.46 307.321C1150.65 307.017 1149.94 306.529 1149.35 305.857C1148.78 305.185 1148.49 304.289 1148.49 303.169C1148.49 302.193 1148.75 301.313 1149.28 300.529C1149.81 299.729 1150.6 299.097 1151.66 298.633C1152.73 298.169 1154.03 297.937 1155.57 297.937C1156.64 297.937 1157.69 298.065 1158.71 298.321C1159.74 298.577 1160.63 298.945 1161.4 299.425L1160.2 302.377C1158.65 301.497 1157.1 301.057 1155.54 301.057C1154.46 301.057 1153.65 301.233 1153.12 301.585C1152.61 301.937 1152.35 302.401 1152.35 302.977C1152.35 303.553 1152.65 303.985 1153.24 304.273C1153.85 304.545 1154.77 304.817 1156 305.089C1157.28 305.393 1158.33 305.697 1159.14 306.001C1159.96 306.305 1160.66 306.785 1161.23 307.441C1161.82 308.097 1162.12 308.985 1162.12 310.105C1162.12 311.065 1161.85 311.945 1161.3 312.745C1160.78 313.529 1159.98 314.153 1158.9 314.617C1157.83 315.081 1156.53 315.313 1154.99 315.313Z" fill="#2A9CBE"/>
<path d="M1053.72 480.525L1051.27 475.869H1048V480.525H1043.61V463.701H1051.17C1053.4 463.701 1055.12 464.221 1056.33 465.261C1057.56 466.285 1058.18 467.733 1058.18 469.605C1058.18 470.869 1057.92 471.965 1057.41 472.893C1056.9 473.805 1056.16 474.517 1055.18 475.029L1058.68 480.525H1053.72ZM1048 472.365H1051.2C1052.09 472.365 1052.78 472.141 1053.26 471.693C1053.76 471.245 1054 470.597 1054 469.749C1054 468.933 1053.76 468.309 1053.26 467.877C1052.78 467.429 1052.09 467.205 1051.2 467.205H1048V472.365Z" fill="#2A9CBE"/>
<path d="M1069.57 463.701C1071.72 463.701 1073.38 464.221 1074.56 465.261C1075.75 466.285 1076.34 467.733 1076.34 469.605C1076.34 471.589 1075.75 473.133 1074.56 474.237C1073.38 475.325 1071.72 475.869 1069.57 475.869H1066.57V480.525H1062.18V463.701H1069.57ZM1069.36 472.365C1070.25 472.365 1070.94 472.141 1071.42 471.693C1071.92 471.245 1072.16 470.597 1072.16 469.749C1072.16 468.933 1071.92 468.309 1071.42 467.877C1070.94 467.429 1070.25 467.205 1069.36 467.205H1066.57V472.365H1069.36Z" fill="#2A9CBE"/>
<path d="M1098.31 476.997V480.525H1085.49L1085.47 477.621L1091.59 471.333C1092.07 470.837 1092.46 470.341 1092.76 469.845C1093.07 469.349 1093.22 468.925 1093.22 468.573C1093.22 468.109 1093.05 467.757 1092.72 467.517C1092.38 467.261 1091.91 467.133 1091.3 467.133C1090.63 467.133 1089.88 467.325 1089.04 467.709C1088.23 468.077 1087.44 468.597 1086.67 469.269L1084.99 466.029C1087.31 464.349 1089.64 463.509 1091.97 463.509C1093.09 463.509 1094.09 463.693 1094.97 464.061C1095.87 464.429 1096.56 464.949 1097.06 465.621C1097.57 466.293 1097.83 467.061 1097.83 467.925C1097.83 468.789 1097.54 469.685 1096.96 470.613C1096.4 471.525 1095.6 472.501 1094.56 473.541L1091.13 476.997H1098.31Z" fill="#2A9CBE"/>
<path d="M1114.04 476.997V480.525H1101.22L1101.2 477.621L1107.32 471.333C1107.8 470.837 1108.19 470.341 1108.5 469.845C1108.8 469.349 1108.95 468.925 1108.95 468.573C1108.95 468.109 1108.78 467.757 1108.45 467.517C1108.11 467.261 1107.64 467.133 1107.03 467.133C1106.36 467.133 1105.61 467.325 1104.78 467.709C1103.96 468.077 1103.17 468.597 1102.4 469.269L1100.72 466.029C1103.04 464.349 1105.37 463.509 1107.7 463.509C1108.82 463.509 1109.82 463.693 1110.7 464.061C1111.6 464.429 1112.3 464.949 1112.79 465.621C1113.3 466.293 1113.56 467.061 1113.56 467.925C1113.56 468.789 1113.27 469.685 1112.7 470.613C1112.14 471.525 1111.34 472.501 1110.3 473.541L1106.86 476.997H1114.04Z" fill="#2A9CBE"/>
<path d="M1133.85 480.525H1128.59L1124.18 473.997L1122.07 476.349V480.525H1117.67V463.701H1122.07V470.997L1128.38 463.701H1133.47L1127.23 470.637L1133.85 480.525Z" fill="#2A9CBE"/>
<path d="M1288.73 269.225H1292.61V286.025H1288.73V269.225Z" fill="#2A9CBE"/>
<path d="M1297.8 269.225H1301.69V282.857H1310.11V286.025H1297.8V269.225Z" fill="#2A9CBE"/>
<path d="M1319.61 279.425L1317.35 281.777V286.025H1313.49V269.225H1317.35V277.073L1324.79 269.225H1329.11L1322.15 276.713L1329.52 286.025H1324.98L1319.61 279.425Z" fill="#2A9CBE"/>
<path d="M1339.98 286.313C1338.23 286.313 1336.66 285.937 1335.25 285.185C1333.86 284.433 1332.76 283.401 1331.96 282.089C1331.18 280.761 1330.79 279.273 1330.79 277.625C1330.79 275.977 1331.18 274.497 1331.96 273.185C1332.76 271.857 1333.86 270.817 1335.25 270.065C1336.66 269.313 1338.23 268.937 1339.98 268.937C1341.72 268.937 1343.29 269.313 1344.68 270.065C1346.07 270.817 1347.17 271.857 1347.97 273.185C1348.77 274.497 1349.17 275.977 1349.17 277.625C1349.17 279.273 1348.77 280.761 1347.97 282.089C1347.17 283.401 1346.07 284.433 1344.68 285.185C1343.29 285.937 1341.72 286.313 1339.98 286.313ZM1339.98 283.001C1340.97 283.001 1341.87 282.777 1342.67 282.329C1343.47 281.865 1344.09 281.225 1344.54 280.409C1345 279.593 1345.23 278.665 1345.23 277.625C1345.23 276.585 1345 275.657 1344.54 274.841C1344.09 274.025 1343.47 273.393 1342.67 272.945C1341.87 272.481 1340.97 272.249 1339.98 272.249C1338.99 272.249 1338.09 272.481 1337.29 272.945C1336.49 273.393 1335.86 274.025 1335.39 274.841C1334.95 275.657 1334.72 276.585 1334.72 277.625C1334.72 278.665 1334.95 279.593 1335.39 280.409C1335.86 281.225 1336.49 281.865 1337.29 282.329C1338.09 282.777 1338.99 283.001 1339.98 283.001Z" fill="#2A9CBE"/>
<path d="M1368.58 286.025L1368.56 275.945L1363.61 284.249H1361.86L1356.94 276.161V286.025H1353.29V269.225H1356.51L1362.8 279.665L1368.99 269.225H1372.18L1372.23 286.025H1368.58Z" fill="#2A9CBE"/>
<path d="M1392.7 286.025L1392.68 275.945L1387.73 284.249H1385.98L1381.06 276.161V286.025H1377.41V269.225H1380.63L1386.92 279.665L1393.11 269.225H1396.3L1396.35 286.025H1392.7Z" fill="#2A9CBE"/>
<path d="M1409 286.313C1406.6 286.313 1404.73 285.649 1403.38 284.321C1402.06 282.993 1401.39 281.097 1401.39 278.633V269.225H1405.28V278.489C1405.28 281.497 1406.53 283.001 1409.02 283.001C1410.24 283.001 1411.17 282.641 1411.81 281.921C1412.45 281.185 1412.77 280.041 1412.77 278.489V269.225H1416.61V278.633C1416.61 281.097 1415.94 282.993 1414.59 284.321C1413.26 285.649 1411.4 286.313 1409 286.313Z" fill="#2A9CBE"/>
<path d="M1437.06 269.225V286.025H1433.87L1425.49 275.825V286.025H1421.65V269.225H1424.87L1433.22 279.425V269.225H1437.06Z" fill="#2A9CBE"/>
<path d="M1442.23 269.225H1446.12V286.025H1442.23V269.225Z" fill="#2A9CBE"/>
<path d="M1454.79 272.393H1449.41V269.225H1464.05V272.393H1458.68V286.025H1454.79V272.393Z" fill="#2A9CBE"/>
<path d="M1475.1 280.073V286.025H1471.21V280.025L1464.71 269.225H1468.84L1473.33 276.689L1477.81 269.225H1481.63L1475.1 280.073Z" fill="#2A9CBE"/>
<path d="M1345.06 311.425H1337.26L1335.77 315.025H1331.79L1339.28 298.225H1343.12L1350.63 315.025H1346.55L1345.06 311.425ZM1343.84 308.473L1341.17 302.041L1338.51 308.473H1343.84Z" fill="#2A9CBE"/>
<path d="M1364.69 306.361H1368.24V313.177C1367.33 313.865 1366.27 314.393 1365.07 314.761C1363.87 315.129 1362.66 315.313 1361.45 315.313C1359.7 315.313 1358.14 314.945 1356.74 314.209C1355.35 313.457 1354.26 312.425 1353.46 311.113C1352.67 309.785 1352.28 308.289 1352.28 306.625C1352.28 304.961 1352.67 303.473 1353.46 302.161C1354.26 300.833 1355.36 299.801 1356.77 299.065C1358.18 298.313 1359.76 297.937 1361.52 297.937C1362.99 297.937 1364.33 298.185 1365.53 298.681C1366.73 299.177 1367.74 299.897 1368.55 300.841L1366.06 303.145C1364.86 301.881 1363.41 301.249 1361.71 301.249C1360.64 301.249 1359.69 301.473 1358.86 301.921C1358.02 302.369 1357.38 303.001 1356.91 303.817C1356.45 304.633 1356.22 305.569 1356.22 306.625C1356.22 307.665 1356.45 308.593 1356.91 309.409C1357.38 310.225 1358.02 310.865 1358.83 311.329C1359.66 311.777 1360.61 312.001 1361.66 312.001C1362.78 312.001 1363.79 311.761 1364.69 311.281V306.361Z" fill="#2A9CBE"/>
<path d="M1383.76 315.025L1380.52 310.345H1376.94V315.025H1373.05V298.225H1380.32C1381.81 298.225 1383.1 298.473 1384.19 298.969C1385.29 299.465 1386.14 300.169 1386.73 301.081C1387.32 301.993 1387.62 303.073 1387.62 304.321C1387.62 305.569 1387.32 306.649 1386.71 307.561C1386.12 308.457 1385.27 309.145 1384.16 309.625L1387.93 315.025H1383.76ZM1383.68 304.321C1383.68 303.377 1383.38 302.657 1382.77 302.161C1382.16 301.649 1381.28 301.393 1380.11 301.393H1376.94V307.249H1380.11C1381.28 307.249 1382.16 306.993 1382.77 306.481C1383.38 305.969 1383.68 305.249 1383.68 304.321Z" fill="#2A9CBE"/>
<path d="M1391.9 298.225H1395.79V315.025H1391.9V298.225Z" fill="#2A9CBE"/>
<path d="M1408.44 315.313C1406.04 315.313 1404.17 314.649 1402.82 313.321C1401.5 311.993 1400.83 310.097 1400.83 307.633V298.225H1404.72V307.489C1404.72 310.497 1405.97 312.001 1408.46 312.001C1409.68 312.001 1410.61 311.641 1411.25 310.921C1411.89 310.185 1412.21 309.041 1412.21 307.489V298.225H1416.05V307.633C1416.05 310.097 1415.38 311.993 1414.03 313.321C1412.7 314.649 1410.84 315.313 1408.44 315.313Z" fill="#2A9CBE"/>
<path d="M1431.44 315.025L1427.38 309.193L1423.4 315.025H1418.94L1425.15 306.481L1419.25 298.225H1423.66L1427.53 303.673L1431.32 298.225H1435.52L1429.66 306.337L1435.93 315.025H1431.44Z" fill="#2A9CBE"/>
<path d="M1348.54 480.525L1346.1 475.869H1342.83V480.525H1338.44V463.701H1346C1348.22 463.701 1349.94 464.221 1351.16 465.261C1352.39 466.285 1353.01 467.733 1353.01 469.605C1353.01 470.869 1352.75 471.965 1352.24 472.893C1351.73 473.805 1350.98 474.517 1350.01 475.029L1353.51 480.525H1348.54ZM1342.83 472.365H1346.02C1346.92 472.365 1347.61 472.141 1348.09 471.693C1348.58 471.245 1348.83 470.597 1348.83 469.749C1348.83 468.933 1348.58 468.309 1348.09 467.877C1347.61 467.429 1346.92 467.205 1346.02 467.205H1342.83V472.365Z" fill="#2A9CBE"/>
<path d="M1364.4 463.701C1366.54 463.701 1368.21 464.221 1369.39 465.261C1370.58 466.285 1371.17 467.733 1371.17 469.605C1371.17 471.589 1370.58 473.133 1369.39 474.237C1368.21 475.325 1366.54 475.869 1364.4 475.869H1361.4V480.525H1357.01V463.701H1364.4ZM1364.18 472.365C1365.08 472.365 1365.77 472.141 1366.25 471.693C1366.74 471.245 1366.99 470.597 1366.99 469.749C1366.99 468.933 1366.74 468.309 1366.25 467.877C1365.77 467.429 1365.08 467.205 1364.18 467.205H1361.4V472.365H1364.18Z" fill="#2A9CBE"/>
<path d="M1393.14 476.997V480.525H1380.32L1380.3 477.621L1386.42 471.333C1386.9 470.837 1387.29 470.341 1387.59 469.845C1387.9 469.349 1388.05 468.925 1388.05 468.573C1388.05 468.109 1387.88 467.757 1387.54 467.517C1387.21 467.261 1386.74 467.133 1386.13 467.133C1385.46 467.133 1384.7 467.325 1383.87 467.709C1383.06 468.077 1382.26 468.597 1381.5 469.269L1379.82 466.029C1382.14 464.349 1384.46 463.509 1386.8 463.509C1387.92 463.509 1388.92 463.693 1389.8 464.061C1390.7 464.429 1391.39 464.949 1391.89 465.621C1392.4 466.293 1392.66 467.061 1392.66 467.925C1392.66 468.789 1392.37 469.685 1391.79 470.613C1391.23 471.525 1390.43 472.501 1389.39 473.541L1385.96 476.997H1393.14Z" fill="#2A9CBE"/>
<path d="M1403.61 463.557C1406 463.557 1407.83 464.293 1409.11 465.765C1410.4 467.237 1411.05 469.349 1411.05 472.101C1411.05 474.853 1410.4 476.973 1409.11 478.461C1407.83 479.933 1406 480.669 1403.61 480.669C1401.2 480.669 1399.34 479.933 1398.04 478.461C1396.76 476.973 1396.12 474.853 1396.12 472.101C1396.12 469.349 1396.76 467.237 1398.04 465.765C1399.34 464.293 1401.2 463.557 1403.61 463.557ZM1403.61 466.821C1402.56 466.821 1401.8 467.237 1401.33 468.069C1400.87 468.885 1400.64 470.229 1400.64 472.101C1400.64 473.989 1400.87 475.349 1401.33 476.181C1401.8 476.997 1402.56 477.405 1403.61 477.405C1404.64 477.405 1405.38 476.989 1405.84 476.157C1406.32 475.325 1406.56 473.973 1406.56 472.101C1406.56 470.229 1406.32 468.885 1405.84 468.069C1405.38 467.237 1404.64 466.821 1403.61 466.821Z" fill="#2A9CBE"/>
<path d="M1431.02 480.525H1425.77L1421.35 473.997L1419.24 476.349V480.525H1414.85V463.701H1419.24V470.997L1425.55 463.701H1430.64L1424.4 470.637L1431.02 480.525Z" fill="#2A9CBE"/>
<path d="M1612.83 269.201C1614.59 269.201 1616.14 269.553 1617.49 270.257C1618.85 270.961 1619.9 271.953 1620.66 273.233C1621.41 274.497 1621.78 275.953 1621.78 277.601C1621.78 279.249 1621.4 280.713 1620.63 281.993C1619.88 283.273 1618.81 284.265 1617.42 284.969C1616.04 285.673 1614.46 286.025 1612.66 286.025H1605.58V269.201H1612.83ZM1612.95 282.473C1613.8 282.473 1614.55 282.273 1615.21 281.873C1615.86 281.473 1616.38 280.905 1616.74 280.169C1617.11 279.433 1617.3 278.593 1617.3 277.649C1617.3 276.689 1617.1 275.841 1616.7 275.105C1616.31 274.369 1615.78 273.801 1615.09 273.401C1614.4 272.985 1613.62 272.777 1612.74 272.777H1609.98V282.473H1612.95Z" fill="#2A9CBE"/>
<path d="M1625.16 269.201H1638.43V272.705H1629.55V275.849H1637.57V279.329L1629.55 279.353V282.521H1638.67V286.025H1625.16V269.201Z" fill="#2A9CBE"/>
<path d="M1654.15 274.265C1653.25 273.737 1652.29 273.305 1651.27 272.969C1650.26 272.633 1649.41 272.465 1648.72 272.465C1648.18 272.465 1647.75 272.569 1647.43 272.777C1647.12 272.969 1646.97 273.257 1646.97 273.641C1646.97 274.009 1647.11 274.321 1647.38 274.577C1647.65 274.817 1647.99 275.017 1648.39 275.177C1648.79 275.321 1649.38 275.513 1650.16 275.753C1651.33 276.089 1652.29 276.425 1653.04 276.761C1653.81 277.097 1654.47 277.617 1655.01 278.321C1655.55 279.009 1655.83 279.913 1655.83 281.033C1655.83 282.153 1655.53 283.113 1654.94 283.913C1654.35 284.697 1653.53 285.289 1652.49 285.689C1651.47 286.089 1650.32 286.289 1649.06 286.289C1647.67 286.289 1646.27 286.049 1644.88 285.569C1643.51 285.073 1642.31 284.401 1641.31 283.553L1643.01 280.121C1643.86 280.873 1644.86 281.489 1646.01 281.969C1647.18 282.449 1648.21 282.689 1649.11 282.689C1649.76 282.689 1650.27 282.569 1650.64 282.329C1651.03 282.089 1651.22 281.737 1651.22 281.273C1651.22 280.889 1651.07 280.569 1650.79 280.313C1650.51 280.057 1650.16 279.857 1649.73 279.713C1649.31 279.553 1648.72 279.369 1647.95 279.161C1646.8 278.841 1645.85 278.521 1645.1 278.201C1644.35 277.865 1643.7 277.369 1643.15 276.713C1642.63 276.041 1642.36 275.153 1642.36 274.049C1642.36 273.009 1642.63 272.097 1643.18 271.313C1643.74 270.529 1644.52 269.929 1645.53 269.513C1646.55 269.081 1647.74 268.865 1649.08 268.865C1650.3 268.865 1651.5 269.041 1652.68 269.393C1653.87 269.729 1654.91 270.185 1655.8 270.761L1654.15 274.265Z" fill="#2A9CBE"/>
<path d="M1659.27 269.201H1663.66V286.025H1659.27V269.201Z" fill="#2A9CBE"/>
<path d="M1679.27 277.433H1683.06V284.129C1682.17 284.785 1681.06 285.321 1679.75 285.737C1678.45 286.137 1677.22 286.337 1676.05 286.337C1674.36 286.337 1672.82 285.961 1671.45 285.209C1670.09 284.441 1669.01 283.393 1668.23 282.065C1667.45 280.737 1667.05 279.249 1667.05 277.601C1667.05 275.969 1667.45 274.497 1668.25 273.185C1669.07 271.857 1670.18 270.817 1671.59 270.065C1673.01 269.313 1674.6 268.937 1676.34 268.937C1677.59 268.937 1678.84 269.169 1680.09 269.633C1681.33 270.081 1682.39 270.689 1683.25 271.457L1680.76 274.529C1680.15 273.953 1679.45 273.497 1678.65 273.161C1677.86 272.825 1677.09 272.657 1676.32 272.657C1675.42 272.657 1674.61 272.873 1673.89 273.305C1673.17 273.737 1672.61 274.329 1672.19 275.081C1671.77 275.833 1671.57 276.673 1671.57 277.601C1671.57 278.545 1671.77 279.401 1672.19 280.169C1672.61 280.921 1673.18 281.513 1673.92 281.945C1674.65 282.377 1675.47 282.593 1676.37 282.593C1677.21 282.593 1678.18 282.321 1679.27 281.777V277.433Z" fill="#2A9CBE"/>
<path d="M1698.67 269.201H1702.75V286.025H1698.91L1691.27 275.969V286.025H1687.17V269.201H1691.03L1698.69 279.329L1698.67 269.201Z" fill="#2A9CBE"/>
<path d="M1725.35 274.265C1724.45 273.737 1723.49 273.305 1722.47 272.969C1721.46 272.633 1720.61 272.465 1719.93 272.465C1719.38 272.465 1718.95 272.569 1718.63 272.777C1718.33 272.969 1718.17 273.257 1718.17 273.641C1718.17 274.009 1718.31 274.321 1718.58 274.577C1718.85 274.817 1719.19 275.017 1719.59 275.177C1719.99 275.321 1720.58 275.513 1721.37 275.753C1722.53 276.089 1723.49 276.425 1724.25 276.761C1725.01 277.097 1725.67 277.617 1726.21 278.321C1726.76 279.009 1727.03 279.913 1727.03 281.033C1727.03 282.153 1726.73 283.113 1726.14 283.913C1725.55 284.697 1724.73 285.289 1723.69 285.689C1722.67 286.089 1721.53 286.289 1720.26 286.289C1718.87 286.289 1717.48 286.049 1716.09 285.569C1714.71 285.073 1713.52 284.401 1712.51 283.553L1714.21 280.121C1715.06 280.873 1716.06 281.489 1717.21 281.969C1718.38 282.449 1719.41 282.689 1720.31 282.689C1720.97 282.689 1721.48 282.569 1721.85 282.329C1722.23 282.089 1722.42 281.737 1722.42 281.273C1722.42 280.889 1722.28 280.569 1721.99 280.313C1721.72 280.057 1721.37 279.857 1720.93 279.713C1720.52 279.553 1719.93 279.369 1719.16 279.161C1718.01 278.841 1717.05 278.521 1716.3 278.201C1715.55 277.865 1714.9 277.369 1714.36 276.713C1713.83 276.041 1713.57 275.153 1713.57 274.049C1713.57 273.009 1713.84 272.097 1714.38 271.313C1714.94 270.529 1715.73 269.929 1716.73 269.513C1717.76 269.081 1718.94 268.865 1720.29 268.865C1721.5 268.865 1722.7 269.041 1723.89 269.393C1725.07 269.729 1726.11 270.185 1727.01 270.761L1725.35 274.265Z" fill="#2A9CBE"/>
<path d="M1745.38 269.201L1739.31 280.649V286.025H1734.91V280.769L1728.72 269.201H1733.11L1737.1 276.425L1740.99 269.201H1745.38Z" fill="#2A9CBE"/>
<path d="M1759.67 274.265C1758.78 273.737 1757.82 273.305 1756.79 272.969C1755.78 272.633 1754.94 272.465 1754.25 272.465C1753.7 272.465 1753.27 272.569 1752.95 272.777C1752.65 272.969 1752.5 273.257 1752.5 273.641C1752.5 274.009 1752.63 274.321 1752.9 274.577C1753.18 274.817 1753.51 275.017 1753.91 275.177C1754.31 275.321 1754.9 275.513 1755.69 275.753C1756.86 276.089 1757.82 276.425 1758.57 276.761C1759.34 277.097 1759.99 277.617 1760.54 278.321C1761.08 279.009 1761.35 279.913 1761.35 281.033C1761.35 282.153 1761.06 283.113 1760.46 283.913C1759.87 284.697 1759.06 285.289 1758.02 285.689C1756.99 286.089 1755.85 286.289 1754.58 286.289C1753.19 286.289 1751.8 286.049 1750.41 285.569C1749.03 285.073 1747.84 284.401 1746.83 283.553L1748.54 280.121C1749.38 280.873 1750.38 281.489 1751.54 281.969C1752.7 282.449 1753.74 282.689 1754.63 282.689C1755.29 282.689 1755.8 282.569 1756.17 282.329C1756.55 282.089 1756.74 281.737 1756.74 281.273C1756.74 280.889 1756.6 280.569 1756.31 280.313C1756.04 280.057 1755.69 279.857 1755.26 279.713C1754.84 279.553 1754.25 279.369 1753.48 279.161C1752.33 278.841 1751.38 278.521 1750.62 278.201C1749.87 277.865 1749.22 277.369 1748.68 276.713C1748.15 276.041 1747.89 275.153 1747.89 274.049C1747.89 273.009 1748.16 272.097 1748.7 271.313C1749.26 270.529 1750.05 269.929 1751.06 269.513C1752.08 269.081 1753.26 268.865 1754.61 268.865C1755.82 268.865 1757.02 269.041 1758.21 269.393C1759.39 269.729 1760.43 270.185 1761.33 270.761L1759.67 274.265Z" fill="#2A9CBE"/>
<path d="M1763.33 269.201H1777.76V272.825H1772.72V286.025H1768.32V272.825H1763.33V269.201Z" fill="#2A9CBE"/>
<path d="M1780.74 269.201H1794.01V272.705H1785.13V275.849H1793.15V279.329L1785.13 279.353V282.521H1794.25V286.025H1780.74V269.201Z" fill="#2A9CBE"/>
<path d="M1798.13 269.201H1802.91L1807.78 279.041L1812.63 269.201H1817.4V286.025H1813.52L1813.49 275.369L1809.2 284.345H1806.36L1802.04 275.369V286.025H1798.13V269.201Z" fill="#2A9CBE"/>
<path d="M1654.02 298.201H1658.53L1652.84 315.025H1648.33L1645.14 303.577L1641.9 315.025H1637.39L1631.72 298.201H1636.45L1639.76 310.489L1643.08 298.201H1647.37L1650.73 310.489L1654.02 298.201Z" fill="#2A9CBE"/>
<path d="M1669.08 297.937C1670.79 297.937 1672.34 298.313 1673.71 299.065C1675.11 299.817 1676.19 300.849 1676.98 302.161C1677.78 303.473 1678.18 304.945 1678.18 306.577C1678.18 308.225 1677.78 309.713 1676.98 311.041C1676.19 312.369 1675.11 313.417 1673.71 314.185C1672.34 314.953 1670.79 315.337 1669.08 315.337C1667.37 315.337 1665.82 314.961 1664.43 314.209C1663.05 313.441 1661.96 312.393 1661.16 311.065C1660.38 309.721 1659.99 308.225 1659.99 306.577C1659.99 304.945 1660.38 303.473 1661.16 302.161C1661.96 300.849 1663.05 299.817 1664.43 299.065C1665.82 298.313 1667.37 297.937 1669.08 297.937ZM1669.13 301.657C1668.3 301.657 1667.52 301.873 1666.8 302.305C1666.1 302.737 1665.54 303.337 1665.12 304.105C1664.71 304.857 1664.5 305.689 1664.5 306.601C1664.5 307.529 1664.71 308.377 1665.12 309.145C1665.55 309.897 1666.12 310.497 1666.83 310.945C1667.53 311.377 1668.3 311.593 1669.13 311.593C1669.96 311.593 1670.72 311.377 1671.41 310.945C1672.11 310.497 1672.67 309.897 1673.07 309.145C1673.47 308.377 1673.67 307.529 1673.67 306.601C1673.67 305.689 1673.47 304.857 1673.07 304.105C1672.67 303.337 1672.11 302.737 1671.41 302.305C1670.72 301.873 1669.96 301.657 1669.13 301.657Z" fill="#2A9CBE"/>
<path d="M1691.66 315.025L1689.21 310.369H1685.95V315.025H1681.55V298.201H1689.11C1691.34 298.201 1693.06 298.721 1694.27 299.761C1695.51 300.785 1696.12 302.233 1696.12 304.105C1696.12 305.369 1695.87 306.465 1695.35 307.393C1694.84 308.305 1694.1 309.017 1693.12 309.529L1696.63 315.025H1691.66ZM1685.95 306.865H1689.14C1690.03 306.865 1690.72 306.641 1691.2 306.193C1691.7 305.745 1691.95 305.097 1691.95 304.249C1691.95 303.433 1691.7 302.809 1691.2 302.377C1690.72 301.929 1690.03 301.705 1689.14 301.705H1685.95V306.865Z" fill="#2A9CBE"/>
<path d="M1716.3 315.025H1711.04L1706.63 308.497L1704.51 310.849V315.025H1700.12V298.201H1704.51V305.497L1710.83 298.201H1715.91L1709.67 305.137L1716.3 315.025Z" fill="#2A9CBE"/>
<path d="M1730.89 303.265C1729.99 302.737 1729.03 302.305 1728.01 301.969C1727 301.633 1726.15 301.465 1725.47 301.465C1724.92 301.465 1724.49 301.569 1724.17 301.777C1723.87 301.969 1723.71 302.257 1723.71 302.641C1723.71 303.009 1723.85 303.321 1724.12 303.577C1724.39 303.817 1724.73 304.017 1725.13 304.177C1725.53 304.321 1726.12 304.513 1726.91 304.753C1728.07 305.089 1729.03 305.425 1729.79 305.761C1730.55 306.097 1731.21 306.617 1731.75 307.321C1732.3 308.009 1732.57 308.913 1732.57 310.033C1732.57 311.153 1732.27 312.113 1731.68 312.913C1731.09 313.697 1730.27 314.289 1729.23 314.689C1728.21 315.089 1727.07 315.289 1725.8 315.289C1724.41 315.289 1723.02 315.049 1721.63 314.569C1720.25 314.073 1719.06 313.401 1718.05 312.553L1719.75 309.121C1720.6 309.873 1721.6 310.489 1722.75 310.969C1723.92 311.449 1724.95 311.689 1725.85 311.689C1726.51 311.689 1727.02 311.569 1727.39 311.329C1727.77 311.089 1727.96 310.737 1727.96 310.273C1727.96 309.889 1727.82 309.569 1727.53 309.313C1727.26 309.057 1726.91 308.857 1726.47 308.713C1726.06 308.553 1725.47 308.369 1724.7 308.161C1723.55 307.841 1722.59 307.521 1721.84 307.201C1721.09 306.865 1720.44 306.369 1719.9 305.713C1719.37 305.041 1719.11 304.153 1719.11 303.049C1719.11 302.009 1719.38 301.097 1719.92 300.313C1720.48 299.529 1721.27 298.929 1722.27 298.513C1723.3 298.081 1724.48 297.865 1725.83 297.865C1727.04 297.865 1728.24 298.041 1729.43 298.393C1730.61 298.729 1731.65 299.185 1732.55 299.761L1730.89 303.265Z" fill="#2A9CBE"/>
<path d="M1736.01 298.201H1740.41V305.065H1747.2V298.201H1751.59V315.025H1747.2V308.569H1740.41V315.025H1736.01V298.201Z" fill="#2A9CBE"/>
<path d="M1764.07 297.937C1765.79 297.937 1767.33 298.313 1768.71 299.065C1770.1 299.817 1771.19 300.849 1771.97 302.161C1772.77 303.473 1773.17 304.945 1773.17 306.577C1773.17 308.225 1772.77 309.713 1771.97 311.041C1771.19 312.369 1770.1 313.417 1768.71 314.185C1767.33 314.953 1765.79 315.337 1764.07 315.337C1762.36 315.337 1760.81 314.961 1759.42 314.209C1758.04 313.441 1756.95 312.393 1756.15 311.065C1755.37 309.721 1754.98 308.225 1754.98 306.577C1754.98 304.945 1755.37 303.473 1756.15 302.161C1756.95 300.849 1758.04 299.817 1759.42 299.065C1760.81 298.313 1762.36 297.937 1764.07 297.937ZM1764.12 301.657C1763.29 301.657 1762.51 301.873 1761.79 302.305C1761.09 302.737 1760.53 303.337 1760.11 304.105C1759.7 304.857 1759.49 305.689 1759.49 306.601C1759.49 307.529 1759.7 308.377 1760.11 309.145C1760.55 309.897 1761.11 310.497 1761.82 310.945C1762.52 311.377 1763.29 311.593 1764.12 311.593C1764.95 311.593 1765.71 311.377 1766.4 310.945C1767.11 310.497 1767.66 309.897 1768.06 309.145C1768.46 308.377 1768.66 307.529 1768.66 306.601C1768.66 305.689 1768.46 304.857 1768.06 304.105C1767.66 303.337 1767.11 302.737 1766.4 302.305C1765.71 301.873 1764.95 301.657 1764.12 301.657Z" fill="#2A9CBE"/>
<path d="M1783.94 298.201C1786.08 298.201 1787.75 298.721 1788.93 299.761C1790.11 300.785 1790.71 302.233 1790.71 304.105C1790.71 306.089 1790.11 307.633 1788.93 308.737C1787.75 309.825 1786.08 310.369 1783.94 310.369H1780.94V315.025H1776.55V298.201H1783.94ZM1783.72 306.865C1784.62 306.865 1785.31 306.641 1785.79 306.193C1786.28 305.745 1786.53 305.097 1786.53 304.249C1786.53 303.433 1786.28 302.809 1785.79 302.377C1785.31 301.929 1784.62 301.705 1783.72 301.705H1780.94V306.865H1783.72Z" fill="#2A9CBE"/>
<path d="M1676.54 480.525L1674.1 475.869H1670.83V480.525H1666.44V463.701H1674C1676.22 463.701 1677.94 464.221 1679.16 465.261C1680.39 466.285 1681.01 467.733 1681.01 469.605C1681.01 470.869 1680.75 471.965 1680.24 472.893C1679.73 473.805 1678.98 474.517 1678.01 475.029L1681.51 480.525H1676.54ZM1670.83 472.365H1674.02C1674.92 472.365 1675.61 472.141 1676.09 471.693C1676.58 471.245 1676.83 470.597 1676.83 469.749C1676.83 468.933 1676.58 468.309 1676.09 467.877C1675.61 467.429 1674.92 467.205 1674.02 467.205H1670.83V472.365Z" fill="#2A9CBE"/>
<path d="M1692.4 463.701C1694.54 463.701 1696.21 464.221 1697.39 465.261C1698.58 466.285 1699.17 467.733 1699.17 469.605C1699.17 471.589 1698.58 473.133 1697.39 474.237C1696.21 475.325 1694.54 475.869 1692.4 475.869H1689.4V480.525H1685.01V463.701H1692.4ZM1692.18 472.365C1693.08 472.365 1693.77 472.141 1694.25 471.693C1694.74 471.245 1694.99 470.597 1694.99 469.749C1694.99 468.933 1694.74 468.309 1694.25 467.877C1693.77 467.429 1693.08 467.205 1692.18 467.205H1689.4V472.365H1692.18Z" fill="#2A9CBE"/>
<path d="M1721.14 476.997V480.525H1708.32L1708.3 477.621L1714.42 471.333C1714.9 470.837 1715.29 470.341 1715.59 469.845C1715.9 469.349 1716.05 468.925 1716.05 468.573C1716.05 468.109 1715.88 467.757 1715.54 467.517C1715.21 467.261 1714.74 467.133 1714.13 467.133C1713.46 467.133 1712.7 467.325 1711.87 467.709C1711.06 468.077 1710.26 468.597 1709.5 469.269L1707.82 466.029C1710.14 464.349 1712.46 463.509 1714.8 463.509C1715.92 463.509 1716.92 463.693 1717.8 464.061C1718.7 464.429 1719.39 464.949 1719.89 465.621C1720.4 466.293 1720.66 467.061 1720.66 467.925C1720.66 468.789 1720.37 469.685 1719.79 470.613C1719.23 471.525 1718.43 472.501 1717.39 473.541L1713.96 476.997H1721.14Z" fill="#2A9CBE"/>
<path d="M1731.61 463.557C1734 463.557 1735.83 464.293 1737.11 465.765C1738.4 467.237 1739.05 469.349 1739.05 472.101C1739.05 474.853 1738.4 476.973 1737.11 478.461C1735.83 479.933 1734 480.669 1731.61 480.669C1729.2 480.669 1727.34 479.933 1726.04 478.461C1724.76 476.973 1724.12 474.853 1724.12 472.101C1724.12 469.349 1724.76 467.237 1726.04 465.765C1727.34 464.293 1729.2 463.557 1731.61 463.557ZM1731.61 466.821C1730.56 466.821 1729.8 467.237 1729.33 468.069C1728.87 468.885 1728.64 470.229 1728.64 472.101C1728.64 473.989 1728.87 475.349 1729.33 476.181C1729.8 476.997 1730.56 477.405 1731.61 477.405C1732.64 477.405 1733.38 476.989 1733.84 476.157C1734.32 475.325 1734.56 473.973 1734.56 472.101C1734.56 470.229 1734.32 468.885 1733.84 468.069C1733.38 467.237 1732.64 466.821 1731.61 466.821Z" fill="#2A9CBE"/>
<path d="M1759.02 480.525H1753.77L1749.35 473.997L1747.24 476.349V480.525H1742.85V463.701H1747.24V470.997L1753.55 463.701H1758.64L1752.4 470.637L1759.02 480.525Z" fill="#2A9CBE"/>
<path d="M752.43 711.638H756.822V728.462H752.43V711.638Z" fill="#2A9CBE"/>
<path d="M761.294 711.638H765.686V724.718H772.814V728.462H761.294V711.638Z" fill="#2A9CBE"/>
<path d="M792.193 728.462H786.937L782.521 721.934L780.409 724.286V728.462H776.017V711.638H780.409V718.934L786.721 711.638H791.809L785.569 718.574L792.193 728.462Z" fill="#2A9CBE"/>
<path d="M802.741 711.374C804.453 711.374 805.997 711.75 807.373 712.502C808.765 713.254 809.853 714.286 810.637 715.598C811.437 716.91 811.837 718.382 811.837 720.014C811.837 721.662 811.437 723.15 810.637 724.478C809.853 725.806 808.765 726.854 807.373 727.622C805.997 728.39 804.453 728.774 802.741 728.774C801.029 728.774 799.477 728.398 798.085 727.646C796.709 726.878 795.621 725.83 794.821 724.502C794.037 723.158 793.645 721.662 793.645 720.014C793.645 718.382 794.037 716.91 794.821 715.598C795.621 714.286 796.709 713.254 798.085 712.502C799.477 711.75 801.029 711.374 802.741 711.374ZM802.789 715.094C801.957 715.094 801.181 715.31 800.461 715.742C799.757 716.174 799.197 716.774 798.781 717.542C798.365 718.294 798.157 719.126 798.157 720.038C798.157 720.966 798.365 721.814 798.781 722.582C799.213 723.334 799.781 723.934 800.485 724.382C801.189 724.814 801.957 725.03 802.789 725.03C803.621 725.03 804.381 724.814 805.069 724.382C805.773 723.934 806.325 723.334 806.725 722.582C807.125 721.814 807.325 720.966 807.325 720.038C807.325 719.126 807.125 718.294 806.725 717.542C806.325 716.774 805.773 716.174 805.069 715.742C804.381 715.31 803.621 715.094 802.789 715.094Z" fill="#2A9CBE"/>
<path d="M815.214 711.638H819.99L824.862 721.478L829.71 711.638H834.486V728.462H830.598L830.574 717.806L826.278 726.782H823.446L819.126 717.806V728.462H815.214V711.638Z" fill="#2A9CBE"/>
<path d="M838.961 711.638H843.737L848.609 721.478L853.457 711.638H858.233V728.462H854.345L854.321 717.806L850.025 726.782H847.193L842.873 717.806V728.462H838.961V711.638Z" fill="#2A9CBE"/>
<path d="M866.812 721.526C866.812 722.582 867.124 723.43 867.748 724.07C868.372 724.71 869.164 725.03 870.124 725.03C871.068 725.03 871.828 724.718 872.404 724.094C872.996 723.454 873.292 722.598 873.292 721.526V711.638H877.684V721.526C877.684 722.982 877.372 724.262 876.748 725.366C876.14 726.454 875.26 727.294 874.108 727.886C872.972 728.478 871.636 728.774 870.1 728.774C868.564 728.774 867.212 728.478 866.044 727.886C864.892 727.294 863.996 726.454 863.356 725.366C862.732 724.262 862.42 722.982 862.42 721.526V711.638H866.812V721.526Z" fill="#2A9CBE"/>
<path d="M893.38 711.638H897.46V728.462H893.62L885.988 718.406V728.462H881.884V711.638H885.748L893.404 721.766L893.38 711.638Z" fill="#2A9CBE"/>
<path d="M901.952 711.638H906.344V728.462H901.952V711.638Z" fill="#2A9CBE"/>
<path d="M909.352 711.638H923.776V715.262H918.736V728.462H914.344V715.262H909.352V711.638Z" fill="#2A9CBE"/>
<path d="M941.662 711.638L935.59 723.086V728.462H931.198V723.206L925.006 711.638H929.398L933.382 718.862L937.27 711.638H941.662Z" fill="#2A9CBE"/>
<path d="M958.876 711.638C960.14 711.638 961.236 711.814 962.164 712.166C963.108 712.502 963.836 712.99 964.348 713.63C964.86 714.27 965.116 715.022 965.116 715.886C965.116 716.766 964.852 717.534 964.324 718.19C963.812 718.846 963.108 719.294 962.212 719.534C963.284 719.742 964.124 720.23 964.732 720.998C965.356 721.766 965.668 722.694 965.668 723.782C965.668 724.726 965.404 725.558 964.876 726.278C964.348 726.982 963.596 727.526 962.62 727.91C961.644 728.278 960.5 728.462 959.188 728.462H950.884V711.638H958.876ZM958.636 718.334C959.244 718.334 959.724 718.19 960.076 717.902C960.428 717.598 960.604 717.182 960.604 716.654C960.604 716.142 960.428 715.75 960.076 715.478C959.724 715.19 959.244 715.054 958.636 715.07H955.276V718.334H958.636ZM958.636 725.054C959.404 725.054 960.012 724.894 960.46 724.574C960.908 724.254 961.132 723.806 961.132 723.23C961.132 722.702 960.908 722.286 960.46 721.982C960.012 721.662 959.404 721.51 958.636 721.526H955.276V725.054H958.636Z" fill="#2A9CBE"/>
<path d="M973.368 721.526C973.368 722.582 973.68 723.43 974.304 724.07C974.928 724.71 975.72 725.03 976.68 725.03C977.624 725.03 978.384 724.718 978.96 724.094C979.552 723.454 979.848 722.598 979.848 721.526V711.638H984.24V721.526C984.24 722.982 983.928 724.262 983.304 725.366C982.696 726.454 981.816 727.294 980.664 727.886C979.528 728.478 978.192 728.774 976.656 728.774C975.12 728.774 973.768 728.478 972.6 727.886C971.448 727.294 970.552 726.454 969.912 725.366C969.288 724.262 968.976 722.982 968.976 721.526V711.638H973.368V721.526Z" fill="#2A9CBE"/>
<path d="M999.937 711.638H1004.02V728.462H1000.18L992.545 718.406V728.462H988.441V711.638H992.305L999.961 721.766L999.937 711.638Z" fill="#2A9CBE"/>
<path d="M1015.76 711.638C1017.52 711.638 1019.07 711.99 1020.41 712.694C1021.77 713.398 1022.83 714.39 1023.58 715.67C1024.33 716.934 1024.71 718.39 1024.71 720.038C1024.71 721.686 1024.32 723.15 1023.56 724.43C1022.8 725.71 1021.73 726.702 1020.34 727.406C1018.96 728.11 1017.38 728.462 1015.59 728.462H1008.51V711.638H1015.76ZM1015.88 724.91C1016.72 724.91 1017.48 724.71 1018.13 724.31C1018.79 723.91 1019.3 723.342 1019.67 722.606C1020.04 721.87 1020.22 721.03 1020.22 720.086C1020.22 719.126 1020.02 718.278 1019.62 717.542C1019.24 716.806 1018.7 716.238 1018.01 715.838C1017.32 715.422 1016.54 715.214 1015.66 715.214H1012.9V724.91H1015.88Z" fill="#2A9CBE"/>
<path d="M1028.08 711.638H1032.47V724.718H1039.6V728.462H1028.08V711.638Z" fill="#2A9CBE"/>
<path d="M1042.81 711.638H1056.08V715.142H1047.2V718.286H1055.21V721.766L1047.2 721.79V724.958H1056.32V728.462H1042.81V711.638Z" fill="#2A9CBE"/>
<path d="M1068.02 717.374C1068.63 717.374 1069.12 717.566 1069.51 717.95C1069.89 718.334 1070.08 718.83 1070.08 719.438C1070.08 720.046 1069.89 720.55 1069.51 720.95C1069.12 721.334 1068.63 721.526 1068.02 721.526C1067.43 721.526 1066.94 721.334 1066.55 720.95C1066.17 720.55 1065.98 720.046 1065.98 719.438C1065.98 718.83 1066.16 718.334 1066.53 717.95C1066.91 717.566 1067.41 717.374 1068.02 717.374ZM1068.02 724.502C1068.63 724.502 1069.12 724.694 1069.51 725.078C1069.89 725.462 1070.08 725.958 1070.08 726.566C1070.08 727.174 1069.89 727.678 1069.51 728.078C1069.12 728.462 1068.63 728.654 1068.02 728.654C1067.43 728.654 1066.94 728.462 1066.55 728.078C1066.17 727.678 1065.98 727.174 1065.98 726.566C1065.98 725.958 1066.16 725.462 1066.53 725.078C1066.91 724.694 1067.41 724.502 1068.02 724.502Z" fill="#2A9CBE"/>
<path d="M1079.01 711.638H1092.42V714.686L1086.09 728.462H1081.43L1087.55 715.166H1082.89L1082.87 717.542H1079.01V711.638Z" fill="#2A9CBE"/>
<path d="M1101.71 717.734C1103 717.734 1104.14 717.95 1105.11 718.382C1106.11 718.814 1106.87 719.414 1107.39 720.182C1107.94 720.95 1108.21 721.83 1108.21 722.822C1108.21 723.99 1107.93 725.014 1107.37 725.894C1106.81 726.774 1106.01 727.454 1104.97 727.934C1103.93 728.414 1102.72 728.654 1101.35 728.654C1100.23 728.654 1099.07 728.462 1097.87 728.078C1096.68 727.694 1095.63 727.19 1094.7 726.566L1096.33 723.398C1097.88 724.646 1099.39 725.27 1100.87 725.27C1101.7 725.27 1102.35 725.086 1102.81 724.718C1103.27 724.334 1103.51 723.814 1103.51 723.158C1103.51 722.502 1103.27 722.006 1102.81 721.67C1102.36 721.318 1101.68 721.142 1100.77 721.142C1098.64 721.142 1097.11 721.174 1096.16 721.238V711.638H1107.47V715.166H1100.19V717.734H1101.71Z" fill="#2A9CBE"/>
<path d="M1128.03 728.462H1122.78L1118.36 721.934L1116.25 724.286V728.462H1111.86V711.638H1116.25V718.934L1122.56 711.638H1127.65L1121.41 718.574L1128.03 728.462Z" fill="#2A9CBE"/>
<path d="M848.289 620.638C849.553 620.638 850.649 620.814 851.577 621.166C852.521 621.502 853.249 621.99 853.761 622.63C854.273 623.27 854.529 624.022 854.529 624.886C854.529 625.766 854.265 626.534 853.737 627.19C853.225 627.846 852.521 628.294 851.625 628.534C852.697 628.742 853.537 629.23 854.145 629.998C854.769 630.766 855.081 631.694 855.081 632.782C855.081 633.726 854.817 634.558 854.289 635.278C853.761 635.982 853.009 636.526 852.033 636.91C851.057 637.278 849.913 637.462 848.601 637.462H840.297V620.638H848.289ZM848.049 627.334C848.657 627.334 849.137 627.19 849.489 626.902C849.841 626.598 850.017 626.182 850.017 625.654C850.017 625.142 849.841 624.75 849.489 624.478C849.137 624.19 848.657 624.054 848.049 624.07H844.689V627.334H848.049ZM848.049 634.054C848.817 634.054 849.425 633.894 849.873 633.574C850.321 633.254 850.545 632.806 850.545 632.23C850.545 631.702 850.321 631.286 849.873 630.982C849.425 630.662 848.817 630.51 848.049 630.526H844.689V634.054H848.049Z" fill="#2A9CBE"/>
<path d="M862.781 630.526C862.781 631.582 863.093 632.43 863.717 633.07C864.341 633.71 865.133 634.03 866.093 634.03C867.037 634.03 867.797 633.718 868.373 633.094C868.965 632.454 869.261 631.598 869.261 630.526V620.638H873.653V630.526C873.653 631.982 873.341 633.262 872.717 634.366C872.109 635.454 871.229 636.294 870.077 636.886C868.941 637.478 867.605 637.774 866.069 637.774C864.533 637.774 863.181 637.478 862.013 636.886C860.861 636.294 859.965 635.454 859.325 634.366C858.701 633.262 858.389 631.982 858.389 630.526V620.638H862.781V630.526Z" fill="#2A9CBE"/>
<path d="M889.349 620.638H893.429V637.462H889.589L881.957 627.406V637.462H877.853V620.638H881.717L889.373 630.766L889.349 620.638Z" fill="#2A9CBE"/>
<path d="M905.168 620.638C906.928 620.638 908.48 620.99 909.824 621.694C911.184 622.398 912.24 623.39 912.992 624.67C913.744 625.934 914.12 627.39 914.12 629.038C914.12 630.686 913.736 632.15 912.968 633.43C912.216 634.71 911.144 635.702 909.752 636.406C908.376 637.11 906.792 637.462 905 637.462H897.92V620.638H905.168ZM905.288 633.91C906.136 633.91 906.888 633.71 907.544 633.31C908.2 632.91 908.712 632.342 909.08 631.606C909.448 630.87 909.632 630.03 909.632 629.086C909.632 628.126 909.432 627.278 909.032 626.542C908.648 625.806 908.112 625.238 907.424 624.838C906.736 624.422 905.952 624.214 905.072 624.214H902.312V633.91H905.288Z" fill="#2A9CBE"/>
<path d="M917.495 620.638H921.887V633.718H929.015V637.462H917.495V620.638Z" fill="#2A9CBE"/>
<path d="M932.219 620.638H945.491V624.142H936.611V627.286H944.627V630.766L936.611 630.79V633.958H945.731V637.462H932.219V620.638Z" fill="#2A9CBE"/>
<path d="M968.23 633.934V637.462H955.414L955.39 634.558L961.51 628.27C961.99 627.774 962.382 627.278 962.686 626.782C962.99 626.286 963.142 625.862 963.142 625.51C963.142 625.046 962.974 624.694 962.638 624.454C962.302 624.198 961.83 624.07 961.222 624.07C960.55 624.07 959.798 624.262 958.966 624.646C958.15 625.014 957.358 625.534 956.59 626.206L954.91 622.966C957.23 621.286 959.558 620.446 961.894 620.446C963.014 620.446 964.014 620.63 964.894 620.998C965.79 621.366 966.486 621.886 966.982 622.558C967.494 623.23 967.75 623.998 967.75 624.862C967.75 625.726 967.462 626.622 966.886 627.55C966.326 628.462 965.526 629.438 964.486 630.478L961.054 633.934H968.23Z" fill="#2A9CBE"/>
<path d="M979.682 626.374C980.29 626.374 980.786 626.566 981.17 626.95C981.554 627.334 981.746 627.83 981.746 628.438C981.746 629.046 981.554 629.55 981.17 629.95C980.786 630.334 980.29 630.526 979.682 630.526C979.09 630.526 978.602 630.334 978.218 629.95C977.834 629.55 977.642 629.046 977.642 628.438C977.642 627.83 977.826 627.334 978.194 626.95C978.578 626.566 979.074 626.374 979.682 626.374ZM979.682 633.502C980.29 633.502 980.786 633.694 981.17 634.078C981.554 634.462 981.746 634.958 981.746 635.566C981.746 636.174 981.554 636.678 981.17 637.078C980.786 637.462 980.29 637.654 979.682 637.654C979.09 637.654 978.602 637.462 978.218 637.078C977.834 636.678 977.642 636.174 977.642 635.566C977.642 634.958 977.826 634.462 978.194 634.078C978.578 633.694 979.074 633.502 979.682 633.502Z" fill="#2A9CBE"/>
<path d="M999.525 627.55C1000.89 627.742 1001.97 628.246 1002.79 629.062C1003.62 629.862 1004.04 630.894 1004.04 632.158C1004.04 633.23 1003.76 634.182 1003.2 635.014C1002.64 635.846 1001.85 636.494 1000.82 636.958C999.797 637.422 998.597 637.654 997.221 637.654C995.989 637.654 994.773 637.47 993.573 637.102C992.389 636.718 991.389 636.214 990.573 635.59L992.205 632.494C992.909 633.086 993.661 633.534 994.461 633.838C995.261 634.142 996.061 634.294 996.861 634.294C997.789 634.294 998.501 634.118 998.997 633.766C999.493 633.398 999.741 632.878 999.741 632.206C999.741 631.534 999.493 631.022 998.997 630.67C998.501 630.318 997.781 630.142 996.837 630.142H994.005V627.742L997.893 623.998H991.461V620.638H1003.22V623.182L998.637 627.382L999.525 627.55Z" fill="#2A9CBE"/>
<path d="M1013.27 620.446C1015.07 620.446 1016.51 620.862 1017.59 621.694C1018.66 622.51 1019.19 623.614 1019.19 625.006C1019.19 625.71 1019.01 626.374 1018.64 626.998C1018.29 627.606 1017.81 628.094 1017.2 628.462C1018.08 628.862 1018.78 629.446 1019.29 630.214C1019.8 630.966 1020.06 631.806 1020.06 632.734C1020.06 633.726 1019.78 634.598 1019.22 635.35C1018.67 636.086 1017.89 636.654 1016.87 637.054C1015.84 637.454 1014.65 637.654 1013.29 637.654C1011.93 637.654 1010.74 637.454 1009.71 637.054C1008.71 636.654 1007.92 636.094 1007.36 635.374C1006.8 634.638 1006.52 633.782 1006.52 632.806C1006.52 631.862 1006.8 631.006 1007.36 630.238C1007.92 629.454 1008.67 628.862 1009.59 628.462C1008.92 628.062 1008.39 627.542 1007.99 626.902C1007.59 626.262 1007.39 625.59 1007.39 624.886C1007.39 623.99 1007.63 623.206 1008.11 622.534C1008.59 621.862 1009.27 621.35 1010.15 620.998C1011.04 620.63 1012.08 620.446 1013.27 620.446ZM1013.29 623.398C1012.57 623.398 1012.01 623.558 1011.61 623.878C1011.23 624.198 1011.03 624.654 1011.03 625.246C1011.03 625.822 1011.23 626.27 1011.61 626.59C1012.01 626.894 1012.57 627.046 1013.29 627.046C1014.03 627.046 1014.59 626.894 1014.97 626.59C1015.35 626.27 1015.55 625.822 1015.55 625.246C1015.55 624.654 1015.35 624.198 1014.97 623.878C1014.59 623.558 1014.03 623.398 1013.29 623.398ZM1013.29 630.262C1012.44 630.262 1011.79 630.446 1011.32 630.814C1010.87 631.166 1010.65 631.678 1010.65 632.35C1010.65 633.022 1010.87 633.542 1011.32 633.91C1011.79 634.262 1012.44 634.438 1013.29 634.438C1014.14 634.438 1014.79 634.262 1015.26 633.91C1015.72 633.542 1015.95 633.022 1015.95 632.35C1015.95 631.678 1015.72 631.166 1015.26 630.814C1014.79 630.446 1014.14 630.262 1013.29 630.262Z" fill="#2A9CBE"/>
<path d="M1040.17 637.462H1034.91L1030.49 630.934L1028.38 633.286V637.462H1023.99V620.638H1028.38V627.934L1034.69 620.638H1039.78L1033.54 627.574L1040.17 637.462Z" fill="#2A9CBE"/>
<path d="M1445.85 50.6018C1445.85 51.6578 1446.16 52.5058 1446.79 53.1458C1447.41 53.7858 1448.2 54.1058 1449.16 54.1058C1450.11 54.1058 1450.87 53.7938 1451.44 53.1698C1452.04 52.5298 1452.33 51.6738 1452.33 50.6018V40.7138H1456.72V50.6018C1456.72 52.0578 1456.41 53.3378 1455.79 54.4418C1455.18 55.5298 1454.3 56.3698 1453.15 56.9618C1452.01 57.5538 1450.68 57.8498 1449.14 57.8498C1447.6 57.8498 1446.25 57.5538 1445.08 56.9618C1443.93 56.3698 1443.04 55.5298 1442.4 54.4418C1441.77 53.3378 1441.46 52.0578 1441.46 50.6018V40.7138H1445.85V50.6018Z" fill="#2A9CBE"/>
<path d="M1459.77 40.7138H1464.88L1468.03 45.4898L1471.2 40.7138H1476.38L1470.84 48.7538L1476.86 57.5378H1471.6L1468.03 52.3298L1464.52 57.5378H1459.39L1465.36 48.9698L1459.77 40.7138Z" fill="#2A9CBE"/>
<path d="M1494.36 40.7138C1495.62 40.7138 1496.72 40.8898 1497.64 41.2418C1498.59 41.5778 1499.32 42.0658 1499.83 42.7058C1500.34 43.3458 1500.6 44.0978 1500.6 44.9618C1500.6 45.8418 1500.33 46.6098 1499.8 47.2658C1499.29 47.9218 1498.59 48.3698 1497.69 48.6098C1498.76 48.8178 1499.6 49.3058 1500.21 50.0738C1500.84 50.8418 1501.15 51.7698 1501.15 52.8578C1501.15 53.8018 1500.88 54.6338 1500.36 55.3538C1499.83 56.0578 1499.08 56.6018 1498.1 56.9858C1497.12 57.3538 1495.98 57.5378 1494.67 57.5378H1486.36V40.7138H1494.36ZM1494.12 47.4098C1494.72 47.4098 1495.2 47.2658 1495.56 46.9778C1495.91 46.6738 1496.08 46.2578 1496.08 45.7298C1496.08 45.2178 1495.91 44.8258 1495.56 44.5538C1495.2 44.2658 1494.72 44.1298 1494.12 44.1458H1490.76V47.4098H1494.12ZM1494.12 54.1298C1494.88 54.1298 1495.49 53.9698 1495.94 53.6498C1496.39 53.3298 1496.61 52.8818 1496.61 52.3058C1496.61 51.7778 1496.39 51.3618 1495.94 51.0578C1495.49 50.7378 1494.88 50.5858 1494.12 50.6018H1490.76V54.1298H1494.12Z" fill="#2A9CBE"/>
<path d="M1508.85 50.6018C1508.85 51.6578 1509.16 52.5058 1509.78 53.1458C1510.41 53.7858 1511.2 54.1058 1512.16 54.1058C1513.1 54.1058 1513.86 53.7938 1514.44 53.1698C1515.03 52.5298 1515.33 51.6738 1515.33 50.6018V40.7138H1519.72V50.6018C1519.72 52.0578 1519.41 53.3378 1518.78 54.4418C1518.17 55.5298 1517.29 56.3698 1516.14 56.9618C1515.01 57.5538 1513.67 57.8498 1512.13 57.8498C1510.6 57.8498 1509.25 57.5538 1508.08 56.9618C1506.93 56.3698 1506.03 55.5298 1505.39 54.4418C1504.77 53.3378 1504.45 52.0578 1504.45 50.6018V40.7138H1508.85V50.6018Z" fill="#2A9CBE"/>
<path d="M1535.42 40.7138H1539.5V57.5378H1535.66L1528.02 47.4818V57.5378H1523.92V40.7138H1527.78L1535.44 50.8418L1535.42 40.7138Z" fill="#2A9CBE"/>
<path d="M1551.23 40.7138C1552.99 40.7138 1554.55 41.0658 1555.89 41.7698C1557.25 42.4738 1558.31 43.4658 1559.06 44.7458C1559.81 46.0098 1560.19 47.4658 1560.19 49.1138C1560.19 50.7618 1559.8 52.2258 1559.03 53.5058C1558.28 54.7858 1557.21 55.7778 1555.82 56.4818C1554.44 57.1858 1552.86 57.5378 1551.07 57.5378H1543.99V40.7138H1551.23ZM1551.35 53.9858C1552.2 53.9858 1552.95 53.7858 1553.61 53.3858C1554.27 52.9858 1554.78 52.4178 1555.15 51.6818C1555.51 50.9458 1555.7 50.1058 1555.7 49.1618C1555.7 48.2018 1555.5 47.3538 1555.1 46.6178C1554.71 45.8818 1554.18 45.3138 1553.49 44.9138C1552.8 44.4978 1552.02 44.2898 1551.14 44.2898H1548.38V53.9858H1551.35Z" fill="#2A9CBE"/>
<path d="M1563.56 40.7138H1567.95V53.7938H1575.08V57.5378H1563.56V40.7138Z" fill="#2A9CBE"/>
<path d="M1578.29 40.7138H1591.56V44.2178H1582.68V47.3618H1590.69V50.8418L1582.68 50.8658V54.0338H1591.8V57.5378H1578.29V40.7138Z" fill="#2A9CBE"/>
<path d="M1603.5 46.4498C1604.1 46.4498 1604.6 46.6418 1604.98 47.0258C1605.37 47.4098 1605.56 47.9058 1605.56 48.5138C1605.56 49.1218 1605.37 49.6258 1604.98 50.0258C1604.6 50.4098 1604.1 50.6018 1603.5 50.6018C1602.9 50.6018 1602.42 50.4098 1602.03 50.0258C1601.65 49.6258 1601.46 49.1218 1601.46 48.5138C1601.46 47.9058 1601.64 47.4098 1602.01 47.0258C1602.39 46.6418 1602.89 46.4498 1603.5 46.4498ZM1603.5 53.5778C1604.1 53.5778 1604.6 53.7698 1604.98 54.1538C1605.37 54.5378 1605.56 55.0338 1605.56 55.6418C1605.56 56.2498 1605.37 56.7538 1604.98 57.1538C1604.6 57.5378 1604.1 57.7298 1603.5 57.7298C1602.9 57.7298 1602.42 57.5378 1602.03 57.1538C1601.65 56.7538 1601.46 56.2498 1601.46 55.6418C1601.46 55.0338 1601.64 54.5378 1602.01 54.1538C1602.39 53.7698 1602.89 53.5778 1603.5 53.5778Z" fill="#2A9CBE"/>
<path d="M1623.34 47.6258C1624.7 47.8178 1625.79 48.3218 1626.6 49.1378C1627.44 49.9378 1627.85 50.9698 1627.85 52.2338C1627.85 53.3058 1627.57 54.2578 1627.01 55.0898C1626.45 55.9218 1625.66 56.5698 1624.64 57.0338C1623.61 57.4978 1622.41 57.7298 1621.04 57.7298C1619.8 57.7298 1618.59 57.5458 1617.39 57.1778C1616.2 56.7938 1615.2 56.2898 1614.39 55.6658L1616.02 52.5698C1616.72 53.1618 1617.48 53.6098 1618.28 53.9138C1619.08 54.2178 1619.88 54.3698 1620.68 54.3698C1621.6 54.3698 1622.32 54.1938 1622.81 53.8418C1623.31 53.4738 1623.56 52.9538 1623.56 52.2818C1623.56 51.6098 1623.31 51.0978 1622.81 50.7458C1622.32 50.3938 1621.6 50.2178 1620.65 50.2178H1617.82V47.8178L1621.71 44.0738H1615.28V40.7138H1627.04V43.2578L1622.45 47.4578L1623.34 47.6258Z" fill="#2A9CBE"/>
<path d="M1638.3 40.5698C1640.69 40.5698 1642.52 41.3058 1643.8 42.7778C1645.1 44.2498 1645.74 46.3618 1645.74 49.1138C1645.74 51.8658 1645.1 53.9858 1643.8 55.4738C1642.52 56.9458 1640.69 57.6818 1638.3 57.6818C1635.89 57.6818 1634.03 56.9458 1632.74 55.4738C1631.46 53.9858 1630.82 51.8658 1630.82 49.1138C1630.82 46.3618 1631.46 44.2498 1632.74 42.7778C1634.03 41.3058 1635.89 40.5698 1638.3 40.5698ZM1638.3 43.8338C1637.25 43.8338 1636.49 44.2498 1636.02 45.0818C1635.56 45.8978 1635.33 47.2418 1635.33 49.1138C1635.33 51.0018 1635.56 52.3618 1636.02 53.1938C1636.49 54.0098 1637.25 54.4178 1638.3 54.4178C1639.33 54.4178 1640.07 54.0018 1640.54 53.1698C1641.02 52.3378 1641.26 50.9858 1641.26 49.1138C1641.26 47.2418 1641.02 45.8978 1640.54 45.0818C1640.07 44.2498 1639.33 43.8338 1638.3 43.8338Z" fill="#2A9CBE"/>
<path d="M1665.72 57.5378H1660.46L1656.04 51.0098L1653.93 53.3618V57.5378H1649.54V40.7138H1653.93V48.0098L1660.24 40.7138H1665.33L1659.09 47.6498L1665.72 57.5378Z" fill="#2A9CBE"/>
<path d="M433.444 802.638H437.836V819.462H433.444V802.638Z" fill="#2A9CBE"/>
<path d="M442.308 802.638H446.7V815.718H453.828V819.462H442.308V802.638Z" fill="#2A9CBE"/>
<path d="M473.207 819.462H467.951L463.535 812.934L461.423 815.286V819.462H457.031V802.638H461.423V809.934L467.735 802.638H472.823L466.583 809.574L473.207 819.462Z" fill="#2A9CBE"/>
<path d="M483.755 802.374C485.467 802.374 487.011 802.75 488.387 803.502C489.779 804.254 490.867 805.286 491.651 806.598C492.451 807.91 492.851 809.382 492.851 811.014C492.851 812.662 492.451 814.15 491.651 815.478C490.867 816.806 489.779 817.854 488.387 818.622C487.011 819.39 485.467 819.774 483.755 819.774C482.043 819.774 480.491 819.398 479.099 818.646C477.723 817.878 476.635 816.83 475.835 815.502C475.051 814.158 474.659 812.662 474.659 811.014C474.659 809.382 475.051 807.91 475.835 806.598C476.635 805.286 477.723 804.254 479.099 803.502C480.491 802.75 482.043 802.374 483.755 802.374ZM483.803 806.094C482.971 806.094 482.195 806.31 481.475 806.742C480.771 807.174 480.211 807.774 479.795 808.542C479.379 809.294 479.171 810.126 479.171 811.038C479.171 811.966 479.379 812.814 479.795 813.582C480.227 814.334 480.795 814.934 481.499 815.382C482.203 815.814 482.971 816.03 483.803 816.03C484.635 816.03 485.395 815.814 486.083 815.382C486.787 814.934 487.339 814.334 487.739 813.582C488.139 812.814 488.339 811.966 488.339 811.038C488.339 810.126 488.139 809.294 487.739 808.542C487.339 807.774 486.787 807.174 486.083 806.742C485.395 806.31 484.635 806.094 483.803 806.094Z" fill="#2A9CBE"/>
<path d="M496.228 802.638H501.004L505.876 812.478L510.724 802.638H515.5V819.462H511.612L511.588 808.806L507.292 817.782H504.46L500.14 808.806V819.462H496.228V802.638Z" fill="#2A9CBE"/>
<path d="M519.975 802.638H524.751L529.623 812.478L534.471 802.638H539.247V819.462H535.359L535.335 808.806L531.039 817.782H528.207L523.887 808.806V819.462H519.975V802.638Z" fill="#2A9CBE"/>
<path d="M547.826 812.526C547.826 813.582 548.138 814.43 548.762 815.07C549.386 815.71 550.178 816.03 551.138 816.03C552.082 816.03 552.842 815.718 553.418 815.094C554.01 814.454 554.306 813.598 554.306 812.526V802.638H558.698V812.526C558.698 813.982 558.386 815.262 557.762 816.366C557.154 817.454 556.274 818.294 555.122 818.886C553.986 819.478 552.65 819.774 551.114 819.774C549.578 819.774 548.226 819.478 547.058 818.886C545.906 818.294 545.01 817.454 544.37 816.366C543.746 815.262 543.434 813.982 543.434 812.526V802.638H547.826V812.526Z" fill="#2A9CBE"/>
<path d="M574.394 802.638H578.474V819.462H574.634L567.002 809.406V819.462H562.898V802.638H566.762L574.418 812.766L574.394 802.638Z" fill="#2A9CBE"/>
<path d="M582.966 802.638H587.358V819.462H582.966V802.638Z" fill="#2A9CBE"/>
<path d="M590.366 802.638H604.79V806.262H599.75V819.462H595.358V806.262H590.366V802.638Z" fill="#2A9CBE"/>
<path d="M622.676 802.638L616.604 814.086V819.462H612.212V814.206L606.02 802.638H610.412L614.396 809.862L618.284 802.638H622.676Z" fill="#2A9CBE"/>
<path d="M641.738 810.246V812.982H637.754V816.966H635.042V812.982H631.034V810.246H635.042V806.238H637.754V810.246H641.738Z" fill="#2A9CBE"/>
<path d="M663.372 802.638H667.453V819.462H663.613L655.981 809.406V819.462H651.877V802.638H655.741L663.397 812.766L663.372 802.638Z" fill="#2A9CBE"/>
<path d="M684.304 819.462L683.152 816.486H675.88L674.704 819.462H670.192L677.416 802.638H681.928L688.984 819.462H684.304ZM677.2 813.126H681.856L679.552 807.126L677.2 813.126Z" fill="#2A9CBE"/>
<path d="M688.438 802.638H702.862V806.262H697.822V819.462H693.43V806.262H688.438V802.638Z" fill="#2A9CBE"/>
<path d="M705.844 802.638H710.236V819.462H705.844V802.638Z" fill="#2A9CBE"/>
<path d="M722.724 802.374C724.436 802.374 725.98 802.75 727.356 803.502C728.748 804.254 729.836 805.286 730.62 806.598C731.42 807.91 731.82 809.382 731.82 811.014C731.82 812.662 731.42 814.15 730.62 815.478C729.836 816.806 728.748 817.854 727.356 818.622C725.98 819.39 724.436 819.774 722.724 819.774C721.012 819.774 719.46 819.398 718.068 818.646C716.692 817.878 715.604 816.83 714.804 815.502C714.02 814.158 713.628 812.662 713.628 811.014C713.628 809.382 714.02 807.91 714.804 806.598C715.604 805.286 716.692 804.254 718.068 803.502C719.46 802.75 721.012 802.374 722.724 802.374ZM722.772 806.094C721.94 806.094 721.164 806.31 720.444 806.742C719.74 807.174 719.18 807.774 718.764 808.542C718.348 809.294 718.14 810.126 718.14 811.038C718.14 811.966 718.348 812.814 718.764 813.582C719.196 814.334 719.764 814.934 720.468 815.382C721.172 815.814 721.94 816.03 722.772 816.03C723.604 816.03 724.364 815.814 725.052 815.382C725.756 814.934 726.308 814.334 726.708 813.582C727.108 812.814 727.308 811.966 727.308 811.038C727.308 810.126 727.108 809.294 726.708 808.542C726.308 807.774 725.756 807.174 725.052 806.742C724.364 806.31 723.604 806.094 722.772 806.094Z" fill="#2A9CBE"/>
<path d="M746.693 802.638H750.773V819.462H746.933L739.301 809.406V819.462H735.197V802.638H739.061L746.717 812.766L746.693 802.638Z" fill="#2A9CBE"/>
<path d="M767.624 819.462L766.472 816.486H759.2L758.024 819.462H753.512L760.736 802.638H765.248L772.304 819.462H767.624ZM760.52 813.126H765.176L762.872 807.126L760.52 813.126Z" fill="#2A9CBE"/>
<path d="M775.027 802.638H779.419V815.718H786.547V819.462H775.027V802.638Z" fill="#2A9CBE"/>
<path d="M807.862 807.702C806.966 807.174 806.006 806.742 804.982 806.406C803.974 806.07 803.126 805.902 802.438 805.902C801.894 805.902 801.462 806.006 801.142 806.214C800.838 806.406 800.686 806.694 800.686 807.078C800.686 807.446 800.822 807.758 801.094 808.014C801.366 808.254 801.702 808.454 802.102 808.614C802.502 808.758 803.094 808.95 803.878 809.19C805.046 809.526 806.006 809.862 806.758 810.198C807.526 810.534 808.182 811.054 808.726 811.758C809.27 812.446 809.542 813.35 809.542 814.47C809.542 815.59 809.246 816.55 808.654 817.35C808.062 818.134 807.246 818.726 806.206 819.126C805.182 819.526 804.038 819.726 802.774 819.726C801.382 819.726 799.99 819.486 798.598 819.006C797.222 818.51 796.03 817.838 795.022 816.99L796.726 813.558C797.574 814.31 798.574 814.926 799.726 815.406C800.894 815.886 801.926 816.126 802.822 816.126C803.478 816.126 803.99 816.006 804.358 815.766C804.742 815.526 804.934 815.174 804.934 814.71C804.934 814.326 804.79 814.006 804.502 813.75C804.23 813.494 803.878 813.294 803.446 813.15C803.03 812.99 802.438 812.806 801.67 812.598C800.518 812.278 799.566 811.958 798.814 811.638C798.062 811.302 797.414 810.806 796.87 810.15C796.342 809.478 796.078 808.59 796.078 807.486C796.078 806.446 796.35 805.534 796.894 804.75C797.454 803.966 798.238 803.366 799.246 802.95C800.27 802.518 801.454 802.302 802.798 802.302C804.014 802.302 805.214 802.478 806.398 802.83C807.582 803.166 808.622 803.622 809.518 804.198L807.862 807.702Z" fill="#2A9CBE"/>
<path d="M812.986 802.638H826.258V806.142H817.378V809.286H825.394V812.766L817.378 812.79V815.958H826.498V819.462H812.986V802.638Z" fill="#2A9CBE"/>
<path d="M830.381 802.638H835.157L840.029 812.478L844.877 802.638H849.653V819.462H845.765L845.741 808.806L841.445 817.782H838.613L834.293 808.806V819.462H830.381V802.638Z" fill="#2A9CBE"/>
<path d="M854.128 802.638H858.52V819.462H854.128V802.638Z" fill="#2A9CBE"/>
<path d="M874.488 802.638H878.568V819.462H874.728L867.096 809.406V819.462H862.992V802.638H866.856L874.512 812.766L874.488 802.638Z" fill="#2A9CBE"/>
<path d="M895.419 819.462L894.267 816.486H886.995L885.819 819.462H881.307L888.531 802.638H893.043L900.099 819.462H895.419ZM888.315 813.126H892.971L890.667 807.126L888.315 813.126Z" fill="#2A9CBE"/>
<path d="M912.926 819.462L910.478 814.806H907.214V819.462H902.822V802.638H910.382C912.606 802.638 914.326 803.158 915.542 804.198C916.774 805.222 917.39 806.67 917.39 808.542C917.39 809.806 917.134 810.902 916.622 811.83C916.11 812.742 915.366 813.454 914.39 813.966L917.894 819.462H912.926ZM907.214 811.302H910.406C911.302 811.302 911.99 811.078 912.47 810.63C912.966 810.182 913.214 809.534 913.214 808.686C913.214 807.87 912.966 807.246 912.47 806.814C911.99 806.366 911.302 806.142 910.406 806.142H907.214V811.302Z" fill="#2A9CBE"/>
<path d="M935.901 802.638C937.165 802.638 938.261 802.814 939.189 803.166C940.133 803.502 940.861 803.99 941.373 804.63C941.885 805.27 942.141 806.022 942.141 806.886C942.141 807.766 941.877 808.534 941.349 809.19C940.837 809.846 940.133 810.294 939.237 810.534C940.309 810.742 941.149 811.23 941.757 811.998C942.381 812.766 942.693 813.694 942.693 814.782C942.693 815.726 942.429 816.558 941.901 817.278C941.373 817.982 940.621 818.526 939.645 818.91C938.669 819.278 937.525 819.462 936.213 819.462H927.909V802.638H935.901ZM935.661 809.334C936.269 809.334 936.749 809.19 937.101 808.902C937.453 808.598 937.629 808.182 937.629 807.654C937.629 807.142 937.453 806.75 937.101 806.478C936.749 806.19 936.269 806.054 935.661 806.07H932.301V809.334H935.661ZM935.661 816.054C936.429 816.054 937.037 815.894 937.485 815.574C937.933 815.254 938.157 814.806 938.157 814.23C938.157 813.702 937.933 813.286 937.485 812.982C937.037 812.662 936.429 812.51 935.661 812.526H932.301V816.054H935.661Z" fill="#2A9CBE"/>
<path d="M950.393 812.526C950.393 813.582 950.705 814.43 951.329 815.07C951.953 815.71 952.745 816.03 953.705 816.03C954.649 816.03 955.409 815.718 955.985 815.094C956.577 814.454 956.873 813.598 956.873 812.526V802.638H961.265V812.526C961.265 813.982 960.953 815.262 960.329 816.366C959.721 817.454 958.841 818.294 957.689 818.886C956.553 819.478 955.217 819.774 953.681 819.774C952.145 819.774 950.793 819.478 949.625 818.886C948.473 818.294 947.577 817.454 946.937 816.366C946.313 815.262 946.001 813.982 946.001 812.526V802.638H950.393V812.526Z" fill="#2A9CBE"/>
<path d="M976.962 802.638H981.042V819.462H977.202L969.57 809.406V819.462H965.466V802.638H969.33L976.986 812.766L976.962 802.638Z" fill="#2A9CBE"/>
<path d="M992.781 802.638C994.541 802.638 996.093 802.99 997.437 803.694C998.797 804.398 999.853 805.39 1000.6 806.67C1001.36 807.934 1001.73 809.39 1001.73 811.038C1001.73 812.686 1001.35 814.15 1000.58 815.43C999.829 816.71 998.757 817.702 997.365 818.406C995.989 819.11 994.405 819.462 992.613 819.462H985.533V802.638H992.781ZM992.901 815.91C993.749 815.91 994.501 815.71 995.157 815.31C995.813 814.91 996.325 814.342 996.693 813.606C997.061 812.87 997.245 812.03 997.245 811.086C997.245 810.126 997.045 809.278 996.645 808.542C996.261 807.806 995.725 807.238 995.037 806.838C994.349 806.422 993.565 806.214 992.685 806.214H989.925V815.91H992.901Z" fill="#2A9CBE"/>
<path d="M1005.11 802.638H1009.5V815.718H1016.63V819.462H1005.11V802.638Z" fill="#2A9CBE"/>
<path d="M1019.83 802.638H1033.1V806.142H1024.22V809.286H1032.24V812.766L1024.22 812.79V815.958H1033.34V819.462H1019.83V802.638Z" fill="#2A9CBE"/>
<path d="M1045.04 808.374C1045.65 808.374 1046.15 808.566 1046.53 808.95C1046.91 809.334 1047.11 809.83 1047.11 810.438C1047.11 811.046 1046.91 811.55 1046.53 811.95C1046.15 812.334 1045.65 812.526 1045.04 812.526C1044.45 812.526 1043.96 812.334 1043.58 811.95C1043.19 811.55 1043 811.046 1043 810.438C1043 809.83 1043.19 809.334 1043.55 808.95C1043.94 808.566 1044.43 808.374 1045.04 808.374ZM1045.04 815.502C1045.65 815.502 1046.15 815.694 1046.53 816.078C1046.91 816.462 1047.11 816.958 1047.11 817.566C1047.11 818.174 1046.91 818.678 1046.53 819.078C1046.15 819.462 1045.65 819.654 1045.04 819.654C1044.45 819.654 1043.96 819.462 1043.58 819.078C1043.19 818.678 1043 818.174 1043 817.566C1043 816.958 1043.19 816.462 1043.55 816.078C1043.94 815.694 1044.43 815.502 1045.04 815.502Z" fill="#2A9CBE"/>
<path d="M1058.24 815.238C1058.72 815.59 1059.25 815.862 1059.85 816.054C1060.44 816.23 1061.05 816.318 1061.69 816.318C1062.97 816.318 1063.94 815.934 1064.6 815.166C1065.25 814.382 1065.57 813.286 1065.53 811.878C1064.69 813.094 1063.38 813.702 1061.62 813.702C1060.55 813.702 1059.61 813.478 1058.81 813.03C1058.01 812.566 1057.39 811.926 1056.94 811.11C1056.51 810.278 1056.29 809.318 1056.29 808.23C1056.29 807.062 1056.55 806.046 1057.06 805.182C1057.57 804.302 1058.29 803.63 1059.22 803.166C1060.15 802.686 1061.23 802.446 1062.46 802.446C1063.93 802.446 1065.21 802.782 1066.28 803.454C1067.35 804.126 1068.17 805.086 1068.75 806.334C1069.33 807.582 1069.61 809.062 1069.61 810.774C1069.61 812.55 1069.29 814.11 1068.65 815.454C1068.03 816.798 1067.14 817.838 1065.99 818.574C1064.84 819.294 1063.49 819.654 1061.96 819.654C1061.03 819.654 1060.09 819.526 1059.13 819.27C1058.17 819.014 1057.33 818.678 1056.63 818.262L1058.24 815.238ZM1062.63 805.902C1061.88 805.902 1061.29 806.11 1060.88 806.526C1060.46 806.926 1060.25 807.502 1060.25 808.254C1060.25 808.974 1060.45 809.542 1060.85 809.958C1061.25 810.358 1061.82 810.558 1062.56 810.558C1063.36 810.558 1063.97 810.342 1064.41 809.91C1064.85 809.462 1065.08 808.886 1065.08 808.182C1065.08 807.526 1064.87 806.982 1064.45 806.55C1064.04 806.118 1063.43 805.902 1062.63 805.902Z" fill="#2A9CBE"/>
<path d="M1079.69 808.734C1080.99 808.734 1082.12 808.95 1083.1 809.382C1084.09 809.814 1084.85 810.414 1085.38 811.182C1085.92 811.95 1086.2 812.83 1086.2 813.822C1086.2 814.99 1085.92 816.014 1085.36 816.894C1084.8 817.774 1084 818.454 1082.96 818.934C1081.92 819.414 1080.71 819.654 1079.33 819.654C1078.21 819.654 1077.05 819.462 1075.85 819.078C1074.67 818.694 1073.61 818.19 1072.68 817.566L1074.32 814.398C1075.87 815.646 1077.38 816.27 1078.85 816.27C1079.68 816.27 1080.33 816.086 1080.8 815.718C1081.26 815.334 1081.49 814.814 1081.49 814.158C1081.49 813.502 1081.26 813.006 1080.8 812.67C1080.35 812.318 1079.67 812.142 1078.76 812.142C1076.63 812.142 1075.09 812.174 1074.15 812.238V802.638H1085.45V806.166H1078.18V808.734H1079.69Z" fill="#2A9CBE"/>
<path d="M1106.02 819.462H1100.76L1096.35 812.934L1094.24 815.286V819.462H1089.84V802.638H1094.24V809.934L1100.55 802.638H1105.64L1099.4 809.574L1106.02 819.462Z" fill="#2A9CBE"/>
<defs>
<filter id="filter0_d" x="17" y="131.025" width="1854" height="390" filterUnits="userSpaceOnUse" color-interpolation-filters="sRGB">
<feFlood flood-opacity="0" result="BackgroundImageFix"/>
<feColorMatrix in="SourceAlpha" type="matrix" values="0 0 0 0 0 0 0 0 0 0 0 0 0 0 0 0 0 0 127 0" result="hardAlpha"/>
<feOffset dx="4" dy="4"/>
<feGaussianBlur stdDeviation="7.5"/>
<feComposite in2="hardAlpha" operator="out"/>
<feColorMatrix type="matrix" values="0 0 0 0 0 0 0 0 0 0 0 0 0 0 0 0 0 0 0.25 0"/>
<feBlend mode="normal" in2="BackgroundImageFix" result="effect1_dropShadow"/>
<feBlend mode="normal" in="SourceGraphic" in2="effect1_dropShadow" result="shape"/>
</filter>
<linearGradient id="paint0_linear" x1="84" y1="-126.21" x2="422.152" y2="-104.058" gradientUnits="userSpaceOnUse">
<stop stop-color="#2E847B"/>
<stop offset="0.46875" stop-color="#2A9CBE"/>
<stop offset="0.989583" stop-color="#FCC805"/>
</linearGradient>
<linearGradient id="paint1_linear" x1="84" y1="397.319" x2="378.159" y2="512.939" gradientUnits="userSpaceOnUse">
<stop stop-color="#2E847B"/>
<stop offset="0.46875" stop-color="#2A9CBE"/>
<stop offset="0.989583" stop-color="#FCC805"/>
</linearGradient>
<linearGradient id="paint2_linear" x1="412" y1="-126.21" x2="750.152" y2="-104.058" gradientUnits="userSpaceOnUse">
<stop stop-color="#2E847B"/>
<stop offset="0.46875" stop-color="#2A9CBE"/>
<stop offset="0.989583" stop-color="#FCC805"/>
</linearGradient>
<linearGradient id="paint3_linear" x1="412" y1="397.319" x2="706.159" y2="512.939" gradientUnits="userSpaceOnUse">
<stop stop-color="#2E847B"/>
<stop offset="0.46875" stop-color="#2A9CBE"/>
<stop offset="0.989583" stop-color="#FCC805"/>
</linearGradient>
<linearGradient id="paint4_linear" x1="708" y1="-126.21" x2="1046.15" y2="-104.058" gradientUnits="userSpaceOnUse">
<stop stop-color="#2E847B"/>
<stop offset="0.46875" stop-color="#2A9CBE"/>
<stop offset="0.989583" stop-color="#FCC805"/>
</linearGradient>
<linearGradient id="paint5_linear" x1="708" y1="397.319" x2="1002.16" y2="512.939" gradientUnits="userSpaceOnUse">
<stop stop-color="#2E847B"/>
<stop offset="0.46875" stop-color="#2A9CBE"/>
<stop offset="0.989583" stop-color="#FCC805"/>
</linearGradient>
<linearGradient id="paint6_linear" x1="1004" y1="-126.21" x2="1342.15" y2="-104.058" gradientUnits="userSpaceOnUse">
<stop stop-color="#2E847B"/>
<stop offset="0.46875" stop-color="#2A9CBE"/>
<stop offset="0.989583" stop-color="#FCC805"/>
</linearGradient>
<linearGradient id="paint7_linear" x1="1004" y1="397.319" x2="1298.16" y2="512.939" gradientUnits="userSpaceOnUse">
<stop stop-color="#2E847B"/>
<stop offset="0.46875" stop-color="#2A9CBE"/>
<stop offset="0.989583" stop-color="#FCC805"/>
</linearGradient>
<linearGradient id="paint8_linear" x1="1300" y1="-126.21" x2="1638.15" y2="-104.058" gradientUnits="userSpaceOnUse">
<stop stop-color="#2E847B"/>
<stop offset="0.46875" stop-color="#2A9CBE"/>
<stop offset="0.989583" stop-color="#FCC805"/>
</linearGradient>
<linearGradient id="paint9_linear" x1="1300" y1="397.319" x2="1594.16" y2="512.939" gradientUnits="userSpaceOnUse">
<stop stop-color="#2E847B"/>
<stop offset="0.46875" stop-color="#2A9CBE"/>
<stop offset="0.989583" stop-color="#FCC805"/>
</linearGradient>
<linearGradient id="paint10_linear" x1="1628" y1="-126.21" x2="1966.15" y2="-104.058" gradientUnits="userSpaceOnUse">
<stop stop-color="#2E847B"/>
<stop offset="0.46875" stop-color="#2A9CBE"/>
<stop offset="0.989583" stop-color="#FCC805"/>
</linearGradient>
<linearGradient id="paint11_linear" x1="1628" y1="397.319" x2="1922.16" y2="512.939" gradientUnits="userSpaceOnUse">
<stop stop-color="#2E847B"/>
<stop offset="0.46875" stop-color="#2A9CBE"/>
<stop offset="0.989583" stop-color="#FCC805"/>
</linearGradient>
</defs>
</svg>
