<svg width="560" height="480" viewBox="0 0 560 480" fill="none" xmlns="http://www.w3.org/2000/svg">
<path d="M224.697 59H223.792H222.888L217.728 68.4098C214.895 73.4907 212.599 77.7179 212.638 77.7484C212.678 77.7789 213.792 77.911 215.134 78.033C217.122 78.2057 217.639 78.3073 217.967 78.5614L218.375 78.8662V86.4977C218.375 90.6843 218.245 98.58 218.106 104.047C217.967 109.514 217.768 119.188 217.689 125.549C217.609 131.911 217.46 138.658 217.38 140.528C217.301 142.397 217.182 144.979 217.132 146.269C217.109 147.149 217.043 148.028 216.933 148.901C216.854 149.124 216.456 148.982 214.219 147.946C212.778 147.275 210.809 146.381 209.835 145.913C207.757 144.989 206.674 144.094 206.107 142.814L205.739 141.981V132.998C205.739 128.059 205.739 123.659 205.799 123.232C205.82 122.486 205.797 121.74 205.729 120.997C205.597 120.152 205.669 119.287 205.938 118.477C206.41 116.985 207.257 115.647 208.394 114.595C209.24 113.806 209.914 112.843 210.371 111.77C210.828 110.696 211.059 109.536 211.048 108.366C211.086 106.718 210.731 105.085 210.014 103.609C209.297 102.132 208.239 100.856 206.932 99.8909C205.382 98.9353 203.625 98.3837 201.817 98.2845C200.009 98.1853 198.205 98.5415 196.563 99.3218C195.411 99.9428 194.397 100.8 193.585 101.841C192.772 102.881 192.179 104.082 191.841 105.368C191.508 107.024 191.508 108.732 191.841 110.388C192.279 111.966 193.023 113.438 194.028 114.717C194.893 115.628 195.512 116.751 195.828 117.979C195.937 118.517 196.027 123.761 196.096 132.602C196.216 147.682 196.166 147.031 197.15 148.2C197.667 148.82 198.929 149.622 210.909 156.919C213.404 158.433 215.641 159.886 215.879 160.13C216.545 160.841 216.794 161.674 216.933 163.635C217.142 166.745 216.724 168.249 215.253 169.682C214.776 170.145 214.249 170.55 213.682 170.891C211.06 172.271 209.018 174.579 207.936 177.384C207.204 179.241 206.882 181.239 206.992 183.237C206.857 185.389 207.239 187.542 208.105 189.507C209.162 191.768 210.752 193.725 212.732 195.202C214.712 196.68 217.02 197.631 219.448 197.972C221.32 198.148 223.207 198.011 225.035 197.566C227.425 196.918 229.623 195.682 231.438 193.966C233.252 192.249 234.628 190.104 235.444 187.719C235.921 186.276 235.941 186.144 235.931 183.552C236.048 182.183 235.907 180.803 235.513 179.488C234.632 176.03 232.528 173.028 229.608 171.064C228.429 170.43 227.489 169.415 226.934 168.178C226.775 167.568 226.755 165.708 226.835 158.494C226.944 149.846 227.073 146.736 227.401 145.497C227.63 144.623 228.336 143.891 229.678 143.149L233.863 140.802C235.523 139.867 238.565 138.211 240.623 137.123C244.788 134.908 245.494 134.461 246.518 133.374C248.119 131.667 248.596 129.797 248.805 124.421C248.884 122.389 249.033 115.967 249.123 110.195C249.212 104.423 249.332 99.3218 249.381 98.9458C249.481 98.0821 249.908 97.6553 251.141 97.1878C252.781 96.5578 252.672 97.1878 252.672 88.8145V81.5896H244.878C240.017 81.5896 236.975 81.6505 236.796 81.7522C236.249 82.0468 236.199 82.7683 236.229 89.0788V95.1758L236.617 95.8871C236.899 96.38 237.295 96.7951 237.77 97.0964C238.187 97.3809 238.764 97.7772 239.003 97.9906L239.46 98.3869V112.136C239.46 127.561 239.549 126.982 238.466 128.151C237.68 128.984 236.607 129.583 231.586 132.002C228.167 133.658 227.421 133.963 227.371 133.75C227.322 133.536 227.371 131.921 227.491 130.01C227.61 128.1 227.729 122.897 227.819 118.497C227.908 114.097 228.037 107.837 228.117 104.636C228.196 101.435 228.316 94.1088 228.375 88.3776L228.485 77.9313H234.827L234.728 77.5858C234.149 75.9221 233.486 74.2906 232.74 72.698C231.317 69.9073 229.755 67.1938 228.057 64.5686C226.904 62.6989 225.681 60.6869 225.343 60.0975L224.697 59ZM100.929 71.8445C98.6037 71.8377 96.3211 72.4808 94.3277 73.704C91.8723 75.3944 89.8312 77.6408 88.363 80.2685C87.75 81.5827 87.3344 82.9838 87.1303 84.4247C87.0087 85.512 87.1138 86.6133 87.4384 87.6561C87.7833 89.7685 88.6451 91.7575 89.9436 93.4382C92.36 96.3428 95.7483 98.223 99.4475 98.7121C101.472 98.9199 103.516 98.7929 105.502 98.3361C108.579 97.5824 111.274 95.6886 113.064 93.0213C114.855 90.3539 115.614 87.1026 115.194 83.8963C114.844 81.5562 113.918 79.3455 112.503 77.4719C111.087 75.5984 109.229 74.1235 107.102 73.1858C105.17 72.2685 103.059 71.8099 100.929 71.8445V71.8445ZM128.217 95.4299C125.932 95.2249 123.656 95.911 121.845 97.3504C119.757 98.9357 113.504 108.305 108.842 116.841C107.014 120.13 105.419 123.55 104.07 127.074C103.374 128.852 102.589 130.732 102.32 131.24C102.11 131.704 101.804 132.116 101.423 132.448C101.042 132.779 100.595 133.022 100.114 133.16C97.7896 133.18 95.4664 133.068 93.1547 132.825C93.2924 131.548 93.5692 130.29 93.9798 129.075C94.1786 128.456 95.3815 125.397 96.654 122.277C99.8849 114.331 100.253 113.01 100.283 109.433C100.403 107.261 99.9535 105.097 98.9802 103.163C96.992 98.9458 92.9558 96.507 87.9852 96.507C85.9037 96.4536 83.8428 96.94 81.9949 97.9209C80.147 98.9018 78.5723 100.345 77.4177 102.116C75.5587 104.85 72.6856 112.136 69.4647 122.196C68.8284 124.167 66.5718 130.102 65.8858 131.585C65.7462 131.876 65.52 132.115 65.2397 132.266C64.9215 132.419 61.7702 132.459 51.3219 132.429C40.5556 132.429 37.6726 132.429 37.0562 132.591C35.6814 132.912 34.4146 133.6 33.3857 134.586C32.3568 135.571 31.6027 136.819 31.2009 138.201C30.8753 140.444 30.946 142.73 31.4096 144.948C31.9336 146.016 32.7528 146.903 33.7657 147.499C35.3265 148.301 36.7481 148.393 46.0332 148.301C50.8845 148.251 55.1692 148.301 55.9744 148.362C57.6546 148.474 59.3196 148.757 60.945 149.206C61.293 149.47 61.6509 151.472 61.6708 153.271C61.6906 155.069 61.3029 156.268 60.3983 157.112C59.4936 157.955 58.748 158.128 53.5189 158.128C49.0752 158.128 48.8764 158.128 48.0015 158.433C46.6559 158.978 45.4409 159.812 44.4391 160.88C43.4373 161.948 42.6722 163.224 42.1959 164.621C41.7113 166.391 41.633 168.252 41.9672 170.058C42.3145 171.515 42.9734 172.877 43.8964 174.043C44.8194 175.21 45.9837 176.153 47.3057 176.805C49.4927 177.872 50.4471 178.045 54.8411 178.157C59.2352 178.268 59.434 178.329 59.9708 179.559C60.279 180.28 60.279 180.382 60.1 183.918C59.8212 189.403 60.1817 194.902 61.1737 200.299C61.3526 201.244 61.8696 204.313 62.3269 207.118C63.0001 211.541 63.9094 215.924 65.0508 220.247C71.0774 243.013 81.5466 264.299 95.8289 282.823C101.396 289.936 106.367 295.017 116.248 303.776C123.674 310.341 126.537 312.444 138.755 320.238C145.933 324.831 146.589 325.167 149.054 325.593C152.266 326.019 155.527 325.381 158.359 323.774C161.424 321.659 163.596 318.441 164.443 314.761C165.099 312.139 164.801 310.239 163.509 308.776C162.873 308.064 162.177 307.587 158.329 305.27C155.072 303.312 151.932 301.157 148.925 298.817C147.702 297.801 145.197 295.921 143.378 294.519C137.323 289.988 131.722 284.855 126.657 279.195C121.08 272.986 117.511 268.017 106.247 250.742C99.9644 241.088 98.6919 238.863 96.1271 233.071C95.5107 231.678 94.4271 229.23 93.7014 227.634C90.9873 221.542 88.8146 215.213 87.2098 208.723C85.3707 201.142 84.645 194.588 84.3865 183.268C84.297 179.081 84.3169 178.644 84.5654 178.106C84.728 177.766 84.9583 177.465 85.2414 177.222C86.4496 176.713 87.7547 176.491 89.0589 176.571C90.937 176.616 92.8072 176.837 94.6458 177.232C95.64 177.557 95.64 177.588 95.7593 186.662C95.8189 191.255 95.9382 195.086 96.0277 195.493C96.1172 195.899 96.5745 198.043 97.0218 200.299C100.491 216.558 102.191 221.283 110.512 237.481C113.914 244.373 117.959 250.914 122.591 257.012C127.365 263.528 132.641 269.645 138.367 275.303C143.246 279.87 148.45 284.062 153.935 287.842C157.286 289.976 166.402 294.956 170.408 296.856C182.228 302.425 198.244 306.052 214.796 306.886C220.965 307.207 227.15 307.047 233.296 306.408C235.285 306.134 244.381 304.142 249.481 302.861C262.003 299.765 273.915 294.503 284.702 287.304C289.261 284.145 293.661 280.754 297.885 277.142C298.73 276.38 301.553 273.586 304.138 270.933C308.273 266.706 308.919 265.974 309.416 264.999C310.908 262.032 310.778 259.237 308.999 255.681C307.567 252.835 306.096 251.352 303.77 250.427C302.447 249.856 301.019 249.589 299.585 249.644C295.896 249.644 293.62 250.965 288.331 256.107C282.645 261.656 279.632 263.932 269.602 270.334C262.494 274.846 258.587 276.725 251.797 278.89C243.069 281.664 239.211 282.558 232.292 283.402C219.876 284.916 217.38 285.007 208.095 284.337C203.791 284.022 200.232 283.32 192.448 281.288C187.621 280.166 182.921 278.538 178.421 276.431C177.148 275.841 174.573 274.683 172.704 273.86C161.849 269.043 157.743 266.635 151.907 261.666C146.727 256.866 141.896 251.687 137.453 246.169C135.892 244.045 127.82 231.201 125.981 227.929C119.736 216.81 115.785 204.502 114.369 191.763C113.972 187.648 113.475 178.746 113.604 178.238C113.942 177.008 114.598 176.815 118.912 176.632C121.666 176.521 123.326 176.693 123.804 177.14C124.569 177.842 124.599 178.065 124.718 183.41C124.666 189.094 125.334 194.761 126.706 200.269C127.949 205.344 129.649 210.29 131.786 215.044C132.651 216.985 136.21 223.915 139.043 229.189C140.85 232.429 142.863 235.546 145.068 238.517C149.254 243.756 153.831 248.655 158.757 253.171C171.601 264.531 186.284 270.628 204.347 272.386C210.048 272.678 215.759 272.651 221.456 272.305C228.863 271.624 234.509 270.801 235.652 270.273C239.629 268.24 239.45 261.239 235.255 256.595C233.555 254.715 232.272 254.055 229.131 253.414C227.527 253.071 225.875 253.04 224.26 253.323C222.492 253.522 220.709 253.522 218.941 253.323C211.356 252.917 207.668 252.652 205.58 252.307C197.098 250.83 188.966 247.727 181.612 243.161C179.256 241.708 174.653 238.487 172.028 236.373C169.106 234.067 165.07 229.636 160.347 223.458C155.625 217.279 153.717 214.068 151.351 207.93C148.901 202.019 147.284 195.782 146.549 189.406C145.605 182.414 145.475 180.829 145.475 176.663C145.44 172.804 145.8 168.952 146.549 165.17C147.801 157.453 150.118 149.957 153.428 142.906C155.417 138.892 157.166 136.331 162.793 129.075C167.167 123.446 167.376 123.151 168.35 121.119C170.766 116.099 170.537 112.827 167.495 108.925C166.475 107.534 165.052 106.507 163.429 105.988C162.316 105.575 161.133 105.392 159.95 105.449C156.47 105.348 155.138 105.815 152.295 108.112C148.434 111.401 145.056 115.241 142.264 119.513C137.483 126.687 134.61 133.648 131.2 146.228C130.514 148.789 129.699 151.767 129.4 152.854C128.693 155.446 127.813 157.986 126.766 160.455C126.547 160.709 126.209 160.719 122.432 160.638C120.175 160.587 118.107 160.475 117.839 160.394C117.699 160.357 117.569 160.288 117.461 160.19C117.352 160.093 117.267 159.972 117.212 159.835C117.186 157.5 117.332 155.166 117.65 152.854C117.749 152.112 118.157 150.161 118.564 148.515C120.351 141.104 122.932 133.917 126.259 127.084C128.316 122.888 130.641 118.835 133.218 114.951C137.622 108.01 137.97 107.35 138.288 105.327C138.765 102.279 137.294 99.3828 133.834 96.9439C132.075 95.6839 131.339 95.4603 128.804 95.3791L128.217 95.4299ZM362.493 103.224H360.634C355.156 103.224 354.589 103.315 354.281 104.006C354.152 104.301 354.102 110.357 354.102 127.084C354.102 139.562 354.053 149.765 353.983 149.765C353.913 149.765 353.208 149.074 352.184 147.641C350.308 145.132 347.937 143.055 345.225 141.544C342.715 140.315 340.031 139.502 337.272 139.136C335.969 138.922 334.071 138.861 327.599 138.8L319.547 138.729L317.459 139.146C314.857 139.66 312.305 140.411 309.834 141.391C307.998 142.073 306.252 142.985 304.635 144.105C299.266 147.773 296.334 153.311 294.952 162.396C294.644 164.428 294.445 172.933 294.425 184.142C294.425 198.907 295.091 206.325 296.99 212.188C298.23 216.414 300.755 220.126 304.197 222.787C306.217 224.166 308.394 225.288 310.679 226.13C315.2 227.521 319.878 228.31 324.597 228.478C325.183 228.478 327.579 228.478 329.915 228.478C332.95 228.6 335.986 228.278 338.932 227.522C343.036 226.57 346.872 224.668 350.146 221.964C351.467 220.569 352.646 219.04 353.665 217.401C354.01 216.809 354.45 216.28 354.967 215.836C355.086 215.836 355.146 217.483 355.176 221.354V226.821H367.195V165.678C367.195 112.512 367.195 104.474 366.976 104.088C366.608 103.356 366.31 103.224 362.493 103.224ZM415.609 136.168C413.773 136.168 411.914 136.209 410.032 136.29C405.13 136.386 400.249 136.971 395.458 138.038C387.246 139.847 384.433 141.33 381.948 145.151C379.881 148.291 378.841 152.019 378.975 155.801C379.035 157.752 379.234 158.341 379.969 158.849C380.367 159.124 380.785 159.144 385.258 159.195C390.109 159.195 390.119 159.195 390.656 158.88C391.193 158.565 391.919 157.213 392.734 154.734C393.728 151.817 394.722 150.385 396.392 149.541C397.327 149.074 400.757 148.444 405.598 147.854C410.493 147.366 415.421 147.339 420.321 147.773C423.085 148.149 427.687 148.942 428.791 149.236C429.885 149.502 430.911 150.001 431.802 150.702C432.693 151.403 433.429 152.288 433.96 153.301C434.805 155.069 435.64 160.252 435.949 165.871C436.108 168.483 436.028 178.116 435.849 178.309C435.488 178.144 435.153 177.925 434.855 177.659C433.278 176.421 431.617 175.301 429.884 174.305C427.17 172.903 422.747 171.877 417.319 171.379C414.336 171.104 405.946 171.013 402.675 171.216C395.349 171.673 388.052 172.761 385.706 173.767C383.27 174.848 381.183 176.609 379.681 178.848C376.46 183.817 375.019 192.759 375.913 202.301C376.748 211.142 377.514 214.495 379.323 217.33C381.57 220.816 384.145 222.502 389.99 224.291C394.812 225.72 399.786 226.539 404.803 226.73C408.64 226.876 412.483 226.818 416.315 226.557C420.193 226.215 424.018 225.4 427.707 224.128C431.306 222.838 433.483 221.283 435.153 218.804C435.521 218.275 435.859 217.787 435.919 217.676C435.978 217.564 436.108 217.594 436.237 217.676C436.366 217.757 436.495 218.428 436.575 219.871C436.764 223.437 436.893 224.179 437.43 224.677L437.907 225.114H443.176H448.455L448.653 224.169C448.991 222.614 449.17 210.115 449.091 193.989C449.021 180.189 448.922 174.254 448.524 161.969C448.256 153.342 447.779 149.694 446.606 147.082C445.821 145.323 444.692 143.747 443.288 142.452C441.884 141.157 440.236 140.17 438.444 139.552C436.03 138.712 433.566 138.029 431.067 137.51C425.962 136.606 420.79 136.158 415.609 136.168V136.168ZM455.622 136.168C454.582 136.087 453.536 136.17 452.521 136.412C452.612 137.103 452.769 137.784 452.988 138.445C453.525 140.365 454.857 144.308 466.478 178.522C469.629 187.8 474.183 201.275 476.598 208.469C479.014 215.664 481.042 221.679 481.122 221.893C481.541 222.581 482.096 223.172 482.752 223.629C483.407 224.086 484.149 224.398 484.929 224.545C485.297 224.606 485.595 224.708 485.595 224.769C485.595 224.829 482.613 232.715 481.827 234.666C480.973 236.736 480.004 238.755 478.925 240.712C478.388 241.785 477.641 242.735 476.732 243.502C475.822 244.269 474.769 244.838 473.636 245.173C471.2 245.75 468.71 246.053 466.21 246.078H464.013V257.703H468.983C476.698 257.703 478.557 257.459 481.201 256.128C484.059 254.495 486.456 252.136 488.16 249.279C492.027 243.446 493.727 239.005 506.661 200.797C508.649 195.045 511.422 186.804 512.914 182.506C514.405 178.207 516.463 172.151 517.487 169.113C523.571 151.015 527.179 140.05 527.547 138.627C527.776 137.723 528.004 136.849 528.044 136.697C528.084 136.544 527.776 136.422 522.408 136.422C517.695 136.422 516.602 136.422 516.244 136.656C515.558 137.022 514.395 139.705 512.347 145.71C508.072 158.219 500.984 179.366 494.781 198.114C491.639 207.605 490.576 210.481 490.208 210.481C490.148 210.481 487.713 203.368 484.8 194.69C479.292 178.268 470.763 152.966 467.532 143.454C466.538 140.406 465.544 137.764 465.414 137.52C465.199 137.212 464.921 136.956 464.599 136.768C464.092 136.473 463.605 136.432 459.499 136.29C458.038 136.189 456.706 136.168 455.622 136.168V136.168ZM181.98 139.39C180.49 139.415 179.035 139.858 177.774 140.67C174.444 142.702 169.901 150.039 166.909 158.28C164.638 164.037 163.486 170.191 163.519 176.399C163.557 181.226 164.151 186.031 165.288 190.716C166.762 196.501 168.957 202.068 171.82 207.28C174.11 210.903 176.824 214.227 179.902 217.178C182.059 219.21 186.374 222.919 187.616 223.864C192.784 227.578 198.552 230.33 204.656 231.994C208.728 233.028 212.878 233.715 217.062 234.046C220.598 234.206 224.141 234.05 227.65 233.579C231.124 233.336 234.57 232.782 237.949 231.922C245.609 229.811 252.718 225.994 258.766 220.744C261.853 217.957 264.759 214.967 267.464 211.792C271.242 206.717 274.165 201.033 276.113 194.974C278.187 188.929 279.022 182.513 278.569 176.124C278.032 164.245 276.58 158.351 272.216 150.72C269.463 145.913 268.061 144.033 266.301 142.794C262.732 140.284 258.438 140.558 255.783 143.454C255.026 144.237 254.426 145.165 254.02 146.185C253.614 147.205 253.409 148.298 253.417 149.399C253.417 151.584 253.875 152.844 255.952 156.36C259.037 161.279 261.095 166.797 261.997 172.568C262.36 175.707 262.36 178.879 261.997 182.018C260.727 190.051 257.221 197.541 251.896 203.59C246.572 209.64 239.656 213.994 231.974 216.131C228.552 217.134 224.993 217.56 221.436 217.391C219.378 217.473 217.316 217.381 215.273 217.117C209.883 216.333 204.701 214.453 200.033 211.589C197.159 209.707 194.428 207.608 191.861 205.309C187.07 200.766 183.014 193.206 181.413 185.829C180.108 179.535 180.313 173.012 182.009 166.816C183.157 162.753 184.922 158.898 187.239 155.394C188.233 153.768 189.227 151.96 189.565 151.33C191.155 148.098 190.559 144.907 187.736 142.072C187.003 141.251 186.115 140.591 185.126 140.13C184.137 139.669 183.066 139.417 181.98 139.39V139.39ZM329.597 150.425C331.555 150.409 333.511 150.532 335.453 150.791C338.218 151.254 340.914 152.077 343.475 153.24C345.179 154.176 346.77 155.312 348.217 156.624C351.2 159.54 353.133 163.4 353.705 167.578C354.073 169.763 354.44 179.02 354.47 186.723C354.47 193.745 354.401 194.974 353.625 198.856C352.973 202.136 351.762 205.273 350.046 208.124C348.922 209.608 347.581 210.907 346.07 211.975C342.191 214.283 337.884 215.74 333.425 216.253C327.372 216.983 321.236 216.22 315.53 214.028C312.548 212.828 311.444 211.65 310.56 208.703C309.138 204.201 308.89 202.118 308.472 191.133C308.154 182.597 308.412 169.519 309.009 164.814C309.308 161.941 310.004 159.125 311.077 156.451C311.812 154.99 312.986 153.807 314.427 153.077C316.415 152.122 321.893 150.933 326.098 150.547C326.993 150.456 328.275 150.425 329.597 150.425V150.425ZM88.9197 151.878C89.6554 151.878 90.5998 151.878 91.8027 151.98C95.3616 152.173 95.6101 152.234 95.978 153.138C96.308 154.177 96.3898 155.282 96.2166 156.36C95.968 156.847 95.0037 157.305 93.3137 157.742C91.917 158.098 90.4684 158.191 89.039 158.016C88.1235 157.81 87.2425 157.468 86.4244 157C85.49 156.258 85.2912 154.968 85.8777 153.362C86.2853 152.234 86.7028 151.889 88.9197 151.878V151.878ZM411.215 181.855C412.819 181.894 414.418 182.064 415.996 182.364C417.607 182.648 420.102 183.044 421.544 183.258C428.95 184.355 431.236 185.128 433.105 187.119C434.974 189.111 435.72 192.2 435.909 198.541C436.028 202.748 435.511 205.603 434.268 207.595C433.35 208.909 432.158 209.998 430.779 210.786C427.558 212.513 421.713 213.733 415.072 214.058L410.499 214.282C406.875 214.322 403.258 213.954 399.713 213.184C396.223 212.432 394.842 211.741 392.943 209.81C390.288 207.097 389.513 204.435 389.503 197.982C389.503 191.885 390.428 188.237 392.485 186.225C394.335 184.457 396.094 183.817 401.105 183.095C402.655 182.872 405.081 182.506 406.542 182.272C408.085 181.991 409.648 181.851 411.215 181.855V181.855ZM334.926 245.752C331.553 245.667 328.212 246.428 325.193 247.968C322.55 249.353 320.336 251.465 318.801 254.065L326.973 258.729C327.703 257.528 328.732 256.546 329.955 255.884C331.175 255.207 332.543 254.857 333.932 254.868C335.259 254.773 336.577 255.154 337.659 255.945C338.091 256.315 338.431 256.784 338.652 257.314C338.873 257.843 338.969 258.419 338.932 258.993C338.922 260.022 338.677 261.035 338.216 261.95C337.45 263.246 336.495 264.415 335.383 265.415L320.809 279.337V286.389H351.14V277.467H336.129L343.465 270.527C345.582 268.715 347.355 266.521 348.694 264.054C349.609 262.157 350.085 260.071 350.086 257.957C350.121 255.671 349.422 253.437 348.098 251.596C346.759 249.675 344.905 248.193 342.759 247.328C340.28 246.265 337.614 245.729 334.926 245.752V245.752ZM374.532 245.752C371.401 245.695 368.317 246.54 365.634 248.191C362.956 249.919 360.831 252.409 359.52 255.355C358.001 258.837 357.261 262.621 357.353 266.432C357.257 270.276 357.998 274.093 359.52 277.61C360.839 280.537 362.964 283.009 365.634 284.723C368.326 286.327 371.386 287.172 374.502 287.172C377.618 287.172 380.678 286.327 383.369 284.723C386.034 283.017 388.144 280.541 389.434 277.61C390.992 274.103 391.75 270.281 391.65 266.432C391.747 262.615 390.989 258.826 389.434 255.355C388.153 252.405 386.042 249.911 383.369 248.191C380.706 246.546 377.643 245.701 374.532 245.752V245.752ZM411.97 245.752C408.598 245.667 405.256 246.428 402.238 247.968C399.594 249.353 397.381 251.465 395.846 254.065L404.017 258.729C404.752 257.532 405.78 256.551 407 255.884C408.22 255.207 409.588 254.857 410.976 254.868C412.303 254.773 413.622 255.154 414.704 255.945C415.135 256.315 415.475 256.784 415.696 257.314C415.917 257.843 416.013 258.419 415.977 258.993C415.966 260.022 415.721 261.035 415.261 261.95C414.495 263.246 413.539 264.415 412.428 265.415L397.864 279.276V286.328H428.155V277.406H413.143L420.48 270.466C422.597 268.654 424.369 266.46 425.709 263.993C426.624 262.096 427.1 260.01 427.101 257.896C427.135 255.61 426.437 253.376 425.113 251.535C423.774 249.614 421.92 248.132 419.774 247.267C417.299 246.229 414.645 245.714 411.97 245.752V245.752ZM432.847 246.545V255.244H440.074V286.328H451.079V246.545H432.847ZM374.482 254.959C375.394 254.967 376.286 255.23 377.061 255.721C377.836 256.212 378.464 256.912 378.876 257.743C379.989 259.562 380.536 262.458 380.536 266.432C380.536 270.405 379.989 273.331 378.876 275.191C378.456 276.011 377.824 276.698 377.05 277.178C376.275 277.658 375.387 277.913 374.482 277.914C373.561 277.917 372.656 277.666 371.863 277.187C371.071 276.707 370.419 276.018 369.978 275.191C368.905 273.328 368.368 270.408 368.368 266.432C368.368 262.455 368.905 259.559 369.978 257.743C370.413 256.895 371.068 256.187 371.871 255.695C372.675 255.204 373.595 254.949 374.532 254.959H374.482Z" fill="url(#paint0_linear)"/>
<path d="M95.3357 339.258H69.9917V373.722H96.1517V367.626H77.0477V358.698H93.8477V352.602H77.0477V345.354H95.3357V339.258Z" fill="black"/>
<path d="M114.487 365.37H114.391L106.999 339.258H99.2713L110.887 373.722H117.751L129.463 339.258H121.975L114.487 365.37Z" fill="black"/>
<path d="M159.367 339.258H134.023V373.722H160.183V367.626H141.079V358.698H157.879V352.602H141.079V345.354H159.367V339.258Z" fill="black"/>
<path d="M187.063 363.258H186.967L173.287 339.258H165.703V373.722H172.423V349.146H172.519L186.583 373.722H193.783V339.258H187.063V363.258Z" fill="black"/>
<path d="M215.319 345.354H225.735V339.258H197.703V345.354H208.119V373.722H215.319V345.354Z" fill="black"/>
<path d="M253.241 345.354H263.657V339.258H235.625V345.354H246.041V373.722H253.241V345.354Z" fill="black"/>
<path d="M274.569 339.258H267.369V373.722H274.569V339.258Z" fill="black"/>
<path d="M310.488 350.538C310.104 345.45 305.928 338.346 295.608 338.346C286.728 338.346 279.768 344.49 279.768 356.538C279.768 368.442 286.344 374.634 295.512 374.634C304.152 374.634 309.048 369.402 310.488 361.914H303.288C302.424 366.138 299.64 368.394 295.656 368.394C289.56 368.394 287.112 362.826 287.112 356.634C287.112 346.89 292.2 344.586 295.656 344.586C301.608 344.586 302.712 348.474 303.288 350.538H310.488Z" fill="black"/>
<path d="M323.673 362.058L327.033 358.602L337.689 373.722H346.953L332.073 353.37L346.137 339.258H336.825L323.673 353.274V339.258H316.473V373.722H323.673V362.058Z" fill="black"/>
<path d="M375.929 339.258H350.585V373.722H376.745V367.626H357.641V358.698H374.441V352.602H357.641V345.354H375.929V339.258Z" fill="black"/>
<path d="M397.241 345.354H407.657V339.258H379.625V345.354H390.041V373.722H397.241V345.354Z" fill="black"/>
<path d="M418.569 339.258H411.369V373.722H418.569V339.258Z" fill="black"/>
<path d="M446.328 363.258H446.232L432.552 339.258H424.968V373.722H431.688V349.146H431.784L445.848 373.722H453.048V339.258H446.328V363.258Z" fill="black"/>
<path d="M476.121 360.954H484.137C482.649 367.914 477.369 368.538 475.785 368.538C470.889 368.538 465.753 366.09 465.753 356.682C465.753 347.85 470.505 344.298 475.641 344.298C480.729 344.298 483.177 348.618 483.177 349.962H490.377C489.993 345.21 485.817 338.346 475.257 338.346C463.641 338.298 458.409 347.178 458.409 356.586C458.409 368.682 465.945 374.634 474.249 374.634C480.537 374.634 483.177 371.514 485.001 369.402L485.721 373.722H490.521V355.146H476.121V360.954Z" fill="black"/>
<path d="M118.917 395.85H117.261C116.589 398.61 115.461 398.874 112.725 399.066V400.746H116.661V412.722H118.917V395.85Z" fill="black"/>
<path d="M133.837 404.514C133.837 408.738 132.733 411.282 130.309 411.282C127.885 411.282 126.781 408.738 126.781 404.514C126.781 400.29 127.885 397.746 130.309 397.746C132.733 397.746 133.837 400.29 133.837 404.514ZM136.093 404.514C136.093 401.01 135.157 395.85 130.309 395.85C125.461 395.85 124.525 401.01 124.525 404.514C124.525 408.018 125.461 413.178 130.309 413.178C135.157 413.178 136.093 408.018 136.093 404.514Z" fill="black"/>
<path d="M155.1 407.706L156.804 412.722H159.348L153.108 395.49H150.468L143.988 412.722H146.388L148.188 407.706H155.1ZM148.908 405.642L151.668 398.058H151.716L154.26 405.642H148.908Z" fill="black"/>
<path d="M170.67 412.722V400.17H168.558V407.082C168.558 408.906 167.766 411.258 165.102 411.258C163.734 411.258 162.678 410.562 162.678 408.498V400.17H160.566V409.194C160.566 412.194 162.798 413.082 164.646 413.082C166.662 413.082 167.742 412.314 168.63 410.85L168.678 410.898V412.722H170.67Z" fill="black"/>
<path d="M175.414 406.41C175.414 404.802 175.582 401.706 178.846 401.706C181.894 401.706 182.23 404.994 182.23 407.034C182.23 410.37 180.142 411.258 178.798 411.258C176.494 411.258 175.414 409.17 175.414 406.41ZM184.246 400.17H182.254V402.018C181.726 401.25 180.742 399.81 178.462 399.81C175.126 399.81 173.23 402.546 173.23 406.074C173.23 409.074 174.478 413.082 178.75 413.082C180.43 413.082 181.534 412.314 182.134 411.306V411.834C182.134 413.322 182.206 416.25 178.558 416.25C178.054 416.25 176.11 416.25 175.726 414.258H173.614C174.022 417.594 176.926 418.002 178.414 418.002C184.222 418.002 184.246 413.49 184.246 411.69V400.17Z" fill="black"/>
<path d="M197.342 412.722V400.17H195.23V407.082C195.23 408.906 194.438 411.258 191.774 411.258C190.406 411.258 189.35 410.562 189.35 408.498V400.17H187.238V409.194C187.238 412.194 189.47 413.082 191.318 413.082C193.334 413.082 194.414 412.314 195.302 410.85L195.35 410.898V412.722H197.342Z" fill="black"/>
<path d="M209.669 403.746C209.669 403.122 209.357 399.81 204.869 399.81C202.397 399.81 200.117 401.058 200.117 403.818C200.117 405.546 201.269 406.434 203.021 406.866L205.469 407.466C207.269 407.922 207.965 408.258 207.965 409.266C207.965 410.658 206.597 411.258 205.085 411.258C202.109 411.258 201.821 409.674 201.749 408.69H199.709C199.781 410.202 200.141 413.082 205.109 413.082C207.941 413.082 210.077 411.522 210.077 408.93C210.077 407.226 209.165 406.266 206.549 405.618L204.437 405.09C202.805 404.682 202.157 404.442 202.157 403.41C202.157 401.85 204.005 401.634 204.653 401.634C207.317 401.634 207.605 402.954 207.629 403.746H209.669Z" fill="black"/>
<path d="M217.109 401.922V400.17H215.093V396.666H212.981V400.17H211.277V401.922H212.981V410.202C212.981 411.714 213.437 412.89 215.525 412.89C215.741 412.89 216.341 412.794 217.109 412.722V411.066H216.365C215.933 411.066 215.093 411.066 215.093 410.082V401.922H217.109Z" fill="black"/>
<path d="M231.237 404.994H225.357V407.154H231.237V404.994Z" fill="black"/>
<path d="M247.589 395.85H245.933C245.261 398.61 244.133 398.874 241.397 399.066V400.746H245.333V412.722H247.589V395.85Z" fill="black"/>
<path d="M264.117 400.194C264.117 398.226 262.653 395.85 258.909 395.85C254.877 395.85 253.797 398.73 253.797 400.482C253.797 402.066 254.637 403.218 256.077 403.77C254.301 404.49 253.221 405.81 253.221 407.874C253.221 408.69 253.221 410.514 254.949 411.882C256.293 412.938 258.069 413.178 259.005 413.178C262.989 413.178 264.717 410.562 264.717 407.85C264.717 406.578 264.237 404.706 261.957 403.746C262.701 403.362 264.117 402.618 264.117 400.194ZM258.957 404.802C260.877 404.802 262.461 405.81 262.461 408.09C262.461 410.73 260.613 411.282 259.077 411.282C256.149 411.282 255.477 409.266 255.477 407.922C255.477 406.362 256.581 404.802 258.957 404.802ZM258.933 402.978C257.397 402.978 255.981 401.994 255.981 400.386C255.981 399.306 256.533 397.746 258.789 397.746C261.261 397.746 261.933 399.234 261.933 400.266C261.933 401.802 260.757 402.978 258.933 402.978Z" fill="black"/>
<path d="M286.724 400.53C286.628 398.634 286.028 395.034 280.004 395.034C275.828 395.034 274.076 397.674 274.076 400.362C274.076 403.362 276.62 404.154 277.748 404.418L281.276 405.234C284.108 405.906 284.948 406.482 284.948 408.282C284.948 410.754 282.116 411.186 280.436 411.186C278.228 411.186 275.684 410.274 275.684 407.154H273.5C273.5 408.762 273.788 410.202 275.252 411.522C276.02 412.218 277.268 413.178 280.46 413.178C283.412 413.178 287.204 412.05 287.204 407.97C287.204 405.234 285.524 403.89 283.292 403.362L278.372 402.234C277.364 401.994 276.332 401.514 276.332 400.05C276.332 397.434 278.804 397.026 280.268 397.026C282.212 397.026 284.42 397.866 284.54 400.53H286.724Z" fill="black"/>
<path d="M298.436 408.786C298.364 409.722 297.188 411.258 295.196 411.258C292.772 411.258 291.548 409.746 291.548 407.13H300.716C300.716 402.69 298.94 399.81 295.316 399.81C291.164 399.81 289.292 402.906 289.292 406.794C289.292 410.418 291.38 413.082 294.908 413.082C296.924 413.082 297.74 412.602 298.316 412.218C299.9 411.162 300.476 409.386 300.548 408.786H298.436ZM291.548 405.45C291.548 403.506 293.084 401.706 295.028 401.706C297.596 401.706 298.412 403.506 298.532 405.45H291.548Z" fill="black"/>
<path d="M305.076 407.034C305.076 404.994 305.412 401.706 308.46 401.706C311.724 401.706 311.892 404.802 311.892 406.41C311.892 409.17 310.812 411.258 308.508 411.258C307.164 411.258 305.076 410.37 305.076 407.034ZM303.06 417.69H305.172V411.402H305.22C305.772 412.29 306.876 413.082 308.556 413.082C312.828 413.082 314.076 409.074 314.076 406.074C314.076 402.546 312.18 399.81 308.844 399.81C306.564 399.81 305.604 401.226 305.1 401.946H305.052V400.17H303.06V417.69Z" fill="black"/>
<path d="M321.172 401.922V400.17H319.156V396.666H317.044V400.17H315.34V401.922H317.044V410.202C317.044 411.714 317.5 412.89 319.588 412.89C319.804 412.89 320.404 412.794 321.172 412.722V411.066H320.428C319.996 411.066 319.156 411.066 319.156 410.082V401.922H321.172Z" fill="black"/>
<path d="M331.788 408.786C331.716 409.722 330.54 411.258 328.548 411.258C326.124 411.258 324.9 409.746 324.9 407.13H334.068C334.068 402.69 332.292 399.81 328.668 399.81C324.516 399.81 322.644 402.906 322.644 406.794C322.644 410.418 324.732 413.082 328.26 413.082C330.276 413.082 331.092 412.602 331.668 412.218C333.252 411.162 333.828 409.386 333.9 408.786H331.788ZM324.9 405.45C324.9 403.506 326.436 401.706 328.38 401.706C330.948 401.706 331.764 403.506 331.884 405.45H324.9Z" fill="black"/>
<path d="M336.58 412.722H338.692V405.882C338.692 402.474 340.804 401.706 342.004 401.706C343.564 401.706 343.972 402.978 343.972 404.034V412.722H346.084V405.066C346.084 403.386 347.26 401.706 349.036 401.706C350.836 401.706 351.364 402.882 351.364 404.61V412.722H353.476V404.034C353.476 400.506 350.932 399.81 349.588 399.81C347.644 399.81 346.804 400.674 345.748 401.85C345.388 401.178 344.668 399.81 342.412 399.81C340.156 399.81 339.076 401.274 338.62 401.946H338.572V400.17H336.58V412.722Z" fill="black"/>
<path d="M358.396 412.722V411.162H358.444C358.876 411.858 359.764 413.082 361.9 413.082C366.172 413.082 367.42 409.074 367.42 406.074C367.42 402.546 365.524 399.81 362.188 399.81C360.724 399.834 359.476 400.434 358.564 401.754H358.516V395.49H356.404V412.722H358.396ZM365.236 406.41C365.236 409.17 364.156 411.258 361.852 411.258C360.508 411.258 358.42 410.37 358.42 407.034C358.42 404.994 358.756 401.706 361.804 401.706C365.068 401.706 365.236 404.802 365.236 406.41Z" fill="black"/>
<path d="M378.452 408.786C378.38 409.722 377.204 411.258 375.212 411.258C372.788 411.258 371.564 409.746 371.564 407.13H380.732C380.732 402.69 378.956 399.81 375.332 399.81C371.18 399.81 369.308 402.906 369.308 406.794C369.308 410.418 371.396 413.082 374.924 413.082C376.94 413.082 377.756 412.602 378.332 412.218C379.916 411.162 380.492 409.386 380.564 408.786H378.452ZM371.564 405.45C371.564 403.506 373.1 401.706 375.044 401.706C377.612 401.706 378.428 403.506 378.548 405.45H371.564Z" fill="black"/>
<path d="M385.644 405.426C385.644 403.602 386.892 402.066 388.86 402.066H389.652V399.882C389.484 399.834 389.364 399.81 389.1 399.81C387.516 399.81 386.412 400.794 385.572 402.258H385.524V400.17H383.532V412.722H385.644V405.426Z" fill="black"/>
<path d="M399.524 401.898C399.596 400.722 399.74 397.746 402.932 397.746C405.404 397.746 406.268 399.45 406.268 400.794C406.268 403.002 404.972 403.698 403.172 404.73L400.94 406.026C398.684 407.346 397.1 409.218 396.98 412.722H408.524V410.73H399.356C399.452 410.082 399.956 408.762 402.26 407.49L404.012 406.53C406.532 405.186 408.524 403.914 408.524 400.89C408.524 397.746 406.172 395.85 403.244 395.85C401.42 395.85 397.412 396.402 397.412 401.898H399.524Z" fill="black"/>
<path d="M419.891 404.514C419.891 408.738 418.787 411.282 416.363 411.282C413.939 411.282 412.835 408.738 412.835 404.514C412.835 400.29 413.939 397.746 416.363 397.746C418.787 397.746 419.891 400.29 419.891 404.514ZM422.147 404.514C422.147 401.01 421.211 395.85 416.363 395.85C411.515 395.85 410.579 401.01 410.579 404.514C410.579 408.018 411.515 413.178 416.363 413.178C421.211 413.178 422.147 408.018 422.147 404.514Z" fill="black"/>
<path d="M426.195 401.898C426.267 400.722 426.411 397.746 429.603 397.746C432.075 397.746 432.939 399.45 432.939 400.794C432.939 403.002 431.643 403.698 429.843 404.73L427.611 406.026C425.355 407.346 423.771 409.218 423.651 412.722H435.195V410.73H426.027C426.123 410.082 426.627 408.762 428.931 407.49L430.683 406.53C433.203 405.186 435.195 403.914 435.195 400.89C435.195 397.746 432.843 395.85 429.915 395.85C428.091 395.85 424.083 396.402 424.083 401.898H426.195Z" fill="black"/>
<path d="M444.979 395.85H443.323C442.651 398.61 441.523 398.874 438.787 399.066V400.746H442.723V412.722H444.979V395.85Z" fill="black"/>
<defs>
<linearGradient id="paint0_linear" x1="135.673" y1="30.0492" x2="425.762" y2="313.843" gradientUnits="userSpaceOnUse">
<stop stop-color="#2E847B"/>
<stop offset="0.52" stop-color="#2A9CBE" stop-opacity="0.7"/>
<stop offset="0.99" stop-color="#FCC805" stop-opacity="0.25"/>
</linearGradient>
</defs>
</svg>
