<svg id="Layer_2" data-name="Layer 2" xmlns="http://www.w3.org/2000/svg" xmlns:xlink="http://www.w3.org/1999/xlink" viewBox="0 0 761.47 472.36"><defs><style>.cls-1{font-size:71px;font-family:Montserrat-Medium, Montserrat;font-weight:500;}.cls-2{letter-spacing:-0.07em;}.cls-3{letter-spacing:0em;}.cls-4{font-size:24px;font-family:Montserrat-Light, Montserrat;font-weight:300;}.cls-5{letter-spacing:-0.03em;}.cls-6{letter-spacing:0em;}.cls-7{fill:url(#linear-gradient);}</style><linearGradient id="linear-gradient" x1="395.26" y1="296.25" x2="680.8" y2="581.79" gradientUnits="userSpaceOnUse"><stop offset="0" stop-color="#2e847b"/><stop offset="0.52" stop-color="#2a9cbe" stop-opacity="0.7"/><stop offset="0.99" stop-color="#fcc805" stop-opacity="0.25"/></linearGradient></defs><title>Illust1</title><text class="cls-1" transform="translate(0 409.98)">OPEN REGISTR<tspan class="cls-2" x="536.47" y="0">A</tspan><tspan class="cls-3" x="584.47" y="0">TION</tspan></text><text class="cls-4" transform="translate(223.74 463.6)">1st June - 10th <tspan class="cls-5" x="171.55" y="0">A</tspan><tspan class="cls-6" x="187.96" y="0">ugust 2021</tspan></text><g id="g10"><path id="path837" class="cls-7" d="M484.81,324.74l-.91,0-.91,0L477.8,334c-2.85,5-5.16,9.16-5.12,9.19s1.16.16,2.51.28c2,.17,2.52.27,2.85.52l.41.3v7.51c0,4.12-.13,11.89-.27,17.27s-.34,14.9-.42,21.16-.23,12.9-.31,14.74-.2,4.38-.25,5.65a25.81,25.81,0,0,1-.2,2.59c-.08.22-.48.08-2.73-.94-1.45-.66-3.43-1.54-4.41-2-2.09-.91-3.18-1.79-3.75-3.05l-.37-.82v-8.84c0-4.86,0-9.19.06-9.61a17.94,17.94,0,0,0-.07-2.2,5.17,5.17,0,0,1,.21-2.48,8.81,8.81,0,0,1,2.47-3.82,8.19,8.19,0,0,0,2.67-6.13,10,10,0,0,0-4.14-8.34,11.12,11.12,0,0,0-10.43-.56,9.51,9.51,0,0,0-4.75,5.95,12.27,12.27,0,0,0,0,4.94,12.05,12.05,0,0,0,2.2,4.26,7.26,7.26,0,0,1,1.81,3.21c.11.53.2,5.69.27,14.39.12,14.84.07,14.2,1.06,15.35.52.61,1.79,1.4,13.84,8.58,2.51,1.49,4.76,2.92,5,3.16.67.7.92,1.52,1.06,3.45.21,3.06-.21,4.54-1.69,5.95a8.67,8.67,0,0,1-1.58,1.19,12.23,12.23,0,0,0-5.78,6.39A13.4,13.4,0,0,0,467,447a13,13,0,0,0,1.12,6.17,14.89,14.89,0,0,0,11.41,8.33,17.38,17.38,0,0,0,5.62-.4,15.22,15.22,0,0,0,10.47-9.69c.48-1.42.5-1.55.49-4.1a10.53,10.53,0,0,0-.42-4,14.21,14.21,0,0,0-5.94-8.29,6.06,6.06,0,0,1-2.69-2.84c-.16-.6-.18-2.43-.1-9.53.11-8.51.24-11.57.57-12.79.23-.86.94-1.58,2.29-2.31l4.21-2.31c1.67-.92,4.73-2.55,6.8-3.62,4.19-2.18,4.9-2.62,5.93-3.69,1.61-1.68,2.09-3.52,2.3-8.81.08-2,.23-8.32.32-14s.21-10.7.26-11.07c.1-.85.53-1.27,1.77-1.73,1.65-.62,1.54,0,1.54-8.24v-7.11h-7.84c-4.89,0-7.95.06-8.13.16-.55.29-.6,1-.57,7.21l0,6,.39.7a3.46,3.46,0,0,0,1.16,1.19c.42.28,1,.67,1.24.88l.46.39,0,13.53c0,15.18.09,14.61-1,15.76-.79.82-1.87,1.41-6.92,3.79-3.44,1.63-4.19,1.93-4.24,1.72s0-1.8.12-3.68.24-7,.33-11.33.22-10.49.3-13.64.2-10.36.26-16l.11-10.28H495l-.1-.34a49.6,49.6,0,0,0-2-4.81,89.53,89.53,0,0,0-4.71-8c-1.16-1.84-2.39-3.82-2.73-4.4Zm-124.5,12.64a12.83,12.83,0,0,0-6.64,1.83,19.37,19.37,0,0,0-6,6.46,14.25,14.25,0,0,0-1.24,4.09,7.63,7.63,0,0,0,.31,3.18,12.5,12.5,0,0,0,2.52,5.69,15.09,15.09,0,0,0,9.56,5.19,19.06,19.06,0,0,0,6.09-.37,12.86,12.86,0,0,0,9.75-14.21,13.74,13.74,0,0,0-8.14-10.54A14.21,14.21,0,0,0,360.31,337.38Zm27.45,23.21a9.14,9.14,0,0,0-6.41,1.89c-2.1,1.56-8.39,10.78-13.08,19.18a77.71,77.71,0,0,0-4.8,10.07c-.7,1.75-1.49,3.6-1.76,4.1a3.48,3.48,0,0,1-2.22,1.89,63.31,63.31,0,0,1-7-.33,17,17,0,0,1,.83-3.69c.2-.61,1.41-3.62,2.69-6.69,3.25-7.82,3.62-9.12,3.65-12.64a12,12,0,0,0-1.31-6.17c-2-4.15-6.06-6.55-11.06-6.55a12.4,12.4,0,0,0-10.63,5.52c-1.87,2.69-4.76,9.86-8,19.76-.64,1.94-2.91,7.78-3.6,9.24a1.51,1.51,0,0,1-.65.67c-.32.15-3.49.19-14,.16-10.83,0-13.73,0-14.35.16a8,8,0,0,0-5.89,5.52,18.67,18.67,0,0,0,.21,6.64,6,6,0,0,0,2.37,2.51c1.57.79,3,.88,12.34.79,4.88-.05,9.19,0,10,.06a25.53,25.53,0,0,1,5,.83c.35.26.71,2.23.73,4s-.37,2.95-1.28,3.78-1.66,1-6.92,1c-4.47,0-4.67,0-5.55.3a10.14,10.14,0,0,0-5.84,6.09,11.75,11.75,0,0,0-.23,5.35,10,10,0,0,0,5.37,6.64c2.2,1.05,3.16,1.22,7.58,1.33s4.62.17,5.16,1.38c.31.71.31.81.13,4.29a68.15,68.15,0,0,0,1.08,16.12c.18.93.7,3.95,1.16,6.71a120.89,120.89,0,0,0,2.74,12.92A172.11,172.11,0,0,0,355.18,545c5.6,7,10.6,12,20.54,20.62,7.47,6.46,10.35,8.53,22.64,16.2,7.22,4.52,7.88,4.85,10.36,5.27a15.25,15.25,0,0,0,9.36-1.79,14.79,14.79,0,0,0,6.12-8.87c.66-2.58.36-4.45-.94-5.89-.64-.7-1.34-1.17-5.21-3.45a95.63,95.63,0,0,1-9.46-6.35c-1.23-1-3.75-2.85-5.58-4.23a114.31,114.31,0,0,1-16.82-15.08c-5.61-6.11-9.2-11-20.53-28-6.32-9.5-7.6-11.69-10.18-17.39-.62-1.37-1.71-3.78-2.44-5.35a109.86,109.86,0,0,1-6.53-18.61c-1.85-7.46-2.58-13.91-2.84-25.05-.09-4.12-.07-4.55.18-5.08a2.67,2.67,0,0,1,.68-.87,8.71,8.71,0,0,1,3.84-.64,30.86,30.86,0,0,1,5.62.65c1,.32,1,.35,1.12,9.28.06,4.52.18,8.29.27,8.69s.55,2.51,1,4.73c3.49,16,5.2,20.65,13.57,36.59a118.06,118.06,0,0,0,12.15,19.22,150.57,150.57,0,0,0,15.87,18,134.62,134.62,0,0,0,15.66,12.34c3.37,2.1,12.54,7,16.57,8.87,11.89,5.48,28,9.05,44.65,9.87a122.43,122.43,0,0,0,18.61-.47c2-.27,11.15-2.23,16.28-3.49a113.71,113.71,0,0,0,35.43-15.31,164.6,164.6,0,0,0,13.26-10c.85-.75,3.69-3.5,6.29-6.11,4.16-4.16,4.81-4.88,5.31-5.84,1.5-2.92,1.37-5.67-.42-9.17-1.44-2.8-2.92-4.26-5.26-5.17a9.87,9.87,0,0,0-4.21-.77c-3.71,0-6,1.3-11.32,6.36-5.72,5.46-8.75,7.7-18.84,14-7.15,4.44-11.08,6.29-17.91,8.42-8.78,2.73-12.66,3.61-19.62,4.44-12.49,1.49-15,1.58-24.34.92-4.33-.31-7.91-1-15.74-3a72.43,72.43,0,0,1-14.11-4.78c-1.28-.58-3.87-1.72-5.75-2.53-10.92-4.74-15.05-7.11-20.92-12a144.66,144.66,0,0,1-14.54-15.25c-1.57-2.09-9.69-14.73-11.54-17.95a92.44,92.44,0,0,1-11.68-35.59c-.4-4.05-.9-12.81-.77-13.31.34-1.21,1-1.4,5.34-1.58,2.77-.11,4.44.06,4.92.5.77.69.8.91.92,6.17a64.74,64.74,0,0,0,2,16.59,83.16,83.16,0,0,0,5.11,14.54c.87,1.91,4.45,8.73,7.3,13.92a84.13,84.13,0,0,0,6.06,9.18,128.87,128.87,0,0,0,13.77,14.42C431.4,527,446.17,533,464.34,534.73a157.35,157.35,0,0,0,17.21-.08c7.45-.67,13.13-1.48,14.28-2,4-2,3.82-8.89-.4-13.46-1.71-1.85-3-2.5-6.16-3.13a13.09,13.09,0,0,0-4.9-.09,24.41,24.41,0,0,1-5.35,0c-7.63-.4-11.34-.66-13.44-1a68.63,68.63,0,0,1-24.11-9c-2.37-1.43-7-4.6-9.64-6.68-2.94-2.27-7-6.63-11.75-12.71s-6.67-9.24-9.05-15.28a66.78,66.78,0,0,1-4.83-18.23c-.95-6.88-1.08-8.44-1.08-12.54a54.44,54.44,0,0,1,1.08-11.31,81.45,81.45,0,0,1,6.92-21.91c2-3.95,3.76-6.47,9.42-13.61,4.4-5.54,4.61-5.83,5.59-7.83,2.43-4.94,2.2-8.16-.86-12a8.16,8.16,0,0,0-4.09-2.89,9,9,0,0,0-3.5-.53c-3.5-.1-4.84.36-7.7,2.62a52.71,52.71,0,0,0-10.09,11.22c-4.81,7.06-7.7,13.91-11.13,26.29-.69,2.52-1.51,5.45-1.81,6.52a58.07,58.07,0,0,1-2.65,7.48c-.22.25-.56.26-4.36.18-2.27-.05-4.35-.16-4.62-.24a.93.93,0,0,1-.63-.55,45.49,45.49,0,0,1,.44-6.87c.1-.73.51-2.65.92-4.27a102.25,102.25,0,0,1,7.74-21.09,105.45,105.45,0,0,1,7-11.94c4.43-6.83,4.78-7.48,5.1-9.47.48-3-1-5.85-4.48-8.25-1.77-1.24-2.51-1.46-5.06-1.54Zm235.66,7.67h-1.87c-5.51,0-6.08.09-6.39.77-.13.29-.18,6.25-.18,22.71,0,12.28-.05,22.32-.12,22.32s-.78-.68-1.81-2.09a22.14,22.14,0,0,0-7-6,26.39,26.39,0,0,0-8-2.37c-1.31-.21-3.22-.27-9.73-.33l-8.1-.07-2.1.41a44.6,44.6,0,0,0-7.67,2.21,23.84,23.84,0,0,0-5.23,2.67c-5.4,3.61-8.35,9.06-9.74,18-.31,2-.51,10.37-.53,21.4,0,14.53.67,21.83,2.58,27.6a20.44,20.44,0,0,0,7.25,10.43,30.16,30.16,0,0,0,6.52,3.29,55.27,55.27,0,0,0,14,2.31c.59,0,3,0,5.35,0a32.08,32.08,0,0,0,9.07-.94A27.7,27.7,0,0,0,611,485.11a28.13,28.13,0,0,0,3.54-4.49,6.06,6.06,0,0,1,1.31-1.54c.12,0,.18,1.62.21,5.43l0,5.38h12.09V429.72c0-52.32,0-60.23-.22-60.61C627.56,368.39,627.26,368.26,623.42,368.26Zm53.43,32.42q-2.77,0-5.61.12a75.66,75.66,0,0,0-14.66,1.72c-8.26,1.78-11.09,3.24-13.59,7A17.63,17.63,0,0,0,640,420c.06,1.92.26,2.5,1,3,.4.27.82.29,5.32.34,4.88,0,4.89,0,5.43-.31s1.27-1.64,2.09-4.08c1-2.87,2-4.28,3.68-5.11.94-.46,4.39-1.08,9.26-1.66a80.75,80.75,0,0,1,14.81-.08c2.78.37,7.41,1.15,8.52,1.44a8,8,0,0,1,5.2,4c.85,1.74,1.69,6.84,2,12.37.16,2.57.08,12.05-.1,12.24a4,4,0,0,1-1-.64,42,42,0,0,0-5-3.3c-2.73-1.38-7.18-2.39-12.64-2.88-3-.27-11.44-.36-14.73-.16-7.37.45-14.71,1.52-17.07,2.51a14.22,14.22,0,0,0-6.06,5c-3.24,4.89-4.69,13.69-3.79,23.08.84,8.7,1.61,12,3.43,14.79,2.26,3.43,4.85,5.09,10.73,6.85a61.76,61.76,0,0,0,14.9,2.4,111.65,111.65,0,0,0,11.58-.17,49.07,49.07,0,0,0,11.46-2.39c3.62-1.27,5.81-2.8,7.49-5.24.37-.52.71-1,.77-1.11s.19-.08.32,0,.26.74.34,2.16c.19,3.51.32,4.24.86,4.73l.48.43,5.3,0,5.31,0,.2-.93c.34-1.53.52-13.83.44-29.7-.07-13.58-.17-19.42-.57-31.51-.27-8.49-.75-12.08-1.93-14.65a13.91,13.91,0,0,0-8.21-7.41A60.25,60.25,0,0,0,692.4,402,90.13,90.13,0,0,0,676.85,400.68Zm40.25,0a10.29,10.29,0,0,0-3.12.24,10.74,10.74,0,0,0,.47,2c.54,1.89,1.88,5.77,13.57,39.44,3.17,9.13,7.75,22.39,10.18,29.47s4.47,13,4.55,13.21a5.74,5.74,0,0,0,3.83,2.61c.37.06.67.16.67.22s-3,7.82-3.79,9.74a57.94,57.94,0,0,1-2.92,5.95,8.69,8.69,0,0,1-5.32,4.39,34.59,34.59,0,0,1-7.47.89h-2.21v11.44h5c7.76,0,9.63-.24,12.29-1.55a19.13,19.13,0,0,0,7-6.74c3.89-5.74,5.6-10.11,18.61-47.71,2-5.66,4.79-13.77,6.29-18s3.57-10.19,4.6-13.18c6.12-17.81,9.75-28.6,10.12-30,.23-.89.46-1.75.5-1.9s-.27-.27-5.67-.27c-4.74,0-5.84,0-6.2.23-.69.36-1.86,3-3.92,8.91-4.3,12.31-11.43,33.12-17.67,51.57-3.16,9.34-4.23,12.17-4.6,12.17-.06,0-2.51-7-5.44-15.54-5.54-16.16-14.12-41.06-17.37-50.42-1-3-2-5.6-2.13-5.84a2.59,2.59,0,0,0-.82-.74c-.51-.29-1-.33-5.13-.47C719.53,400.7,718.19,400.68,717.1,400.68Zm-275.26,3.17a8.19,8.19,0,0,0-4.23,1.26c-3.35,2-7.92,9.22-10.93,17.33a47,47,0,0,0-3.41,17.83,60.57,60.57,0,0,0,1.78,14.09,68.61,68.61,0,0,0,6.57,16.3,52.18,52.18,0,0,0,8.13,9.74c2.17,2,6.51,5.65,7.76,6.58a54,54,0,0,0,17.14,8A76.13,76.13,0,0,0,477.13,497a61,61,0,0,0,10.65-.46,59.8,59.8,0,0,0,10.36-1.63,54.11,54.11,0,0,0,20.94-11,95,95,0,0,0,8.75-8.81,56.43,56.43,0,0,0,8.7-16.55A46,46,0,0,0,539,440c-.54-11.69-2-17.49-6.39-25-2.77-4.73-4.18-6.58-5.95-7.8-3.59-2.47-7.91-2.2-10.58.65a8.23,8.23,0,0,0-2.38,5.85c0,2.15.46,3.39,2.55,6.85a41.76,41.76,0,0,1,6.08,15.95,39.63,39.63,0,0,1,0,9.3,41.68,41.68,0,0,1-30.2,33.57,32.92,32.92,0,0,1-10.6,1.24,37.68,37.68,0,0,1-6.2-.27A41,41,0,0,1,460,474.9a68.75,68.75,0,0,1-8.22-6.18c-4.82-4.47-8.9-11.91-10.51-19.17a39.23,39.23,0,0,1,.6-18.71,39.77,39.77,0,0,1,5.26-11.24c1-1.6,2-3.38,2.34-4,1.6-3.18,1-6.32-1.84-9.11A8.11,8.11,0,0,0,441.84,403.85Zm148.49,10.86a42.82,42.82,0,0,1,5.89.36,33,33,0,0,1,8.07,2.41,25.11,25.11,0,0,1,4.77,3.33,18.45,18.45,0,0,1,5.52,10.78c.37,2.15.74,11.26.77,18.84,0,6.91-.07,8.12-.85,11.94a28.09,28.09,0,0,1-3.6,9.12,18,18,0,0,1-4,3.79,32.52,32.52,0,0,1-12.72,4.21,38.38,38.38,0,0,1-18-2.19c-3-1.18-4.11-2.34-5-5.24-1.43-4.43-1.68-6.48-2.1-17.29-.32-8.4-.06-21.27.54-25.9a30.07,30.07,0,0,1,2.08-8.23,7.57,7.57,0,0,1,3.37-3.32c2-.94,7.51-2.11,11.74-2.49C587.71,414.74,589,414.71,590.33,414.71Zm-242.1,1.43c.74,0,1.69,0,2.9.1,3.58.19,3.83.25,4.2,1.14a6.73,6.73,0,0,1,.24,3.17c-.25.48-1.22.93-2.92,1.36a11.9,11.9,0,0,1-4.3.27,9.62,9.62,0,0,1-2.63-1c-.94-.73-1.14-2-.55-3.58C345.58,416.49,346,416.15,348.23,416.14Zm324.2,29.5a30.33,30.33,0,0,1,4.81.5c1.62.28,4.13.67,5.58.88,7.45,1.08,9.75,1.84,11.63,3.8s2.63,5,2.82,11.24c.12,4.14-.4,6.95-1.65,8.91a10.78,10.78,0,0,1-3.51,3.14c-3.24,1.7-9.12,2.9-15.8,3.22l-4.6.22a49.62,49.62,0,0,1-10.85-1.08c-3.51-.74-4.9-1.42-6.81-3.32-2.67-2.67-3.45-5.29-3.46-11.64,0-6,.93-9.59,3-11.57,1.86-1.74,3.63-2.37,8.67-3.08,1.56-.22,4-.58,5.47-.81A26.39,26.39,0,0,1,672.43,445.64Zm-76.74,62.88a20.77,20.77,0,0,0-9.79,2.18,16.08,16.08,0,0,0-6.43,6l8.22,4.59a7.87,7.87,0,0,1,3-2.8,8.26,8.26,0,0,1,4-1,5.76,5.76,0,0,1,3.75,1.06,3.61,3.61,0,0,1,1.28,3,6.51,6.51,0,0,1-.72,2.91,14.6,14.6,0,0,1-2.85,3.41l-14.66,13.7v6.94H612v-8.78h-15.1l7.38-6.83a22.63,22.63,0,0,0,5.26-6.37,13.59,13.59,0,0,0,1.4-6,10.3,10.3,0,0,0-2-6.26,12,12,0,0,0-5.37-4.2A19.93,19.93,0,0,0,595.69,508.52Zm39.84,0a16.77,16.77,0,0,0-8.95,2.4,16.33,16.33,0,0,0-6.15,7.05,25.23,25.23,0,0,0-2.18,10.9,25.57,25.57,0,0,0,2.18,11,16.33,16.33,0,0,0,6.15,7,17.71,17.71,0,0,0,17.84,0,16,16,0,0,0,6.1-7,25,25,0,0,0,2.23-11,24.65,24.65,0,0,0-2.23-10.9,16,16,0,0,0-6.1-7.05A16.66,16.66,0,0,0,635.53,508.52Zm37.66,0a20.77,20.77,0,0,0-9.79,2.18,16.08,16.08,0,0,0-6.43,6l8.22,4.59a8,8,0,0,1,3-2.8,8.26,8.26,0,0,1,4-1,5.76,5.76,0,0,1,3.75,1.06,3.61,3.61,0,0,1,1.28,3,6.51,6.51,0,0,1-.72,2.91,14.6,14.6,0,0,1-2.85,3.41L659,541.51v6.94h30.47v-8.78h-15.1l7.38-6.83a22.63,22.63,0,0,0,5.26-6.37,13.59,13.59,0,0,0,1.4-6,10.3,10.3,0,0,0-2-6.26,12,12,0,0,0-5.37-4.2A19.93,19.93,0,0,0,673.19,508.52Zm21,.78v8.56h7.27v30.59h11.07V509.3Zm-58.71,8.28a5,5,0,0,1,4.42,2.74c1.12,1.79,1.67,4.64,1.67,8.55s-.55,6.79-1.67,8.62a5,5,0,0,1-4.42,2.68,5.14,5.14,0,0,1-4.53-2.68q-1.62-2.75-1.62-8.62t1.62-8.55A5.11,5.11,0,0,1,635.53,517.58Z" transform="translate(-159.27 -324.74)"/></g></svg>