<svg width="1000" height="280" viewBox="0 0 1000 280" fill="none" xmlns="http://www.w3.org/2000/svg">
<rect x="2.5" y="2.5" width="995" height="275" rx="22.5" fill="white" stroke="url(#paint0_linear)" stroke-width="5"/>
<path d="M172.5 120.5H159.5V159.5H172.5V120.5Z" fill="url(#paint1_linear)"/>
<path fill-rule="evenodd" clip-rule="evenodd" d="M229.097 125.096C227.877 126.315 226.224 127 224.5 127C221.052 127 217.745 128.37 215.308 130.808C212.87 133.246 211.5 136.552 211.5 140C211.5 143.448 212.87 146.754 215.308 149.192C217.745 151.63 221.052 153 224.5 153C226.224 153 227.877 153.685 229.097 154.904C230.315 156.123 231 157.776 231 159.5V192C231 195.448 229.63 198.754 227.192 201.192C224.755 203.63 221.448 205 218 205H62C58.5518 205 55.2451 203.63 52.8076 201.192C50.3701 198.754 49 195.448 49 192V159.5C49 157.776 49.6846 156.123 50.9033 154.904C52.123 153.685 53.7764 153 55.5 153C58.9482 153 62.2549 151.63 64.6924 149.192C67.1299 146.754 68.5 143.448 68.5 140C68.5 136.552 67.1299 133.246 64.6924 130.808C62.2549 128.37 58.9482 127 55.5 127C53.7764 127 52.123 126.315 50.9033 125.096C49.6846 123.877 49 122.224 49 120.5V88C49 84.5522 50.3701 81.2456 52.8076 78.8076C55.2451 76.3696 58.5518 75 62 75H218C221.448 75 224.755 76.3696 227.192 78.8076C229.63 81.2456 231 84.5522 231 88V120.5C231 122.224 230.315 123.877 229.097 125.096ZM218 192V165.155C212.436 163.701 207.511 160.443 203.996 155.891C200.481 151.34 198.574 145.751 198.574 140C198.574 134.249 200.481 128.66 203.996 124.109C207.511 119.557 212.436 116.299 218 114.845V88H172.5V107.5H159.5V88H62V114.845C67.5645 116.299 72.4893 119.557 76.0039 124.109C79.5186 128.66 81.4258 134.249 81.4258 140C81.4258 145.751 79.5186 151.34 76.0039 155.891C72.4893 160.443 67.5645 163.701 62 165.155V192H159.5V172.5H172.5V192H218Z" fill="url(#paint2_linear)"/>
<path d="M410.947 118.2H445.059V126.584H421.059V136.312H442.627V144.696H421.059V154.616H445.763V163H410.947V118.2Z" fill="url(#paint3_linear)"/>
<path d="M451.777 128.632L461.953 128.568L470.081 153.656L478.145 128.568H487.937L474.945 163H464.833L451.777 128.632Z" fill="url(#paint4_linear)"/>
<path d="M509.126 128.248C514.673 128.248 518.876 129.848 521.734 133.048C524.636 136.248 526.086 140.707 526.086 146.424C526.086 147.448 526.065 148.237 526.022 148.792H501.318C501.873 150.968 502.94 152.675 504.518 153.912C506.097 155.107 507.996 155.704 510.214 155.704C511.836 155.704 513.393 155.405 514.886 154.808C516.38 154.168 517.724 153.251 518.918 152.056L524.102 157.304C522.353 159.267 520.22 160.781 517.702 161.848C515.228 162.872 512.454 163.384 509.382 163.384C505.756 163.384 502.577 162.659 499.846 161.208C497.158 159.757 495.068 157.709 493.574 155.064C492.124 152.419 491.398 149.368 491.398 145.912C491.398 142.413 492.145 139.341 493.638 136.696C495.132 134.008 497.222 131.939 499.91 130.488C502.598 128.995 505.67 128.248 509.126 128.248ZM516.806 142.968C516.721 140.707 515.996 138.893 514.63 137.528C513.265 136.163 511.452 135.48 509.19 135.48C507.057 135.48 505.265 136.163 503.814 137.528C502.406 138.851 501.51 140.664 501.126 142.968H516.806Z" fill="url(#paint5_linear)"/>
<path d="M557.49 128.184C561.33 128.184 564.38 129.379 566.642 131.768C568.946 134.157 570.098 137.357 570.098 141.368V163H560.242V144.248C560.242 142.072 559.623 140.365 558.386 139.128C557.191 137.848 555.548 137.208 553.458 137.208C551.026 137.251 549.106 138.104 547.698 139.768C546.29 141.389 545.586 143.48 545.586 146.04V163H535.73V128.568H545.586V134.584C547.975 130.403 551.943 128.269 557.49 128.184Z" fill="url(#paint6_linear)"/>
<path d="M603.117 161.08C601.837 161.848 600.407 162.445 598.829 162.872C597.293 163.256 595.735 163.448 594.157 163.448C590.957 163.448 588.354 162.531 586.349 160.696C584.343 158.861 583.341 156.237 583.341 152.824V136.888H578.541V130.104H583.341V120.632H593.133V130.104H602.477V136.952H593.133V151.16C593.133 153.805 594.178 155.128 596.269 155.128C597.719 155.128 599.319 154.701 601.069 153.848L603.117 161.08Z" fill="url(#paint7_linear)"/>
<path d="M626.231 118.2H663.671V126.776H649.975V163H639.863V126.776H626.231V118.2Z" fill="url(#paint8_linear)"/>
<path d="M672.092 128.568H681.948V163H672.092V128.568ZM676.956 113.272C678.535 113.272 679.815 113.784 680.796 114.808C681.82 115.832 682.332 117.155 682.332 118.776C682.332 120.397 681.82 121.72 680.796 122.744C679.815 123.768 678.535 124.28 676.956 124.28C675.42 124.28 674.14 123.768 673.116 122.744C672.135 121.677 671.644 120.355 671.644 118.776C671.644 117.155 672.135 115.832 673.116 114.808C674.14 113.784 675.42 113.272 676.956 113.272Z" fill="url(#paint9_linear)"/>
<path d="M717.581 140.28C715.618 137.848 713.058 136.632 709.901 136.632C707.426 136.632 705.399 137.485 703.821 139.192C702.285 140.856 701.517 143.075 701.517 145.848C701.517 148.621 702.285 150.883 703.821 152.632C705.357 154.339 707.319 155.192 709.709 155.192C713.293 155.192 715.959 153.848 717.709 151.16L724.493 155.768C723.042 158.2 720.994 160.077 718.349 161.4C715.746 162.723 712.695 163.384 709.197 163.384C705.741 163.384 702.69 162.659 700.045 161.208C697.399 159.757 695.33 157.709 693.837 155.064C692.386 152.419 691.661 149.368 691.661 145.912C691.661 142.413 692.386 139.341 693.837 136.696C695.33 134.008 697.399 131.939 700.045 130.488C702.733 128.995 705.826 128.248 709.325 128.248C712.61 128.248 715.533 128.888 718.093 130.168C720.653 131.405 722.701 133.176 724.237 135.48L717.581 140.28Z" fill="url(#paint10_linear)"/>
<path d="M756.779 163L748.459 148.984L744.043 153.656V163H734.187V115.512H744.043V141.624L756.651 128.632H767.851L755.243 141.88L768.427 163H756.779Z" fill="url(#paint11_linear)"/>
<path d="M789.726 128.248C795.273 128.248 799.476 129.848 802.334 133.048C805.236 136.248 806.686 140.707 806.686 146.424C806.686 147.448 806.665 148.237 806.622 148.792H781.918C782.473 150.968 783.54 152.675 785.118 153.912C786.697 155.107 788.596 155.704 790.814 155.704C792.436 155.704 793.993 155.405 795.486 154.808C796.98 154.168 798.324 153.251 799.518 152.056L804.702 157.304C802.953 159.267 800.82 160.781 798.302 161.848C795.828 162.872 793.054 163.384 789.982 163.384C786.356 163.384 783.177 162.659 780.446 161.208C777.758 159.757 775.668 157.709 774.174 155.064C772.724 152.419 771.998 149.368 771.998 145.912C771.998 142.413 772.745 139.341 774.238 136.696C775.732 134.008 777.822 131.939 780.51 130.488C783.198 128.995 786.27 128.248 789.726 128.248ZM797.406 142.968C797.321 140.707 796.596 138.893 795.23 137.528C793.865 136.163 792.052 135.48 789.79 135.48C787.657 135.48 785.865 136.163 784.414 137.528C783.006 138.851 782.11 140.664 781.726 142.968H797.406Z" fill="url(#paint12_linear)"/>
<path d="M837.642 161.08C836.362 161.848 834.932 162.445 833.354 162.872C831.818 163.256 830.26 163.448 828.682 163.448C825.482 163.448 822.879 162.531 820.874 160.696C818.868 158.861 817.866 156.237 817.866 152.824V136.888H813.066V130.104H817.866V120.632H827.658V130.104H837.002V136.952H827.658V151.16C827.658 153.805 828.703 155.128 830.794 155.128C832.244 155.128 833.844 154.701 835.594 153.848L837.642 161.08Z" fill="url(#paint13_linear)"/>
<path d="M868.476 138.68C866.598 137.613 864.742 136.803 862.908 136.248C861.073 135.651 859.43 135.352 857.98 135.352C856.785 135.352 855.825 135.565 855.1 135.992C854.374 136.419 854.012 137.059 854.012 137.912C854.012 138.851 854.502 139.576 855.484 140.088C856.465 140.6 858.065 141.176 860.284 141.816C862.716 142.541 864.721 143.267 866.3 143.992C867.878 144.675 869.244 145.72 870.396 147.128C871.548 148.493 872.124 150.307 872.124 152.568C872.124 155.981 870.801 158.648 868.156 160.568C865.553 162.445 862.204 163.384 858.108 163.384C855.292 163.384 852.582 162.979 849.98 162.168C847.377 161.315 845.116 160.12 843.196 158.584L846.396 151.928C848.145 153.293 850.086 154.36 852.22 155.128C854.396 155.853 856.444 156.216 858.364 156.216C859.686 156.216 860.732 156.003 861.5 155.576C862.31 155.107 862.716 154.424 862.716 153.528C862.716 152.547 862.204 151.779 861.18 151.224C860.198 150.669 858.598 150.072 856.38 149.432C854.033 148.749 852.07 148.067 850.492 147.384C848.956 146.701 847.633 145.677 846.524 144.312C845.414 142.904 844.86 141.091 844.86 138.872C844.86 135.459 846.14 132.813 848.7 130.936C851.26 129.059 854.502 128.12 858.428 128.12C860.774 128.12 863.121 128.461 865.468 129.144C867.814 129.784 869.948 130.723 871.868 131.96L868.476 138.68Z" fill="url(#paint14_linear)"/>
<defs>
<linearGradient id="paint0_linear" x1="200" y1="-208.627" x2="1312.23" y2="125.936" gradientUnits="userSpaceOnUse">
<stop stop-color="#2E847B"/>
<stop offset="0.46875" stop-color="#2A9CBE"/>
<stop offset="0.989583" stop-color="#FCC805"/>
</linearGradient>
<linearGradient id="paint1_linear" x1="85.4" y1="-21.8627" x2="303.115" y2="3.80915" gradientUnits="userSpaceOnUse">
<stop stop-color="#2E847B"/>
<stop offset="0.46875" stop-color="#2A9CBE"/>
<stop offset="0.989583" stop-color="#FCC805"/>
</linearGradient>
<linearGradient id="paint2_linear" x1="85.4" y1="-21.8627" x2="303.115" y2="3.80915" gradientUnits="userSpaceOnUse">
<stop stop-color="#2E847B"/>
<stop offset="0.46875" stop-color="#2A9CBE"/>
<stop offset="0.989583" stop-color="#FCC805"/>
</linearGradient>
<linearGradient id="paint3_linear" x1="503.182" y1="75.8859" x2="852.932" y2="346.638" gradientUnits="userSpaceOnUse">
<stop stop-color="#2E847B"/>
<stop offset="0.46875" stop-color="#2A9CBE"/>
<stop offset="0.989583" stop-color="#FCC805"/>
</linearGradient>
<linearGradient id="paint4_linear" x1="503.182" y1="75.8859" x2="852.932" y2="346.638" gradientUnits="userSpaceOnUse">
<stop stop-color="#2E847B"/>
<stop offset="0.46875" stop-color="#2A9CBE"/>
<stop offset="0.989583" stop-color="#FCC805"/>
</linearGradient>
<linearGradient id="paint5_linear" x1="503.182" y1="75.8859" x2="852.932" y2="346.638" gradientUnits="userSpaceOnUse">
<stop stop-color="#2E847B"/>
<stop offset="0.46875" stop-color="#2A9CBE"/>
<stop offset="0.989583" stop-color="#FCC805"/>
</linearGradient>
<linearGradient id="paint6_linear" x1="503.182" y1="75.8859" x2="852.932" y2="346.638" gradientUnits="userSpaceOnUse">
<stop stop-color="#2E847B"/>
<stop offset="0.46875" stop-color="#2A9CBE"/>
<stop offset="0.989583" stop-color="#FCC805"/>
</linearGradient>
<linearGradient id="paint7_linear" x1="503.182" y1="75.8859" x2="852.932" y2="346.638" gradientUnits="userSpaceOnUse">
<stop stop-color="#2E847B"/>
<stop offset="0.46875" stop-color="#2A9CBE"/>
<stop offset="0.989583" stop-color="#FCC805"/>
</linearGradient>
<linearGradient id="paint8_linear" x1="503.182" y1="75.8859" x2="852.932" y2="346.638" gradientUnits="userSpaceOnUse">
<stop stop-color="#2E847B"/>
<stop offset="0.46875" stop-color="#2A9CBE"/>
<stop offset="0.989583" stop-color="#FCC805"/>
</linearGradient>
<linearGradient id="paint9_linear" x1="503.182" y1="75.8859" x2="852.932" y2="346.638" gradientUnits="userSpaceOnUse">
<stop stop-color="#2E847B"/>
<stop offset="0.46875" stop-color="#2A9CBE"/>
<stop offset="0.989583" stop-color="#FCC805"/>
</linearGradient>
<linearGradient id="paint10_linear" x1="503.182" y1="75.8859" x2="852.932" y2="346.638" gradientUnits="userSpaceOnUse">
<stop stop-color="#2E847B"/>
<stop offset="0.46875" stop-color="#2A9CBE"/>
<stop offset="0.989583" stop-color="#FCC805"/>
</linearGradient>
<linearGradient id="paint11_linear" x1="503.182" y1="75.8859" x2="852.932" y2="346.638" gradientUnits="userSpaceOnUse">
<stop stop-color="#2E847B"/>
<stop offset="0.46875" stop-color="#2A9CBE"/>
<stop offset="0.989583" stop-color="#FCC805"/>
</linearGradient>
<linearGradient id="paint12_linear" x1="503.182" y1="75.8859" x2="852.932" y2="346.638" gradientUnits="userSpaceOnUse">
<stop stop-color="#2E847B"/>
<stop offset="0.46875" stop-color="#2A9CBE"/>
<stop offset="0.989583" stop-color="#FCC805"/>
</linearGradient>
<linearGradient id="paint13_linear" x1="503.182" y1="75.8859" x2="852.932" y2="346.638" gradientUnits="userSpaceOnUse">
<stop stop-color="#2E847B"/>
<stop offset="0.46875" stop-color="#2A9CBE"/>
<stop offset="0.989583" stop-color="#FCC805"/>
</linearGradient>
<linearGradient id="paint14_linear" x1="503.182" y1="75.8859" x2="852.932" y2="346.638" gradientUnits="userSpaceOnUse">
<stop stop-color="#2E847B"/>
<stop offset="0.46875" stop-color="#2A9CBE"/>
<stop offset="0.989583" stop-color="#FCC805"/>
</linearGradient>
</defs>
</svg>
