<svg width="1164" height="809" viewBox="0 0 1164 809" fill="none" xmlns="http://www.w3.org/2000/svg">
<rect width="1164" height="809" fill="white"/>
<rect x="132.5" y="209.987" width="275" height="355" rx="22.5" fill="white" stroke="url(#paint0_linear)" stroke-width="5"/>
<path d="M130 507.487H410V542.487C410 556.294 398.807 567.487 385 567.487H155C141.193 567.487 130 556.294 130 542.487V507.487Z" fill="url(#paint1_linear)"/>
<path d="M176.265 334.663H180.657V351.487H176.265V334.663Z" fill="url(#paint2_linear)"/>
<path d="M185.129 334.663H189.521V347.743H196.649V351.487H185.129V334.663Z" fill="url(#paint3_linear)"/>
<path d="M216.028 351.487H210.772L206.356 344.959L204.244 347.311V351.487H199.852V334.663H204.244V341.959L210.556 334.663H215.644L209.404 341.599L216.028 351.487Z" fill="url(#paint4_linear)"/>
<path d="M226.576 334.399C228.288 334.399 229.832 334.775 231.208 335.527C232.6 336.279 233.688 337.311 234.472 338.623C235.272 339.935 235.672 341.407 235.672 343.039C235.672 344.687 235.272 346.175 234.472 347.503C233.688 348.831 232.6 349.879 231.208 350.647C229.832 351.415 228.288 351.799 226.576 351.799C224.864 351.799 223.312 351.423 221.92 350.671C220.544 349.903 219.456 348.855 218.656 347.527C217.872 346.183 217.48 344.687 217.48 343.039C217.48 341.407 217.872 339.935 218.656 338.623C219.456 337.311 220.544 336.279 221.92 335.527C223.312 334.775 224.864 334.399 226.576 334.399ZM226.624 338.119C225.792 338.119 225.016 338.335 224.296 338.767C223.592 339.199 223.032 339.799 222.616 340.567C222.2 341.319 221.992 342.151 221.992 343.063C221.992 343.991 222.2 344.839 222.616 345.607C223.048 346.359 223.616 346.959 224.32 347.407C225.024 347.839 225.792 348.055 226.624 348.055C227.456 348.055 228.216 347.839 228.904 347.407C229.608 346.959 230.16 346.359 230.56 345.607C230.96 344.839 231.16 343.991 231.16 343.063C231.16 342.151 230.96 341.319 230.56 340.567C230.16 339.799 229.608 339.199 228.904 338.767C228.216 338.335 227.456 338.119 226.624 338.119Z" fill="url(#paint5_linear)"/>
<path d="M239.049 334.663H243.825L248.697 344.503L253.545 334.663H258.321V351.487H254.433L254.409 340.831L250.113 349.807H247.281L242.961 340.831V351.487H239.049V334.663Z" fill="url(#paint6_linear)"/>
<path d="M262.796 334.663H267.572L272.444 344.503L277.292 334.663H282.068V351.487H278.18L278.156 340.831L273.86 349.807H271.028L266.708 340.831V351.487H262.796V334.663Z" fill="url(#paint7_linear)"/>
<path d="M290.647 344.551C290.647 345.607 290.959 346.455 291.583 347.095C292.207 347.735 292.999 348.055 293.959 348.055C294.903 348.055 295.663 347.743 296.239 347.119C296.831 346.479 297.127 345.623 297.127 344.551V334.663H301.519V344.551C301.519 346.007 301.207 347.287 300.583 348.391C299.975 349.479 299.095 350.319 297.943 350.911C296.807 351.503 295.471 351.799 293.935 351.799C292.399 351.799 291.047 351.503 289.879 350.911C288.727 350.319 287.831 349.479 287.191 348.391C286.567 347.287 286.255 346.007 286.255 344.551V334.663H290.647V344.551Z" fill="url(#paint8_linear)"/>
<path d="M317.215 334.663H321.295V351.487H317.455L309.823 341.431V351.487H305.719V334.663H309.583L317.239 344.791L317.215 334.663Z" fill="url(#paint9_linear)"/>
<path d="M325.787 334.663H330.179V351.487H325.787V334.663Z" fill="url(#paint10_linear)"/>
<path d="M333.187 334.663H347.611V338.287H342.571V351.487H338.179V338.287H333.187V334.663Z" fill="url(#paint11_linear)"/>
<path d="M365.497 334.663L359.425 346.111V351.487H355.033V346.231L348.841 334.663H353.233L357.217 341.887L361.105 334.663H365.497Z" fill="url(#paint12_linear)"/>
<path d="M206.088 363.663C207.848 363.663 209.4 364.015 210.744 364.719C212.104 365.423 213.16 366.415 213.912 367.695C214.664 368.959 215.04 370.415 215.04 372.063C215.04 373.711 214.656 375.175 213.888 376.455C213.136 377.735 212.064 378.727 210.672 379.431C209.296 380.135 207.712 380.487 205.92 380.487H198.84V363.663H206.088ZM206.208 376.935C207.056 376.935 207.808 376.735 208.464 376.335C209.12 375.935 209.632 375.367 210 374.631C210.368 373.895 210.552 373.055 210.552 372.111C210.552 371.151 210.352 370.303 209.952 369.567C209.568 368.831 209.032 368.263 208.344 367.863C207.656 367.447 206.872 367.239 205.992 367.239H203.232V376.935H206.208Z" fill="url(#paint13_linear)"/>
<path d="M218.415 363.663H231.687V367.167H222.807V370.311H230.823V373.791L222.807 373.815V376.983H231.927V380.487H218.415V363.663Z" fill="url(#paint14_linear)"/>
<path d="M234.13 363.663H238.858L243.058 375.831L247.282 363.663H251.794L245.218 380.487H240.658L234.13 363.663Z" fill="url(#paint15_linear)"/>
<path d="M259.645 363.663H274.069V367.287H269.029V380.487H264.637V367.287H259.645V363.663Z" fill="url(#paint16_linear)"/>
<path d="M287.606 380.487L286.454 377.511H279.182L278.006 380.487H273.494L280.718 363.663H285.23L292.286 380.487H287.606ZM280.502 374.151H285.158L282.854 368.151L280.502 374.151Z" fill="url(#paint17_linear)"/>
<path d="M295.009 363.663H299.401V376.743H306.529V380.487H295.009V363.663Z" fill="url(#paint18_linear)"/>
<path d="M325.908 380.487H320.652L316.236 373.959L314.124 376.311V380.487H309.732V363.663H314.124V370.959L320.436 363.663H325.524L319.284 370.599L325.908 380.487Z" fill="url(#paint19_linear)"/>
<path d="M340.501 368.727C339.605 368.199 338.645 367.767 337.621 367.431C336.613 367.095 335.765 366.927 335.077 366.927C334.533 366.927 334.101 367.031 333.781 367.239C333.477 367.431 333.325 367.719 333.325 368.103C333.325 368.471 333.461 368.783 333.733 369.039C334.005 369.279 334.341 369.479 334.741 369.639C335.141 369.783 335.733 369.975 336.517 370.215C337.685 370.551 338.645 370.887 339.397 371.223C340.165 371.559 340.821 372.079 341.365 372.783C341.909 373.471 342.181 374.375 342.181 375.495C342.181 376.615 341.885 377.575 341.293 378.375C340.701 379.159 339.885 379.751 338.845 380.151C337.821 380.551 336.677 380.751 335.413 380.751C334.021 380.751 332.629 380.511 331.237 380.031C329.861 379.535 328.669 378.863 327.661 378.015L329.365 374.583C330.213 375.335 331.213 375.951 332.365 376.431C333.533 376.911 334.565 377.151 335.461 377.151C336.117 377.151 336.629 377.031 336.997 376.791C337.381 376.551 337.573 376.199 337.573 375.735C337.573 375.351 337.429 375.031 337.141 374.775C336.869 374.519 336.517 374.319 336.085 374.175C335.669 374.015 335.077 373.831 334.309 373.623C333.157 373.303 332.205 372.983 331.453 372.663C330.701 372.327 330.053 371.831 329.509 371.175C328.981 370.503 328.717 369.615 328.717 368.511C328.717 367.471 328.989 366.559 329.533 365.775C330.093 364.991 330.877 364.391 331.885 363.975C332.909 363.543 334.093 363.327 335.437 363.327C336.653 363.327 337.853 363.503 339.037 363.855C340.221 364.191 341.261 364.647 342.157 365.223L340.501 368.727Z" fill="url(#paint20_linear)"/>
<path d="M235.716 545.987L233.268 541.331H230.004V545.987H225.612V529.163H233.172C235.396 529.163 237.116 529.683 238.332 530.723C239.564 531.747 240.18 533.195 240.18 535.067C240.18 536.331 239.924 537.427 239.412 538.355C238.9 539.267 238.156 539.979 237.18 540.491L240.684 545.987H235.716ZM230.004 537.827H233.196C234.092 537.827 234.78 537.603 235.26 537.155C235.756 536.707 236.004 536.059 236.004 535.211C236.004 534.395 235.756 533.771 235.26 533.339C234.78 532.891 234.092 532.667 233.196 532.667H230.004V537.827Z" fill="white"/>
<path d="M251.572 529.163C253.716 529.163 255.38 529.683 256.564 530.723C257.748 531.747 258.34 533.195 258.34 535.067C258.34 537.051 257.748 538.595 256.564 539.699C255.38 540.787 253.716 541.331 251.572 541.331H248.572V545.987H244.18V529.163H251.572ZM251.356 537.827C252.252 537.827 252.94 537.603 253.42 537.155C253.916 536.707 254.164 536.059 254.164 535.211C254.164 534.395 253.916 533.771 253.42 533.339C252.94 532.891 252.252 532.667 251.356 532.667H248.572V537.827H251.356Z" fill="white"/>
<path d="M280.308 542.459V545.987H267.492L267.468 543.083L273.588 536.795C274.068 536.299 274.46 535.803 274.764 535.307C275.068 534.811 275.22 534.387 275.22 534.035C275.22 533.571 275.052 533.219 274.716 532.979C274.38 532.723 273.908 532.595 273.3 532.595C272.628 532.595 271.876 532.787 271.044 533.171C270.228 533.539 269.436 534.059 268.668 534.731L266.988 531.491C269.308 529.811 271.636 528.971 273.972 528.971C275.092 528.971 276.092 529.155 276.972 529.523C277.868 529.891 278.564 530.411 279.06 531.083C279.572 531.755 279.828 532.523 279.828 533.387C279.828 534.251 279.54 535.147 278.964 536.075C278.404 536.987 277.604 537.963 276.564 539.003L273.132 542.459H280.308Z" fill="white"/>
<path d="M296.04 542.459V545.987H283.224L283.2 543.083L289.32 536.795C289.8 536.299 290.192 535.803 290.496 535.307C290.8 534.811 290.952 534.387 290.952 534.035C290.952 533.571 290.784 533.219 290.448 532.979C290.112 532.723 289.64 532.595 289.032 532.595C288.36 532.595 287.608 532.787 286.776 533.171C285.96 533.539 285.168 534.059 284.4 534.731L282.72 531.491C285.04 529.811 287.368 528.971 289.704 528.971C290.824 528.971 291.824 529.155 292.704 529.523C293.6 529.891 294.296 530.411 294.792 531.083C295.304 531.755 295.56 532.523 295.56 533.387C295.56 534.251 295.272 535.147 294.696 536.075C294.136 536.987 293.336 537.963 292.296 539.003L288.864 542.459H296.04Z" fill="white"/>
<path d="M315.851 545.987H310.595L306.179 539.459L304.067 541.811V545.987H299.675V529.163H304.067V536.459L310.379 529.163H315.467L309.227 536.099L315.851 545.987Z" fill="white"/>
<rect x="428.5" y="209.987" width="275" height="355" rx="22.5" fill="white" stroke="url(#paint21_linear)" stroke-width="5"/>
<path d="M426 507.487H706V542.487C706 556.294 694.807 567.487 681 567.487H451C437.193 567.487 426 556.294 426 542.487V507.487Z" fill="url(#paint22_linear)"/>
<path d="M470.726 334.687H474.614V351.487H470.726V334.687Z" fill="url(#paint23_linear)"/>
<path d="M479.801 334.687H483.689V348.319H492.113V351.487H479.801V334.687Z" fill="url(#paint24_linear)"/>
<path d="M501.606 344.887L499.35 347.239V351.487H495.486V334.687H499.35V342.535L506.79 334.687H511.11L504.15 342.175L511.518 351.487H506.982L501.606 344.887Z" fill="url(#paint25_linear)"/>
<path d="M521.978 351.775C520.234 351.775 518.658 351.399 517.25 350.647C515.858 349.895 514.762 348.863 513.962 347.551C513.178 346.223 512.786 344.735 512.786 343.087C512.786 341.439 513.178 339.959 513.962 338.647C514.762 337.319 515.858 336.279 517.25 335.527C518.658 334.775 520.234 334.399 521.978 334.399C523.722 334.399 525.29 334.775 526.682 335.527C528.074 336.279 529.17 337.319 529.97 338.647C530.77 339.959 531.17 341.439 531.17 343.087C531.17 344.735 530.77 346.223 529.97 347.551C529.17 348.863 528.074 349.895 526.682 350.647C525.29 351.399 523.722 351.775 521.978 351.775ZM521.978 348.463C522.97 348.463 523.866 348.239 524.666 347.791C525.466 347.327 526.09 346.687 526.538 345.871C527.002 345.055 527.234 344.127 527.234 343.087C527.234 342.047 527.002 341.119 526.538 340.303C526.09 339.487 525.466 338.855 524.666 338.407C523.866 337.943 522.97 337.711 521.978 337.711C520.986 337.711 520.09 337.943 519.29 338.407C518.49 338.855 517.858 339.487 517.394 340.303C516.946 341.119 516.722 342.047 516.722 343.087C516.722 344.127 516.946 345.055 517.394 345.871C517.858 346.687 518.49 347.327 519.29 347.791C520.09 348.239 520.986 348.463 521.978 348.463Z" fill="url(#paint26_linear)"/>
<path d="M550.58 351.487L550.556 341.407L545.612 349.711H543.86L538.94 341.623V351.487H535.292V334.687H538.508L544.796 345.127L550.988 334.687H554.18L554.228 351.487H550.58Z" fill="url(#paint27_linear)"/>
<path d="M574.702 351.487L574.678 341.407L569.734 349.711H567.982L563.062 341.623V351.487H559.414V334.687H562.63L568.918 345.127L575.11 334.687H578.302L578.35 351.487H574.702Z" fill="url(#paint28_linear)"/>
<path d="M591 351.775C588.6 351.775 586.728 351.111 585.384 349.783C584.056 348.455 583.392 346.559 583.392 344.095V334.687H587.28V343.951C587.28 346.959 588.528 348.463 591.024 348.463C592.24 348.463 593.168 348.103 593.808 347.383C594.448 346.647 594.768 345.503 594.768 343.951V334.687H598.608V344.095C598.608 346.559 597.936 348.455 596.592 349.783C595.264 351.111 593.4 351.775 591 351.775Z" fill="url(#paint29_linear)"/>
<path d="M619.058 334.687V351.487H615.866L607.49 341.287V351.487H603.65V334.687H606.866L615.218 344.887V334.687H619.058Z" fill="url(#paint30_linear)"/>
<path d="M624.233 334.687H628.121V351.487H624.233V334.687Z" fill="url(#paint31_linear)"/>
<path d="M636.788 337.855H631.412V334.687H646.052V337.855H640.676V351.487H636.788V337.855Z" fill="url(#paint32_linear)"/>
<path d="M657.103 345.535V351.487H653.215V345.487L646.711 334.687H650.839L655.327 342.151L659.815 334.687H663.631L657.103 345.535Z" fill="url(#paint33_linear)"/>
<path d="M527.06 376.887H519.26L517.772 380.487H513.788L521.276 363.687H525.116L532.628 380.487H528.548L527.06 376.887ZM525.836 373.935L523.172 367.503L520.508 373.935H525.836Z" fill="url(#paint34_linear)"/>
<path d="M546.688 371.823H550.24V378.639C549.328 379.327 548.272 379.855 547.072 380.223C545.872 380.591 544.664 380.775 543.448 380.775C541.704 380.775 540.136 380.407 538.744 379.671C537.352 378.919 536.256 377.887 535.456 376.575C534.672 375.247 534.28 373.751 534.28 372.087C534.28 370.423 534.672 368.935 535.456 367.623C536.256 366.295 537.36 365.263 538.768 364.527C540.176 363.775 541.76 363.399 543.52 363.399C544.992 363.399 546.328 363.647 547.528 364.143C548.728 364.639 549.736 365.359 550.552 366.303L548.056 368.607C546.856 367.343 545.408 366.711 543.712 366.711C542.64 366.711 541.688 366.935 540.856 367.383C540.024 367.831 539.376 368.463 538.912 369.279C538.448 370.095 538.216 371.031 538.216 372.087C538.216 373.127 538.448 374.055 538.912 374.871C539.376 375.687 540.016 376.327 540.832 376.791C541.664 377.239 542.608 377.463 543.664 377.463C544.784 377.463 545.792 377.223 546.688 376.743V371.823Z" fill="url(#paint35_linear)"/>
<path d="M565.756 380.487L562.516 375.807H558.94V380.487H555.052V363.687H562.324C563.812 363.687 565.1 363.935 566.188 364.431C567.292 364.927 568.14 365.631 568.732 366.543C569.324 367.455 569.62 368.535 569.62 369.783C569.62 371.031 569.316 372.111 568.708 373.023C568.116 373.919 567.268 374.607 566.164 375.087L569.932 380.487H565.756ZM565.684 369.783C565.684 368.839 565.38 368.119 564.772 367.623C564.164 367.111 563.276 366.855 562.108 366.855H558.94V372.711H562.108C563.276 372.711 564.164 372.455 564.772 371.943C565.38 371.431 565.684 370.711 565.684 369.783Z" fill="url(#paint36_linear)"/>
<path d="M573.901 363.687H577.789V380.487H573.901V363.687Z" fill="url(#paint37_linear)"/>
<path d="M590.44 380.775C588.04 380.775 586.168 380.111 584.824 378.783C583.496 377.455 582.832 375.559 582.832 373.095V363.687H586.72V372.951C586.72 375.959 587.968 377.463 590.464 377.463C591.68 377.463 592.608 377.103 593.248 376.383C593.888 375.647 594.208 374.503 594.208 372.951V363.687H598.048V373.095C598.048 375.559 597.376 377.455 596.032 378.783C594.704 380.111 592.84 380.775 590.44 380.775Z" fill="url(#paint38_linear)"/>
<path d="M613.439 380.487L609.383 374.655L605.399 380.487H600.935L607.151 371.943L601.247 363.687H605.663L609.527 369.135L613.319 363.687H617.519L611.663 371.799L617.927 380.487H613.439Z" fill="url(#paint39_linear)"/>
<path d="M530.602 545.987L527.362 541.307H523.786V545.987H519.898V529.187H527.17C528.658 529.187 529.946 529.435 531.034 529.931C532.138 530.427 532.986 531.131 533.578 532.043C534.17 532.955 534.466 534.035 534.466 535.283C534.466 536.531 534.162 537.611 533.554 538.523C532.962 539.419 532.114 540.107 531.01 540.587L534.778 545.987H530.602ZM530.53 535.283C530.53 534.339 530.226 533.619 529.618 533.123C529.01 532.611 528.122 532.355 526.954 532.355H523.786V538.211H526.954C528.122 538.211 529.01 537.955 529.618 537.443C530.226 536.931 530.53 536.211 530.53 535.283Z" fill="white"/>
<path d="M546.019 529.187C547.507 529.187 548.795 529.435 549.883 529.931C550.987 530.427 551.835 531.131 552.427 532.043C553.019 532.955 553.315 534.035 553.315 535.283C553.315 536.515 553.019 537.595 552.427 538.523C551.835 539.435 550.987 540.139 549.883 540.635C548.795 541.115 547.507 541.355 546.019 541.355H542.635V545.987H538.747V529.187H546.019ZM545.803 538.187C546.971 538.187 547.859 537.939 548.467 537.443C549.075 536.931 549.379 536.211 549.379 535.283C549.379 534.339 549.075 533.619 548.467 533.123C547.859 532.611 546.971 532.355 545.803 532.355H542.635V538.187H545.803Z" fill="white"/>
<path d="M577.018 542.819V545.987H564.322V543.467L570.802 537.347C571.49 536.691 571.954 536.131 572.194 535.667C572.434 535.187 572.554 534.715 572.554 534.251C572.554 533.579 572.322 533.067 571.858 532.715C571.41 532.347 570.746 532.163 569.866 532.163C569.13 532.163 568.466 532.307 567.874 532.595C567.282 532.867 566.786 533.283 566.386 533.843L563.554 532.019C564.21 531.043 565.114 530.283 566.266 529.739C567.418 529.179 568.738 528.899 570.226 528.899C571.474 528.899 572.562 529.107 573.49 529.523C574.434 529.923 575.162 530.499 575.674 531.251C576.202 531.987 576.466 532.859 576.466 533.867C576.466 534.779 576.274 535.635 575.89 536.435C575.506 537.235 574.762 538.147 573.658 539.171L569.794 542.819H577.018Z" fill="white"/>
<path d="M586.975 546.275C585.583 546.275 584.343 545.931 583.255 545.243C582.167 544.555 581.311 543.563 580.687 542.267C580.079 540.955 579.775 539.395 579.775 537.587C579.775 535.779 580.079 534.227 580.687 532.931C581.311 531.619 582.167 530.619 583.255 529.931C584.343 529.243 585.583 528.899 586.975 528.899C588.367 528.899 589.607 529.243 590.695 529.931C591.783 530.619 592.631 531.619 593.239 532.931C593.863 534.227 594.175 535.779 594.175 537.587C594.175 539.395 593.863 540.955 593.239 542.267C592.631 543.563 591.783 544.555 590.695 545.243C589.607 545.931 588.367 546.275 586.975 546.275ZM586.975 542.987C587.999 542.987 588.799 542.547 589.375 541.667C589.967 540.787 590.263 539.427 590.263 537.587C590.263 535.747 589.967 534.387 589.375 533.507C588.799 532.627 587.999 532.187 586.975 532.187C585.967 532.187 585.167 532.627 584.575 533.507C583.999 534.387 583.711 535.747 583.711 537.587C583.711 539.427 583.999 540.787 584.575 541.667C585.167 542.547 585.967 542.987 586.975 542.987Z" fill="white"/>
<path d="M604.44 539.387L602.184 541.739V545.987H598.32V529.187H602.184V537.035L609.624 529.187H613.944L606.984 536.675L614.352 545.987H609.816L604.44 539.387Z" fill="white"/>
<rect x="756.5" y="209.987" width="275" height="355" rx="22.5" fill="white" stroke="url(#paint40_linear)" stroke-width="5"/>
<path d="M754 507.487H1034V542.487C1034 556.294 1022.81 567.487 1009 567.487H779C765.193 567.487 754 556.294 754 542.487V507.487Z" fill="url(#paint41_linear)"/>
<path d="M786.515 334.687H794.147C795.971 334.687 797.579 335.039 798.971 335.743C800.379 336.431 801.467 337.407 802.235 338.671C803.019 339.935 803.411 341.407 803.411 343.087C803.411 344.767 803.019 346.239 802.235 347.503C801.467 348.767 800.379 349.751 798.971 350.455C797.579 351.143 795.971 351.487 794.147 351.487H786.515V334.687ZM793.955 348.295C795.635 348.295 796.971 347.831 797.963 346.903C798.971 345.959 799.475 344.687 799.475 343.087C799.475 341.487 798.971 340.223 797.963 339.295C796.971 338.351 795.635 337.879 793.955 337.879H790.403V348.295H793.955Z" fill="url(#paint42_linear)"/>
<path d="M820.551 348.367V351.487H807.543V334.687H820.239V337.807H811.407V341.455H819.207V344.479H811.407V348.367H820.551Z" fill="url(#paint43_linear)"/>
<path d="M830.364 351.775C829.036 351.775 827.748 351.599 826.5 351.247C825.268 350.879 824.276 350.407 823.524 349.831L824.844 346.903C825.564 347.431 826.42 347.855 827.412 348.175C828.404 348.495 829.396 348.655 830.388 348.655C831.492 348.655 832.308 348.495 832.836 348.175C833.364 347.839 833.628 347.399 833.628 346.855C833.628 346.455 833.468 346.127 833.148 345.871C832.844 345.599 832.444 345.383 831.948 345.223C831.468 345.063 830.812 344.887 829.98 344.695C828.7 344.391 827.652 344.087 826.836 343.783C826.02 343.479 825.316 342.991 824.724 342.319C824.148 341.647 823.86 340.751 823.86 339.631C823.86 338.655 824.124 337.775 824.652 336.991C825.18 336.191 825.972 335.559 827.028 335.095C828.1 334.631 829.404 334.399 830.94 334.399C832.012 334.399 833.06 334.527 834.084 334.783C835.108 335.039 836.004 335.407 836.772 335.887L835.572 338.839C834.02 337.959 832.468 337.519 830.916 337.519C829.828 337.519 829.02 337.695 828.492 338.047C827.98 338.399 827.724 338.863 827.724 339.439C827.724 340.015 828.02 340.447 828.612 340.735C829.22 341.007 830.14 341.279 831.372 341.551C832.652 341.855 833.7 342.159 834.516 342.463C835.332 342.767 836.028 343.247 836.604 343.903C837.196 344.559 837.492 345.447 837.492 346.567C837.492 347.527 837.22 348.407 836.676 349.207C836.148 349.991 835.348 350.615 834.276 351.079C833.204 351.543 831.9 351.775 830.364 351.775Z" fill="url(#paint44_linear)"/>
<path d="M841.349 334.687H845.237V351.487H841.349V334.687Z" fill="url(#paint45_linear)"/>
<path d="M861.776 342.823H865.328V349.639C864.416 350.327 863.36 350.855 862.16 351.223C860.96 351.591 859.752 351.775 858.536 351.775C856.792 351.775 855.224 351.407 853.832 350.671C852.44 349.919 851.344 348.887 850.544 347.575C849.76 346.247 849.368 344.751 849.368 343.087C849.368 341.423 849.76 339.935 850.544 338.623C851.344 337.295 852.448 336.263 853.856 335.527C855.264 334.775 856.848 334.399 858.608 334.399C860.08 334.399 861.416 334.647 862.616 335.143C863.816 335.639 864.824 336.359 865.64 337.303L863.144 339.607C861.944 338.343 860.496 337.711 858.8 337.711C857.728 337.711 856.776 337.935 855.944 338.383C855.112 338.831 854.464 339.463 854 340.279C853.536 341.095 853.304 342.031 853.304 343.087C853.304 344.127 853.536 345.055 854 345.871C854.464 346.687 855.104 347.327 855.92 347.791C856.752 348.239 857.696 348.463 858.752 348.463C859.872 348.463 860.88 348.223 861.776 347.743V342.823Z" fill="url(#paint46_linear)"/>
<path d="M885.548 334.687V351.487H882.356L873.98 341.287V351.487H870.14V334.687H873.356L881.708 344.887V334.687H885.548Z" fill="url(#paint47_linear)"/>
<path d="M904.239 351.775C902.911 351.775 901.623 351.599 900.375 351.247C899.143 350.879 898.151 350.407 897.399 349.831L898.719 346.903C899.439 347.431 900.295 347.855 901.287 348.175C902.279 348.495 903.271 348.655 904.263 348.655C905.367 348.655 906.183 348.495 906.711 348.175C907.239 347.839 907.503 347.399 907.503 346.855C907.503 346.455 907.343 346.127 907.023 345.871C906.719 345.599 906.319 345.383 905.823 345.223C905.343 345.063 904.687 344.887 903.855 344.695C902.575 344.391 901.527 344.087 900.711 343.783C899.895 343.479 899.191 342.991 898.599 342.319C898.023 341.647 897.735 340.751 897.735 339.631C897.735 338.655 897.999 337.775 898.527 336.991C899.055 336.191 899.847 335.559 900.903 335.095C901.975 334.631 903.279 334.399 904.815 334.399C905.887 334.399 906.935 334.527 907.959 334.783C908.983 335.039 909.879 335.407 910.647 335.887L909.447 338.839C907.895 337.959 906.343 337.519 904.791 337.519C903.703 337.519 902.895 337.695 902.367 338.047C901.855 338.399 901.599 338.863 901.599 339.439C901.599 340.015 901.895 340.447 902.487 340.735C903.095 341.007 904.015 341.279 905.247 341.551C906.527 341.855 907.575 342.159 908.391 342.463C909.207 342.767 909.903 343.247 910.479 343.903C911.071 344.559 911.367 345.447 911.367 346.567C911.367 347.527 911.095 348.407 910.551 349.207C910.023 349.991 909.223 350.615 908.151 351.079C907.079 351.543 905.775 351.775 904.239 351.775Z" fill="url(#paint48_linear)"/>
<path d="M922.936 345.535V351.487H919.048V345.487L912.544 334.687H916.672L921.16 342.151L925.648 334.687H929.464L922.936 345.535Z" fill="url(#paint49_linear)"/>
<path d="M937.46 351.775C936.132 351.775 934.844 351.599 933.596 351.247C932.364 350.879 931.372 350.407 930.62 349.831L931.94 346.903C932.66 347.431 933.516 347.855 934.508 348.175C935.5 348.495 936.492 348.655 937.484 348.655C938.588 348.655 939.404 348.495 939.932 348.175C940.46 347.839 940.724 347.399 940.724 346.855C940.724 346.455 940.564 346.127 940.244 345.871C939.94 345.599 939.54 345.383 939.044 345.223C938.564 345.063 937.908 344.887 937.076 344.695C935.796 344.391 934.748 344.087 933.932 343.783C933.116 343.479 932.412 342.991 931.82 342.319C931.244 341.647 930.956 340.751 930.956 339.631C930.956 338.655 931.22 337.775 931.748 336.991C932.276 336.191 933.068 335.559 934.124 335.095C935.196 334.631 936.5 334.399 938.036 334.399C939.108 334.399 940.156 334.527 941.18 334.783C942.204 335.039 943.1 335.407 943.868 335.887L942.668 338.839C941.116 337.959 939.564 337.519 938.012 337.519C936.924 337.519 936.116 337.695 935.588 338.047C935.076 338.399 934.82 338.863 934.82 339.439C934.82 340.015 935.116 340.447 935.708 340.735C936.316 341.007 937.236 341.279 938.468 341.551C939.748 341.855 940.796 342.159 941.612 342.463C942.428 342.767 943.124 343.247 943.7 343.903C944.292 344.559 944.588 345.447 944.588 346.567C944.588 347.527 944.316 348.407 943.772 349.207C943.244 349.991 942.444 350.615 941.372 351.079C940.3 351.543 938.996 351.775 937.46 351.775Z" fill="url(#paint50_linear)"/>
<path d="M951.69 337.855H946.314V334.687H960.954V337.855H955.578V351.487H951.69V337.855Z" fill="url(#paint51_linear)"/>
<path d="M977.254 348.367V351.487H964.246V334.687H976.942V337.807H968.11V341.455H975.91V344.479H968.11V348.367H977.254Z" fill="url(#paint52_linear)"/>
<path d="M996.835 351.487L996.811 341.407L991.867 349.711H990.115L985.195 341.623V351.487H981.547V334.687H984.763L991.051 345.127L997.243 334.687H1000.44L1000.48 351.487H996.835Z" fill="url(#paint53_linear)"/>
<path d="M839.094 363.687L833.598 380.487H829.422L825.726 369.111L821.91 380.487H817.758L812.238 363.687H816.27L820.062 375.495L824.022 363.687H827.622L831.462 375.591L835.374 363.687H839.094Z" fill="url(#paint54_linear)"/>
<path d="M850.39 380.775C848.646 380.775 847.07 380.399 845.662 379.647C844.27 378.895 843.174 377.863 842.374 376.551C841.59 375.223 841.198 373.735 841.198 372.087C841.198 370.439 841.59 368.959 842.374 367.647C843.174 366.319 844.27 365.279 845.662 364.527C847.07 363.775 848.646 363.399 850.39 363.399C852.134 363.399 853.702 363.775 855.094 364.527C856.486 365.279 857.582 366.319 858.382 367.647C859.182 368.959 859.582 370.439 859.582 372.087C859.582 373.735 859.182 375.223 858.382 376.551C857.582 377.863 856.486 378.895 855.094 379.647C853.702 380.399 852.134 380.775 850.39 380.775ZM850.39 377.463C851.382 377.463 852.278 377.239 853.078 376.791C853.878 376.327 854.502 375.687 854.95 374.871C855.414 374.055 855.646 373.127 855.646 372.087C855.646 371.047 855.414 370.119 854.95 369.303C854.502 368.487 853.878 367.855 853.078 367.407C852.278 366.943 851.382 366.711 850.39 366.711C849.398 366.711 848.502 366.943 847.702 367.407C846.902 367.855 846.27 368.487 845.806 369.303C845.358 370.119 845.134 371.047 845.134 372.087C845.134 373.127 845.358 374.055 845.806 374.871C846.27 375.687 846.902 376.327 847.702 376.791C848.502 377.239 849.398 377.463 850.39 377.463Z" fill="url(#paint55_linear)"/>
<path d="M874.408 380.487L871.168 375.807H867.592V380.487H863.704V363.687H870.976C872.464 363.687 873.752 363.935 874.84 364.431C875.944 364.927 876.792 365.631 877.384 366.543C877.976 367.455 878.272 368.535 878.272 369.783C878.272 371.031 877.968 372.111 877.36 373.023C876.768 373.919 875.92 374.607 874.816 375.087L878.584 380.487H874.408ZM874.336 369.783C874.336 368.839 874.032 368.119 873.424 367.623C872.816 367.111 871.928 366.855 870.76 366.855H867.592V372.711H870.76C871.928 372.711 872.816 372.455 873.424 371.943C874.032 371.431 874.336 370.711 874.336 369.783Z" fill="url(#paint56_linear)"/>
<path d="M888.672 373.887L886.416 376.239V380.487H882.552V363.687H886.416V371.535L893.856 363.687H898.176L891.216 371.175L898.584 380.487H894.048L888.672 373.887Z" fill="url(#paint57_linear)"/>
<path d="M906.686 380.775C905.358 380.775 904.07 380.599 902.822 380.247C901.59 379.879 900.598 379.407 899.846 378.831L901.166 375.903C901.886 376.431 902.742 376.855 903.734 377.175C904.726 377.495 905.718 377.655 906.71 377.655C907.814 377.655 908.63 377.495 909.158 377.175C909.686 376.839 909.95 376.399 909.95 375.855C909.95 375.455 909.79 375.127 909.47 374.871C909.166 374.599 908.766 374.383 908.27 374.223C907.79 374.063 907.134 373.887 906.302 373.695C905.022 373.391 903.974 373.087 903.158 372.783C902.342 372.479 901.638 371.991 901.046 371.319C900.47 370.647 900.182 369.751 900.182 368.631C900.182 367.655 900.446 366.775 900.974 365.991C901.502 365.191 902.294 364.559 903.35 364.095C904.422 363.631 905.726 363.399 907.262 363.399C908.334 363.399 909.382 363.527 910.406 363.783C911.43 364.039 912.326 364.407 913.094 364.887L911.894 367.839C910.342 366.959 908.79 366.519 907.238 366.519C906.15 366.519 905.342 366.695 904.814 367.047C904.302 367.399 904.046 367.863 904.046 368.439C904.046 369.015 904.342 369.447 904.934 369.735C905.542 370.007 906.462 370.279 907.694 370.551C908.974 370.855 910.022 371.159 910.838 371.463C911.654 371.767 912.35 372.247 912.926 372.903C913.518 373.559 913.814 374.447 913.814 375.567C913.814 376.527 913.542 377.407 912.998 378.207C912.47 378.991 911.67 379.615 910.598 380.079C909.526 380.543 908.222 380.775 906.686 380.775Z" fill="url(#paint58_linear)"/>
<path d="M933.079 363.687V380.487H929.191V373.599H921.559V380.487H917.671V363.687H921.559V370.311H929.191V363.687H933.079Z" fill="url(#paint59_linear)"/>
<path d="M946.39 380.775C944.646 380.775 943.07 380.399 941.662 379.647C940.27 378.895 939.174 377.863 938.374 376.551C937.59 375.223 937.198 373.735 937.198 372.087C937.198 370.439 937.59 368.959 938.374 367.647C939.174 366.319 940.27 365.279 941.662 364.527C943.07 363.775 944.646 363.399 946.39 363.399C948.134 363.399 949.702 363.775 951.094 364.527C952.486 365.279 953.582 366.319 954.382 367.647C955.182 368.959 955.582 370.439 955.582 372.087C955.582 373.735 955.182 375.223 954.382 376.551C953.582 377.863 952.486 378.895 951.094 379.647C949.702 380.399 948.134 380.775 946.39 380.775ZM946.39 377.463C947.382 377.463 948.278 377.239 949.078 376.791C949.878 376.327 950.502 375.687 950.95 374.871C951.414 374.055 951.646 373.127 951.646 372.087C951.646 371.047 951.414 370.119 950.95 369.303C950.502 368.487 949.878 367.855 949.078 367.407C948.278 366.943 947.382 366.711 946.39 366.711C945.398 366.711 944.502 366.943 943.702 367.407C942.902 367.855 942.27 368.487 941.806 369.303C941.358 370.119 941.134 371.047 941.134 372.087C941.134 373.127 941.358 374.055 941.806 374.871C942.27 375.687 942.902 376.327 943.702 376.791C944.502 377.239 945.398 377.463 946.39 377.463Z" fill="url(#paint60_linear)"/>
<path d="M966.976 363.687C968.464 363.687 969.752 363.935 970.84 364.431C971.944 364.927 972.792 365.631 973.384 366.543C973.976 367.455 974.272 368.535 974.272 369.783C974.272 371.015 973.976 372.095 973.384 373.023C972.792 373.935 971.944 374.639 970.84 375.135C969.752 375.615 968.464 375.855 966.976 375.855H963.592V380.487H959.704V363.687H966.976ZM966.76 372.687C967.928 372.687 968.816 372.439 969.424 371.943C970.032 371.431 970.336 370.711 970.336 369.783C970.336 368.839 970.032 368.119 969.424 367.623C968.816 367.111 967.928 366.855 966.76 366.855H963.592V372.687H966.76Z" fill="url(#paint61_linear)"/>
<path d="M858.602 545.987L855.362 541.307H851.786V545.987H847.898V529.187H855.17C856.658 529.187 857.946 529.435 859.034 529.931C860.138 530.427 860.986 531.131 861.578 532.043C862.17 532.955 862.466 534.035 862.466 535.283C862.466 536.531 862.162 537.611 861.554 538.523C860.962 539.419 860.114 540.107 859.01 540.587L862.778 545.987H858.602ZM858.53 535.283C858.53 534.339 858.226 533.619 857.618 533.123C857.01 532.611 856.122 532.355 854.954 532.355H851.786V538.211H854.954C856.122 538.211 857.01 537.955 857.618 537.443C858.226 536.931 858.53 536.211 858.53 535.283Z" fill="white"/>
<path d="M874.019 529.187C875.507 529.187 876.795 529.435 877.883 529.931C878.987 530.427 879.835 531.131 880.427 532.043C881.019 532.955 881.315 534.035 881.315 535.283C881.315 536.515 881.019 537.595 880.427 538.523C879.835 539.435 878.987 540.139 877.883 540.635C876.795 541.115 875.507 541.355 874.019 541.355H870.635V545.987H866.747V529.187H874.019ZM873.803 538.187C874.971 538.187 875.859 537.939 876.467 537.443C877.075 536.931 877.379 536.211 877.379 535.283C877.379 534.339 877.075 533.619 876.467 533.123C875.859 532.611 874.971 532.355 873.803 532.355H870.635V538.187H873.803Z" fill="white"/>
<path d="M905.018 542.819V545.987H892.322V543.467L898.802 537.347C899.49 536.691 899.954 536.131 900.194 535.667C900.434 535.187 900.554 534.715 900.554 534.251C900.554 533.579 900.322 533.067 899.858 532.715C899.41 532.347 898.746 532.163 897.866 532.163C897.13 532.163 896.466 532.307 895.874 532.595C895.282 532.867 894.786 533.283 894.386 533.843L891.554 532.019C892.21 531.043 893.114 530.283 894.266 529.739C895.418 529.179 896.738 528.899 898.226 528.899C899.474 528.899 900.562 529.107 901.49 529.523C902.434 529.923 903.162 530.499 903.674 531.251C904.202 531.987 904.466 532.859 904.466 533.867C904.466 534.779 904.274 535.635 903.89 536.435C903.506 537.235 902.762 538.147 901.658 539.171L897.794 542.819H905.018Z" fill="white"/>
<path d="M914.975 546.275C913.583 546.275 912.343 545.931 911.255 545.243C910.167 544.555 909.311 543.563 908.687 542.267C908.079 540.955 907.775 539.395 907.775 537.587C907.775 535.779 908.079 534.227 908.687 532.931C909.311 531.619 910.167 530.619 911.255 529.931C912.343 529.243 913.583 528.899 914.975 528.899C916.367 528.899 917.607 529.243 918.695 529.931C919.783 530.619 920.631 531.619 921.239 532.931C921.863 534.227 922.175 535.779 922.175 537.587C922.175 539.395 921.863 540.955 921.239 542.267C920.631 543.563 919.783 544.555 918.695 545.243C917.607 545.931 916.367 546.275 914.975 546.275ZM914.975 542.987C915.999 542.987 916.799 542.547 917.375 541.667C917.967 540.787 918.263 539.427 918.263 537.587C918.263 535.747 917.967 534.387 917.375 533.507C916.799 532.627 915.999 532.187 914.975 532.187C913.967 532.187 913.167 532.627 912.575 533.507C911.999 534.387 911.711 535.747 911.711 537.587C911.711 539.427 911.999 540.787 912.575 541.667C913.167 542.547 913.967 542.987 914.975 542.987Z" fill="white"/>
<path d="M932.44 539.387L930.184 541.739V545.987H926.32V529.187H930.184V537.035L937.624 529.187H941.944L934.984 536.675L942.352 545.987H937.816L932.44 539.387Z" fill="white"/>
<path d="M1034 191.487L1034 141.487L426 141.487L426 191.487" stroke="#2A9CBE" stroke-width="4"/>
<path d="M622.069 116.064C622.069 117.12 622.381 117.968 623.005 118.608C623.629 119.248 624.421 119.568 625.381 119.568C626.325 119.568 627.085 119.256 627.661 118.632C628.253 117.992 628.549 117.136 628.549 116.064V106.176H632.941V116.064C632.941 117.52 632.629 118.8 632.005 119.904C631.397 120.992 630.517 121.832 629.365 122.424C628.229 123.016 626.893 123.312 625.357 123.312C623.821 123.312 622.469 123.016 621.301 122.424C620.149 121.832 619.253 120.992 618.613 119.904C617.989 118.8 617.677 117.52 617.677 116.064V106.176H622.069V116.064Z" fill="#2A9CBE"/>
<path d="M635.989 106.176H641.101L644.245 110.952L647.413 106.176H652.597L647.053 114.216L653.077 123H647.821L644.245 117.792L640.741 123H635.605L641.581 114.432L635.989 106.176Z" fill="#2A9CBE"/>
<path d="M670.573 106.176C671.837 106.176 672.933 106.352 673.861 106.704C674.805 107.04 675.533 107.528 676.045 108.168C676.557 108.808 676.813 109.56 676.813 110.424C676.813 111.304 676.549 112.072 676.021 112.728C675.509 113.384 674.805 113.832 673.909 114.072C674.981 114.28 675.821 114.768 676.429 115.536C677.053 116.304 677.365 117.232 677.365 118.32C677.365 119.264 677.101 120.096 676.573 120.816C676.045 121.52 675.293 122.064 674.317 122.448C673.341 122.816 672.197 123 670.885 123H662.581V106.176H670.573ZM670.333 112.872C670.941 112.872 671.421 112.728 671.773 112.44C672.125 112.136 672.301 111.72 672.301 111.192C672.301 110.68 672.125 110.288 671.773 110.016C671.421 109.728 670.941 109.592 670.333 109.608H666.973V112.872H670.333ZM670.333 119.592C671.101 119.592 671.709 119.432 672.157 119.112C672.605 118.792 672.829 118.344 672.829 117.768C672.829 117.24 672.605 116.824 672.157 116.52C671.709 116.2 671.101 116.048 670.333 116.064H666.973V119.592H670.333Z" fill="#2A9CBE"/>
<path d="M685.064 116.064C685.064 117.12 685.376 117.968 686 118.608C686.624 119.248 687.416 119.568 688.376 119.568C689.32 119.568 690.08 119.256 690.656 118.632C691.248 117.992 691.544 117.136 691.544 116.064V106.176H695.936V116.064C695.936 117.52 695.624 118.8 695 119.904C694.392 120.992 693.512 121.832 692.36 122.424C691.224 123.016 689.888 123.312 688.352 123.312C686.816 123.312 685.464 123.016 684.296 122.424C683.144 121.832 682.248 120.992 681.608 119.904C680.984 118.8 680.672 117.52 680.672 116.064V106.176H685.064V116.064Z" fill="#2A9CBE"/>
<path d="M711.633 106.176H715.713V123H711.873L704.241 112.944V123H700.137V106.176H704.001L711.657 116.304L711.633 106.176Z" fill="#2A9CBE"/>
<path d="M727.452 106.176C729.212 106.176 730.764 106.528 732.108 107.232C733.468 107.936 734.524 108.928 735.276 110.208C736.028 111.472 736.404 112.928 736.404 114.576C736.404 116.224 736.02 117.688 735.252 118.968C734.5 120.248 733.428 121.24 732.036 121.944C730.66 122.648 729.076 123 727.284 123H720.204V106.176H727.452ZM727.572 119.448C728.42 119.448 729.172 119.248 729.828 118.848C730.484 118.448 730.996 117.88 731.364 117.144C731.732 116.408 731.916 115.568 731.916 114.624C731.916 113.664 731.716 112.816 731.316 112.08C730.932 111.344 730.396 110.776 729.708 110.376C729.02 109.96 728.236 109.752 727.356 109.752H724.596V119.448H727.572Z" fill="#2A9CBE"/>
<path d="M739.779 106.176H744.171V119.256H751.299V123H739.779V106.176Z" fill="#2A9CBE"/>
<path d="M754.502 106.176H767.774V109.68H758.894V112.824H766.91V116.304L758.894 116.328V119.496H768.014V123H754.502V106.176Z" fill="#2A9CBE"/>
<path d="M779.714 111.912C780.322 111.912 780.818 112.104 781.202 112.488C781.586 112.872 781.778 113.368 781.778 113.976C781.778 114.584 781.586 115.088 781.202 115.488C780.818 115.872 780.322 116.064 779.714 116.064C779.122 116.064 778.634 115.872 778.25 115.488C777.866 115.088 777.674 114.584 777.674 113.976C777.674 113.368 777.858 112.872 778.226 112.488C778.61 112.104 779.106 111.912 779.714 111.912ZM779.714 119.04C780.322 119.04 780.818 119.232 781.202 119.616C781.586 120 781.778 120.496 781.778 121.104C781.778 121.712 781.586 122.216 781.202 122.616C780.818 123 780.322 123.192 779.714 123.192C779.122 123.192 778.634 123 778.25 122.616C777.866 122.216 777.674 121.712 777.674 121.104C777.674 120.496 777.858 120 778.226 119.616C778.61 119.232 779.106 119.04 779.714 119.04Z" fill="#2A9CBE"/>
<path d="M799.557 113.088C800.917 113.28 802.005 113.784 802.821 114.6C803.653 115.4 804.069 116.432 804.069 117.696C804.069 118.768 803.789 119.72 803.229 120.552C802.669 121.384 801.877 122.032 800.853 122.496C799.829 122.96 798.629 123.192 797.253 123.192C796.021 123.192 794.805 123.008 793.605 122.64C792.421 122.256 791.421 121.752 790.605 121.128L792.237 118.032C792.941 118.624 793.693 119.072 794.493 119.376C795.293 119.68 796.093 119.832 796.893 119.832C797.821 119.832 798.533 119.656 799.029 119.304C799.525 118.936 799.773 118.416 799.773 117.744C799.773 117.072 799.525 116.56 799.029 116.208C798.533 115.856 797.813 115.68 796.869 115.68H794.037V113.28L797.925 109.536H791.493V106.176H803.253V108.72L798.669 112.92L799.557 113.088Z" fill="#2A9CBE"/>
<path d="M814.522 106.032C816.906 106.032 818.738 106.768 820.018 108.24C821.314 109.712 821.962 111.824 821.962 114.576C821.962 117.328 821.314 119.448 820.018 120.936C818.738 122.408 816.906 123.144 814.522 123.144C812.106 123.144 810.25 122.408 808.954 120.936C807.674 119.448 807.034 117.328 807.034 114.576C807.034 111.824 807.674 109.712 808.954 108.24C810.25 106.768 812.106 106.032 814.522 106.032ZM814.522 109.296C813.466 109.296 812.706 109.712 812.242 110.544C811.778 111.36 811.546 112.704 811.546 114.576C811.546 116.464 811.778 117.824 812.242 118.656C812.706 119.472 813.466 119.88 814.522 119.88C815.546 119.88 816.29 119.464 816.754 118.632C817.234 117.8 817.474 116.448 817.474 114.576C817.474 112.704 817.234 111.36 816.754 110.544C816.29 109.712 815.546 109.296 814.522 109.296Z" fill="#2A9CBE"/>
<path d="M841.933 123H836.677L832.261 116.472L830.149 118.824V123H825.757V106.176H830.149V113.472L836.461 106.176H841.549L835.309 113.112L841.933 123Z" fill="#2A9CBE"/>
<path d="M130 617.462V667.462H706V617.462" stroke="#2A9CBE" stroke-width="4"/>
<path d="M304.789 686.1C306.053 686.1 307.149 686.276 308.077 686.628C309.021 686.964 309.749 687.452 310.261 688.092C310.773 688.732 311.029 689.484 311.029 690.348C311.029 691.228 310.765 691.996 310.237 692.652C309.725 693.308 309.021 693.756 308.125 693.996C309.197 694.204 310.037 694.692 310.645 695.46C311.269 696.228 311.581 697.156 311.581 698.244C311.581 699.188 311.317 700.02 310.789 700.74C310.261 701.444 309.509 701.988 308.533 702.372C307.557 702.74 306.413 702.924 305.101 702.924H296.797V686.1H304.789ZM304.549 692.796C305.157 692.796 305.637 692.652 305.989 692.364C306.341 692.06 306.517 691.644 306.517 691.116C306.517 690.604 306.341 690.212 305.989 689.94C305.637 689.652 305.157 689.516 304.549 689.532H301.189V692.796H304.549ZM304.549 699.516C305.317 699.516 305.925 699.356 306.373 699.036C306.821 698.716 307.045 698.268 307.045 697.692C307.045 697.164 306.821 696.748 306.373 696.444C305.925 696.124 305.317 695.972 304.549 695.988H301.189V699.516H304.549Z" fill="#2A9CBE"/>
<path d="M319.281 695.988C319.281 697.044 319.593 697.892 320.217 698.532C320.841 699.172 321.633 699.492 322.593 699.492C323.537 699.492 324.297 699.18 324.873 698.556C325.465 697.916 325.761 697.06 325.761 695.988V686.1H330.153V695.988C330.153 697.444 329.841 698.724 329.217 699.828C328.609 700.916 327.729 701.756 326.577 702.348C325.441 702.94 324.105 703.236 322.569 703.236C321.033 703.236 319.681 702.94 318.513 702.348C317.361 701.756 316.465 700.916 315.825 699.828C315.201 698.724 314.889 697.444 314.889 695.988V686.1H319.281V695.988Z" fill="#2A9CBE"/>
<path d="M345.849 686.1H349.929V702.924H346.089L338.457 692.868V702.924H334.353V686.1H338.217L345.873 696.228L345.849 686.1Z" fill="#2A9CBE"/>
<path d="M361.668 686.1C363.428 686.1 364.98 686.452 366.324 687.156C367.684 687.86 368.74 688.852 369.492 690.132C370.244 691.396 370.62 692.852 370.62 694.5C370.62 696.148 370.236 697.612 369.468 698.892C368.716 700.172 367.644 701.164 366.252 701.868C364.876 702.572 363.292 702.924 361.5 702.924H354.42V686.1H361.668ZM361.788 699.372C362.636 699.372 363.388 699.172 364.044 698.772C364.7 698.372 365.212 697.804 365.58 697.068C365.948 696.332 366.132 695.492 366.132 694.548C366.132 693.588 365.932 692.74 365.532 692.004C365.148 691.268 364.612 690.7 363.924 690.3C363.236 689.884 362.452 689.676 361.572 689.676H358.812V699.372H361.788Z" fill="#2A9CBE"/>
<path d="M373.995 686.1H378.387V699.18H385.515V702.924H373.995V686.1Z" fill="#2A9CBE"/>
<path d="M388.719 686.1H401.991V689.604H393.111V692.748H401.127V696.228L393.111 696.252V699.42H402.231V702.924H388.719V686.1Z" fill="#2A9CBE"/>
<path d="M424.73 699.396V702.924H411.914L411.89 700.02L418.01 693.732C418.49 693.236 418.882 692.74 419.186 692.244C419.49 691.748 419.642 691.324 419.642 690.972C419.642 690.508 419.474 690.156 419.138 689.916C418.802 689.66 418.33 689.532 417.722 689.532C417.05 689.532 416.298 689.724 415.466 690.108C414.65 690.476 413.858 690.996 413.09 691.668L411.41 688.428C413.73 686.748 416.058 685.908 418.394 685.908C419.514 685.908 420.514 686.092 421.394 686.46C422.29 686.828 422.986 687.348 423.482 688.02C423.994 688.692 424.25 689.46 424.25 690.324C424.25 691.188 423.962 692.084 423.386 693.012C422.826 693.924 422.026 694.9 420.986 695.94L417.554 699.396H424.73Z" fill="#2A9CBE"/>
<path d="M436.182 691.836C436.79 691.836 437.286 692.028 437.67 692.412C438.054 692.796 438.246 693.292 438.246 693.9C438.246 694.508 438.054 695.012 437.67 695.412C437.286 695.796 436.79 695.988 436.182 695.988C435.59 695.988 435.102 695.796 434.718 695.412C434.334 695.012 434.142 694.508 434.142 693.9C434.142 693.292 434.326 692.796 434.694 692.412C435.078 692.028 435.574 691.836 436.182 691.836ZM436.182 698.964C436.79 698.964 437.286 699.156 437.67 699.54C438.054 699.924 438.246 700.42 438.246 701.028C438.246 701.636 438.054 702.14 437.67 702.54C437.286 702.924 436.79 703.116 436.182 703.116C435.59 703.116 435.102 702.924 434.718 702.54C434.334 702.14 434.142 701.636 434.142 701.028C434.142 700.42 434.326 699.924 434.694 699.54C435.078 699.156 435.574 698.964 436.182 698.964Z" fill="#2A9CBE"/>
<path d="M456.025 693.012C457.385 693.204 458.473 693.708 459.289 694.524C460.121 695.324 460.537 696.356 460.537 697.62C460.537 698.692 460.257 699.644 459.697 700.476C459.137 701.308 458.345 701.956 457.321 702.42C456.297 702.884 455.097 703.116 453.721 703.116C452.489 703.116 451.273 702.932 450.073 702.564C448.889 702.18 447.889 701.676 447.073 701.052L448.705 697.956C449.409 698.548 450.161 698.996 450.961 699.3C451.761 699.604 452.561 699.756 453.361 699.756C454.289 699.756 455.001 699.58 455.497 699.228C455.993 698.86 456.241 698.34 456.241 697.668C456.241 696.996 455.993 696.484 455.497 696.132C455.001 695.78 454.281 695.604 453.337 695.604H450.505V693.204L454.393 689.46H447.961V686.1H459.721V688.644L455.137 692.844L456.025 693.012Z" fill="#2A9CBE"/>
<path d="M469.766 685.908C471.574 685.908 473.014 686.324 474.086 687.156C475.158 687.972 475.694 689.076 475.694 690.468C475.694 691.172 475.51 691.836 475.142 692.46C474.79 693.068 474.31 693.556 473.702 693.924C474.582 694.324 475.278 694.908 475.79 695.676C476.302 696.428 476.558 697.268 476.558 698.196C476.558 699.188 476.278 700.06 475.718 700.812C475.174 701.548 474.39 702.116 473.366 702.516C472.342 702.916 471.15 703.116 469.79 703.116C468.43 703.116 467.238 702.916 466.214 702.516C465.206 702.116 464.422 701.556 463.862 700.836C463.302 700.1 463.022 699.244 463.022 698.268C463.022 697.324 463.302 696.468 463.862 695.7C464.422 694.916 465.166 694.324 466.094 693.924C465.422 693.524 464.886 693.004 464.486 692.364C464.086 691.724 463.886 691.052 463.886 690.348C463.886 689.452 464.126 688.668 464.606 687.996C465.086 687.324 465.766 686.812 466.646 686.46C467.542 686.092 468.582 685.908 469.766 685.908ZM469.79 688.86C469.07 688.86 468.51 689.02 468.11 689.34C467.726 689.66 467.534 690.116 467.534 690.708C467.534 691.284 467.726 691.732 468.11 692.052C468.51 692.356 469.07 692.508 469.79 692.508C470.526 692.508 471.086 692.356 471.47 692.052C471.854 691.732 472.046 691.284 472.046 690.708C472.046 690.116 471.854 689.66 471.47 689.34C471.086 689.02 470.526 688.86 469.79 688.86ZM469.79 695.724C468.942 695.724 468.286 695.908 467.822 696.276C467.374 696.628 467.15 697.14 467.15 697.812C467.15 698.484 467.374 699.004 467.822 699.372C468.286 699.724 468.942 699.9 469.79 699.9C470.638 699.9 471.294 699.724 471.758 699.372C472.222 699.004 472.454 698.484 472.454 697.812C472.454 697.14 472.222 696.628 471.758 696.276C471.294 695.908 470.638 695.724 469.79 695.724Z" fill="#2A9CBE"/>
<path d="M496.667 702.924H491.411L486.995 696.396L484.883 698.748V702.924H480.491V686.1H484.883V693.396L491.195 686.1H496.283L490.043 693.036L496.667 702.924Z" fill="#2A9CBE"/>
<defs>
<linearGradient id="paint0_linear" x1="186" y1="-60.7481" x2="524.152" y2="-38.5963" gradientUnits="userSpaceOnUse">
<stop stop-color="#2E847B"/>
<stop offset="0.46875" stop-color="#2A9CBE"/>
<stop offset="0.989583" stop-color="#FCC805"/>
</linearGradient>
<linearGradient id="paint1_linear" x1="186" y1="462.781" x2="480.159" y2="578.401" gradientUnits="userSpaceOnUse">
<stop stop-color="#2E847B"/>
<stop offset="0.46875" stop-color="#2A9CBE"/>
<stop offset="0.989583" stop-color="#FCC805"/>
</linearGradient>
<linearGradient id="paint2_linear" x1="214.111" y1="299.862" x2="419.358" y2="370.436" gradientUnits="userSpaceOnUse">
<stop stop-color="#2E847B"/>
<stop offset="0.46875" stop-color="#2A9CBE"/>
<stop offset="0.989583" stop-color="#FCC805"/>
</linearGradient>
<linearGradient id="paint3_linear" x1="214.111" y1="299.862" x2="419.358" y2="370.436" gradientUnits="userSpaceOnUse">
<stop stop-color="#2E847B"/>
<stop offset="0.46875" stop-color="#2A9CBE"/>
<stop offset="0.989583" stop-color="#FCC805"/>
</linearGradient>
<linearGradient id="paint4_linear" x1="214.111" y1="299.862" x2="419.358" y2="370.436" gradientUnits="userSpaceOnUse">
<stop stop-color="#2E847B"/>
<stop offset="0.46875" stop-color="#2A9CBE"/>
<stop offset="0.989583" stop-color="#FCC805"/>
</linearGradient>
<linearGradient id="paint5_linear" x1="214.111" y1="299.862" x2="419.358" y2="370.436" gradientUnits="userSpaceOnUse">
<stop stop-color="#2E847B"/>
<stop offset="0.46875" stop-color="#2A9CBE"/>
<stop offset="0.989583" stop-color="#FCC805"/>
</linearGradient>
<linearGradient id="paint6_linear" x1="214.111" y1="299.862" x2="419.358" y2="370.436" gradientUnits="userSpaceOnUse">
<stop stop-color="#2E847B"/>
<stop offset="0.46875" stop-color="#2A9CBE"/>
<stop offset="0.989583" stop-color="#FCC805"/>
</linearGradient>
<linearGradient id="paint7_linear" x1="214.111" y1="299.862" x2="419.358" y2="370.436" gradientUnits="userSpaceOnUse">
<stop stop-color="#2E847B"/>
<stop offset="0.46875" stop-color="#2A9CBE"/>
<stop offset="0.989583" stop-color="#FCC805"/>
</linearGradient>
<linearGradient id="paint8_linear" x1="214.111" y1="299.862" x2="419.358" y2="370.436" gradientUnits="userSpaceOnUse">
<stop stop-color="#2E847B"/>
<stop offset="0.46875" stop-color="#2A9CBE"/>
<stop offset="0.989583" stop-color="#FCC805"/>
</linearGradient>
<linearGradient id="paint9_linear" x1="214.111" y1="299.862" x2="419.358" y2="370.436" gradientUnits="userSpaceOnUse">
<stop stop-color="#2E847B"/>
<stop offset="0.46875" stop-color="#2A9CBE"/>
<stop offset="0.989583" stop-color="#FCC805"/>
</linearGradient>
<linearGradient id="paint10_linear" x1="214.111" y1="299.862" x2="419.358" y2="370.436" gradientUnits="userSpaceOnUse">
<stop stop-color="#2E847B"/>
<stop offset="0.46875" stop-color="#2A9CBE"/>
<stop offset="0.989583" stop-color="#FCC805"/>
</linearGradient>
<linearGradient id="paint11_linear" x1="214.111" y1="299.862" x2="419.358" y2="370.436" gradientUnits="userSpaceOnUse">
<stop stop-color="#2E847B"/>
<stop offset="0.46875" stop-color="#2A9CBE"/>
<stop offset="0.989583" stop-color="#FCC805"/>
</linearGradient>
<linearGradient id="paint12_linear" x1="214.111" y1="299.862" x2="419.358" y2="370.436" gradientUnits="userSpaceOnUse">
<stop stop-color="#2E847B"/>
<stop offset="0.46875" stop-color="#2A9CBE"/>
<stop offset="0.989583" stop-color="#FCC805"/>
</linearGradient>
<linearGradient id="paint13_linear" x1="214.111" y1="299.862" x2="419.358" y2="370.436" gradientUnits="userSpaceOnUse">
<stop stop-color="#2E847B"/>
<stop offset="0.46875" stop-color="#2A9CBE"/>
<stop offset="0.989583" stop-color="#FCC805"/>
</linearGradient>
<linearGradient id="paint14_linear" x1="214.111" y1="299.862" x2="419.358" y2="370.436" gradientUnits="userSpaceOnUse">
<stop stop-color="#2E847B"/>
<stop offset="0.46875" stop-color="#2A9CBE"/>
<stop offset="0.989583" stop-color="#FCC805"/>
</linearGradient>
<linearGradient id="paint15_linear" x1="214.111" y1="299.862" x2="419.358" y2="370.436" gradientUnits="userSpaceOnUse">
<stop stop-color="#2E847B"/>
<stop offset="0.46875" stop-color="#2A9CBE"/>
<stop offset="0.989583" stop-color="#FCC805"/>
</linearGradient>
<linearGradient id="paint16_linear" x1="214.111" y1="299.862" x2="419.358" y2="370.436" gradientUnits="userSpaceOnUse">
<stop stop-color="#2E847B"/>
<stop offset="0.46875" stop-color="#2A9CBE"/>
<stop offset="0.989583" stop-color="#FCC805"/>
</linearGradient>
<linearGradient id="paint17_linear" x1="214.111" y1="299.862" x2="419.358" y2="370.436" gradientUnits="userSpaceOnUse">
<stop stop-color="#2E847B"/>
<stop offset="0.46875" stop-color="#2A9CBE"/>
<stop offset="0.989583" stop-color="#FCC805"/>
</linearGradient>
<linearGradient id="paint18_linear" x1="214.111" y1="299.862" x2="419.358" y2="370.436" gradientUnits="userSpaceOnUse">
<stop stop-color="#2E847B"/>
<stop offset="0.46875" stop-color="#2A9CBE"/>
<stop offset="0.989583" stop-color="#FCC805"/>
</linearGradient>
<linearGradient id="paint19_linear" x1="214.111" y1="299.862" x2="419.358" y2="370.436" gradientUnits="userSpaceOnUse">
<stop stop-color="#2E847B"/>
<stop offset="0.46875" stop-color="#2A9CBE"/>
<stop offset="0.989583" stop-color="#FCC805"/>
</linearGradient>
<linearGradient id="paint20_linear" x1="214.111" y1="299.862" x2="419.358" y2="370.436" gradientUnits="userSpaceOnUse">
<stop stop-color="#2E847B"/>
<stop offset="0.46875" stop-color="#2A9CBE"/>
<stop offset="0.989583" stop-color="#FCC805"/>
</linearGradient>
<linearGradient id="paint21_linear" x1="482" y1="-60.7481" x2="820.152" y2="-38.5963" gradientUnits="userSpaceOnUse">
<stop stop-color="#2E847B"/>
<stop offset="0.46875" stop-color="#2A9CBE"/>
<stop offset="0.989583" stop-color="#FCC805"/>
</linearGradient>
<linearGradient id="paint22_linear" x1="482" y1="462.781" x2="776.159" y2="578.401" gradientUnits="userSpaceOnUse">
<stop stop-color="#2E847B"/>
<stop offset="0.46875" stop-color="#2A9CBE"/>
<stop offset="0.989583" stop-color="#FCC805"/>
</linearGradient>
<linearGradient id="paint23_linear" x1="509.307" y1="299.845" x2="717.697" y2="372.852" gradientUnits="userSpaceOnUse">
<stop stop-color="#2E847B"/>
<stop offset="0.46875" stop-color="#2A9CBE"/>
<stop offset="0.989583" stop-color="#FCC805"/>
</linearGradient>
<linearGradient id="paint24_linear" x1="509.307" y1="299.845" x2="717.697" y2="372.852" gradientUnits="userSpaceOnUse">
<stop stop-color="#2E847B"/>
<stop offset="0.46875" stop-color="#2A9CBE"/>
<stop offset="0.989583" stop-color="#FCC805"/>
</linearGradient>
<linearGradient id="paint25_linear" x1="509.307" y1="299.845" x2="717.697" y2="372.852" gradientUnits="userSpaceOnUse">
<stop stop-color="#2E847B"/>
<stop offset="0.46875" stop-color="#2A9CBE"/>
<stop offset="0.989583" stop-color="#FCC805"/>
</linearGradient>
<linearGradient id="paint26_linear" x1="509.307" y1="299.845" x2="717.697" y2="372.852" gradientUnits="userSpaceOnUse">
<stop stop-color="#2E847B"/>
<stop offset="0.46875" stop-color="#2A9CBE"/>
<stop offset="0.989583" stop-color="#FCC805"/>
</linearGradient>
<linearGradient id="paint27_linear" x1="509.307" y1="299.845" x2="717.697" y2="372.852" gradientUnits="userSpaceOnUse">
<stop stop-color="#2E847B"/>
<stop offset="0.46875" stop-color="#2A9CBE"/>
<stop offset="0.989583" stop-color="#FCC805"/>
</linearGradient>
<linearGradient id="paint28_linear" x1="509.307" y1="299.845" x2="717.697" y2="372.852" gradientUnits="userSpaceOnUse">
<stop stop-color="#2E847B"/>
<stop offset="0.46875" stop-color="#2A9CBE"/>
<stop offset="0.989583" stop-color="#FCC805"/>
</linearGradient>
<linearGradient id="paint29_linear" x1="509.307" y1="299.845" x2="717.697" y2="372.852" gradientUnits="userSpaceOnUse">
<stop stop-color="#2E847B"/>
<stop offset="0.46875" stop-color="#2A9CBE"/>
<stop offset="0.989583" stop-color="#FCC805"/>
</linearGradient>
<linearGradient id="paint30_linear" x1="509.307" y1="299.845" x2="717.697" y2="372.852" gradientUnits="userSpaceOnUse">
<stop stop-color="#2E847B"/>
<stop offset="0.46875" stop-color="#2A9CBE"/>
<stop offset="0.989583" stop-color="#FCC805"/>
</linearGradient>
<linearGradient id="paint31_linear" x1="509.307" y1="299.845" x2="717.697" y2="372.852" gradientUnits="userSpaceOnUse">
<stop stop-color="#2E847B"/>
<stop offset="0.46875" stop-color="#2A9CBE"/>
<stop offset="0.989583" stop-color="#FCC805"/>
</linearGradient>
<linearGradient id="paint32_linear" x1="509.307" y1="299.845" x2="717.697" y2="372.852" gradientUnits="userSpaceOnUse">
<stop stop-color="#2E847B"/>
<stop offset="0.46875" stop-color="#2A9CBE"/>
<stop offset="0.989583" stop-color="#FCC805"/>
</linearGradient>
<linearGradient id="paint33_linear" x1="509.307" y1="299.845" x2="717.697" y2="372.852" gradientUnits="userSpaceOnUse">
<stop stop-color="#2E847B"/>
<stop offset="0.46875" stop-color="#2A9CBE"/>
<stop offset="0.989583" stop-color="#FCC805"/>
</linearGradient>
<linearGradient id="paint34_linear" x1="509.307" y1="299.845" x2="717.697" y2="372.852" gradientUnits="userSpaceOnUse">
<stop stop-color="#2E847B"/>
<stop offset="0.46875" stop-color="#2A9CBE"/>
<stop offset="0.989583" stop-color="#FCC805"/>
</linearGradient>
<linearGradient id="paint35_linear" x1="509.307" y1="299.845" x2="717.697" y2="372.852" gradientUnits="userSpaceOnUse">
<stop stop-color="#2E847B"/>
<stop offset="0.46875" stop-color="#2A9CBE"/>
<stop offset="0.989583" stop-color="#FCC805"/>
</linearGradient>
<linearGradient id="paint36_linear" x1="509.307" y1="299.845" x2="717.697" y2="372.852" gradientUnits="userSpaceOnUse">
<stop stop-color="#2E847B"/>
<stop offset="0.46875" stop-color="#2A9CBE"/>
<stop offset="0.989583" stop-color="#FCC805"/>
</linearGradient>
<linearGradient id="paint37_linear" x1="509.307" y1="299.845" x2="717.697" y2="372.852" gradientUnits="userSpaceOnUse">
<stop stop-color="#2E847B"/>
<stop offset="0.46875" stop-color="#2A9CBE"/>
<stop offset="0.989583" stop-color="#FCC805"/>
</linearGradient>
<linearGradient id="paint38_linear" x1="509.307" y1="299.845" x2="717.697" y2="372.852" gradientUnits="userSpaceOnUse">
<stop stop-color="#2E847B"/>
<stop offset="0.46875" stop-color="#2A9CBE"/>
<stop offset="0.989583" stop-color="#FCC805"/>
</linearGradient>
<linearGradient id="paint39_linear" x1="509.307" y1="299.845" x2="717.697" y2="372.852" gradientUnits="userSpaceOnUse">
<stop stop-color="#2E847B"/>
<stop offset="0.46875" stop-color="#2A9CBE"/>
<stop offset="0.989583" stop-color="#FCC805"/>
</linearGradient>
<linearGradient id="paint40_linear" x1="810" y1="-60.7481" x2="1148.15" y2="-38.5963" gradientUnits="userSpaceOnUse">
<stop stop-color="#2E847B"/>
<stop offset="0.46875" stop-color="#2A9CBE"/>
<stop offset="0.989583" stop-color="#FCC805"/>
</linearGradient>
<linearGradient id="paint41_linear" x1="810" y1="462.781" x2="1104.16" y2="578.401" gradientUnits="userSpaceOnUse">
<stop stop-color="#2E847B"/>
<stop offset="0.46875" stop-color="#2A9CBE"/>
<stop offset="0.989583" stop-color="#FCC805"/>
</linearGradient>
<linearGradient id="paint42_linear" x1="829.308" y1="299.845" x2="1054.78" y2="387.461" gradientUnits="userSpaceOnUse">
<stop stop-color="#2E847B"/>
<stop offset="0.46875" stop-color="#2A9CBE"/>
<stop offset="0.989583" stop-color="#FCC805"/>
</linearGradient>
<linearGradient id="paint43_linear" x1="829.308" y1="299.845" x2="1054.78" y2="387.461" gradientUnits="userSpaceOnUse">
<stop stop-color="#2E847B"/>
<stop offset="0.46875" stop-color="#2A9CBE"/>
<stop offset="0.989583" stop-color="#FCC805"/>
</linearGradient>
<linearGradient id="paint44_linear" x1="829.308" y1="299.845" x2="1054.78" y2="387.461" gradientUnits="userSpaceOnUse">
<stop stop-color="#2E847B"/>
<stop offset="0.46875" stop-color="#2A9CBE"/>
<stop offset="0.989583" stop-color="#FCC805"/>
</linearGradient>
<linearGradient id="paint45_linear" x1="829.308" y1="299.845" x2="1054.78" y2="387.461" gradientUnits="userSpaceOnUse">
<stop stop-color="#2E847B"/>
<stop offset="0.46875" stop-color="#2A9CBE"/>
<stop offset="0.989583" stop-color="#FCC805"/>
</linearGradient>
<linearGradient id="paint46_linear" x1="829.308" y1="299.845" x2="1054.78" y2="387.461" gradientUnits="userSpaceOnUse">
<stop stop-color="#2E847B"/>
<stop offset="0.46875" stop-color="#2A9CBE"/>
<stop offset="0.989583" stop-color="#FCC805"/>
</linearGradient>
<linearGradient id="paint47_linear" x1="829.308" y1="299.845" x2="1054.78" y2="387.461" gradientUnits="userSpaceOnUse">
<stop stop-color="#2E847B"/>
<stop offset="0.46875" stop-color="#2A9CBE"/>
<stop offset="0.989583" stop-color="#FCC805"/>
</linearGradient>
<linearGradient id="paint48_linear" x1="829.308" y1="299.845" x2="1054.78" y2="387.461" gradientUnits="userSpaceOnUse">
<stop stop-color="#2E847B"/>
<stop offset="0.46875" stop-color="#2A9CBE"/>
<stop offset="0.989583" stop-color="#FCC805"/>
</linearGradient>
<linearGradient id="paint49_linear" x1="829.308" y1="299.845" x2="1054.78" y2="387.461" gradientUnits="userSpaceOnUse">
<stop stop-color="#2E847B"/>
<stop offset="0.46875" stop-color="#2A9CBE"/>
<stop offset="0.989583" stop-color="#FCC805"/>
</linearGradient>
<linearGradient id="paint50_linear" x1="829.308" y1="299.845" x2="1054.78" y2="387.461" gradientUnits="userSpaceOnUse">
<stop stop-color="#2E847B"/>
<stop offset="0.46875" stop-color="#2A9CBE"/>
<stop offset="0.989583" stop-color="#FCC805"/>
</linearGradient>
<linearGradient id="paint51_linear" x1="829.308" y1="299.845" x2="1054.78" y2="387.461" gradientUnits="userSpaceOnUse">
<stop stop-color="#2E847B"/>
<stop offset="0.46875" stop-color="#2A9CBE"/>
<stop offset="0.989583" stop-color="#FCC805"/>
</linearGradient>
<linearGradient id="paint52_linear" x1="829.308" y1="299.845" x2="1054.78" y2="387.461" gradientUnits="userSpaceOnUse">
<stop stop-color="#2E847B"/>
<stop offset="0.46875" stop-color="#2A9CBE"/>
<stop offset="0.989583" stop-color="#FCC805"/>
</linearGradient>
<linearGradient id="paint53_linear" x1="829.308" y1="299.845" x2="1054.78" y2="387.461" gradientUnits="userSpaceOnUse">
<stop stop-color="#2E847B"/>
<stop offset="0.46875" stop-color="#2A9CBE"/>
<stop offset="0.989583" stop-color="#FCC805"/>
</linearGradient>
<linearGradient id="paint54_linear" x1="829.308" y1="299.845" x2="1054.78" y2="387.461" gradientUnits="userSpaceOnUse">
<stop stop-color="#2E847B"/>
<stop offset="0.46875" stop-color="#2A9CBE"/>
<stop offset="0.989583" stop-color="#FCC805"/>
</linearGradient>
<linearGradient id="paint55_linear" x1="829.308" y1="299.845" x2="1054.78" y2="387.461" gradientUnits="userSpaceOnUse">
<stop stop-color="#2E847B"/>
<stop offset="0.46875" stop-color="#2A9CBE"/>
<stop offset="0.989583" stop-color="#FCC805"/>
</linearGradient>
<linearGradient id="paint56_linear" x1="829.308" y1="299.845" x2="1054.78" y2="387.461" gradientUnits="userSpaceOnUse">
<stop stop-color="#2E847B"/>
<stop offset="0.46875" stop-color="#2A9CBE"/>
<stop offset="0.989583" stop-color="#FCC805"/>
</linearGradient>
<linearGradient id="paint57_linear" x1="829.308" y1="299.845" x2="1054.78" y2="387.461" gradientUnits="userSpaceOnUse">
<stop stop-color="#2E847B"/>
<stop offset="0.46875" stop-color="#2A9CBE"/>
<stop offset="0.989583" stop-color="#FCC805"/>
</linearGradient>
<linearGradient id="paint58_linear" x1="829.308" y1="299.845" x2="1054.78" y2="387.461" gradientUnits="userSpaceOnUse">
<stop stop-color="#2E847B"/>
<stop offset="0.46875" stop-color="#2A9CBE"/>
<stop offset="0.989583" stop-color="#FCC805"/>
</linearGradient>
<linearGradient id="paint59_linear" x1="829.308" y1="299.845" x2="1054.78" y2="387.461" gradientUnits="userSpaceOnUse">
<stop stop-color="#2E847B"/>
<stop offset="0.46875" stop-color="#2A9CBE"/>
<stop offset="0.989583" stop-color="#FCC805"/>
</linearGradient>
<linearGradient id="paint60_linear" x1="829.308" y1="299.845" x2="1054.78" y2="387.461" gradientUnits="userSpaceOnUse">
<stop stop-color="#2E847B"/>
<stop offset="0.46875" stop-color="#2A9CBE"/>
<stop offset="0.989583" stop-color="#FCC805"/>
</linearGradient>
<linearGradient id="paint61_linear" x1="829.308" y1="299.845" x2="1054.78" y2="387.461" gradientUnits="userSpaceOnUse">
<stop stop-color="#2E847B"/>
<stop offset="0.46875" stop-color="#2A9CBE"/>
<stop offset="0.989583" stop-color="#FCC805"/>
</linearGradient>
</defs>
</svg>
